<svg width="22" height="22" viewBox="0 0 22 22" fill="none" xmlns="http://www.w3.org/2000/svg">
<g clip-path="url(#clip0_688_962)">
<path d="M21.9535 3.0526C21.9535 2.09721 21.6811 1.34115 21.1441 0.805863C18.9885 -1.34174 13.3209 0.941873 8.23921 6.00647C8.05457 6.19054 7.8858 6.38675 7.72351 6.58783C7.67024 6.56581 7.60894 6.54612 7.53845 6.52972C6.07491 6.18769 1.37776 6.98563 0.0103631 12.4486C-0.0248272 12.5886 0.0314591 12.7353 0.151037 12.816C0.209008 12.8556 0.276004 12.875 0.342993 12.875C0.413656 12.875 0.484353 12.8532 0.544313 12.8097C2.40027 11.4634 3.8892 10.9219 5.18895 11.1212C5.09925 11.2838 5.00821 11.4424 4.91419 11.594C4.83008 11.7297 4.85052 11.9052 4.96342 12.0178L5.50165 12.5542L4.49412 13.558C4.42946 13.6223 4.39327 13.7097 4.39327 13.8009C4.39327 13.892 4.42946 13.9794 4.49412 14.0438L7.86574 17.4043C7.93272 17.471 8.02013 17.5044 8.10791 17.5044C8.19569 17.5044 8.28312 17.471 8.35011 17.4043L9.35898 16.3987L9.89873 16.9367C9.96507 17.0026 10.0525 17.0368 10.1409 17.0368C10.2029 17.0368 10.2652 17.0201 10.3208 16.9859C10.4626 16.8985 10.6097 16.8135 10.7612 16.73C10.9844 18.0362 10.4436 19.5346 9.07568 21.408C8.99061 21.5246 8.98759 21.682 9.06796 21.8016C9.13262 21.8981 9.24016 21.9534 9.3527 21.9534C9.38018 21.9534 9.40797 21.95 9.43544 21.9433C14.9034 20.5836 15.7114 15.9029 15.3744 14.443C15.3538 14.3539 15.3268 14.2838 15.2976 14.2216C15.5156 14.0493 15.728 13.8694 15.9264 13.6716C19.5878 10.0226 21.9535 5.85407 21.9535 3.0526ZM5.5081 10.4788C4.16983 10.1968 2.69925 10.5891 0.952991 11.7009C1.81189 9.31747 3.37628 8.19157 4.60365 7.66129C5.52384 7.264 6.3613 7.15279 6.89727 7.15279C7.041 7.15279 7.16257 7.16082 7.25872 7.17323L5.5081 10.4788ZM8.10791 16.677L5.22236 13.8009L5.98747 13.0388L8.48039 15.5231L8.87302 15.9143L8.10791 16.677ZM14.2468 17.3477C13.7162 18.5767 12.586 20.1428 10.1865 21.0014C11.3 19.2624 11.6936 17.7979 11.4112 16.4633L14.7295 14.7174C14.7891 15.1683 14.7456 16.192 14.2468 17.3477ZM11.8992 15.3897C11.296 15.6801 10.7214 15.9562 10.1942 16.2623L5.63807 11.7216C5.88412 11.3003 6.11158 10.8428 6.34195 10.3701L7.7349 7.74015C8.02644 7.28887 8.34943 6.8652 8.7236 6.4922C13.3725 1.85871 18.8378 -0.5227 20.6597 1.29158C21.0631 1.69357 21.2674 2.28615 21.2674 3.0526C21.2674 5.64067 18.9262 9.71308 15.4421 13.1858C14.4716 14.1529 13.1638 14.7817 11.8992 15.3897Z" fill="white"/>
<path d="M14.6571 4.40933C14.2662 4.79825 14.0508 5.3158 14.0508 5.86649C14.0508 6.41756 14.2662 6.93511 14.6571 7.32403C15.0601 7.72499 15.5894 7.92566 16.1186 7.92566C16.6479 7.92566 17.1772 7.72499 17.5798 7.32403C17.9708 6.93511 18.1858 6.41756 18.1858 5.86649C18.1858 5.3158 17.9708 4.79825 17.5798 4.40933C16.7746 3.60737 15.4631 3.60737 14.6571 4.40933ZM17.0961 6.83762C16.5568 7.37425 15.6801 7.37425 15.1408 6.83762C14.8806 6.57833 14.7368 6.23363 14.7368 5.86649C14.7368 5.4997 14.8806 5.15499 15.1408 4.8957C15.4105 4.62739 15.7646 4.4934 16.1186 4.4934C16.4727 4.4934 16.8265 4.62739 17.0961 4.8957C17.3564 5.15499 17.4998 5.4997 17.4998 5.86649C17.4998 6.23363 17.3564 6.57833 17.0961 6.83762Z" fill="white"/>
<path d="M5.64724 16.1726C5.5136 16.0383 5.29654 16.0383 5.16221 16.172L1.73366 19.5891C1.59964 19.7228 1.59899 19.9398 1.73297 20.0742C1.79996 20.1415 1.88774 20.175 1.97584 20.175C2.06327 20.175 2.15105 20.1415 2.21804 20.0748L5.64659 16.6577C5.78058 16.524 5.78126 16.3069 5.64724 16.1726Z" fill="white"/>
<path d="M1.9601 17.8284C2.04753 17.8284 2.13528 17.7949 2.20231 17.7283L4.46009 15.4779C4.59407 15.3442 4.59441 15.1271 4.46073 14.9928C4.32709 14.8585 4.11003 14.8581 3.9757 14.9921L1.71789 17.2426C1.5839 17.3762 1.58356 17.5933 1.71723 17.7276C1.78423 17.7949 1.87201 17.8284 1.9601 17.8284Z" fill="white"/>
<path d="M6.34676 17.3515L4.08898 19.6019C3.955 19.7356 3.95465 19.9527 4.08833 20.087C4.15532 20.1543 4.24307 20.1878 4.33119 20.1878C4.41859 20.1878 4.50637 20.1543 4.57336 20.0877L6.83118 17.8373C6.96517 17.7036 6.96551 17.4865 6.83183 17.3522C6.69819 17.2179 6.48109 17.2175 6.34676 17.3515Z" fill="white"/>
</g>
<defs>
<clipPath id="clip0_688_962">
<rect width="21.9535" height="21.9535" fill="white"/>
</clipPath>
</defs>
</svg>
