<svg width="58" height="58" viewBox="0 0 58 58" fill="none" xmlns="http://www.w3.org/2000/svg">
<path d="M57.1323 36.0152C53.2587 51.5511 37.5216 61.0059 21.9821 57.1318C6.44919 53.2586 -3.00669 37.5223 0.868605 21.9877C4.7405 6.45015 20.4776 -3.00538 36.0122 0.867779C51.5506 4.74094 61.0059 20.4789 57.1319 36.0155L57.1321 36.0152H57.1323Z" fill="#F7931A"/>
<path d="M41.7901 24.8681C42.3674 21.0088 39.4289 18.9343 35.4107 17.5504L36.7142 12.3227L33.5316 11.5297L32.2626 16.6198C31.4259 16.4112 30.5667 16.2146 29.7127 16.0196L30.9909 10.896L27.8102 10.103L26.506 15.329C25.8136 15.1714 25.1335 15.0156 24.4738 14.8515L24.4775 14.835L20.0885 13.7392L19.2419 17.138C19.2419 17.138 21.6032 17.6792 21.5534 17.7126C22.8422 18.0342 23.0753 18.8872 23.0366 19.5634L21.5517 25.519C21.6405 25.5415 21.7556 25.5741 21.8826 25.6251C21.7764 25.5988 21.6634 25.57 21.5462 25.5419L19.4649 33.8849C19.3074 34.2764 18.9076 34.8639 18.0066 34.6408C18.0385 34.687 15.6934 34.0636 15.6934 34.0636L14.1133 37.7063L18.255 38.7387C19.0254 38.9319 19.7805 39.134 20.5241 39.3241L19.2071 44.6118L22.386 45.4047L23.6902 40.1732C24.5587 40.4089 25.4015 40.6263 26.2266 40.8313L24.9267 46.0382L28.1095 46.8311L29.4263 41.5534C34.8534 42.5804 38.9341 42.1663 40.6517 37.2581C42.0358 33.3064 40.5828 31.0271 37.7277 29.5407C39.8072 29.0612 41.3736 27.6936 41.7913 24.8685L41.7903 24.8678L41.7901 24.8681ZM34.5186 35.0635C33.535 39.0152 26.8808 36.8791 24.7234 36.3434L26.4711 29.3381C28.6283 29.8766 35.5465 30.9423 34.5187 35.0635H34.5186ZM35.5028 24.8108C34.6056 28.4053 29.0673 26.5791 27.2707 26.1313L28.8552 19.778C30.6518 20.2258 36.4375 21.0615 35.5031 24.8108H35.5028Z" fill="white"/>
</svg>
