<svg width="48" height="48" viewBox="0 0 48 48" fill="none" xmlns="http://www.w3.org/2000/svg">
<path d="M47.2819 29.806C44.0761 42.6632 31.0524 50.4879 18.1921 47.2817C5.33726 44.0763 -2.4883 31.0532 0.718846 18.197C3.92317 5.3383 16.947 -2.48697 29.8032 0.718406C42.6625 3.92378 50.4876 16.9483 47.2815 29.8062L47.2818 29.806H47.2819Z" fill="#F7931A"/>
<path d="M34.5847 20.5807C35.0624 17.3868 32.6305 15.67 29.3051 14.5247L30.3839 10.1983L27.75 9.54205L26.6998 13.7545C26.0074 13.5818 25.2963 13.4191 24.5896 13.2578L25.6473 9.01756L23.0151 8.36133L21.9357 12.6863C21.3627 12.5559 20.7999 12.4269 20.2539 12.2911L20.2569 12.2775L16.6247 11.3706L15.9241 14.1834C15.9241 14.1834 17.8782 14.6313 17.837 14.6589C18.9036 14.925 19.0965 15.631 19.0645 16.1906L17.8356 21.1194C17.9091 21.138 18.0043 21.165 18.1095 21.2072C18.0216 21.1854 17.9281 21.1616 17.831 21.1384L16.1086 28.0429C15.9783 28.3669 15.6474 28.8531 14.9017 28.6685C14.9281 28.7067 12.9874 28.1908 12.9874 28.1908L11.6797 31.2054L15.1073 32.0598C15.7449 32.2197 16.3698 32.387 16.9852 32.5443L15.8952 36.9203L18.5261 37.5765L19.6054 33.247C20.3242 33.442 21.0216 33.622 21.7045 33.7916L20.6287 38.1008L23.2628 38.757L24.3526 34.3892C28.8439 35.2391 32.2211 34.8965 33.6425 30.8345C34.788 27.5641 33.5855 25.6778 31.2226 24.4477C32.9437 24.0508 34.24 22.919 34.5856 20.581L34.5848 20.5804L34.5847 20.5807ZM28.5668 29.0183C27.7528 32.2887 22.2459 30.5208 20.4605 30.0775L21.9068 24.28C23.6922 24.7257 29.4175 25.6076 28.5669 29.0183H28.5668ZM29.3814 20.5333C28.6388 23.508 24.0554 21.9967 22.5686 21.6261L23.8799 16.3682C25.3667 16.7388 30.1549 17.4304 29.3816 20.5333H29.3814Z" fill="white"/>
</svg>
