<svg width="69" height="75" viewBox="0 0 69 75" fill="none" xmlns="http://www.w3.org/2000/svg">
<path style="mix-blend-mode:overlay" opacity="0.5" d="M39.6792 74.3643C55.7124 74.3643 68.7099 61.3915 68.7099 45.3887C68.7099 29.386 55.7124 16.4132 39.6792 16.4132C23.6459 16.4132 10.6484 29.386 10.6484 45.3887C10.6484 61.3915 23.6459 74.3643 39.6792 74.3643Z" fill="url(#paint0_linear_368_5003)"/>
<path d="M56.9097 31.5425C53.7696 18.6042 40.7155 10.6564 27.7526 13.7905C14.7897 16.9246 6.82669 29.9538 9.96676 42.8921C13.1068 55.8303 26.1609 63.7782 39.1238 60.6441C52.0867 57.51 60.0497 44.4808 56.9097 31.5425Z" fill="url(#paint1_radial_368_5003)"/>
<path style="mix-blend-mode:screen" d="M39.559 14.0087C46.0771 13.3439 51.6609 15.068 54.5307 19.2779C59.8254 27.0275 53.9229 40.2436 41.3374 48.8125C28.7519 57.3813 14.2845 58.0124 8.98972 50.2628C6.54144 46.6732 6.49769 41.9059 8.39966 36.9757C5.09799 43.3555 4.57939 49.6587 7.67592 54.1916C13.4691 62.68 29.7138 61.7117 43.9546 52.0279C58.1954 42.344 65.0495 27.5904 59.2547 19.095C55.6856 13.869 48.1487 12.2319 39.559 14.0087Z" fill="url(#paint2_radial_368_5003)"/>
<path style="mix-blend-mode:screen" d="M42.9349 49.4723C56.7871 40.0527 63.4274 25.7175 57.8039 17.4696L57.597 17.1826C55.1009 14.8638 51.55 13.5964 47.3907 13.3538C49.7397 14.1197 51.7781 15.6222 53.2025 17.6377C53.2371 17.6886 53.2647 17.7411 53.2993 17.792C53.7456 18.2484 54.1511 18.7427 54.5114 19.2694C59.8061 27.019 53.9036 40.2351 41.3181 48.8039C28.7326 57.3728 14.2652 58.0039 8.97041 50.2543C7.46174 47.9313 6.80464 45.159 7.11057 42.4075C7.03925 41.507 7.05438 40.6017 7.15577 39.704C6.39683 41.5815 5.90421 43.5556 5.69219 45.569C5.78978 47.7123 6.4707 49.7884 7.66176 51.5744C13.2956 59.8346 29.0897 58.8901 42.9349 49.4723Z" fill="url(#paint3_radial_368_5003)"/>
<defs>
<linearGradient id="paint0_linear_368_5003" x1="19.1566" y1="24.9114" x2="60.1285" y2="65.9614" gradientUnits="userSpaceOnUse">
<stop stop-color="white"/>
<stop offset="0.02" stop-color="white" stop-opacity="0.97"/>
<stop offset="0.27" stop-color="white" stop-opacity="0.63"/>
<stop offset="0.48" stop-color="white" stop-opacity="0.36"/>
<stop offset="0.66" stop-color="white" stop-opacity="0.16"/>
<stop offset="0.8" stop-color="white" stop-opacity="0.04"/>
<stop offset="0.88" stop-color="white" stop-opacity="0"/>
</linearGradient>
<radialGradient id="paint1_radial_368_5003" cx="0" cy="0" r="1" gradientUnits="userSpaceOnUse" gradientTransform="translate(20.7226 1.3457) rotate(16.2405) scale(58.7349 58.6407)">
<stop stop-color="#007BC2"/>
<stop offset="0.61" stop-color="#092F7C"/>
<stop offset="1" stop-color="#0E0454"/>
</radialGradient>
<radialGradient id="paint2_radial_368_5003" cx="0" cy="0" r="1" gradientUnits="userSpaceOnUse" gradientTransform="translate(9.40355 22.3587) rotate(-34.226) scale(58.048 58.0075)">
<stop stop-color="white"/>
<stop offset="0.38" stop-color="#999999"/>
<stop offset="0.81" stop-color="#2C2C2C"/>
<stop offset="1"/>
</radialGradient>
<radialGradient id="paint3_radial_368_5003" cx="0" cy="0" r="1" gradientUnits="userSpaceOnUse" gradientTransform="translate(9.32732 20.6377) rotate(-34.226) scale(56.4474 56.4081)">
<stop stop-color="white"/>
<stop offset="0.38" stop-color="#999999"/>
<stop offset="0.81" stop-color="#2C2C2C"/>
<stop offset="1"/>
</radialGradient>
</defs>
</svg>
