<svg width="546" height="173" viewBox="0 0 546 173" fill="none" xmlns="http://www.w3.org/2000/svg">
<path style="mix-blend-mode:screen" opacity="0.7" d="M494.578 59.0752C486.324 59.4354 478.302 61.9076 471.277 66.2553C471.248 65.6089 471.266 64.9683 471.237 64.314C470.563 49.3239 464.875 34.9943 455.085 23.6224C445.296 12.2506 431.971 4.49513 417.248 1.5995C402.525 -1.29613 387.256 0.835746 373.888 7.65335C360.521 14.471 349.831 25.5794 343.53 39.1978C334.126 35.3633 323.888 34.0346 313.817 35.3416C303.746 36.6486 294.186 40.5466 286.073 46.6544L284.194 45.2304L277.163 38.2019L271.615 34.3212C263.479 24.3962 252.938 16.7197 240.994 12.0228C229.051 7.3259 216.104 5.76519 203.387 7.48927C190.67 9.21335 178.606 14.1648 168.345 21.872C158.083 29.5792 149.966 39.7854 144.766 51.5183C138.234 39.7689 127.588 30.8492 114.877 26.4745C102.166 22.0997 88.2855 22.5789 75.9059 27.8197C63.5264 33.0605 53.5214 42.6931 47.8149 54.865C42.1084 67.0369 41.1034 80.8888 44.9929 93.757C34.9631 95.7083 25.6847 100.443 18.2189 107.419C10.753 114.395 5.40097 123.331 2.77473 133.206C0.148481 143.081 0.354039 153.495 3.3679 163.258C6.38176 173.022 12.0823 181.74 19.8176 188.416C27.5529 195.092 37.0108 199.457 47.1099 201.011C57.209 202.565 67.5415 201.246 76.9261 197.204C86.3107 193.162 94.3685 186.561 100.178 178.155C105.988 169.75 109.315 159.879 109.779 149.672C114.079 157.906 120.414 164.904 128.183 169.999C135.951 175.093 144.894 178.115 154.16 178.777C163.427 179.439 172.708 177.719 181.122 173.781C189.536 169.842 196.802 163.816 202.229 156.276C215.587 158.297 229.242 156.682 241.76 151.6C254.278 146.519 265.195 138.158 273.364 127.398C278.908 135.263 286.3 141.644 294.891 145.98C303.481 150.316 313.006 152.474 322.626 152.263C332.246 152.053 341.667 149.48 350.059 144.772C358.451 140.064 365.557 133.365 370.752 125.265C379.415 130.298 389.104 133.309 399.094 134.073C399.659 146.111 404.203 157.621 412.012 166.799C419.821 175.977 430.455 182.306 442.246 184.792C454.038 187.278 466.322 185.782 477.172 180.537C488.022 175.293 496.825 166.597 502.202 155.812C514.716 154.398 526.191 148.177 534.206 138.463C542.22 128.749 546.147 116.301 545.158 103.746C544.168 91.1914 538.34 79.5122 528.903 71.1733C519.466 62.8343 507.158 58.488 494.577 59.0515L494.578 59.0752Z" fill="url(#paint0_linear_368_5149)"/>
<defs>
<linearGradient id="paint0_linear_368_5149" x1="276.5" y1="225.5" x2="264.5" y2="-39" gradientUnits="userSpaceOnUse">
<stop offset="0.319902"/>
<stop offset="0.44" stop-color="#000304"/>
<stop offset="0.52" stop-color="#000D10"/>
<stop offset="0.6" stop-color="#001E24"/>
<stop offset="0.68" stop-color="#003540"/>
<stop offset="0.76" stop-color="#005C8B"/>
<stop offset="0.84" stop-color="#4377F8"/>
<stop offset="0.92" stop-color="#4377F8"/>
<stop offset="1" stop-color="#4377F8"/>
</linearGradient>
</defs>
</svg>
