<svg width="259" height="96" viewBox="0 0 259 96" fill="none" xmlns="http://www.w3.org/2000/svg">
<path d="M31.0432 48.5456C32.84 39.2415 28.1682 29.9063 20.6086 27.6949C13.049 25.4835 5.46418 31.2333 3.66741 40.5374C1.87063 49.8415 6.54233 59.1767 14.1019 61.3881C21.6616 63.5995 29.2464 57.8498 31.0432 48.5456Z" fill="white"/>
<path d="M38.3808 40.1561C45.6049 36.6341 49.1413 26.5712 46.2796 17.6801C43.418 8.78892 35.2419 4.43642 28.0178 7.95847C20.7938 11.4805 17.2573 21.5434 20.119 30.4345C22.9807 39.3256 31.1568 43.6782 38.3808 40.1561Z" fill="white"/>
<path d="M41.1981 71.5115C48.9683 71.5115 55.2673 63.7589 55.2673 54.1955C55.2673 44.6322 48.9683 36.8796 41.1981 36.8796C33.4279 36.8796 27.1289 44.6322 27.1289 54.1955C27.1289 63.7589 33.4279 71.5115 41.1981 71.5115Z" fill="white"/>
<path d="M33.9572 81.9443C41.1778 78.4114 44.7042 68.3432 41.8337 59.4564C38.9632 50.5696 30.7828 46.2294 23.5623 49.7623C16.3417 53.2952 12.8153 63.3634 15.6858 72.2502C18.5562 81.137 26.7367 85.4772 33.9572 81.9443Z" fill="white"/>
<path d="M61.4872 64.4033C69.2574 64.4033 75.5564 56.6507 75.5564 47.0874C75.5564 37.5241 69.2574 29.7715 61.4872 29.7715C53.717 29.7715 47.418 37.5241 47.418 47.0874C47.418 56.6507 53.717 64.4033 61.4872 64.4033Z" fill="white"/>
<path d="M66.8981 31.2882C68.8396 22.0282 64.3144 12.5844 56.7907 10.1948C49.2669 7.80514 41.5938 13.3747 39.6522 22.6346C37.7107 31.8946 42.2359 41.3384 49.7596 43.728C57.2834 46.1176 64.9565 40.5481 66.8981 31.2882Z" fill="white"/>
<path d="M91.9724 38.6537C93.1745 29.2055 87.9259 20.3468 80.2492 18.8673C72.5726 17.3877 65.3749 23.8476 64.1727 33.2958C62.9706 42.7439 68.2193 51.6026 75.8959 53.0822C83.5726 54.5617 90.7702 48.1018 91.9724 38.6537Z" fill="white"/>
<path d="M95.5254 52.32C96.7262 42.8715 91.4763 34.014 83.7994 32.5361C76.1226 31.0582 68.9258 37.5196 67.725 46.968C66.5242 56.4165 71.7741 65.274 79.451 66.7519C87.1278 68.2298 94.3246 61.7684 95.5254 52.32Z" fill="white"/>
<path d="M144.305 42.0788C146.152 32.7896 141.531 23.4164 133.983 21.1434C126.435 18.8703 118.82 24.5581 116.973 33.8473C115.126 43.1366 119.747 52.5097 127.295 54.7827C134.842 57.0558 142.458 51.3681 144.305 42.0788Z" fill="white"/>
<path d="M174.445 35.5513C178.874 27.7094 177.299 16.9333 170.927 11.4822C164.556 6.03113 155.8 7.96927 151.371 15.8112C146.942 23.6531 148.517 34.4292 154.888 39.8803C161.26 45.3314 170.015 43.3933 174.445 35.5513Z" fill="white"/>
<path d="M110.391 36.5145C115.131 28.9365 113.982 18.0642 107.825 12.2306C101.668 6.39686 92.8339 7.81086 88.094 15.3888C83.3542 22.9667 84.503 33.839 90.6601 39.6727C96.8172 45.5064 105.651 44.0924 110.391 36.5145Z" fill="white"/>
<path d="M116.874 36.5188C124.644 36.5188 130.943 28.7662 130.943 19.2029C130.943 9.63955 124.644 1.88696 116.874 1.88696C109.104 1.88696 102.805 9.63955 102.805 19.2029C102.805 28.7662 109.104 36.5188 116.874 36.5188Z" fill="white"/>
<path d="M154.129 30.2225C156.205 21.007 151.819 11.4646 144.331 8.90887C136.843 6.35319 129.09 11.752 127.014 20.9675C124.937 30.183 129.324 39.7255 136.811 42.2812C144.299 44.8369 152.052 39.438 154.129 30.2225Z" fill="white"/>
<path d="M18.9808 38.7933C23.3971 38.7933 26.9772 34.387 26.9772 28.9516C26.9772 23.5161 23.3971 19.1099 18.9808 19.1099C14.5645 19.1099 10.9844 23.5161 10.9844 28.9516C10.9844 34.387 14.5645 38.7933 18.9808 38.7933Z" fill="white"/>
<path d="M66.7464 39.887C71.1627 39.887 74.7428 35.4807 74.7428 30.0453C74.7428 24.6099 71.1627 20.2036 66.7464 20.2036C62.3301 20.2036 58.75 24.6099 58.75 30.0453C58.75 35.4807 62.3301 39.887 66.7464 39.887Z" fill="white"/>
<path d="M45.6409 27.0645C50.0572 27.0645 53.6373 22.6582 53.6373 17.2228C53.6373 11.7874 50.0572 7.3811 45.6409 7.3811C41.2246 7.3811 37.6445 11.7874 37.6445 17.2228C37.6445 22.6582 41.2246 27.0645 45.6409 27.0645Z" fill="white"/>
<path d="M187.35 54.5623C195.121 54.5623 201.42 46.8096 201.42 37.2463C201.42 27.683 195.121 19.9304 187.35 19.9304C179.58 19.9304 173.281 27.683 173.281 37.2463C173.281 46.8096 179.58 54.5623 187.35 54.5623Z" fill="white"/>
<path d="M224.107 42.7491C229.601 35.9868 229.601 25.023 224.107 18.2607C218.613 11.4984 209.705 11.4984 204.21 18.2607C198.716 25.023 198.716 35.9868 204.21 42.7491C209.705 49.5114 218.613 49.5114 224.107 42.7491Z" fill="white"/>
<path d="M236.99 36.7327C242.484 29.9704 242.484 19.0066 236.99 12.2443C231.495 5.48204 222.587 5.48204 217.093 12.2443C211.599 19.0066 211.599 29.9704 217.093 36.7327C222.587 43.495 231.495 43.495 236.99 36.7327Z" fill="white"/>
<path d="M248.318 46.0274C253.812 39.2651 253.812 28.3013 248.318 21.539C242.824 14.7767 233.915 14.7767 228.421 21.539C222.927 28.3013 222.927 39.2651 228.421 46.0274C233.915 52.7897 242.824 52.7897 248.318 46.0274Z" fill="white"/>
<path d="M229.265 55.1086C237.035 55.1086 243.334 47.356 243.334 37.7927C243.334 28.2294 237.035 20.4768 229.265 20.4768C221.494 20.4768 215.195 28.2294 215.195 37.7927C215.195 47.356 221.494 55.1086 229.265 55.1086Z" fill="white"/>
<path d="M209.747 57.0744C217.084 53.9262 220.959 44.0536 218.401 35.0233C215.843 25.993 207.821 21.2247 200.484 24.3729C193.147 27.5211 189.273 37.3937 191.831 46.424C194.389 55.4543 202.41 60.2226 209.747 57.0744Z" fill="white"/>
<path d="M206.341 42.201C211.836 35.4387 211.836 24.4749 206.341 17.7126C200.847 10.9503 191.939 10.9503 186.445 17.7126C180.95 24.4749 180.95 35.4387 186.445 42.201C191.939 48.9633 200.847 48.9633 206.341 42.201Z" fill="white"/>
<path d="M192.206 36.7428C196.553 28.8164 194.856 18.0532 188.416 12.7027C181.976 7.35222 173.23 9.44046 168.883 17.3669C164.536 25.2934 166.233 36.0566 172.673 41.4071C179.113 46.7576 187.858 44.6693 192.206 36.7428Z" fill="white"/>
<path d="M185.195 51.1084C187.325 41.9114 182.994 32.3306 175.521 29.709C168.049 27.0874 160.264 32.4179 158.134 41.6148C156.004 50.8118 160.335 60.3927 167.808 63.0142C175.28 65.6358 183.065 60.3053 185.195 51.1084Z" fill="white"/>
<path d="M156.154 56.4448C163.46 53.1865 167.236 43.2564 164.588 34.2652C161.941 25.2741 153.873 20.6267 146.567 23.885C139.262 27.1433 135.486 37.0734 138.133 46.0646C140.781 55.0557 148.849 59.7031 156.154 56.4448Z" fill="white"/>
<path d="M156.788 59.1933C158.869 49.9791 154.486 40.4339 147 37.8734C139.513 35.3129 131.758 40.7067 129.677 49.9209C127.597 59.1351 131.979 68.6803 139.466 71.2408C146.952 73.8013 154.708 68.4075 156.788 59.1933Z" fill="white"/>
<path d="M109.943 61.1237C114.685 53.5478 113.54 42.675 107.384 36.8387C101.229 31.0023 92.3946 32.4125 87.6526 39.9884C82.9106 47.5643 84.0564 58.4371 90.2118 64.2734C96.3672 70.1098 105.201 68.6996 109.943 61.1237Z" fill="white"/>
<path d="M99.6903 82.4467C107.461 82.4467 113.76 74.694 113.76 65.1307C113.76 55.5674 107.461 47.8148 99.6903 47.8148C91.9201 47.8148 85.6211 55.5674 85.6211 65.1307C85.6211 74.694 91.9201 82.4467 99.6903 82.4467Z" fill="white"/>
<path d="M140.609 77.3218C145.193 69.5755 143.807 58.7219 137.513 53.0795C131.219 47.4372 122.401 49.1427 117.816 56.889C113.232 64.6353 114.618 75.4889 120.912 81.1313C127.206 86.7737 136.024 85.0681 140.609 77.3218Z" fill="white"/>
<path d="M124.285 69.505C131.57 66.1777 135.283 56.2122 132.58 47.2463C129.877 38.2805 121.78 33.7095 114.495 37.0368C107.21 40.364 103.496 50.3295 106.2 59.2954C108.903 68.2612 117 72.8322 124.285 69.505Z" fill="white"/>
<path d="M110.651 60.0295C118.421 60.0295 124.72 52.2769 124.72 42.7136C124.72 33.1503 118.421 25.3977 110.651 25.3977C102.881 25.3977 96.582 33.1503 96.582 42.7136C96.582 52.2769 102.881 60.0295 110.651 60.0295Z" fill="white"/>
<path d="M160.585 75.0467C167.893 71.7978 171.677 61.8725 169.038 52.878C166.398 43.8834 158.334 39.2257 151.025 42.4746C143.717 45.7234 139.933 55.6487 142.573 64.6432C145.212 73.6378 153.277 78.2956 160.585 75.0467Z" fill="white"/>
<path d="M188.097 79.166C195.867 79.166 202.166 71.4134 202.166 61.8501C202.166 52.2868 195.867 44.5342 188.097 44.5342C180.326 44.5342 174.027 52.2868 174.027 61.8501C174.027 71.4134 180.326 79.166 188.097 79.166Z" fill="white"/>
<path d="M178.608 73.0008C179.776 63.546 174.494 54.7167 166.812 53.2801C159.13 51.8434 151.957 58.3434 150.789 67.7982C149.622 77.253 154.903 86.0822 162.585 87.5189C170.267 88.9556 177.441 82.4556 178.608 73.0008Z" fill="white"/>
<path d="M204.089 81.8998C211.859 81.8998 218.158 74.1472 218.158 64.5839C218.158 55.0205 211.859 47.2679 204.089 47.2679C196.319 47.2679 190.02 55.0205 190.02 64.5839C190.02 74.1472 196.319 81.8998 204.089 81.8998Z" fill="white"/>
<path d="M120.595 83.7557C126.09 76.9934 126.09 66.0296 120.595 59.2673C115.101 52.505 106.193 52.505 100.698 59.2673C95.2041 66.0296 95.2041 76.9934 100.698 83.7557C106.193 90.518 115.101 90.518 120.595 83.7557Z" fill="white"/>
<path d="M226.471 74.7948C228.676 65.6249 224.424 55.9906 216.974 53.276C209.523 50.5615 201.695 55.7947 199.49 64.9646C197.284 74.1346 201.536 83.7689 208.987 86.4835C216.437 89.198 224.265 83.9648 226.471 74.7948Z" fill="white"/>
<path d="M236.667 80.2595C244.437 80.2595 250.736 72.5069 250.736 62.9436C250.736 53.3803 244.437 45.6277 236.667 45.6277C228.897 45.6277 222.598 53.3803 222.598 62.9436C222.598 72.5069 228.897 80.2595 236.667 80.2595Z" fill="white"/>
<path d="M223.927 62.1171C228.127 54.0713 226.232 43.3583 219.695 38.189C213.158 33.0197 204.453 35.3516 200.253 43.3974C196.053 51.4433 197.948 62.1562 204.485 67.3255C211.022 72.4948 219.727 70.1629 223.927 62.1171Z" fill="white"/>
<path d="M60.8912 94.8364C75.1214 94.8364 86.6573 80.6384 86.6573 63.1242C86.6573 45.6101 75.1214 31.4121 60.8912 31.4121C46.6609 31.4121 35.125 45.6101 35.125 63.1242C35.125 80.6384 46.6609 94.8364 60.8912 94.8364Z" fill="white"/>
</svg>
