<svg width="51" height="50" viewBox="0 0 51 50" fill="none" xmlns="http://www.w3.org/2000/svg">
<g clip-path="url(#clip0_136_1053)">
<path d="M25.9492 50C39.7563 50 50.9492 38.8071 50.9492 25C50.9492 11.1929 39.7563 0 25.9492 0C12.1421 0 0.949219 11.1929 0.949219 25C0.949219 38.8071 12.1421 50 25.9492 50Z" fill="#988430"/>
<path d="M25.9492 49.1992C39.314 49.1992 50.1484 38.3649 50.1484 25C50.1484 11.6352 39.314 0.800842 25.9492 0.800842C12.5843 0.800842 1.75 11.6352 1.75 25C1.75 38.3649 12.5843 49.1992 25.9492 49.1992Z" fill="#7A6A2A"/>
<path d="M25.9471 48.6893C39.0304 48.6893 49.6365 38.0833 49.6365 25C49.6365 11.9167 39.0304 1.31067 25.9471 1.31067C12.8639 1.31067 2.25781 11.9167 2.25781 25C2.25781 38.0833 12.8639 48.6893 25.9471 48.6893Z" fill="#BA9F33"/>
<path fill-rule="evenodd" clip-rule="evenodd" d="M11.8799 22.3302C11.7383 22.2008 11.5887 22.0712 11.4511 21.9419C11.3135 21.8126 11.1722 21.683 11.0306 21.5536L10.6098 21.1536C10.541 21.0848 10.4682 21.0243 10.3994 20.9552C10.3306 20.8947 10.2498 20.8259 10.181 20.7651C9.62262 20.2352 9.06102 19.7054 8.51035 19.1752C9.08075 19.6971 9.63915 20.2152 10.2095 20.7448L10.4077 20.9432C10.4765 21.0118 10.5493 21.0726 10.6181 21.1414L11.0386 21.5296C11.1802 21.659 11.3178 21.7886 11.4594 21.9296C11.601 22.0707 11.7386 22.2006 11.8802 22.3296L11.8799 22.3302ZM4.46902 22.2502C4.46902 22.2502 6.49968 22.4603 7.49088 22.6019C8.40902 22.7315 11.2813 23.1723 11.2813 23.1723L4.46902 22.2502ZM4.46902 22.2502C5.03942 22.2987 5.60982 22.3592 6.18022 22.42C6.47142 22.4483 6.75062 22.4806 7.02982 22.5088L7.45835 22.5576C7.59995 22.5776 7.73755 22.5979 7.87915 22.6182L9.57835 22.8891L10.4277 23.0307C10.7069 23.0792 10.9861 23.132 11.2773 23.1806C10.9981 23.1523 10.7069 23.1118 10.4277 23.0712L9.57835 22.9499L7.87915 22.6992C7.73755 22.679 7.59995 22.6504 7.45835 22.6304L7.02955 22.5811C6.75035 22.5528 6.45915 22.5123 6.17995 22.4798C5.60955 22.4112 5.03915 22.3382 4.46875 22.2494L4.46902 22.2502ZM11.0791 23.7014C11.0791 23.7014 8.91088 24.2518 8.17862 24.4622C7.45862 24.6603 5.27808 25.3238 5.27808 25.3238L11.0789 23.7016L11.0791 23.7014Z" fill="#CFB66C"/>
<path fill-rule="evenodd" clip-rule="evenodd" d="M11.0775 23.7014C10.5962 23.843 10.1175 23.9806 9.62924 24.1102L8.18097 24.4984C7.69964 24.64 7.22097 24.7776 6.74097 24.9192L6.02097 25.1174C5.7823 25.1862 5.53964 25.2467 5.29297 25.3158C5.53137 25.2358 5.7743 25.1539 6.01297 25.0851L6.73297 24.8547C7.2143 24.7048 7.69297 24.5632 8.17297 24.4136C8.6623 24.2923 9.1439 24.1627 9.63324 24.0454C10.0983 23.928 10.5879 23.811 11.0775 23.7016V23.7014ZM5.58017 26.6587C5.81857 26.5696 8.5695 25.2875 9.2087 24.988C9.5287 24.8382 10.4588 24.508 10.4588 24.508L5.58017 26.6587Z" fill="#CFB66C"/>
<path fill-rule="evenodd" clip-rule="evenodd" d="M5.57839 26.6587C5.78852 26.5787 5.98693 26.4808 6.18906 26.3877L6.78773 26.1085L7.98932 25.5301C8.38932 25.34 8.77813 25.1301 9.19066 24.9515C9.40106 24.8627 9.61146 24.7899 9.82159 24.7211L10.1416 24.62C10.2507 24.5917 10.352 24.5592 10.4616 24.5309C10.0616 24.7211 9.64053 24.8829 9.23999 25.0688C8.83999 25.2672 8.43093 25.4291 8.01813 25.6069L6.79653 26.1448C6.38639 26.3109 5.98639 26.4888 5.57812 26.6587H5.57839ZM5.84506 27.7787C5.84506 27.7787 8.33679 26.3184 9.19439 25.8491C9.64346 25.5984 11.0957 24.8781 11.0957 24.8781L5.84506 27.7787Z" fill="#CFB66C"/>
<path fill-rule="evenodd" clip-rule="evenodd" d="M5.84766 27.7791C6.26819 27.5202 6.69699 27.2573 7.12579 26.9903L7.76579 26.6018C7.98419 26.4725 8.19459 26.3511 8.41726 26.2218C8.63566 26.0922 8.84606 25.9629 9.06846 25.8415C9.17433 25.7762 9.28526 25.7194 9.40019 25.6717L9.73992 25.5018C10.189 25.2834 10.6381 25.0607 11.1114 24.8706C10.6826 25.1418 10.2415 25.3725 9.80072 25.6109C9.58232 25.7322 9.35966 25.8415 9.14126 25.9629C8.92286 26.0842 8.71246 26.2138 8.48979 26.3311C8.27139 26.4605 8.06099 26.5818 7.83859 26.6991L7.17912 27.0591L5.84819 27.7791H5.84766ZM11.0781 25.1981C11.0781 25.1981 9.52872 26.3874 9.02712 26.7677C8.52552 27.1479 7.04899 28.2159 7.04899 28.2159L11.0781 25.1981Z" fill="#CFB66C"/>
<path fill-rule="evenodd" clip-rule="evenodd" d="M19.9686 34.7896L19.1758 33.2888L19.6368 31.4117L22.9256 30.1416L21.5259 27.2696L22.2176 24.369L23.5163 21.7717L27.5294 21.1408L30.4782 18.3293L36.8456 18.8106L38.0955 25.6189L35.6886 34.1909L34.3174 38.6288L28.759 38.8392L26.1782 37.0512L23.1563 35.7888L19.9686 34.7896Z" fill="#E2CC85"/>
<path fill-rule="evenodd" clip-rule="evenodd" d="M29.7188 34.741C29.7188 34.741 28.95 35.093 27.6388 35.0119C27.2593 34.5023 24.6017 34.2637 24.6017 34.2637C24.6017 34.2637 24.27 34.1626 23.6833 34.4053C23.0929 34.6453 22.5345 34.6157 22.0126 34.745C21.4908 34.8743 20.9726 34.1949 20.5726 34.0533C20.1726 33.9037 19.6422 33.5437 19.6422 33.5437L18.5222 33.4344L16.2732 32.4837L12.7001 28.924L11.7292 30.444L11.4297 32.325L12.51 34.5541L15.4185 37.2037L21.09 38.6437L24.4516 37.6533L28.6628 35.8733L29.7188 34.7407V34.741Z" fill="#F1D789"/>
<path fill-rule="evenodd" clip-rule="evenodd" d="M9.5721 22.1603L10.2921 19.98L11.15 18.572L13.9126 18.3414L13.0833 20.7606L10.7737 24.8707L11.7324 28.5398L10.0334 29.3891L9.5113 28.5883L9.09077 26.7518L9.0625 24.6886L9.5721 22.1603Z" fill="#F4ECB4"/>
<path fill-rule="evenodd" clip-rule="evenodd" d="M12.6705 34.5915L12.1406 33.8512C12.1406 33.8512 11.999 33.4992 12.0801 33.1917C12.1601 32.8803 12.1486 32.86 12.1084 32.7427C12.0681 32.6253 11.7281 32.2208 11.7484 31.8728C11.7684 31.5208 11.7201 31.4035 11.9788 31.1245C12.2497 30.8536 12.1689 30.3843 12.1689 30.3843L12.5209 30.6027L12.6009 30.4813C12.6009 30.4813 12.7302 30.5824 12.7302 30.7403C12.7585 30.5219 12.6412 29.5104 12.9081 29.28C13.175 29.0496 13.6484 30.36 13.6484 30.36L13.3572 28.4587L12.6086 26.5091L11.2777 24.7291L11.1977 22.7669V22.5971C11.1977 22.5971 10.5868 23.5357 10.4169 24.2771C10.2956 24.7867 10.5868 25.4056 10.5262 26.1379C10.4774 26.8661 10.4169 26.8093 10.5948 27.0979C10.7726 27.3864 11.2057 27.9797 11.0358 28.4085C10.8862 28.7768 10.3764 28.5179 10.3764 28.5179C10.3764 28.5179 10.2753 28.8171 10.1377 28.9264C10.0892 28.7485 10.0366 28.6352 9.93958 28.5264C9.93131 28.5952 9.91131 28.6883 9.91131 28.6883C9.91131 28.6883 9.82225 28.4091 9.73318 28.0571C9.61211 27.588 9.48251 26.9691 9.36518 26.6373C9.31665 26.8275 9.19531 27.4059 9.19531 27.4059L9.26411 28.296L9.59585 29.5176L9.91585 30.3176L10.2273 31.2965L10.498 31.9541L10.7164 32.4557L10.9065 33.5845L11.8246 34.5552L12.3142 34.7739L12.67 34.5917L12.6705 34.5915Z" fill="#F3E19D"/>
<path fill-rule="evenodd" clip-rule="evenodd" d="M10.0513 20.3802C10.0513 20.3802 9.39179 21.5002 9.20192 22.6293C9.01206 23.7584 8.84192 24.9514 8.96192 26.4885C9.08326 28.0381 9.31392 28.9885 9.50006 29.6682C9.82006 30.797 10.6489 32.3666 10.6489 32.3666L10.6771 32.3058C10.5378 32.0418 10.4266 31.7638 10.3454 31.4765C10.2361 31.0477 10.1955 30.5381 10.0945 30.3074C10.0054 30.077 9.85579 29.8786 9.78299 29.5954C9.71419 29.3245 9.70299 28.8957 9.49179 28.5762C9.40272 28.4466 9.29339 28.1069 9.26112 27.7672C9.22059 27.2573 9.28139 26.6869 9.23286 26.2178C9.14379 25.437 9.08326 24.9072 9.16406 24.4984C9.24486 24.0896 9.66592 22.929 9.92486 22.0066C10.0947 21.416 9.99339 20.9184 10.3049 20.4045C10.6163 19.8949 10.8067 19.4458 10.8753 19.1344C10.9553 18.8512 10.0502 20.3802 10.0502 20.3802H10.0513Z" fill="#F2E8B0"/>
<path fill-rule="evenodd" clip-rule="evenodd" d="M13.1779 19.9312C13.1779 19.9312 12.8381 20.0325 12.6763 20.2104C12.5144 20.3802 12.4456 20.5218 12.2272 20.809C12.0088 21.0962 11.9965 21.3309 11.8184 21.6909C11.6405 22.0429 11.248 22.5728 11.1995 22.7629C11.1509 22.953 11.0701 23.8429 10.9691 24.2637C10.88 24.6845 11.0701 25.2024 11.0701 25.2024L11.3005 25.1536C11.3005 25.1536 11.3005 25.453 11.5312 25.6554C11.7616 25.8536 11.8021 24.9837 11.8021 24.9837L12.6637 22.0752L13.9621 21.1933L14.1037 20.4813L13.1773 19.9312H13.1779Z" fill="#F5EEC0"/>
<path fill-rule="evenodd" clip-rule="evenodd" d="M13.8113 21.2501C13.8113 21.2501 13.2003 21.2904 12.9011 21.509C12.7798 21.5978 12.7313 21.6706 12.6019 21.78C12.3633 21.9781 12.1203 22.1602 12.0033 22.42C11.8737 22.6786 11.7321 23.0712 11.635 23.8114C11.5945 24.1229 11.5945 24.4101 11.5662 24.661C11.5257 25.0007 11.4651 25.2717 11.4974 25.461C11.5379 25.8493 11.9385 26.0517 11.9774 26.4925L12.8067 26.072L13.5875 22.9933L15.2462 21.9533L14.3075 20.9016L13.8102 21.2482L13.8113 21.2501Z" fill="#E6DB9D"/>
<path fill-rule="evenodd" clip-rule="evenodd" d="M9.43386 41.9811C9.43733 41.9507 9.44079 41.9203 9.44426 41.8891C9.56533 40.8491 9.58586 40.0608 9.67466 39.5672C9.80399 38.8675 9.89306 38.6072 9.87279 38.3453C9.84453 37.9248 9.81226 37.6173 9.85279 37.2936C9.91333 36.8648 10.3341 36.3552 10.3221 36.0032C10.3139 35.724 10.1723 35.5421 10.0509 35.3723C9.92959 35.2024 9.83253 35.0608 9.83253 35.0608C9.83253 35.0608 10.6619 34.4904 10.6539 32.1925C10.6708 32.1973 10.6871 32.2041 10.7024 32.2128L11.1109 33.3736L11.3901 33.7133L12.4621 35.7117L13.8416 37.0509L15.8803 38.4221L17.1587 39.8133L17.288 43.5229L15.6173 45.6912L15.3437 46.1867C13.17 45.0954 11.1768 43.677 9.43359 41.9808L9.43386 41.9811Z" fill="#E5CB7A"/>
<path fill-rule="evenodd" clip-rule="evenodd" d="M14.5352 45.5299C14.5352 45.5299 14.5634 45.0688 14.9437 44.7693C15.0045 44.8704 15.0448 44.9677 15.0328 45.0403C15.1016 44.9192 15.5829 44.1424 16.6712 43.94C17.7594 43.7419 18.0224 42.9491 18.0224 42.9491L20.332 40.8496L22.9736 38.4184L26.1856 37.2896L27.6866 36.9213C27.6866 36.9213 27.7149 37.0307 27.6584 37.2733C27.9373 37.2533 28.5562 37.1117 29.1994 36.8851C29.4584 36.784 29.7013 36.7435 29.8306 36.8771C30.0208 37.0549 30.049 37.4757 30.061 37.7264C30.3725 37.6576 30.7325 37.3584 31.021 37.3867C31.4824 37.4352 31.8909 37.9773 32.3602 37.9773C32.9792 37.9773 33.2581 37.5971 33.6912 37.2976C33.9501 37.1197 34.3221 36.8976 34.5325 36.7475C35.0341 36.3792 40.3416 34.7571 40.3416 34.7571L42.2024 34.8784L42.5018 36.8768L42.3418 42.1008C42.3221 42.1197 42.3024 42.1395 42.2824 42.1584L33.8216 46.5773L22.0936 48.3752C19.4664 47.946 16.9312 47.074 14.596 45.7963L14.536 45.5296L14.5352 45.5299Z" fill="#D8C173"/>
<path fill-rule="evenodd" clip-rule="evenodd" d="M10.1445 42.6456C10.3112 42.297 10.4611 42.0056 10.4875 41.9013C10.5083 42.1114 10.5464 42.5725 10.6232 43.0626C10.462 42.9256 10.3024 42.7865 10.1445 42.6453V42.6456Z" fill="#F1D789"/>
<path fill-rule="evenodd" clip-rule="evenodd" d="M18.7089 47.5618L20.2257 47.14L20.355 47.1805C20.355 47.1805 20.4238 47.221 20.4238 47.3584C20.614 47.2493 20.7758 47.2693 20.8932 47.1968C20.9537 47.3261 21.0142 47.7549 21.2814 47.8074C21.5604 47.8682 21.8598 47.6861 22.1633 47.4557C22.4625 47.217 22.8033 46.9176 23.0612 46.7962C23.1558 46.9702 23.2396 47.1498 23.3121 47.3341C23.6518 47.0632 24.2425 45.9629 25.0838 45.9829C25.327 45.4082 25.7333 44.9174 26.2524 44.5712C27.0332 44.0413 27.5225 44.0008 28.1334 44.0493C28.3761 43.7341 28.6751 43.4666 29.0153 43.2605C29.1164 43.301 29.3956 43.4709 29.7436 43.309C30.0956 43.1474 30.4918 42.5202 31.0137 42.4394C31.2949 42.4007 31.5809 42.4608 31.8228 42.6093C31.8228 42.6093 33.3428 41.1002 34.3916 40.5986C34.351 40.4773 34.2702 40.0202 35.4998 39.0088C35.5686 39.0696 35.5201 39.2394 35.5686 39.2488C35.5886 39.2488 35.8886 39.1194 36.2684 38.828C36.7377 38.4762 37.2998 38.108 37.6396 38.0069C38.2796 37.8168 38.9585 38.205 38.9585 38.205C39.0162 38.1645 39.0806 38.1344 39.1486 38.116C39.3102 38.0877 39.4276 38.0674 39.5166 38.036C39.5086 38.2464 39.626 38.6064 39.5166 38.9178C39.6433 38.989 39.7774 39.046 39.9166 39.0877C39.8481 39.2373 39.6982 39.6176 39.4476 39.7997C39.6577 39.9008 39.686 40.0181 39.9854 40.1197C39.8641 40.2896 39.6654 40.581 39.5769 40.7597C39.4878 40.9498 39.1681 41.7386 39.0265 42.0378C38.8769 42.3373 38.6748 42.8874 38.5774 42.9978C38.4801 43.1082 38.1284 43.5762 37.8574 43.8066C38.0974 43.7176 39.0793 43.4184 39.4958 43.305C39.3718 43.4869 38.7433 44.4194 38.139 45.3162C35.2458 47.0503 32.0163 48.1479 28.6655 48.5358C25.3148 48.9237 21.9199 48.593 18.707 47.5658L18.7089 47.5618Z" fill="#E0CD81"/>
<path fill-rule="evenodd" clip-rule="evenodd" d="M13.9125 21.1408C13.9125 21.1408 13.5607 21.1408 13.4919 21.1893C13.4231 21.2379 13.8439 21.3392 13.9733 21.3877C14.1026 21.4363 14.3818 21.6587 14.4546 21.8368C14.5234 22.0067 16.9829 22.9976 16.9829 22.9976L18.7223 22.9085L19.3221 22.08L18.1813 21.0808L18.9813 18.7224L17.9215 18.8923L15.373 20.4123L14.0946 20.9019L13.9125 21.1408Z" fill="#DFC57C"/>
<path fill-rule="evenodd" clip-rule="evenodd" d="M17.728 21.9216C17.7531 21.9623 17.7885 21.9957 17.8307 22.0184C17.8728 22.0411 17.9202 22.0523 17.968 22.0509C18.328 22.0509 18.6595 22.14 18.7971 22.3218C19.0277 22.6133 19.6669 23.5437 19.6669 23.5437L21.196 24.0938L21.2947 22.2933L19.624 21.1325L17.7227 21.8322V21.9213H17.7269L17.728 21.9216Z" fill="#E5CC7C"/>
<path fill-rule="evenodd" clip-rule="evenodd" d="M17.4283 22.5891C17.4283 22.5891 17.7073 22.6094 18.0593 22.4798C18.4113 22.3502 18.9897 22.0712 19.2406 22.1806C19.5923 22.3302 19.5195 22.7995 19.9001 23.2206C20.1305 23.4795 20.5513 23.4715 20.7899 23.7507C21.0286 24.0299 21.8497 23.9003 21.8497 23.9003L22.1611 25.5803L20.9113 27.1824L20.5025 29.1726H18.8123L17.2683 28.56L16.5078 26.72L16.8881 24.8592L17.4283 22.5891Z" fill="#D2C281"/>
<path fill-rule="evenodd" clip-rule="evenodd" d="M20.6966 22.6699C20.7385 22.6828 20.7821 22.6896 20.8259 22.6901C20.7774 22.7307 20.6761 22.8195 20.7166 23.0501C20.7571 23.2808 20.8865 23.572 20.7774 23.7499C20.8645 23.8451 20.9294 23.9583 20.9675 24.0816C21.0363 24.28 21.0566 24.4619 21.5054 24.4904C21.4406 24.5303 21.3809 24.5778 21.3275 24.632C21.3275 24.632 21.639 24.9029 21.7969 25.1536C21.9585 25.1467 22.3873 25.0133 22.3873 25.0133L22.4763 25.0741L22.6665 24.9941C22.6665 24.9941 22.4886 24.9253 22.6179 24.4925C22.7393 24.1123 22.8486 24.1325 22.8579 24.1043C22.8673 24.076 22.947 23.6755 22.947 23.5136C23.0075 23.3035 23.0561 22.6643 23.0561 22.6643L22.9267 21.2525L22.1987 20.8115L21.6067 20.24L21.0483 21.2917L20.6806 21.6584L20.6523 22.5685L20.6966 22.6699Z" fill="#E2C270"/>
<path fill-rule="evenodd" clip-rule="evenodd" d="M22.4492 21.4888C22.4492 21.4888 22.5786 21.8568 22.6274 22.14C22.6445 22.0849 22.6541 22.0278 22.6556 21.9701C22.6556 21.9701 22.7567 22.5285 22.7767 22.7592C22.8172 22.7509 22.8567 22.7389 22.8658 22.7792C22.8748 22.8194 22.9671 23.2688 22.9458 23.5194C23.1142 23.2415 23.3473 23.0084 23.6252 22.84C23.7871 22.7386 23.9772 22.6296 24.1756 22.6213C24.4871 22.6133 24.7135 22.8197 25.0858 22.8197C25.9836 22.8197 26.797 22.1602 27.3956 21.9581C27.8364 21.8082 28.2167 21.6992 28.4836 21.4562C28.6132 21.3472 28.8439 21.1045 29.054 20.7442C29.3332 20.2642 29.6244 19.8464 29.9159 19.7938C29.784 19.8181 29.6499 19.8276 29.5159 19.8221C29.5159 19.8221 29.605 19.733 29.7559 19.6117C29.9068 19.4904 30.0876 19.3408 30.3463 19.3408C30.8076 19.3408 31.038 19.4093 31.2969 19.4093C31.5559 19.4013 31.7055 19.3408 31.7055 19.3408C31.7055 19.3408 31.9767 19.5309 32.5873 19.5309C33.1983 19.5389 33.6068 19.5914 33.9266 19.62C34.2463 19.6485 35.318 19.5309 35.6255 19.54C35.8259 19.5477 36.0228 19.5959 36.2041 19.6816L35.213 16.8016L31.6524 13.6896L29.5327 15.1904L26.2719 18.4509L23.1167 19.62L22.4572 20.3602V21.4888H22.4492Z" fill="#CCB360"/>
<path fill-rule="evenodd" clip-rule="evenodd" d="M29.5293 19.8381C29.5293 19.8381 29.6184 19.7493 29.7677 19.628C29.9171 19.5066 30.0997 19.3568 30.3584 19.3568C30.8195 19.3568 31.0501 19.4256 31.3091 19.4256C31.568 19.4176 31.7176 19.3568 31.7176 19.3568C31.7176 19.3568 31.9891 19.5466 32.5995 19.5466C33.2104 19.5546 33.6189 19.6072 33.9387 19.6354C34.2584 19.6637 35.3301 19.5466 35.6376 19.5554C35.838 19.563 36.0348 19.6111 36.216 19.697L35.7669 18.3984L35.2453 17.4074L33.7565 15.777C33.7565 15.777 31.9699 14.7253 31.9563 14.7173C31.9483 14.7093 31.3373 14.5474 31.3373 14.5474L29.7192 15.5264L28.2509 19.325L28.2227 20.125L29.1731 20.5741C29.4117 20.1741 29.6749 19.8541 29.9216 19.8136C29.6989 19.8378 29.5291 19.8378 29.5291 19.8378L29.5293 19.8381Z" fill="#D5B457"/>
<path fill-rule="evenodd" clip-rule="evenodd" d="M29.508 20.1093C29.3664 20.1173 29.2493 20.0891 29.2168 19.988C29.0954 19.6483 28.9984 19.5997 28.8968 19.5997C28.7952 19.5997 28.6581 19.8181 28.5768 19.8381C28.4954 19.8581 28.3989 19.5875 28.3989 19.5875L28.3098 19.5469C28.3098 19.5469 27.788 19.8867 27.42 20.2872C27.052 20.6877 26.449 21.3675 26.1781 21.4885C25.9072 21.6096 24.9765 21.6504 24.6581 21.7192C24.3397 21.788 23.9866 22.0187 23.9381 22.0712C23.8896 22.1237 24.08 22.1803 24.1082 22.2328C24.1365 22.2813 23.7965 22.2611 23.7682 22.3128C23.7482 22.3533 23.8482 22.5837 23.8978 22.7011C23.9846 22.6579 24.0799 22.6344 24.1768 22.6323C24.4882 22.6243 24.7149 22.8307 25.0869 22.8307C25.985 22.8307 26.7981 22.1712 27.3968 21.9688C27.8378 21.8192 28.2181 21.7099 28.485 21.4672C28.6144 21.3581 28.845 21.1152 29.0554 20.7552C29.209 20.5085 29.3589 20.2779 29.5088 20.108L29.508 20.1093Z" fill="#D2B257"/>
<path fill-rule="evenodd" clip-rule="evenodd" d="M16.6291 40.1296C16.6291 40.1296 16.5491 39.8301 15.8077 39.0576C15.5973 38.8392 15.468 38.6576 15.3264 38.5277C14.9744 38.1957 14.768 38.1069 14.5173 37.9168C13.9672 37.5083 13.3685 37.5083 12.9075 37.0067C12.4464 36.5051 11.9091 35.5467 11.5357 34.5672C11.1677 33.5883 11.0664 33.2768 11.0664 33.2485C11.0664 33.2203 11.1677 33.0301 11.2971 33.0584C11.4264 33.0867 11.4264 33.3373 11.4589 33.3981C11.5234 33.4974 11.5965 33.5907 11.6773 33.6771C11.8675 33.8957 12.1384 34.1571 12.276 34.5469C12.2477 34.2152 12.1344 33.8472 12.1344 33.8472C12.1344 33.8472 12.8464 34.2963 13.4531 34.7653C14.064 35.2347 14.3147 35.3965 14.4931 35.6957C14.6715 35.9949 15.0917 36.784 15.2931 37.0147C15.4944 37.2453 18.2531 38.1149 18.2531 38.1149L19.5653 39.0933L20.2168 40.5213L19.7069 41.3213L18.728 41.5317L17.1381 40.8197L16.6291 40.1293V40.1296Z" fill="#D2B159"/>
<path fill-rule="evenodd" clip-rule="evenodd" d="M13.0977 35.2104C13.0977 35.2104 13.4294 35.7402 14.2385 36.2418C14.9667 36.6829 16.1195 37.0834 17.1473 37.3221C17.7377 37.4637 18.3283 37.5728 18.8582 37.581C20.2862 37.601 21.2691 37.1928 22.487 37.0592C23.1465 36.9904 23.9555 36.9378 24.7969 36.7392C25.8769 36.4802 26.5161 36.1888 27.3859 35.7792C28.0169 35.488 28.5955 35.2696 29.0646 34.9904C29.7241 34.6021 30.2054 34.1693 30.7638 34.04C30.695 34.2301 30.6222 34.5698 30.0721 34.9218C30.3633 34.9136 30.7638 34.8936 30.7638 34.8936C30.7638 34.8936 30.3755 35.124 29.6918 35.6418C29.271 35.9618 28.7129 36.5034 28.1425 36.8634C27.7742 37.0941 27.3737 37.2634 27.1107 37.4016C26.4707 37.7536 26.2126 37.9314 25.7921 38.3616C25.9417 38.3536 25.9539 38.3616 25.9539 38.3616C25.9539 38.3616 25.4238 38.4304 25.0438 38.6325C24.9638 38.6325 24.8251 38.6042 24.5825 38.673C24.3923 38.7336 24.1414 38.8714 23.8827 38.944C23.5145 39.0533 23.3934 39.0048 23.3934 39.0048L23.4539 39.1261C23.4539 39.1261 22.9739 39.1178 22.8139 39.1341C22.8422 39.1421 22.8342 39.1544 22.8342 39.1544C22.8061 39.1591 22.779 39.1687 22.7542 39.1826C22.6772 39.2325 22.5925 39.2694 22.5035 39.2917C22.455 39.2997 22.4145 39.2997 22.3537 39.312C22.3739 39.3605 22.5318 39.632 22.6046 39.792C22.5441 39.8325 21.6337 40.5202 21.6337 40.5202C21.6619 40.5647 21.685 40.6122 21.7025 40.6618C21.7307 40.7506 21.743 40.8802 21.7713 40.9408C21.8398 41.0621 21.8803 41.0824 21.8803 41.0824C21.8803 41.0824 21.7713 41.1026 21.5809 41.1512C21.4193 41.1917 21.2209 41.2602 20.9409 41.3008C20.8549 41.312 20.7685 41.3187 20.6819 41.321C20.7225 41.4101 20.9003 41.7498 20.5726 42.1421C20.2449 42.5344 20.1438 42.5914 20.0427 42.8421C19.9919 42.8036 19.9377 42.7697 19.8809 42.7408C19.7718 42.6922 19.6219 42.6197 19.5694 42.5224C19.5388 42.6521 19.4982 42.7792 19.4481 42.9026C19.347 43.1736 19.1974 43.4408 19.1691 43.6429C19.0598 43.5216 18.8577 43.2829 18.5785 43.3314C18.2993 43.38 18.0769 43.7602 18.0283 43.8696C18.0283 43.8008 17.9798 43.7482 17.9678 43.829C17.9595 43.9181 17.8059 44.8482 16.9483 45.6008C16.9403 45.4106 16.9403 44.9898 16.9201 44.8525C16.8401 44.9325 16.7422 45.0506 16.1595 45.3016C15.5891 45.5522 15.6795 45.8032 15.6795 45.8032C15.6795 45.8032 15.631 45.4032 15.9385 44.9818C16.2499 44.5613 16.4401 44.3629 16.4401 44.3306C16.435 44.2978 16.421 44.267 16.3995 44.2416C16.359 44.201 16.2782 44.1525 16.2782 44.1202C16.3267 44.1002 16.8081 43.8696 16.7798 43.392C16.7515 42.9634 16.5697 42.7408 16.4401 42.5832C16.4201 42.5629 16.6305 42.4133 16.6019 42.3648C16.5817 42.3365 16.323 42.1461 16.2905 42.0448C16.2981 41.9843 16.3117 41.9247 16.331 41.8669C16.3593 41.7778 16.3795 41.717 16.3715 41.6565C16.3513 41.5554 16.2419 41.2762 16.2097 41.248C16.2379 41.256 16.4401 41.248 16.4401 41.248C16.4401 41.248 16.2785 40.989 16.2499 40.8677C16.2214 40.7464 16.1609 40.4266 16.1286 40.3661C16.1974 40.3741 16.3673 40.3861 16.3673 40.3661C16.3755 40.3053 16.2177 40.2042 16.2873 40.1261C16.3358 40.1341 16.4289 40.1746 16.5177 40.288C16.4691 40.1584 16.3883 39.9077 16.2182 39.8066C16.2982 39.7784 16.5702 39.7053 16.8089 39.8469C17.0475 39.9885 17.1289 40.1866 17.1289 40.1866C17.1289 40.1866 17.2705 40.296 17.4891 40.4578C17.7398 40.656 18.0593 40.9378 18.5691 41.1373C18.6785 41.1981 18.9574 41.1981 19.1598 41.1576C19.2479 41.1366 19.3324 41.1025 19.4105 41.0565C19.4386 41.0399 19.4685 41.0263 19.4995 41.016C19.456 40.9287 19.406 40.8448 19.3499 40.765C19.4187 40.765 19.4995 40.7733 19.4995 40.7733C19.4995 40.7733 19.5481 40.664 19.3297 40.4533C19.3782 40.4048 19.439 40.3733 19.439 40.2914C19.3702 40.2834 19.2489 40.1824 19.2206 40.1418C19.2609 40.1136 19.3217 40.0205 19.3905 39.9922C19.3297 39.9437 19.1801 39.7413 19.1113 39.7213C19.177 39.6969 19.2406 39.6671 19.3014 39.6322C19.3014 39.6322 18.9617 39.5432 18.8523 39.4704C18.743 39.3904 18.5814 39.252 18.4843 39.2114C18.383 39.1709 18.2051 39.1509 18.1323 39.0698C18.2009 39.0901 18.3102 39.0698 18.3913 39.0698C18.4518 39.0698 18.4803 39.0778 18.5003 39.0778C18.4923 39.0496 18.4923 38.9888 18.6502 38.9688C18.7261 38.9573 18.7998 38.9341 18.8686 38.9C18.8686 38.9 18.7187 38.892 18.5486 38.7301C18.3785 38.5682 18.2371 38.4389 18.1401 38.4186C18.039 38.3984 17.8489 38.4874 17.7315 38.4792C17.5697 38.4592 17.5009 38.3781 17.5009 38.3781C17.5009 38.3781 16.963 38.4266 15.7697 37.6986C14.7379 37.0674 14.2889 36.5093 14.2889 36.5093C14.1923 36.4743 14.099 36.4309 14.0099 36.3797C13.6217 36.1776 13.0835 35.7568 13.0998 35.2064L13.0977 35.2104Z" fill="#C2A44D"/>
<path fill-rule="evenodd" clip-rule="evenodd" d="M27.9774 10.9304C28.071 10.9608 28.1542 11.0169 28.2174 11.0923C28.4076 11.3107 28.5289 11.7232 28.0961 12.1643C28.266 12.2248 28.3361 12.2443 28.4844 12.2248C28.3348 12.4029 27.995 12.7832 27.9748 13.1149C27.9545 13.3859 28.1244 13.4669 28.1244 13.4669C28.1244 13.4669 27.8654 13.7661 27.8534 14.2669C27.9757 14.129 28.1095 14.0018 28.2534 13.8867C28.5529 13.648 28.9654 13.3771 29.2446 13.2072C29.2409 13.2784 29.2504 13.3497 29.2729 13.4173C29.2729 13.4173 29.7945 12.9885 30.2329 13.1789C30.431 13.268 30.342 13.5469 30.342 13.5469C30.342 13.5469 30.6132 13.4459 30.8033 13.636C30.9934 13.8261 31.2622 14.3165 31.4001 14.5067C31.4606 14.5957 31.6185 14.7656 31.7801 15.0285C32.0009 15.3966 32.1852 15.7854 32.3305 16.1893C32.3385 15.9789 32.391 15.6515 32.99 15.8576C33.5886 16.068 34.2681 16.5091 34.8385 17.3776C35.4089 18.2461 35.5502 19.2267 35.8374 19.6C36.1286 19.96 36.4281 20.5587 36.4484 20.8096C36.4686 21.0605 36.3593 21.8693 36.958 24.0579C37.1278 23.3784 37.3868 21.8693 37.3868 21.8693L37.5284 20.5384L37.6902 16.4203L33.39 12.8477L30.0284 10.4083L27.8398 10.6187L27.9772 10.9301L27.9774 10.9304Z" fill="#CAA13E"/>
<path fill-rule="evenodd" clip-rule="evenodd" d="M35.9709 17.059C35.9709 17.059 35.9101 16.659 34.8989 15.979C33.8875 15.3075 33.0987 15.3075 32.3707 14.7371C31.8123 14.288 31.2299 13.2563 30.8507 12.9166C30.4824 12.5808 30.4219 11.6099 30.4219 11.6099L31.6637 10.5699L33.5107 7.90029L35.072 6.18109L35.8203 7.22109L36.8603 8.44269L37.4387 10.8942L37.6491 14.4824L35.9691 17.0592L35.9709 17.059Z" fill="#B59544"/>
<path fill-rule="evenodd" clip-rule="evenodd" d="M37.2176 21.36C37.2482 20.8158 37.181 20.2706 37.0192 19.7501C36.7526 18.9208 36.1699 17.4483 35.8992 16.8968C35.7899 16.2859 35.871 16.2373 35.9883 16.1685C36.1056 16.0997 36.5467 15.8485 36.7883 14.9672C37.0299 14.0859 37.7795 14.0571 37.7795 14.0571L38.2406 13.7173L38.9406 15.4688L39.5512 17.0507L39.7414 18.2603L39.883 19.2917L39.5512 21.4723L37.9131 22.9528L37.2174 21.36H37.2176Z" fill="#C89D3A"/>
<path fill-rule="evenodd" clip-rule="evenodd" d="M14.3594 45.6638V45.619C14.3934 45.5977 14.4235 45.5706 14.4482 45.539C14.4764 45.4984 14.497 45.4499 14.517 45.4379C14.5575 45.4176 14.7476 45.3579 14.8487 45.3771C14.9498 45.3963 15.217 45.5064 15.3586 45.4984C15.6498 45.4904 15.9895 45.2678 16.5276 45.3691C17.3367 45.5187 17.5268 46.0688 17.9962 46.3803C18.3162 46.599 18.6474 46.5016 18.6959 46.5016H18.805C18.8252 46.5016 18.9748 46.3318 19.0559 46.34C19.2178 46.348 19.2338 46.4816 19.3348 46.4896C19.5735 46.5179 20.0348 46.3683 20.2655 46.4291C20.3339 46.4505 20.3961 46.4882 20.4468 46.5388C20.4975 46.5895 20.5352 46.6517 20.5567 46.72C20.6052 46.8696 20.5647 47.0598 20.4474 47.1691C20.1967 47.3995 19.958 47.6182 19.9095 47.8091C19.9712 47.8562 20.0305 47.9064 20.0871 47.9595C18.0856 47.4495 16.1598 46.6785 14.3594 45.6662V45.6638Z" fill="#CEB052"/>
<path fill-rule="evenodd" clip-rule="evenodd" d="M35.9023 37.5811C35.9023 37.5811 36.5333 36.7397 36.7519 36.3229C36.9703 35.8933 36.0602 30.4533 36.0602 30.4533L37.8887 24.4624L37.8399 22.5125C37.8399 22.5125 37.929 20.7123 38.1394 19.9315C38.3903 20.3805 39.1711 20.9227 39.341 21.2099C39.421 20.6595 39.6927 19.4987 39.6525 18.2608C39.8021 18.4912 40.1621 20.8093 40.1621 20.8093L40.5221 22.3707L40.9914 24.0293L41.5133 25.7811L41.8247 26.9907L42.0026 27.2819L42.1525 27.7915L42.2941 28.3419L42.7026 29.6323L42.9426 30.692L43.1327 32.6136C43.1741 32.7607 43.2039 32.9109 43.2218 33.0627C43.2298 33.2731 43.1935 33.3944 43.1935 33.4309C43.1935 33.4675 43.2623 33.892 43.2341 34.2117C43.1935 34.5317 43.1935 34.7821 42.9426 35.0117C42.6917 35.2413 42.5341 36.6136 42.5341 36.6136L42.085 36.3144C42.085 36.3144 42.1741 35.9056 41.9637 35.5336C41.7533 35.1616 41.3447 35.0845 41.1141 35.1453C40.8837 35.1939 40.4226 35.2664 40.2727 35.396C40.1311 35.5253 39.7834 35.9259 39.4637 36.108C39.0637 36.348 38.4119 36.3669 38.0642 36.4477C37.7122 36.5277 37.3239 36.7677 36.9151 37.0464C36.5946 37.2539 36.2562 37.4324 35.9039 37.5797L35.9023 37.5811Z" fill="#CCA847"/>
<path fill-rule="evenodd" clip-rule="evenodd" d="M35.9023 46.42C35.9023 46.42 35.929 46.4373 35.9805 46.4656C38.8545 45.1191 41.4296 43.2104 43.5538 40.8523C43.5306 40.0336 43.5005 39.1944 43.4674 38.8835C43.3989 38.224 43.4474 37.5525 43.4271 37.1643C43.4069 36.776 43.1885 35.1941 43.0874 34.7856C42.9781 34.3771 42.7674 34.1747 42.7354 34.1747C42.7071 34.1829 42.537 34.9435 42.537 35.1347C42.537 35.3259 42.4965 35.7861 42.4965 35.9035C42.4682 35.8952 42.4562 35.8235 42.4562 35.7941C42.4157 35.8952 42.3671 36.0733 42.3469 36.0936C42.3266 36.1139 42.3751 35.9237 42.3469 35.8832C42.3186 35.8427 42.2669 35.8629 42.2781 35.7619C42.2829 35.7019 42.2923 35.6425 42.3063 35.584C42.3063 35.584 42.185 35.7619 42.0962 36.2149C42.0071 36.664 42.0071 36.6763 41.9749 36.7165C41.9466 36.7653 41.7847 36.9269 41.7765 36.9877C41.7685 37.0968 41.9263 37.2061 41.9383 37.2667C41.9463 37.368 41.7967 37.8371 41.7482 38.0667C41.6997 38.2963 41.7199 38.7461 41.6682 38.9768C41.6277 39.1872 41.5882 39.3085 41.4498 39.3973C41.5509 39.4176 41.6479 39.4459 41.6479 39.4459C41.6479 39.4459 41.7895 40.0445 41.4295 40.5544C41.3002 40.7323 41.2679 40.8133 41.1303 40.9752C40.8591 41.2744 40.6487 41.6152 40.6285 41.8368C40.6145 41.7714 40.605 41.7051 40.6002 41.6384C40.6002 41.6384 40.1797 42.128 40.0015 42.4072C39.7711 42.7672 39.4514 42.7469 39.3615 42.836C39.2717 42.9251 39.2522 43.0867 39.2815 43.2163C39.2015 43.2363 39.0511 43.2648 38.9498 43.5763C38.9013 43.7379 38.7799 43.8963 38.5898 44.0051C38.3997 44.1139 38.169 44.1467 38.0517 44.1749C38.1527 44.2032 38.1933 44.2032 38.2418 44.2355C38.1813 44.3365 37.9021 44.4944 37.5906 44.6968C37.2791 44.8869 37.1293 45.1659 37.0525 45.348C36.9725 45.5179 36.8543 45.6272 36.6642 45.6475C36.7442 45.696 36.8626 45.8091 36.9231 45.8456C36.8341 45.8659 36.6831 45.8659 36.4135 46.0965C36.1303 46.3312 36.0333 46.4 35.9037 46.4203L35.9023 46.42Z" fill="#C39D3C"/>
<path fill-rule="evenodd" clip-rule="evenodd" d="M30.2709 48.2947C30.4258 48.1861 30.5935 48.0971 30.7703 48.0299C31.4013 47.7792 32.0687 47.7307 32.3317 47.6499C32.5826 47.5699 32.7807 47.4595 33.0922 47.3989C33.0839 47.4699 33.077 47.5365 33.0695 47.5995C32.1513 47.8881 31.2162 48.1203 30.2695 48.2947H30.2709Z" fill="#D2BA6B"/>
<path fill-rule="evenodd" clip-rule="evenodd" d="M41.9071 31.6992C41.9071 31.6992 41.7777 32.3989 41.5471 32.84C41.3164 33.281 41.0671 33.8917 41.0671 33.8917C41.0686 33.7541 41.0848 33.6171 41.1156 33.4829C40.8244 33.6528 40.1164 34.0616 39.9156 34.2434C39.7255 34.4133 39.4057 34.7128 39.3249 34.8544C39.5151 34.2962 39.7132 33.7946 39.7457 33.564C39.4545 33.7744 38.0951 34.8949 37.3873 35.6352L35.1825 37.4192C34.9281 37.5564 34.6661 37.6791 34.3977 37.7866C34.0177 37.9482 33.5687 38.0858 33.2369 38.2154C33.326 37.9768 33.4673 37.7661 33.6657 37.564C33.8761 37.3658 34.5071 36.6821 34.6041 36.364C34.6932 36.0322 34.7135 35.8341 34.5961 35.5549C34.4868 35.5832 34.2361 35.5954 34.0663 35.644C33.8964 35.6925 33.7143 35.8744 33.7143 35.8744C33.7143 35.8744 33.8436 35.1341 34.1228 34.4344C33.9124 34.4424 33.5524 34.5029 33.5524 34.5029C33.5524 34.5029 34.054 33.6616 34.9124 33.0752C34.6495 33.1311 34.3923 33.2109 34.1439 33.3136C33.6423 33.524 33.0921 33.8354 32.6836 34.0053C32.914 33.6853 34.5321 31.376 35.4951 29.2237C36.4551 27.0757 36.8137 26.5256 37.0241 25.3728C37.1332 24.8024 37.1041 23.9594 37.1332 23.2045C37.1615 22.456 37.2545 21.7845 37.194 21.3354C37.4447 21.6469 38.3833 22.5248 38.4156 24.4869C38.4439 26.4488 37.5177 29.0986 36.5345 30.5264C36.7745 30.5952 37.3964 30.6762 38.0353 29.5664C38.6743 28.4565 38.6665 28.1466 38.8972 27.6853C38.9255 27.916 38.9172 27.9968 38.9172 27.9968C38.9172 27.9968 39.8479 26.8682 40.2887 25.4482C40.3777 26.0592 40.6407 26.5973 40.2279 27.7178C39.8599 28.729 39.3785 28.976 39.3785 28.976C39.3785 28.976 39.6172 28.9354 39.9689 28.725C40.0297 28.8746 40.0177 29.045 40.1188 29.1053C40.2199 29.1656 40.3575 29.2672 40.3777 29.3642C40.4868 29.2024 40.6567 28.996 40.7095 28.8424C40.6689 29.1624 40.6407 30.5616 40.7895 31.2736C41.1012 31.2453 41.4207 31.225 41.6391 30.6626C41.4895 31.213 41.4895 31.5445 41.5905 32.0138C41.7564 31.9008 41.906 31.6984 41.906 31.6984L41.9071 31.6992Z" fill="#C0993A"/>
<path fill-rule="evenodd" clip-rule="evenodd" d="M31.3993 9.40138C31.3993 9.40138 31.0879 9.53071 30.558 9.53071C30.0969 9.53071 30.2263 9.35284 29.5063 9.35284C28.398 9.35284 24.5265 9.99284 23.8468 9.98378C23.4057 9.97578 25.3353 10.1739 25.3353 10.1739L30.2668 10.2427L31.2577 10.1627L31.626 9.41338L31.3993 9.40138Z" fill="#A88F33"/>
<path fill-rule="evenodd" clip-rule="evenodd" d="M18.614 19.0413C18.614 19.0413 17.9828 19.5226 17.7159 19.8909C17.449 20.2592 17.3074 20.5016 17.0039 20.801C17.0751 20.8038 17.1463 20.7942 17.2143 20.7728C17.2143 20.7728 17.2143 20.8528 17.1658 20.8738C17.2077 20.8691 17.2502 20.8739 17.29 20.8877C17.3299 20.9016 17.3662 20.9242 17.3962 20.9538C17.3071 21.0024 17.0644 21.2453 17.2546 21.5325C17.3962 21.7509 17.6956 21.7709 17.6956 21.7709C17.6956 21.7709 17.6268 21.9693 17.914 21.949C18.533 21.9208 19.2247 21.6496 19.5442 21.7184C19.8642 21.7984 20.046 21.8277 20.2724 22.2202C20.5124 22.6085 20.7215 22.6693 20.7215 22.6693C20.7215 22.6693 20.8631 22.309 20.8308 21.7712C20.9469 21.4812 21.0113 21.1732 21.021 20.861L20.8106 19.3117L19.8924 18.1506L18.7031 18.8101L18.614 19.0405V19.0413Z" fill="#E3C571"/>
<path fill-rule="evenodd" clip-rule="evenodd" d="M19.7383 18.8107C19.7383 18.8107 19.8273 19.021 20.1996 19.041C20.1591 19.1301 20.1591 19.1424 20.1713 19.2109C20.1793 19.2797 20.1913 19.3808 20.1913 19.3808C20.2323 19.361 20.2694 19.3338 20.3007 19.3008C20.3209 19.3899 20.2804 19.5312 20.3007 19.6325C20.3132 19.6941 20.3335 19.7539 20.3612 19.8104C20.3671 19.7965 20.3739 19.7831 20.3815 19.7701C20.3895 19.7499 20.4615 19.9885 20.6607 20.1701C20.6605 20.1422 20.6674 20.1147 20.6807 20.0901C20.6837 20.1408 20.7005 20.1898 20.7292 20.2317C20.7143 20.2246 20.7007 20.2151 20.6889 20.2035C20.6889 20.2035 20.7089 20.8434 20.8183 21.1744C20.8366 21.153 20.8528 21.13 20.8668 21.1056C20.8668 21.0856 20.8588 21.2837 20.8385 21.4256C20.8103 21.5672 20.8305 21.7653 20.8305 21.7653C20.9035 21.7079 20.9836 21.6603 21.0689 21.6237C21.1903 21.5749 21.3889 21.4253 21.51 21.0936C21.5802 20.9057 21.6344 20.7122 21.6719 20.5152C21.711 20.5905 21.738 20.6715 21.7519 20.7552C21.7601 20.8563 21.9503 20.8037 21.9503 20.8037L21.9908 20.3626L22.2308 19.3635L22.4492 18.7445L23.5009 17.1064L25.4012 15.6429L27.0599 16.0232L28.4593 14.1219L26.0484 12.6736L23.7668 12.9123L21.6961 15.7803L20.0377 18.3816L19.7383 18.8104V18.8107Z" fill="#D8B65B"/>
<path fill-rule="evenodd" clip-rule="evenodd" d="M31.6884 14.6603C31.6884 14.6603 31.5468 14.6885 31.1383 14.9003C30.7297 15.112 30.4465 15.1792 30.2887 15.4907C30.1308 15.8021 30.1188 16.0491 30.1188 16.0491C30.1188 16.0491 30.398 15.9277 30.5599 15.8872C30.7297 15.8469 30.9199 15.8589 30.8996 15.9277C30.8801 15.9749 30.8531 16.0186 30.8196 16.0571C30.8196 16.0571 31.1396 16.0491 31.1311 16.2069C31.1225 16.3648 31.0705 16.5387 31.01 16.6155C30.9492 16.6955 30.6985 16.8139 30.6703 16.9069C30.6015 17.0971 30.6985 17.1051 30.662 17.2587C30.6337 17.4085 30.5004 17.6997 30.0633 18.2093C29.6143 18.7192 29.4233 19.0792 29.4233 19.0792C29.4233 19.0792 29.2049 18.6707 29.0916 18.3187C29.0116 18.3589 28.582 18.5976 28.582 18.5976L27.5868 15.1309L27.6068 14.9003C27.6068 14.9003 27.6959 14.7912 27.7161 14.5888C27.5665 14.5403 27.5463 14.4997 27.3479 14.3099C27.1495 14.12 26.9879 13.8891 26.6564 13.7312C26.6079 13.6421 26.5471 13.5211 26.3044 13.4723C26.0617 13.4235 25.9161 13.3835 25.9161 13.3835C25.9161 13.3835 26.0455 13.3347 26.1063 13.2336C25.9564 13.2539 25.8353 13.3024 25.5076 13.2944C25.1759 13.2861 25.1393 13.2741 24.9575 13.3024C24.7756 13.3307 24.5575 13.4117 24.4761 13.1325C24.3871 13.0637 24.1969 13.1245 24.0351 13.3629C23.8732 13.6013 23.8167 13.7917 23.5052 13.8848C23.4833 14.0221 23.4352 14.1539 23.3636 14.2731C23.2745 14.4229 23.1329 14.5725 22.9428 14.7949C22.6433 15.1469 22.6919 15.7253 22.2145 16.1664C21.7332 16.6072 22.2945 14.9445 22.2945 14.9445L23.0631 13.1045L25.2516 10.9645L28.6497 10.7341L28.9815 12.4941L30.6401 13.0645L31.6879 14.6624L31.6884 14.6603Z" fill="#D3AE4D"/>
<path fill-rule="evenodd" clip-rule="evenodd" d="M32.228 15.0485L30.8 12.9896L29.8008 12.2208C29.8008 12.2208 29.0888 10.9104 29.0403 10.8699C28.9997 10.8416 28.3283 10.7688 27.8995 10.7405L27.9795 10.9387C28.0731 10.9691 28.1562 11.0252 28.2195 11.1005C28.4096 11.3189 28.5309 11.7315 28.0981 12.1725C28.268 12.2331 28.3381 12.2525 28.4864 12.2331C28.3368 12.4112 27.9971 12.7915 27.9768 13.1232C27.9565 13.3941 28.1264 13.4749 28.1264 13.4749C28.1264 13.4749 27.8675 13.7744 27.8555 14.2749C27.9777 14.137 28.1116 14.0098 28.2555 13.8947C28.5549 13.6547 28.9675 13.3848 29.2467 13.2149C29.2429 13.2862 29.2524 13.3576 29.2749 13.4253C29.2749 13.4253 29.7965 12.9965 30.2349 13.1867C30.4331 13.2757 30.344 13.5549 30.344 13.5549C30.344 13.5549 30.6152 13.4539 30.8053 13.644C30.9955 13.8341 31.2664 14.3235 31.404 14.5139C31.4645 14.6029 31.6224 14.7728 31.784 15.0355C32.0048 15.4037 32.1892 15.7925 32.3344 16.1965C32.3424 16.0347 32.3749 15.8083 32.6544 15.8083L32.2296 15.0477L32.228 15.0485Z" fill="#CAA13E"/>
<path fill-rule="evenodd" clip-rule="evenodd" d="M10.8223 20.8981C10.8223 20.8981 10.7212 20.6472 10.8223 20.1579C10.9233 19.6685 11.0812 19.4379 11.1337 18.7179C11.1863 17.9979 11.6556 17.0997 11.6556 17.0997L12.954 16.5093L13.8724 16.76L14.1433 17.9899L12.9823 18.6299C12.9823 18.6299 12.9217 18.9008 12.594 19.1192C12.2663 19.3376 11.8132 19.5075 11.7041 19.7301C11.6389 19.8665 11.5913 20.0106 11.5625 20.1589C11.5625 20.1589 11.2308 20.0901 11.0327 20.3085C10.8223 20.5312 10.8303 20.7293 10.8223 20.8992V20.8981Z" fill="#F4EFC8"/>
<path fill-rule="evenodd" clip-rule="evenodd" d="M13.441 20.5703C13.441 20.5703 13.3316 20.6391 13.2508 20.8103C13.1708 20.681 12.9796 19.9122 12.9716 19.2205C12.9636 18.5287 12.9223 18.3573 13.0823 18.1189C13.2423 17.8805 13.8698 17.6293 13.7807 17.1999C13.6916 16.7914 13.3194 16.6215 12.8623 16.7389C12.5423 16.8189 12.3042 17.4994 11.9724 17.8391C11.7215 18.0981 11.4223 18.0575 11.3415 18.1991C11.2322 18.3893 11.3332 18.5794 11.301 18.7007C11.2927 18.7413 11.1916 18.9597 11.0095 19.2226C10.6415 19.7525 10.0186 20.501 9.9375 21.1725C9.96577 20.7922 9.94577 20.7842 10.0468 20.3634L9.98603 20.2623L10.386 18.9517L10.645 17.8717L11.2236 16.0631L12.2428 14.2146L13.234 13.1061L14.2655 13.1749L14.3868 14.7242L14.9775 17.633L16.2194 19.1621L14.229 20.5015L13.4402 20.5703H13.441Z" fill="#EBCC73"/>
<path fill-rule="evenodd" clip-rule="evenodd" d="M14.0591 21.12C14.0591 21.12 13.8892 21.1605 13.8284 21.1283C13.7676 21.096 13.7073 21.0595 13.7273 21.019C13.7473 20.9784 13.8567 20.9099 13.8567 20.8774C13.8589 20.848 13.8496 20.8188 13.8307 20.7962C13.8119 20.7735 13.7849 20.7591 13.7556 20.756C13.6625 20.744 13.6343 20.8045 13.6343 20.8045C13.6343 20.8045 13.5452 20.736 13.4727 20.7245C13.5156 20.7193 13.5588 20.7165 13.602 20.7163C13.4902 20.6656 13.3716 20.6316 13.25 20.6152C13.3511 20.5547 13.5495 20.3765 13.6788 20.3765C13.8081 20.3765 13.8892 20.3565 13.8689 20.2877C13.8487 20.2189 13.7476 20.1179 13.6385 20.0774C13.6788 20.0288 13.7073 19.956 13.6103 19.7574C13.5089 19.5592 13.5495 19.4256 13.582 19.3774C13.6103 19.3166 13.7113 19.2075 13.7599 19.1387C13.8084 19.0699 13.8489 18.9768 13.9297 18.9283C13.9703 18.9 14.0996 18.8483 14.2292 18.799C14.3708 18.7504 14.4881 18.6896 14.5689 18.7504C14.658 18.811 14.6175 18.892 14.6175 18.892C14.6175 18.892 14.8967 18.7907 15.1473 18.9203C15.3983 19.0414 16.0092 19.1184 16.0092 19.1184L16.2281 19.5595L14.7799 20.8013L14.1812 21.1008L14.0599 21.1208L14.0591 21.12Z" fill="#E5C66B"/>
<path fill-rule="evenodd" clip-rule="evenodd" d="M16.0726 19.0899C16.0726 19.0899 15.6236 19.3893 15.5225 19.4984C15.583 19.5067 15.6841 19.5472 15.6436 19.6077C15.595 19.6683 15.3038 19.8787 15.142 20.0771C14.9721 20.2752 14.8102 20.5261 14.7537 20.6475C14.6932 20.7565 14.2318 21.0763 14.0742 21.1165C14.406 21.1165 15.0734 20.708 15.3241 20.708C15.3161 20.8293 15.3929 20.9669 15.5345 20.9789C15.6761 20.9909 16.0846 21.068 16.6348 20.7283C17.1849 20.3965 17.003 20.1496 17.2334 19.988C17.6745 19.6965 17.8524 19.4376 18.095 19.276C18.3377 19.1144 18.4633 19.0776 18.4633 19.0776C18.4633 19.0776 18.4713 18.9563 18.5433 18.9685C18.563 18.9708 18.5817 18.9784 18.5974 18.9905C18.6131 19.0027 18.6252 19.0188 18.6324 19.0373C18.6324 19.0373 19.0532 18.7379 19.5924 18.6571C19.5798 18.6515 19.5697 18.6414 19.5641 18.6288C19.5641 18.6288 19.6044 18.6085 19.6126 18.5883C19.6126 18.5883 19.6409 18.5477 19.6612 18.568C19.6814 18.5883 19.7097 18.7379 19.7502 18.7987C19.8393 18.7581 20.0092 18.3779 20.0092 18.3779L20.418 17.2088V16.1408L20.098 16.2016L17.698 17.2208L16.2414 18.7299L16.0716 19.0899H16.0726Z" fill="#E6BD62"/>
<path fill-rule="evenodd" clip-rule="evenodd" d="M22.9779 13.8512C23.1078 13.8197 23.2322 13.7692 23.3473 13.7013C23.2987 13.8309 23.2987 13.9725 23.0883 14.28C22.8779 14.5875 22.8699 14.632 22.7001 14.9515C22.5302 15.2832 22.5099 15.7605 22.3481 15.9707C22.4206 15.9354 22.4984 15.9123 22.5785 15.9021C22.5785 15.9021 22.4169 16.0437 22.3481 16.1933C22.2793 16.3429 22.1579 16.6544 21.8587 16.8448C21.5595 17.0352 21.179 17.1563 20.7705 17.6053C20.3617 18.0461 19.9411 18.6045 19.7305 18.8053C19.8398 18.6152 19.9894 18.2349 20.0299 17.9843C20.0705 17.7336 20.0217 17.4339 20.0905 17.1024C20.1593 16.7709 20.1593 16.532 20.4905 15.9533C20.8217 15.3747 21.3886 13.3643 21.3886 13.3643L22.6102 12.976L22.9785 13.8499L22.9779 13.8512Z" fill="#B6933F"/>
<path fill-rule="evenodd" clip-rule="evenodd" d="M22.0963 13.1109C22.0963 13.1109 21.7283 13.6408 21.6272 14.1101C21.5261 14.5794 21.6189 14.5389 21.5584 14.7696C21.5222 14.9102 21.5222 15.0577 21.5584 15.1984C21.6859 14.9931 21.8604 14.821 22.0675 14.6965C22.4155 14.4864 22.6987 14.3365 22.8675 14.1586C23.0373 13.9685 23.1789 13.657 23.5469 13.4184C23.3973 13.3981 23.1869 13.3293 23.1469 13.3384C23.2968 13.1685 23.7456 12.9096 24.1987 12.5981C24.6477 12.2781 24.6195 12.149 25.3477 11.8296C25.1091 11.8701 24.9957 11.8093 24.7973 11.8296C24.8773 11.6597 25.1573 11.5786 25.4373 11.2997C25.7173 11.0208 25.2595 10.608 25.2595 10.608L23.1261 11.8984L22.0947 13.112L22.0963 13.1109Z" fill="#C49937"/>
<path fill-rule="evenodd" clip-rule="evenodd" d="M16.3086 12.148L16.3571 11.7598L16.9681 10.7808L17.6073 9.06164V6.71124L17.5587 5.35204L17.6598 4.46191L17.7366 4.17897L17.8177 4.06964L18.3393 4.34057L19.0595 5.31951L19.1283 7.20884L18.4283 10.1902L16.4299 12.3707L16.3086 12.148Z" fill="#DFC068"/>
<path fill-rule="evenodd" clip-rule="evenodd" d="M17.896 3.96028C17.896 3.96028 17.576 3.96855 17.5078 5.29948C17.4395 6.63042 17.4064 7.33015 17.3579 7.98962C17.3094 8.64908 17.1963 9.04935 17.1395 9.43788C17.0827 9.82642 17.0504 10.356 16.8686 10.6797C16.7886 10.8293 16.6176 11.2987 16.2171 11.6507C15.768 12.0389 15.0971 12.3102 14.9955 12.3304C14.8174 12.3707 13.9152 12.4598 13.5472 12.6622C13.4179 12.731 13.1952 12.8118 12.9486 13.0424C12.459 13.4832 11.8078 14.272 11.3384 15.2227C10.6184 16.6427 9.89844 20.6515 9.89844 20.6515L10.0603 20.3806C10.0603 20.3806 10.0806 20.0205 10.4406 19.3893C10.7926 18.7584 10.6915 18.0504 11.1808 16.8408C11.371 16.3798 11.6096 15.7811 11.9008 15.2712C12.3622 14.4419 12.9203 13.7299 13.4827 13.3416C14.4008 12.7107 15.4123 12.5731 15.4123 12.5731L16.5006 11.8531C16.5006 11.8531 16.6907 11.4851 16.9416 11.0643C17.2934 10.4739 17.7416 9.81442 17.8395 8.85575C17.9894 7.43575 17.6291 6.50535 17.6494 5.66402C17.6696 4.82268 17.6776 4.20375 17.8478 4.05388C18.0179 3.90402 17.8963 3.96082 17.8963 3.96082L17.896 3.96028Z" fill="#A88F33"/>
<path fill-rule="evenodd" clip-rule="evenodd" d="M17.8995 10.3114C17.8995 10.3114 18.3795 9.13011 18.5992 8.08238C18.6397 7.87198 18.7205 7.66185 18.7408 7.49198C18.8419 6.50078 18.8701 6.09225 18.7408 5.55011C18.6397 5.15011 18.2515 4.78958 18.0491 4.51011C17.8509 4.21865 17.7579 4.11011 17.7984 4.04878C17.8389 3.98745 17.9965 3.88718 18.1501 3.89918C18.3134 3.90393 18.474 3.94184 18.6222 4.01061C18.7703 4.07937 18.903 4.17755 19.012 4.29918C19.3235 4.65918 19.5701 5.88105 19.5701 5.88105L19.8296 7.49331L20.4891 9.52398L17.9 10.313L17.8995 10.3114Z" fill="#C99E3D"/>
<path fill-rule="evenodd" clip-rule="evenodd" d="M22.4087 9.08187C22.4087 9.08187 22.3196 9.12214 22.158 9.08187C22.1649 9.14791 22.1534 9.21457 22.1249 9.27451C22.0963 9.33445 22.0518 9.38535 21.9961 9.4216C21.8263 9.3528 20.2361 9.4904 20.2361 9.4904C20.2361 9.4904 19.4959 9.3608 19.2652 8.38187C19.1036 7.7304 19.3865 6.83254 19.2935 6.24187C19.1519 5.372 18.9537 5.20187 18.9335 4.9312C18.9132 4.66054 18.8929 4.59147 18.8929 4.4216C18.8039 4.40134 18.7514 4.37307 18.6626 4.37307C18.6423 4.29307 18.6825 4.2232 18.5938 4.0816C18.6423 4.10187 18.974 4.1424 19.3623 4.5104C19.6823 4.80987 19.6823 4.91894 19.7306 4.97974C19.7911 5.04027 20.2807 5.45974 20.4911 5.87787C20.7015 6.296 21.11 7.62934 21.2031 7.84774C21.2313 7.9368 21.2921 8.02587 21.4431 8.228C21.6777 8.51947 22.0215 9.00134 22.4097 9.08134L22.4087 9.08187Z" fill="#B58634"/>
<path fill-rule="evenodd" clip-rule="evenodd" d="M19.7891 5C20.0341 5.39587 20.2543 5.80662 20.4483 6.22987C20.6869 6.76773 20.8285 7.2088 21.128 7.5688C20.9661 7.09973 20.6789 6.17733 20.5091 5.8496C20.3189 5.50293 19.9307 5.1296 19.7891 5.00027V5Z" fill="#A88F33"/>
<path fill-rule="evenodd" clip-rule="evenodd" d="M17.0365 11.6507C17.0365 11.6507 16.628 11.7517 15.8674 12.1523C15.6165 12.2816 15.3781 12.3907 15.1474 12.492C14.5482 12.7629 13.9056 13.0133 13.3957 13.1515C13.4362 13.2 13.4562 13.22 13.4562 13.22C13.4562 13.22 13.4562 13.4184 13.5656 13.5315C13.505 13.5923 12.6957 14.1424 12.9346 15.9829C13.0962 15.9224 13.2864 15.8413 13.3146 15.8413C13.3634 15.8496 13.3754 15.9829 13.436 15.9829C13.4965 15.9829 13.6949 15.9029 13.9053 15.6309C13.8973 15.7403 13.776 16.8405 14.4272 17.5808C14.5485 17.4392 14.856 16.9699 14.856 16.9699L14.864 16.8203C14.864 16.8203 14.8922 16.2984 15.0624 15.8211C15.2325 15.3437 15.564 14.9917 15.564 14.9917L17.2949 12.52L17.036 11.6504L17.0365 11.6507Z" fill="#E6C367"/>
<path fill-rule="evenodd" clip-rule="evenodd" d="M15.4213 15.28C15.342 15.336 15.2547 15.3796 15.1623 15.4093C15.1341 15.3082 15.0935 14.9603 15.3322 14.6205C15.6114 14.2117 16.2221 13.6819 16.3919 13.2605C16.5013 12.9893 16.4527 12.3099 17.4237 11.44C18.3946 10.5701 18.7746 10.2709 18.7746 10.2709L20.3442 9.48212L22.2738 10.2427L21.3151 14L20.5709 15.76L17.6109 15.2019L15.421 15.28H15.4213Z" fill="#DCBA5A"/>
<path fill-rule="evenodd" clip-rule="evenodd" d="M16.5508 14.2598L16.919 13.7987V13.471C16.919 13.471 17.3276 13.3617 17.7684 12.9126C18.2092 12.4635 18.8201 11.6019 19.3582 11.6545C19.8964 11.7153 19.9489 12.8235 19.9692 13.1353C19.9894 13.447 20.0582 14.1545 20.1673 14.535C20.2886 14.9153 18.8566 16.3553 18.8566 16.3553L17.8841 17.0955L16.5508 14.2598Z" fill="#E9CE77"/>
<path fill-rule="evenodd" clip-rule="evenodd" d="M17.6875 18.0986C17.6875 18.0986 17.987 17.6293 17.7675 17.5282C17.8968 17.237 18.1355 16.9296 18.1355 16.9296C18.1355 16.9296 18.3054 16.509 18.8555 15.9912C19.4056 15.4733 19.7456 15.1293 19.8347 14.7816C19.8896 14.555 19.9195 14.323 19.9238 14.0898C19.9832 14.1384 20.0469 14.1817 20.1139 14.2192C20.203 14.2597 20.6235 14.6074 20.563 15.3074C20.5024 16.0074 20.243 16.2986 20.243 16.2986C20.243 16.2986 19.9923 16.5493 19.8144 16.6789C19.624 16.8082 19.5555 16.9578 19.2358 16.9701C19.2686 16.944 19.3056 16.9234 19.3451 16.9093C19.3451 16.9093 19.0134 16.869 18.8352 17.0306C18.6571 17.1922 18.2784 17.6901 18.0883 17.84C17.8982 17.9613 17.6883 18.0989 17.6883 18.0989L17.6875 18.0986Z" fill="#CDAE50"/>
<path fill-rule="evenodd" clip-rule="evenodd" d="M31.1371 10.2304C30.6591 10.0562 30.1569 9.95793 29.6485 9.93918C28.7989 9.91091 27.5571 9.95944 26.3395 9.96744C25.0288 9.97544 23.8395 9.51838 22.1891 9.43758C21.9181 9.27571 21.2291 8.56771 19.0781 10.0685C19.2075 10.0605 20.6397 9.73678 21.1371 10.36C21.6387 10.9789 21.4971 12.0306 21.4285 12.2813C21.2989 12.8397 20.8781 13.6528 20.7085 14.2232C20.5389 14.7936 20.5789 15.0933 20.4576 15.4933C20.3363 15.8933 20.0693 16.092 20.2269 16.553C20.4373 16.4237 20.5469 16.4237 20.8984 15.6349C21.2499 14.8461 21.1776 14.2837 21.7603 13.6162C22.3307 12.9448 23.2803 12.0264 23.6413 11.7957C24.0024 11.565 26.8693 10.0765 29.8712 11.4965C30.5952 11.4197 31.1373 10.2301 31.1373 10.2301L31.1371 10.2304Z" fill="#D2A83E"/>
<path fill-rule="evenodd" clip-rule="evenodd" d="M20.2921 9.67998C20.2892 9.64959 20.2825 9.61967 20.2721 9.59092C20.2441 9.53176 20.2072 9.47719 20.1628 9.42905C20.1628 9.42905 19.4508 9.29972 19.0908 9.33999C18.4596 9.40879 17.8892 10.1896 17.6223 10.5901C17.3553 10.9907 17.0236 11.6093 16.6636 11.9291C16.6676 11.8979 16.6604 11.8664 16.6433 11.84C16.6433 11.84 16.6636 11.8683 16.6233 11.9088C16.5831 11.9493 16.5828 11.9693 16.6031 11.9888L16.6639 12.0493C16.6839 12.0493 17.2423 11.7984 18.0028 11.0893C18.8119 10.3491 19.4308 9.96932 19.7545 9.83918C19.9272 9.76582 20.1076 9.7124 20.2924 9.67998H20.2921Z" fill="#C29637"/>
<path fill-rule="evenodd" clip-rule="evenodd" d="M34.0996 6.63837C34.0996 6.63837 33.97 6.79997 33.8082 6.9781C33.4482 7.35837 32.9788 7.7869 32.5783 8.22797C32.1983 8.64877 31.7695 8.9765 31.2879 9.52663C30.8063 10.0768 30.2479 10.6874 30.1066 10.8656C29.9772 11.0437 29.8762 11.3349 29.8762 11.4845C29.8074 11.436 29.7266 11.3834 29.7266 11.3834C29.7606 11.4469 29.8013 11.5067 29.8479 11.5616C29.949 11.7032 30.1066 11.8816 30.1876 11.9904C30.2871 12.1289 30.3585 12.2855 30.3978 12.4514C30.4463 12.4594 30.7578 12.5202 31.1463 11.881C31.5348 11.2418 32.0442 10.5421 32.0442 10.5421L32.8532 9.3405L33.3631 8.3213L34.0031 7.1805L34.1004 6.63837H34.0996Z" fill="#AC8132"/>
<path fill-rule="evenodd" clip-rule="evenodd" d="M34.9291 5.82135C34.9291 5.82135 34.4395 6.22135 34.2494 6.46135C34.0592 6.70135 33.6094 7.33122 33.6094 7.33122L33.7712 7.31095L34.5926 6.58295L34.9126 6.01255L34.9288 5.82242L34.9291 5.82135Z" fill="#A88F33"/>
<path fill-rule="evenodd" clip-rule="evenodd" d="M34.7795 37.9693C34.7795 37.9693 34.7715 37.6376 34.9576 37.4395C35.1477 37.2411 35.6291 36.9499 36.0984 35.8576C36.5677 34.7654 36.62 34.5187 36.62 34.5187C36.62 34.5187 35.7787 35.2387 35.26 35.4085C35.3813 35.1576 35.4501 34.9798 35.5109 34.8502C35.4421 34.7896 35.1509 34.7208 35.1227 34.6885C35.2843 34.5267 35.3733 34.1302 35.7011 33.8672C36.1219 33.5472 36.8904 32.9974 37.4877 32.5072C38.0851 32.0171 39.2595 30.8771 39.4093 30.5453C39.4984 30.6747 39.5184 30.7555 39.5184 30.7555C39.5184 30.7555 38.928 31.5243 38.6205 32.0136C38.3493 32.4344 38.3696 32.6731 38.3696 32.6731L38.928 32.4331C38.928 32.4331 39.0896 33.0317 38.3576 33.9421C38.6776 33.8208 38.8067 33.8936 38.9885 33.7923C38.6891 33.9827 38.2765 34.2416 37.8883 34.9534C37.508 35.6654 36.9901 36.4947 36.1165 37.0123C35.2669 37.5584 34.7773 37.967 34.7773 37.967L34.7795 37.9693Z" fill="#A67A2E"/>
<path fill-rule="evenodd" clip-rule="evenodd" d="M32.589 10.6514C32.589 10.6514 32.2572 11.3429 32.2087 11.881C32.2007 12.0106 32.1682 12.1117 32.1682 12.2613C32.1602 12.7426 32.1964 13.2808 32.0882 13.5314C32.0476 13.4304 32.0274 13.3616 31.9868 13.3213C31.9263 13.4912 31.817 14.021 31.7279 14.2192C31.6876 14.0898 31.5986 13.6408 31.6068 13.1109C31.6151 12.581 31.6268 12.4797 31.6268 12.3706C31.6068 12.5322 31.4975 12.7509 31.457 12.8802C31.3964 12.7712 31.3276 12.6296 31.2466 12.5122C31.198 12.5922 31.1375 12.7104 31.085 12.7712C31.0767 12.7226 31.0567 12.593 31.0444 12.4112C31.0364 12.2008 31.0242 11.9298 31.0364 11.873C31.0564 11.764 31.2266 11.3352 31.5866 10.9426C32.0154 10.4733 32.4564 9.57143 32.5858 9.29223C32.7151 9.01303 33.2652 7.85223 33.2652 7.85223H33.686L33.0751 9.2437C33.0751 9.2437 32.7071 10.0042 32.517 10.2837C32.3268 10.5632 31.9263 11.364 31.7482 11.6754C31.8775 11.5056 31.9868 11.4165 32.1164 11.2546C32.2418 11.1413 32.5895 10.652 32.5895 10.652L32.589 10.6514Z" fill="#8C6228"/>
<path fill-rule="evenodd" clip-rule="evenodd" d="M34.9368 5.76855C34.8681 5.98011 34.7595 6.17654 34.6168 6.34722C34.3659 6.64669 33.8278 7.04695 33.5651 7.36642C33.3251 7.67789 32.8451 8.52749 33.0632 9.53469C33.1432 9.31629 33.2939 8.88349 33.6944 8.39389C34.095 7.90429 34.5238 7.34215 34.7344 6.90535C34.9446 6.46429 34.9728 6.11655 34.9728 6.11655L35.0528 6.01549L35.0043 5.78482L34.9355 5.76855H34.9368Z" fill="#CBA94C"/>
<path fill-rule="evenodd" clip-rule="evenodd" d="M43.1273 32.601C43.1273 32.601 42.9654 32.1602 42.9169 31.7597C42.8683 31.3592 42.9969 31.2797 42.8481 30.8213C42.759 30.5421 42.5974 30.5813 42.5569 30.5421C42.5163 30.5029 42.4881 30.081 42.4961 29.8504C42.5041 29.6197 42.4881 29.3205 42.4475 29.1909C42.387 29.1424 42.3465 29.1018 42.2574 28.8026C42.1563 28.5032 42.1078 28.3536 42.0593 28.2648C42.0107 28.176 41.8689 28.0949 41.8689 28.0058C41.8689 27.8277 42.0307 27.7349 42.0307 27.6858C42.0227 27.5848 41.9014 27.6658 41.8689 27.6373C41.8286 27.5888 41.9702 27.2976 41.9177 27.257C41.8974 27.237 41.7558 27.4069 41.7193 27.3584C41.6787 27.3096 41.6302 26.8282 41.5574 26.5088C41.4889 26.1973 41.4158 25.9709 41.4078 25.8778C41.3998 25.7888 40.8494 24.2192 40.7161 23.8389C40.6086 23.5176 40.5182 23.1908 40.4451 22.86C40.4046 22.6698 40.3763 22.2813 40.3561 22.3218C40.3358 22.3624 40.3481 22.5605 40.3155 22.5525C40.2873 22.5442 40.1862 21.8528 40.1539 21.7434C40.1257 21.6341 39.9555 21.2634 39.9139 20.9952C39.8734 20.724 39.7846 20.016 39.7238 19.5346C39.663 19.0533 39.6347 18.8552 39.6347 18.7346C39.6447 18.4398 39.6284 18.1447 39.5862 17.8528C39.5062 17.3429 39.3462 16.724 39.2059 16.3642C38.935 15.6845 38.2147 13.945 38.0859 13.5122C38.0859 13.4029 38.2275 13.4637 38.2275 13.4637C38.2275 13.4637 38.5793 14.3456 38.8382 15.025C39.0891 15.7048 39.3278 16.3034 39.3886 16.3642C39.4371 16.4248 39.8174 17.0922 39.9873 18.1845C40.1571 19.2768 40.2177 20.284 40.319 20.9554C40.3675 21.2754 40.4081 21.6149 40.5091 21.9546C40.6182 22.3229 40.7881 22.7032 41.0107 23.2856C41.2009 23.7752 41.3425 24.1837 41.4193 24.5357C41.5083 24.9848 41.5083 25.3245 41.5609 25.5472C41.6097 25.7373 41.6822 26.1173 41.8523 26.6672C42.0225 27.217 42.2729 27.9253 42.4427 28.3661C42.7747 29.248 42.9227 29.9842 42.9729 30.3768C43.0171 30.7813 43.167 32.181 43.1265 32.6016L43.1273 32.601Z" fill="#A88F33"/>
<path fill-rule="evenodd" clip-rule="evenodd" d="M34.9581 5.71999L34.9379 5.76853C34.9379 5.76853 34.9984 5.78879 34.9864 5.86986C34.9873 5.98077 34.9805 6.09161 34.9661 6.20159C34.9461 6.34319 34.9056 6.45226 34.8976 6.54133C34.8976 6.73146 34.9259 6.94986 34.6576 7.49199C34.5776 7.64159 34.5283 7.77093 34.4877 7.85999C34.3867 8.07839 34.3664 8.11093 34.2773 8.21199C34.4189 8.13199 34.9288 7.81199 35.1875 7.85999C35.0096 7.96106 34.7384 8.15946 34.5685 8.41839C34.6091 8.42639 34.7789 8.45893 35.0485 8.41839C35.4976 8.34959 35.9992 8.18773 36.44 8.21999C36.9216 8.24826 36.7315 7.64159 36.7315 7.64159L36.1757 6.41999L35.124 5.67999L34.9581 5.72026V5.71999Z" fill="#BE9C44"/>
<path fill-rule="evenodd" clip-rule="evenodd" d="M37.6996 14.8707C37.6996 14.8707 37.2303 14.4013 37.0401 12.7907C36.85 11.1725 36.8905 8.79066 36.8905 8.79066L36.5103 7.86026C36.5103 7.86026 36.4303 7.24133 36.2311 7.01093C36.0319 6.78053 35.6407 6.392 35.4625 6.20186C35.2844 6.01173 35.0823 5.7528 34.9609 5.71226C35.0215 5.6112 35.2927 5.0408 36.3321 5.0328C37.3716 5.0248 37.6921 5.6032 37.8007 5.8136C37.9092 6.024 38.3993 6.9336 38.5812 8.66693C38.7511 10.3981 38.7593 10.5277 38.7311 11.1264C38.7108 11.4581 38.6015 12.2267 38.4111 13.0477C38.2372 13.7437 38.0471 14.5205 37.6991 14.8723L37.6996 14.8707Z" fill="#A17C34"/>
<path fill-rule="evenodd" clip-rule="evenodd" d="M36.2312 16.2501C36.3876 16.2614 36.5439 16.2261 36.6803 16.1488C36.8299 16.1408 37.372 16.2096 37.7885 15.6797C37.8168 15.8008 37.8899 16.1288 37.6995 16.42C37.8008 16.3186 37.9504 16.2784 37.9707 16.2501C37.9787 16.3997 38.1203 16.8608 37.5216 17.9813C37.6832 17.8034 37.8733 17.8114 38.0432 17.7912C38.0515 18.0016 38.1645 18.7093 37.8653 19.0898C37.6672 19.3488 37.3435 19.2677 37.3435 19.2677C37.3482 19.2112 37.3482 19.1543 37.3435 19.0978C37.3355 18.9885 37.2949 18.8794 37.3235 18.8066C37.167 18.7352 37.0246 18.6365 36.9027 18.5152C36.5507 18.1834 36.0936 17.6173 36.0613 17.1965C36.0208 16.7272 36.4416 16.6261 36.4416 16.6261C36.4064 16.5946 36.3763 16.5577 36.3525 16.5168C36.3323 16.4482 36.312 16.3389 36.2312 16.2501Z" fill="#8C6228"/>
<path fill-rule="evenodd" clip-rule="evenodd" d="M33.1098 11.1611C33.1098 11.1611 33.0895 11.1328 32.9805 11.2622C33.0007 11.1328 33.021 11.0112 33.029 10.8939C33.0806 10.7853 33.1474 10.6845 33.2274 10.5947C33.1666 10.7158 33.1261 10.8251 33.1261 10.8251C33.1261 10.8251 33.2759 10.5459 33.4943 10.376C33.6439 10.2547 33.8341 10.1982 33.9149 10.0848C34.0039 9.96349 33.9837 9.94322 34.0039 9.92296C34.0039 9.92296 34.2023 9.79362 34.5058 9.41309C34.5461 9.36456 34.6069 9.31202 34.6474 9.26349C34.7159 9.23522 34.8778 9.16242 35.0679 9.06509C35.2663 8.95602 35.4887 8.80642 35.6263 8.74509C35.8973 8.62376 36.1847 8.63602 36.3181 8.44562C36.4191 8.41736 36.5282 8.11389 36.5082 7.85522C36.6578 7.91576 37.4263 8.39309 37.6895 9.43682C37.8797 10.1771 37.5397 11.3179 37.3981 11.8683C37.2565 12.4187 37.2365 12.827 37.0381 13.0776C36.7871 13.4096 35.9783 13.8776 35.7799 14.1094C35.6101 14.2995 35.1005 14.7808 35.1205 15.1286C35.1407 15.3875 35.4602 15.5286 35.5293 15.5776C35.5983 15.6267 35.5978 15.687 35.7274 15.6576C35.857 15.6283 35.9053 15.5686 35.9581 15.5686C36.0186 15.5766 36.0186 15.5888 36.0469 15.5888C36.0674 15.5882 36.0877 15.5854 36.1077 15.5806C36.1077 15.5806 36.0874 15.9488 35.2258 16.0606C35.165 16.0688 35.1045 16.0888 35.0274 16.1011C35.1287 16.0526 35.1893 16.0526 35.2986 15.903C35.1773 15.8827 34.8293 15.8624 34.7402 15.8342C34.7685 15.7856 34.8615 15.656 34.9383 15.5955C35.0071 15.535 34.9303 15.5155 34.8698 15.547C34.7656 15.6179 34.6656 15.6948 34.5703 15.7774C34.4693 15.8664 34.3802 15.9878 34.2183 16.0974C34.1698 15.9355 34.1778 15.628 34.3682 15.4056C34.3194 15.4136 34.2263 15.5552 34.1375 15.527C34.1215 15.3794 34.131 15.2302 34.1658 15.0859C34.2143 14.9038 34.4773 14.5843 34.4773 14.5843L35.7474 12.3147L36.0183 10.5955L33.1098 11.1606V11.1611Z" fill="#92723A"/>
<path fill-rule="evenodd" clip-rule="evenodd" d="M33.0437 11.2581C33.0437 11.2581 32.9749 11.3066 33.1125 11.3997C33.0923 11.428 33.0437 11.529 32.9829 11.5978C32.9144 11.6778 32.8413 11.7274 32.8131 11.7962C32.7525 11.9378 32.704 12.0349 32.704 12.0957C32.704 12.1565 32.6837 12.5448 32.5139 12.7954C32.4531 12.8845 32.3843 13.0341 32.3357 13.1352C32.2347 13.313 32.1456 13.4552 32.1253 13.5352C32.0851 13.6768 32.0568 14.065 32.0568 14.065C32.0568 14.065 32.1459 13.9557 32.1781 13.9154C32.1293 14.0165 32.0768 14.1256 32 14.2066C32.0485 14.1661 32.1901 14.065 32.4288 13.8546C32.7605 13.5757 33.2784 13.1064 33.9096 12.7346C33.7192 12.8034 33.5576 12.8034 33.4283 12.8237C33.5293 12.7226 34.4395 11.6546 34.9168 11.5536C34.9458 11.5168 34.9602 11.4707 34.9573 11.424L34.5485 11.3837L33.7192 11.5616L33.5981 10.9216L33.0437 11.2573V11.2581Z" fill="#B18E3E"/>
<path fill-rule="evenodd" clip-rule="evenodd" d="M34.36 14.899C34.36 14.899 34.2506 15.008 34.1496 15.2792C34.0717 15.198 34.005 15.1068 33.9512 15.008C33.8016 14.7574 33.5712 14.4376 33.033 14.6198C33.025 14.4499 33.0128 14.3608 33.033 14.2395C33.1221 14.2195 33.393 14.0011 33.664 13.6814C33.8544 13.463 34.0322 13.212 34.1536 12.8926C34.2336 12.8318 34.372 12.7307 34.5536 12.6134C34.8125 12.4355 35.124 12.1926 35.1725 11.9216C35.0512 11.9702 34.7922 12.0915 34.4037 12.0715C34.5536 12.0027 34.784 11.9299 34.7557 11.6304C34.8165 11.5899 34.865 11.5616 34.865 11.5616C34.8194 11.5464 34.7715 11.5396 34.7234 11.5414C34.7152 11.5131 34.7032 11.4728 34.6344 11.4928C34.5656 11.5128 34.5544 11.5131 34.5453 11.5414C34.517 11.5496 34.424 11.5414 34.3552 11.5902C34.2864 11.639 34.0962 11.8003 34.0234 11.8286C34.0517 11.78 34.092 11.7075 34.092 11.7075C34.092 11.7075 33.8938 11.7275 33.7522 11.7875C33.4933 11.8766 33.1941 12.0384 32.8906 12.196C32.9189 12.1475 32.9312 12.116 32.9512 12.107C32.9712 12.0979 33.02 12.087 33.02 12.0787C33.02 12.0704 33 11.9987 33.012 11.9696C33.1027 11.7774 33.2097 11.5934 33.332 11.4195C33.4736 11.2291 33.5018 10.9582 33.5018 10.9582L34.1208 10.6467L35.8602 10.2467L36.989 10.3155L36.8474 11.0963L36.1808 12.4595L35.6104 13.7014L34.9589 14.4622L34.3602 14.899H34.36Z" fill="#543E26"/>
<path fill-rule="evenodd" clip-rule="evenodd" d="M37.1764 11.52C37.1764 11.52 36.4967 12.3613 36.3065 12.4909C36.4279 12.232 37.1764 10.6907 37.4473 10.2619C37.3868 10.2133 37.3057 10.2133 37.4959 9.46185C37.3343 9.84185 37.2775 10.0403 37.1441 10.1413C37.0108 10.2424 36.9943 10.2101 36.9041 10.2101C36.9211 10.1793 36.9281 10.144 36.9241 10.1091C36.9241 10.1091 36.3537 10.0403 35.9641 10.0403C35.5745 10.0403 34.8033 10.2507 34.3743 10.4205C34.0345 10.5621 33.8444 10.5621 33.7231 10.6509C33.6017 10.752 33.5329 10.8613 33.4721 10.8896C33.4236 10.9179 33.1932 10.9907 33.1404 11.0675C33.0919 11.1475 33.0111 11.2373 33.0111 11.2576C33.0111 11.2779 32.9908 11.3064 33.0516 11.2859C33.0716 11.2779 33.2215 11.1968 33.3913 11.0957C33.6217 10.9664 33.9009 10.8168 34.1033 10.7277C34.6817 10.4971 34.8639 10.5376 35.1225 10.4891C35.3935 10.4405 35.782 10.3272 36.0407 10.3272C36.2996 10.3192 36.7892 10.3272 36.9025 10.3475C36.854 10.388 36.8135 10.4365 36.8337 10.6064C36.8337 10.6549 36.7932 10.7075 36.7537 10.8248C36.6327 11.1565 36.402 11.7067 36.2737 11.9859C36.0959 12.3659 35.8937 12.6856 35.7937 12.8837C35.6937 13.0819 35.4737 13.6037 35.2559 13.8829C35.038 14.1621 34.9241 14.332 34.8559 14.3928C34.7876 14.4536 34.2975 14.8133 34.334 14.9429C34.4231 14.9147 34.9855 14.7029 35.3937 14.2432C35.802 13.7835 35.8833 13.5029 36.2028 13.252C36.5223 13.0011 36.7732 12.5805 36.9228 12.2328C37.0481 11.9091 37.0199 11.808 37.1775 11.5208L37.1764 11.52Z" fill="#806031"/>
<path fill-rule="evenodd" clip-rule="evenodd" d="M22.5305 17.7994C22.5305 17.7994 22.4414 18.1674 22.239 18.3496C22.0409 18.5277 21.6889 18.6813 21.6486 18.9808C21.6001 19.28 22.0006 19.4298 22.0006 19.4298C22.0006 19.4298 21.7819 19.7898 21.7819 20.0608C21.7819 20.34 21.7739 20.3925 21.8022 20.6594C21.7701 20.6801 21.7428 20.7074 21.7222 20.7394C21.7222 20.7394 21.7422 20.9984 21.9406 21.16C22.139 21.3216 22.3086 21.4189 22.4097 21.3784C22.4251 21.4114 22.4386 21.4452 22.4502 21.4797C22.4502 21.4797 22.6001 21.0994 22.7011 20.7677C22.8022 20.428 22.8913 20.4762 22.9315 20.0192C22.9718 19.5621 23.4115 18.7773 23.4115 18.7773L23.7115 18.1066L23.2222 17.7264L22.5305 17.7992V17.7994Z" fill="#B6903C"/>
<path fill-rule="evenodd" clip-rule="evenodd" d="M23.4409 18.4587C23.34 18.5623 23.2468 18.6731 23.1622 18.7904C23.0329 18.9685 22.9318 19.1301 22.7417 19.1992C22.5516 19.2683 22.4302 19.2677 22.4422 19.4581C22.4542 19.6485 22.6324 19.7291 22.7334 19.8261C22.8428 19.9272 22.9318 20.0971 22.8833 20.2875C22.9438 20.2592 23.0532 20.2267 23.1542 20.0083C23.2553 19.7899 23.9622 18.4589 23.9622 18.4589H23.4409V18.4587Z" fill="#685026"/>
<path fill-rule="evenodd" clip-rule="evenodd" d="M26.2281 15.3883C26.2281 15.3883 26.2886 15.2267 26.2281 15.1093C26.1673 14.988 25.7993 14.9475 25.6172 14.8099C25.427 14.6683 25.1964 14.5699 25.0062 14.632C25.0345 14.5632 25.1478 14.4133 25.0548 14.3811C24.9657 14.3528 24.6342 14.5024 24.5452 14.5712C24.4561 14.64 24.2537 14.7208 24.2134 14.7696C24.1732 14.8184 24.1041 14.9112 24.0636 14.8707C24.023 14.8424 24.003 14.7696 23.9342 14.8099C23.8654 14.8501 23.5342 15.1213 23.4732 15.2792C23.4121 15.4371 23.2748 15.7891 22.8622 16.1893C22.4497 16.5896 22.2716 16.8488 22.3929 16.9984C22.5142 17.148 22.571 17.0389 22.5913 17.1683C22.6069 17.2952 22.6 17.424 22.571 17.5485C22.5225 17.7589 22.4417 17.9571 22.5508 17.9976C22.83 18.0867 23.1012 17.9176 23.1617 17.9693C23.283 18.0784 23.0929 18.4709 23.3801 18.5477C23.6716 18.6277 23.9588 18.4789 23.9588 18.4789L25.0185 17.9085L26.038 17.3707L26.5596 16.3389L26.2798 15.4773L26.2265 15.3883H26.2281Z" fill="#D4B968"/>
<path fill-rule="evenodd" clip-rule="evenodd" d="M25.2286 17.852C25.2286 17.852 25.0504 17.5811 25.2691 17.3421C25.4878 17.1032 25.799 17.0024 25.9203 16.8528C25.8972 16.8243 25.8662 16.8033 25.8312 16.7923C25.9118 16.6481 26.0346 16.5323 26.1832 16.4603C26.1227 16.3997 26.0416 16.3512 25.9528 16.3512C25.7544 16.3512 25.6328 16.4725 25.451 16.4725C25.2731 16.4725 25.2528 16.3835 25.2528 16.3835C25.2528 16.3835 25.5523 16.3552 25.5238 16.2216C25.4955 16.08 25.4438 16.08 25.4438 16.08C25.4438 16.08 26.0222 15.84 26.1232 15.712C26.2243 15.584 26.2123 15.4328 26.2326 15.3723C26.3011 15.3723 26.7016 15.1619 26.8635 15.2509C27.0254 15.34 26.912 15.5827 26.912 15.5827C26.912 15.5827 27.4019 15.2144 27.6515 14.8533C27.8699 14.8736 27.9715 14.7037 28.1315 14.7037C28.3299 14.7037 28.6414 14.9747 28.7019 15.5531C28.7424 15.8848 28.803 16.0749 28.7424 16.6616C28.7142 16.9933 28.7222 17.7016 28.8224 18.0531C28.891 18.3323 29.0528 18.304 29.0528 18.304C29.028 18.3891 28.9788 18.465 28.9112 18.5224C28.8019 18.6235 28.7899 18.8907 28.8019 18.9917C28.818 19.0656 28.8383 19.1385 28.8627 19.2101C28.8627 19.2101 28.7334 19.3597 28.7008 19.4611C28.6726 19.5621 28.5392 19.6309 28.4419 19.6309C28.3446 19.6309 28.3934 19.6227 28.264 19.6309C28.1347 19.6392 28.0942 19.6592 28.0131 19.6309C27.932 19.6027 27.8715 19.5701 27.904 19.3109C27.9323 19.052 26.9048 18.4493 26.9048 18.4493L25.2248 17.8507L25.2286 17.852Z" fill="#CCA849"/>
<path fill-rule="evenodd" clip-rule="evenodd" d="M23.3021 20.4085C23.3021 20.4085 23.6701 20.8981 25.1832 20.8981C25.9032 20.8981 26.1541 20.8293 26.3032 20.7888C26.465 20.7483 27.0717 20.5099 27.6826 19.7896C28.2328 19.1384 28.1114 18.8715 28.1114 18.8715L27.7914 18.8229L26.7514 18.9645L23.6741 20.2752L23.3008 20.4085H23.3021Z" fill="#585136"/>
<path fill-rule="evenodd" clip-rule="evenodd" d="M24.4318 20.5298C24.4318 20.5298 23.1211 20.8213 23.1211 19.992C23.1211 19.1829 23.9302 18.3333 24.1326 18.1837C24.343 18.0338 24.8446 17.8637 24.8446 17.8637H26.0542L26.2846 18.4746L26.1835 19.7933L24.4318 20.5296V20.5298Z" fill="#252211"/>
<path fill-rule="evenodd" clip-rule="evenodd" d="M25.6362 18.1109C25.6362 18.1109 25.3855 17.8803 24.8151 18.1909C24.2447 18.5016 23.7834 19.1509 23.7551 19.7405C23.7269 20.2621 24.1839 20.6507 24.8959 20.6709C25.4258 20.6909 25.7455 20.6304 25.9074 20.5909C25.8669 20.5424 25.6565 20.2795 25.6565 20.2795L25.6365 18.1112L25.6362 18.1109Z" fill="#C3B378"/>
<path fill-rule="evenodd" clip-rule="evenodd" d="M25.3891 18.24C25.3891 18.24 25.3286 18.1914 25.1491 18.2885C24.9995 18.3685 24.7811 18.58 24.6113 18.7296C24.5019 18.8186 24.4331 18.8589 24.3713 18.9277C24.1203 19.2272 23.9099 19.7168 24.0315 19.9594C24.1531 20.2021 24.5534 20.4813 25.5729 20.2912L25.3862 18.2402L25.3891 18.24Z" fill="#E6D89C"/>
<path fill-rule="evenodd" clip-rule="evenodd" d="M25.0559 18.7419C25.0559 18.7419 24.8941 18.9928 24.8941 19.3933C24.8941 19.8019 25.1247 20.4531 25.9743 20.5016C26.6255 20.5421 27.0623 19.5632 27.5357 19.1829C27.8957 18.8917 28.1141 18.8835 28.1141 18.8835C28.1141 18.8835 27.7461 18.4835 26.7631 17.9653C25.7922 17.4435 24.7039 17.3747 24.1133 18.1757C24.3925 18.1555 25.2946 17.9248 25.2946 17.9248L25.7357 18.0664L25.0559 18.7421V18.7419Z" fill="#252211"/>
<path fill-rule="evenodd" clip-rule="evenodd" d="M26.3255 19.2717C26.2972 19.2112 26.2769 19.1301 26.3943 19.1101C26.5116 19.0901 26.5641 19.1019 26.6046 19.1901C26.6452 19.2784 26.6846 19.352 26.6246 19.3885C26.5641 19.4208 26.4062 19.3885 26.3252 19.2712L26.3255 19.2717ZM26.1353 18.7013C26.1353 18.7013 26.0948 18.7296 26.115 18.6731C26.123 18.6045 26.1758 18.4829 26.3052 18.5115C26.4345 18.54 26.4065 18.6813 26.3852 18.7219C26.3638 18.7624 26.2558 18.8309 26.1748 18.8019C26.1645 18.7992 26.155 18.7942 26.147 18.7872C26.139 18.7802 26.1328 18.7715 26.1289 18.7616C26.1249 18.7518 26.1234 18.7411 26.1243 18.7306C26.1252 18.72 26.1286 18.7098 26.1343 18.7008L26.1353 18.7013Z" fill="#6F674D"/>
<path fill-rule="evenodd" clip-rule="evenodd" d="M15.1875 18.96C15.1875 18.96 15.5075 19.2 15.8792 19.1907C16.2472 19.1824 16.7206 18.8024 16.939 18.5595C17.0683 18.4179 17.179 18.2683 17.299 18.1509C17.4003 18.0499 17.4688 18.0013 17.5174 17.9325C17.5862 17.8525 17.659 17.7021 17.6955 17.6533C17.6064 17.7221 17.4771 17.8437 17.3435 17.9245C17.2142 18.0045 16.935 18.1549 16.8216 18.1955C16.7126 18.236 15.5798 18.8355 15.5798 18.8355L15.1875 18.96Z" fill="#AC924C"/>
<path fill-rule="evenodd" clip-rule="evenodd" d="M15.6797 15.971C15.6797 15.971 15.8576 15.8496 16.2016 15.7726C16.5333 15.6926 17.2008 15.631 17.2008 15.631L17.7509 15.871L17.9693 16.7003L17.5693 17.5622L17.0597 17.8822L16.481 16.9518L15.681 15.9726L15.6797 15.971Z" fill="#9F8E57"/>
<path fill-rule="evenodd" clip-rule="evenodd" d="M14.9599 16.7112L14.7695 16.8533C14.7695 16.8533 14.8183 16.7643 14.8586 16.4933C14.8989 16.2224 15.1095 15.5629 15.417 15.1827C15.7245 14.8024 15.7165 14.8227 15.7165 14.8227C15.6882 14.8175 15.6591 14.8184 15.6312 14.8253C15.6033 14.8323 15.5772 14.8451 15.5546 14.8629C15.5951 14.7733 15.8541 14.4533 16.113 14.2933C16.3719 14.1333 16.473 14.0829 16.7439 14.2133C17.0149 14.3437 17.0837 14.4115 17.2821 14.4035C17.4805 14.3955 17.6501 14.1851 17.6501 14.1851C17.6501 14.1851 17.6906 14.3144 17.541 14.6139C17.3914 14.9133 16.8007 15.524 16.8007 15.524L15.5709 16.3653L14.9599 16.712V16.7112Z" fill="#EAC970"/>
<path fill-rule="evenodd" clip-rule="evenodd" d="M15.8722 15.8699C15.8722 15.8699 16.7623 15.9912 17.0332 15.7406C17.0412 15.7688 17.0738 15.7688 17.0738 15.7891C17.0716 15.8044 17.0645 15.8185 17.0535 15.8294C17.083 15.8247 17.1127 15.822 17.1426 15.8214C17.1782 15.832 17.2148 15.8388 17.2519 15.8416C17.2817 15.841 17.3115 15.8382 17.341 15.8334C17.3381 15.8535 17.3313 15.8728 17.3209 15.8902C17.3104 15.9076 17.2966 15.9228 17.2802 15.9347C17.3207 15.9347 17.3602 15.9427 17.3602 15.975C17.3602 16.0072 17.3682 16.1046 17.3196 16.1248C17.2794 16.136 17.2366 16.133 17.1983 16.1166C17.2015 16.1932 17.2223 16.268 17.2591 16.3352C17.3391 16.4848 17.5098 16.6552 17.7391 16.6062C17.7391 16.6062 17.8602 16.8974 17.3506 17.5446C17.282 17.6336 17.209 17.755 17.1202 17.856C17.0851 17.9325 17.0583 18.0125 17.0402 18.0947C17.0402 18.0947 17.902 17.763 18.1487 17.0064C18.3996 16.2459 18.4482 15.4976 18.3996 14.7979C18.3914 14.5995 18.3591 14.4582 18.3106 14.3568C18.1892 14.1059 17.8492 14.1464 17.7119 14.288C17.5135 14.4864 17.1818 14.9798 16.7207 15.3195C16.2514 15.6592 16.2314 15.7195 15.8711 15.8699H15.8722Z" fill="#D7BC6B"/>
<path fill-rule="evenodd" clip-rule="evenodd" d="M14.7997 16.9621C14.7997 16.9621 14.6298 17.0632 14.5407 17.4421C14.4517 17.8304 14.6207 18.3037 14.7186 18.4533C14.8165 18.6029 15.0386 19.0117 15.4994 19.032C15.6135 19.0314 15.7262 19.008 15.8311 18.9632C15.992 18.8894 16.1429 18.7956 16.2802 18.684C16.4786 18.5344 16.6402 18.405 16.6199 18.3928C16.5714 18.3725 15.3983 17.4016 15.3983 17.4016L14.9573 16.9093L14.7994 16.9626L14.7997 16.9621Z" fill="#585136"/>
<path fill-rule="evenodd" clip-rule="evenodd" d="M15.91 18.572C15.91 18.572 16.1487 18.552 16.2903 18.4629C16.4319 18.3739 15.4609 17.4112 15.4609 17.4112L15.5297 18.4512L15.91 18.572Z" fill="#453A25"/>
<path fill-rule="evenodd" clip-rule="evenodd" d="M14.8753 16.8891C14.8753 16.8891 14.754 17.1197 14.754 17.1805C14.7337 17.3787 14.7945 18.0016 14.8431 18.1997C14.8916 18.4101 15.1545 18.7296 15.4945 18.7296C15.7047 18.7296 15.9961 18.6003 15.9961 18.568C15.9961 18.5275 15.6967 18.488 15.6159 18.3373C15.5673 18.2573 15.5471 18.0584 15.5359 17.8573C15.5279 17.728 15.5279 17.5864 15.5764 17.5373C15.6857 17.416 15.7057 17.068 15.7057 17.068L16.094 16.3467H15.5833L14.9724 16.7269L14.8753 16.8891Z" fill="#84754B"/>
<path fill-rule="evenodd" clip-rule="evenodd" d="M14.7266 17.1117C14.7266 17.1117 15.1266 16.5818 15.4871 16.4602C15.8476 16.3386 16.009 16.4117 16.009 16.4117L15.7986 16.9498L15.4991 17.2816L15.5194 17.4514C15.5194 17.4514 15.4706 17.9005 15.77 18.212C16.0695 18.5234 16.2919 18.5114 16.4215 18.5114C16.5511 18.5114 16.9231 18.4021 17.1132 17.953C17.2831 17.5325 17.4247 16.993 17.085 16.4522C16.753 15.9141 16.1666 15.8933 16.0532 15.8933C15.9399 15.8933 15.05 15.9378 14.7266 17.1109V17.1117Z" fill="#252211"/>
<path fill-rule="evenodd" clip-rule="evenodd" d="M24.9973 18.9118C24.8477 18.843 24.9893 18.4224 25.1389 18.2928C25.2885 18.1632 25.4786 18.0139 25.8106 17.9934C25.9317 17.9854 26.049 18.0622 26.029 18.1432C26.0007 18.2928 25.7903 18.5032 25.6002 18.6528C25.3373 18.8592 25.1671 18.9886 24.9973 18.9118Z" fill="#F7F7E7"/>
<path fill-rule="evenodd" clip-rule="evenodd" d="M16.9113 16.6181C17.0206 16.6101 17.1622 16.6981 17.1905 16.8165C17.2187 16.9459 17.1217 17.2048 16.9113 17.2048C16.7414 17.2048 16.6523 16.9944 16.6523 16.9339C16.6543 16.8841 16.6682 16.8355 16.6929 16.7923C16.7009 16.78 16.7211 16.6384 16.9113 16.6181Z" fill="#F8F6DE"/>
<path fill-rule="evenodd" clip-rule="evenodd" d="M15.3307 16.7112C15.3307 16.7112 15.0515 16.8405 14.9222 17.1112C14.8298 17.3111 14.8018 17.5347 14.8422 17.7512C14.8625 17.8522 14.9635 18.1029 15.0323 18.192C15.1011 18.281 15.1942 18.3418 15.263 18.3336C15.3318 18.3253 15.4731 18.1434 15.4731 18.0344C15.4731 17.9253 15.4814 17.464 15.6147 17.213C15.7321 16.9624 15.3315 16.7114 15.3315 16.7114L15.3307 16.7112Z" fill="#D4C38B"/>
<path fill-rule="evenodd" clip-rule="evenodd" d="M15.3703 16.6909C15.3217 16.7192 15.2409 16.7597 15.2609 16.8123C15.2812 16.8608 15.4511 16.8923 15.5119 17.0107C15.5807 17.132 15.5807 17.2613 15.5604 17.3221C15.6132 17.297 15.6612 17.2627 15.702 17.2208C15.7911 17.1197 15.9001 16.9824 15.9932 16.9824C16.054 16.9824 16.1145 17.0107 16.1713 17.0107C16.2604 17.0107 16.3492 16.9824 16.3615 16.8893C16.3815 16.768 16.1916 16.6587 16.0823 16.6789C16.1025 16.5989 16.1308 16.4808 16.0417 16.3997C15.9527 16.3187 15.6737 16.4605 15.6129 16.5011C15.5521 16.5416 15.3703 16.6912 15.3703 16.6912V16.6909Z" fill="#E2D59D"/>
<path fill-rule="evenodd" clip-rule="evenodd" d="M21.7979 25.1901L22.3966 25.0133L22.5665 25.1346C22.5665 25.1346 22.6875 25.3936 22.8779 25.4258C22.8171 25.5552 22.6593 25.6658 22.6675 25.7576C22.6758 25.8493 22.7566 25.9194 22.7566 25.9194C22.7566 25.9194 22.2185 26.8093 23.2785 27.7061C23.0275 27.8072 22.7081 27.9461 22.5382 28.0261C22.6593 28.0544 22.9182 28.1061 23.0275 28.2042C23.1369 28.3024 23.1369 28.3336 23.2379 28.3944C23.339 28.4552 23.3995 28.536 23.3795 28.5722C23.3107 28.5317 23.0801 28.4106 23.0398 28.5237C22.9995 28.6368 22.0406 28.5925 22.0406 28.5925L20.4225 28.904C20.4225 28.904 20.483 28.7421 20.3131 28.5925C20.115 28.4146 19.8723 28.6005 19.6134 28.4024C19.2737 28.1434 19.2614 27.844 19.1523 27.7309C19.2614 27.6621 19.4841 27.561 20.0139 27.4909C19.9937 27.4504 19.9249 27.329 19.9654 27.22C20.0139 27.0784 20.2161 26.9893 20.1555 26.82C20.2446 26.7997 20.2849 26.7997 20.5075 26.5205C20.7179 26.2413 20.8473 26.1808 21.0091 26.1605C21.171 26.1402 21.2681 26.1605 21.5675 25.8813C21.7777 25.6832 21.7091 25.5133 21.7091 25.5133C21.7091 25.5133 21.8465 25.4688 21.7982 25.1896L21.7979 25.1901Z" fill="#CBAC5A"/>
<path fill-rule="evenodd" clip-rule="evenodd" d="M20.0327 25.28C20.0407 25.2395 20.0732 25.2192 20.2916 25.2395C20.51 25.2597 21.8935 25.1101 22.2697 25.0899C22.65 25.0616 23.9889 25.0816 24.6404 25.2192C25.2919 25.3568 25.9511 25.5187 26.2705 25.5995C26.5905 25.6885 26.6913 25.7205 26.6791 25.7611C26.6711 25.8016 26.5991 25.8411 26.5577 25.8299C26.5175 25.8219 25.4575 25.4981 25.13 25.4299C24.8025 25.3616 23.6695 25.1789 23.05 25.1899C22.4716 25.1981 22.2409 25.1819 21.7516 25.2384C21.262 25.2992 20.4529 25.38 20.2103 25.3477C19.9703 25.3195 20.0199 25.3195 20.0321 25.2789L20.0327 25.28Z" fill="#D6BC6F"/>
<path fill-rule="evenodd" clip-rule="evenodd" d="M23.2903 28.4507C23.2903 28.4507 24.1197 28.8997 24.4191 29.4499C24.6375 29.8584 24.2898 30.0608 24.2898 30.0608C24.2898 30.0608 24.7591 30.0608 24.6983 30.3197C24.6701 30.4813 23.8893 30.9181 23.3674 31.1488C22.8375 31.3795 22.8578 31.3675 22.5989 31.4077C22.3479 31.4483 21.6602 31.3277 21.5186 31.5291C21.377 31.7304 21.4386 31.9379 21.4781 31.9701C21.5186 31.9984 21.8463 32.0389 21.8463 32.0389C21.8463 32.0389 21.7775 32.2291 21.0981 32.2493C20.4186 32.2696 20.2485 32.3179 20.2079 32.3909C20.1674 32.4595 20.3373 32.4192 20.649 32.4709C20.9605 32.5195 21.3973 32.5509 21.3973 32.5509C21.3973 32.5509 21.2557 32.6723 20.8877 32.7693C20.4669 32.8784 19.8074 32.9797 19.6093 33.1011C19.7103 33.1699 19.8602 33.2709 19.9293 33.2789C19.7594 33.3195 19.5205 33.4085 19.4802 33.4408C19.5407 33.4813 19.6218 33.5299 19.6218 33.5299C19.6218 33.5299 19.2818 33.9384 19.0837 34.0397C18.8855 34.1411 17.7447 34.6707 17.3522 34.5696C16.3733 34.3107 16.2519 33.2387 16.0133 33.1579C15.6533 33.0365 15.4834 33.2789 15.1637 33.1091C15.3053 33.008 15.3823 32.9475 15.5319 32.8787C15.3701 32.7987 14.5327 32.2677 14.5327 32.2677C14.4452 32.0769 14.348 31.8906 14.2415 31.7096C14.0797 31.4304 13.8415 31.0581 13.6629 30.7304C13.2746 30.0104 13.2543 29.6787 12.9023 29.2701C12.9631 29.1901 13.1733 29.2013 13.1733 29.2013L16.1226 30.1723L21.3522 30.3237L22.7122 28.3821L23.2906 28.4509L23.2903 28.4507Z" fill="#DFC677"/>
<path fill-rule="evenodd" clip-rule="evenodd" d="M15.5391 31.4117C15.5706 31.4469 15.6074 31.4769 15.6481 31.5008C15.7495 31.5696 15.8991 31.6507 16.0001 31.7717C16.0407 31.7112 16.1417 31.6019 16.3201 31.7717C16.4985 31.9416 16.7201 31.8205 16.858 31.8608C16.9996 31.9096 17.0076 31.9296 17.0076 31.9296C17.0076 31.9296 17.0876 31.8608 17.2665 31.788C17.3759 31.7475 17.5052 31.7192 17.6468 31.6789C17.7761 31.6507 17.9177 31.6101 18.0151 31.6101C18.1041 31.6707 18.4236 32.0101 19.706 31.5091C20.9156 31.0397 21.1945 30.9872 21.3969 31.0597C21.4172 31.0112 21.4375 30.9181 21.7489 30.9304C21.7489 30.8011 21.49 30.36 21.49 30.36L20.062 29.8707H19.2809L16.9388 30.2995L15.6409 31.04L15.5399 31.4133L15.5391 31.4117Z" fill="#C4A859"/>
<path fill-rule="evenodd" clip-rule="evenodd" d="M14.7578 30.5906C14.7578 30.5906 14.7861 30.809 15.1098 31.0397C15.4298 31.2701 15.5303 31.4077 15.5303 31.4077C15.5303 31.4077 15.5911 31.3277 15.6397 31.2461C15.6882 31.157 15.7287 31.0559 15.8095 31.0277C15.9714 30.9589 16.3394 31.0882 16.4205 31.0679C16.4893 31.0479 16.469 30.9063 16.5418 30.9063C16.7117 30.8981 16.8207 31.0154 16.8815 31.0154C16.9423 31.0154 17.0917 31.0074 17.1119 30.9751C17.1322 30.9429 17.1402 30.6069 17.3709 30.445C17.6218 30.2671 17.9293 30.3439 18.0109 30.3845C18.0109 30.445 18.0189 30.5949 18.1807 30.6029C18.3426 30.6109 18.3586 30.5826 18.5007 30.6311C18.6429 30.6797 18.8122 30.6231 18.889 30.8615C18.9578 30.8415 19.1197 30.8213 19.0791 30.5906C19.1591 30.5301 19.229 30.4895 19.3991 30.2509C19.4397 30.1903 19.5082 30.1215 19.561 30.0325C19.7026 30.0325 19.8725 30.0042 20.0989 30.2023C20.0301 30.2509 19.9895 30.2823 19.9695 30.3317C20.0288 30.3903 20.0828 30.4539 20.1311 30.5218C20.1919 30.6018 20.2325 30.6999 20.3093 30.7202C20.4791 30.7687 20.7583 30.6999 21.0698 30.7202C21.3693 30.7405 21.6199 30.8495 21.7293 30.9183C21.7698 30.8983 21.7698 30.8901 21.8709 30.9103C21.9719 30.9306 22.0487 30.9386 21.9397 30.8093C22.0002 30.8375 22.069 30.8983 22.1298 30.8375C22.1906 30.7767 22.2389 30.6879 22.4087 30.6677C22.5786 30.6474 22.6394 30.6757 22.7082 30.4978C22.7973 30.2794 22.4898 30.2794 22.4898 30.2794C22.4898 30.2794 22.6314 30.1498 22.7893 29.9799C22.9794 29.8021 23.1978 29.5714 23.2503 29.2882C23.3394 28.7663 22.8298 28.6978 22.8298 28.6978L20.3581 29.4583L17.3362 29.3085L14.7594 30.5909L14.7578 30.5906Z" fill="#927D49"/>
<path fill-rule="evenodd" clip-rule="evenodd" d="M12.5408 23.4506C12.5408 23.4506 12.4608 23.5517 12.4115 23.7904C12.3621 24.029 12.3832 24.0008 12.3427 24.1706C12.3021 24.3405 11.8043 26.0314 11.9909 26.6018C12.1776 27.1722 12.5008 27.3826 12.7029 27.8437C12.7435 27.9448 12.7829 28.0056 12.804 28.0946C12.8728 28.3938 12.8123 28.6245 12.8931 28.924C12.9213 29.025 12.9944 29.1424 13.1035 29.2637C13.3435 29.5144 13.7347 29.753 13.9035 29.9229C14.1419 30.1738 14.4819 30.6837 14.9147 30.732C15.1453 30.7602 15.4731 30.6632 15.744 30.5016C15.984 30.3517 16.1323 30.1416 16.384 30.0216C16.5619 29.9325 16.752 29.9002 16.9219 29.8597C17.2739 29.7909 17.5936 29.7797 17.7837 29.8192C18.0749 29.88 18.7627 30.0904 19.1437 30.0904C19.4415 30.0856 19.7376 30.0448 20.0256 29.969C20.604 29.7992 21.3037 29.5077 21.7651 29.3784C22.036 29.2984 22.2544 29.2773 22.4771 29.2288C22.8573 29.1397 23.1768 29.0184 23.3589 28.7877C23.2376 28.6461 23.088 28.4277 22.2787 28.4357C21.3605 28.456 20.3005 28.9656 19.7787 29.0466C19.2568 29.1277 19.0304 29.1962 18.4477 28.9858C17.8765 28.7733 17.8576 28.6328 17.8576 28.6328C17.8576 28.6328 17.2579 28.2133 17.0069 27.144C16.756 26.0746 17.0069 25.2954 17.6584 24.5549C17.8283 24.3648 17.7877 24.1949 17.7877 24.1949C17.7877 24.1949 18.2165 23.6165 18.0992 23.0749C17.9699 22.5368 17.1405 22.6461 17.1405 22.6461L12.5411 23.4506H12.5408Z" fill="#6E6342"/>
<path fill-rule="evenodd" clip-rule="evenodd" d="M13.2327 25.2509C13.197 25.318 13.1802 25.3935 13.1841 25.4693C13.1921 25.5784 13.2247 25.72 13.5521 26.0397C13.8313 26.3186 13.7705 26.6301 13.7705 26.6301C13.7705 26.6301 13.9111 26.6584 14.2924 26.48C14.5919 26.3384 14.6924 26.5893 14.6924 26.5893C14.7796 26.5436 14.8741 26.5135 14.9716 26.5002C15.06 26.4921 15.1455 26.4648 15.2223 26.4202C15.2223 26.4202 15.5743 26.7802 15.8817 26.9501C16.1609 27.1 16.3228 27.201 16.4604 27.1C16.5897 27.0109 16.5897 26.8288 16.5815 26.748C16.5494 26.6734 16.5088 26.6028 16.4604 26.5376C16.3713 26.4082 16.2297 26.2584 16.2204 26.1376C16.2001 25.8586 16.4308 25.5266 16.382 25.4458C16.3332 25.365 16.1516 25.3448 15.7025 25.5066C15.2375 25.6602 13.2308 25.2517 13.2308 25.2517L13.2327 25.2509Z" fill="#39331F"/>
<path fill-rule="evenodd" clip-rule="evenodd" d="M14.2918 27.0592C14.2918 27.0592 14.0614 26.8408 14.1422 25.7808C14.24 25.7794 14.3377 25.7888 14.4334 25.809C14.4334 25.809 14.559 26.6304 14.2918 27.0592Z" fill="#292311"/>
<path fill-rule="evenodd" clip-rule="evenodd" d="M12.6487 22.6416C12.6809 22.6178 12.7107 22.591 12.7378 22.5616C12.6578 22.7112 12.2885 23.3099 12.5879 24.2526C12.8874 25.191 13.6397 25.8907 14.5661 25.9232C15.4925 25.9558 15.9794 25.5024 16.5362 24.823C16.7546 24.552 17.0055 24.212 17.2279 23.9816C17.5597 23.6214 17.8186 23.5203 17.8186 23.1726C17.8186 22.4606 17.0903 22.1408 16.0183 21.8214C14.9463 21.5019 13.9794 21.5414 13.4778 21.76C12.9885 21.9984 12.7781 22.2494 12.6485 22.6419L12.6487 22.6416Z" fill="#252211"/>
<path fill-rule="evenodd" clip-rule="evenodd" d="M16.0906 27.3787L16.1706 27.3381C16.1706 27.3381 16.1906 27.0181 16.3202 27.0267C16.4496 27.0469 16.5104 27.2171 16.4981 27.2776C16.4901 27.3381 16.4578 27.4395 16.3282 27.4272C16.1584 27.4312 16.0898 27.3787 16.0898 27.3787H16.0906Z" fill="#3F3824"/>
<path fill-rule="evenodd" clip-rule="evenodd" d="M15.7305 26.0195C15.7305 26.0195 15.8105 25.9912 15.9083 26.0883C15.9883 26.0883 16.3371 26.0477 16.4465 26.1165C16.5558 26.1853 16.5881 26.2459 16.5881 26.2459C16.5881 26.2459 16.1795 26.3349 15.9569 26.2459C15.7305 26.1691 15.7305 26.0195 15.7305 26.0195Z" fill="#2D2815"/>
<path fill-rule="evenodd" clip-rule="evenodd" d="M17.5312 26.08C17.5312 26.0597 17.3128 25.9101 17.0821 25.8613C17.0416 25.8533 17.0333 25.8816 17.0021 25.8816C16.9818 25.8736 16.9738 25.8128 16.9738 25.8128L16.8426 25.8819C16.8426 25.8819 16.8224 25.9101 16.8912 25.9619C16.9517 26.0104 17.053 26.0509 17.0813 26.1317C17.1096 26.2125 17.1096 26.2408 17.1218 26.2531C17.1298 26.2611 17.2714 26.2531 17.3402 26.2125C17.409 26.172 17.5386 26.1059 17.5304 26.0792L17.5312 26.08Z" fill="#82764F"/>
<path fill-rule="evenodd" clip-rule="evenodd" d="M15.4883 26.9013C15.4883 26.9013 15.5285 26.6224 15.7997 26.6101C16.0787 26.5899 16.1315 26.8608 16.1315 26.8608L15.9696 27.0227C15.9696 27.0187 15.8483 26.8488 15.4896 26.9013H15.4883Z" fill="#2D2816"/>
<path fill-rule="evenodd" clip-rule="evenodd" d="M17.2506 25.6997C17.2506 25.6997 17.1008 25.8616 16.7693 25.9101C16.741 25.8696 16.6802 25.7888 16.7693 25.6595C16.8584 25.5301 16.9594 25.4896 17.0605 25.5299C17.1051 25.5371 17.1467 25.5569 17.1804 25.587C17.2141 25.6171 17.2384 25.6562 17.2506 25.6997Z" fill="#574F35"/>
<path fill-rule="evenodd" clip-rule="evenodd" d="M17.8576 25.8981C17.8659 25.8576 17.8376 25.8496 17.8576 25.8293C17.8776 25.809 17.9872 25.7688 18.0075 25.7888C18.0155 25.797 18.0075 25.8293 18.0075 25.8688C18.0075 25.9082 18.0075 25.9488 17.9872 25.9778C17.9589 26.0184 17.8781 26.0386 17.8376 26.0266C17.7971 26.0146 17.7891 25.9578 17.7891 25.9466C17.8091 25.9386 17.8576 25.9184 17.8576 25.8981ZM18.5483 25.4613C18.5483 25.441 18.6171 25.4005 18.6576 25.4005C18.7181 25.4005 18.7181 25.449 18.7264 25.4613C18.7464 25.4693 18.7464 25.453 18.7667 25.4896C18.7869 25.5261 18.8155 25.5906 18.7949 25.6312C18.7744 25.6717 18.6939 25.6997 18.6739 25.6917C18.6456 25.6714 18.5565 25.4896 18.5483 25.4613Z" fill="#82764F"/>
<path fill-rule="evenodd" clip-rule="evenodd" d="M17.1602 25.9912C17.1602 25.9912 17.2492 26.0112 17.3706 26.1125C17.33 26.1408 17.2692 26.1731 17.2692 26.1731C17.2692 26.1731 17.2612 26.08 17.1602 25.9909V25.9912Z" fill="#6E6342"/>
<path fill-rule="evenodd" clip-rule="evenodd" d="M16.9602 25.1011C16.94 25.0811 17.0208 25.0326 17.0693 25.0406C17.1178 25.0486 17.1381 25.0811 17.1906 25.0891C17.2432 25.0971 17.2514 25.0688 17.2706 25.0486C17.2898 25.0283 17.3597 25.0406 17.3717 25.0486C17.3792 25.0575 17.3859 25.0669 17.392 25.0768C17.3928 25.0614 17.3968 25.0464 17.4038 25.0326C17.4107 25.0189 17.4204 25.0067 17.4322 24.9968C17.4477 24.9854 17.4656 24.9777 17.4846 24.9742C17.5035 24.9707 17.523 24.9715 17.5416 24.9766C17.5496 25.0048 17.5901 25.1059 17.5821 25.1262C17.5741 25.1464 17.4528 25.175 17.4322 25.1544C17.4525 25.2032 17.5416 25.3043 17.5536 25.3243C17.5656 25.3443 17.4645 25.3931 17.4242 25.3851C17.3677 25.3811 17.0197 25.1787 16.9592 25.1019L16.9602 25.1011ZM17.4901 24.4296C17.4826 24.4093 17.4683 24.3921 17.4496 24.3811C17.4213 24.3731 17.3282 24.3811 17.3282 24.4296C17.3282 24.4782 17.4082 24.7496 17.4981 24.891C17.5994 25.0326 17.668 25.1496 17.7368 25.1822C17.7584 25.192 17.7829 25.1933 17.8054 25.1858C17.8279 25.1782 17.8467 25.1625 17.8581 25.1416C17.8661 25.1214 17.8864 24.9718 17.8784 24.6198C17.8704 24.2678 17.8581 23.928 17.8378 23.9078C17.8176 23.8875 17.7368 23.8878 17.7085 23.928C17.6802 23.9683 17.4981 24.3691 17.4898 24.4296H17.4901Z" fill="#585136"/>
<path fill-rule="evenodd" clip-rule="evenodd" d="M17.1311 26.5008C17.1311 26.5008 16.9895 26.4117 16.8519 26.4725C16.7226 26.5333 16.7306 26.772 16.7306 26.772C16.7597 26.7834 16.7911 26.7875 16.8221 26.784C16.8532 26.7804 16.8829 26.7694 16.9087 26.7517C16.9978 26.6912 17.1108 26.5901 17.1311 26.5011V26.5008Z" fill="#574F35"/>
<path fill-rule="evenodd" clip-rule="evenodd" d="M17.3964 26.8205C17.3884 26.7405 17.3164 26.7405 17.3164 26.6992C17.3214 26.6795 17.3328 26.6619 17.3489 26.6495C17.365 26.637 17.3848 26.6303 17.4052 26.6304C17.4457 26.6304 17.4852 26.6789 17.5348 26.7104C17.5833 26.7387 17.6561 26.7904 17.6641 26.852C17.6721 26.9136 17.5841 27.0824 17.4863 27.0824C17.3884 27.0824 17.4175 26.9003 17.3972 26.8195L17.3964 26.8205ZM18.1772 26.7112C18.1772 26.7112 18.0153 26.7597 18.0273 26.7112C18.0393 26.6627 18.0761 26.6507 18.1287 26.6507C18.1554 26.6227 18.1913 26.6054 18.2297 26.6019C18.2517 26.6008 18.2734 26.608 18.2903 26.6221C18.2903 26.6221 18.3996 26.5736 18.4319 26.6019C18.4641 26.6301 18.4401 26.6301 18.4601 26.6627C18.4856 26.6988 18.5023 26.7403 18.5089 26.784C18.5089 26.8163 18.3876 26.8851 18.2903 26.8731C18.1772 26.8488 18.1972 26.7315 18.1772 26.7112ZM19.1196 26.5291C19.1196 26.5291 19.1681 26.5573 19.1279 26.5899C19.0996 26.6181 18.958 26.6699 18.8364 26.6789C18.7151 26.6789 18.606 26.6989 18.606 26.6587C18.606 26.6184 18.7071 26.5373 18.7676 26.5171C18.7797 26.5019 18.7952 26.4896 18.8127 26.4812C18.8303 26.4728 18.8495 26.4685 18.8689 26.4685C18.9175 26.4685 19.1073 26.4483 19.1601 26.4403C19.2087 26.432 19.2492 26.4603 19.2207 26.5008C19.2087 26.5291 19.1196 26.5291 19.1196 26.5291ZM19.3988 25.28C19.3988 25.28 19.338 25.4093 19.2695 25.4093C19.2007 25.4013 19.2007 25.3811 19.2007 25.3608C19.2007 25.3325 19.2695 25.2597 19.2612 25.2395C19.2412 25.2395 19.1924 25.2395 19.2007 25.1909C19.2007 25.1504 19.2695 25.1019 19.33 25.1109C19.3757 25.0734 19.4327 25.0521 19.4919 25.0504C19.5607 25.0504 19.6212 25.0704 19.6212 25.1109C19.6212 25.1515 19.5412 25.2403 19.5119 25.2608C19.4796 25.2931 19.4391 25.3141 19.3988 25.2808V25.28ZM18.4764 27.6707C18.4764 27.6707 18.3964 27.6789 18.3964 27.7192C18.3964 27.7395 18.4164 27.7395 18.4449 27.7275C18.4614 27.7266 18.4777 27.7238 18.4935 27.7192C18.5015 27.7275 18.5015 27.7677 18.5623 27.7677C18.6122 27.761 18.6603 27.7445 18.7039 27.7192C18.7524 27.6992 18.7929 27.6787 18.7929 27.6392C18.7727 27.5704 18.7321 27.5379 18.6716 27.5379C18.6406 27.5359 18.6097 27.543 18.5825 27.5581C18.5825 27.5581 18.5623 27.5176 18.4935 27.5581C18.4247 27.5987 18.4327 27.5987 18.4529 27.6189C18.4892 27.6512 18.4772 27.6723 18.4772 27.6723L18.4764 27.6707ZM18.0193 28.0915C18.0193 28.0712 18.1204 28.0307 18.1487 28.0429C18.1769 28.0509 18.2577 28.2045 18.2577 28.2208C18.2577 28.2411 18.1567 28.2896 18.1161 28.2896C18.0756 28.2896 18.0071 28.2208 18.0071 28.2096C18.0071 28.2016 18.0556 28.1896 18.0556 28.1813C18.0676 28.1613 18.0193 28.1125 18.0193 28.0923V28.0915ZM17.6993 27.5008C17.7196 27.4928 17.7196 27.4725 17.7479 27.4523C17.7567 27.4464 17.7668 27.4426 17.7773 27.4412C17.7879 27.4398 17.7986 27.4409 17.8087 27.4443C17.8158 27.4316 17.8257 27.4206 17.8376 27.4121C17.8495 27.4037 17.8631 27.398 17.8775 27.3955C17.926 27.3875 17.9665 27.3955 17.9575 27.4157C17.9575 27.4765 17.998 27.5168 17.998 27.5653C17.998 27.6139 17.9697 27.6747 17.8687 27.7152C17.7676 27.7435 17.63 27.7435 17.6097 27.7355C17.5895 27.7275 17.5692 27.6464 17.5895 27.6059C17.6097 27.5653 17.6663 27.5211 17.6988 27.5008H17.6993Z" fill="#82764F"/>
<path fill-rule="evenodd" clip-rule="evenodd" d="M17.8269 27.5283C17.8269 27.5283 17.7581 27.5688 17.7581 27.5891C17.752 27.6086 17.7493 27.6291 17.7501 27.6496C17.7501 27.6616 17.8392 27.6416 17.8512 27.6293C17.8552 27.6213 17.8269 27.5493 17.8269 27.5283Z" fill="#6E6342"/>
<path fill-rule="evenodd" clip-rule="evenodd" d="M17.2293 27.3381C17.2696 27.3464 17.3384 27.3381 17.3909 27.3584C17.4315 27.3786 17.4597 27.4192 17.4192 27.4677C17.3787 27.5162 17.3392 27.589 17.2493 27.5768C17.1483 27.5688 17.0512 27.5162 17.0512 27.4757C17.0495 27.4501 17.0529 27.4243 17.0613 27.4C17.0696 27.3757 17.0827 27.3533 17.0997 27.3341C17.1403 27.3018 17.1603 27.3221 17.2291 27.3381H17.2293Z" fill="#585136"/>
<path fill-rule="evenodd" clip-rule="evenodd" d="M17.1806 27.3787C17.1806 27.3787 17.0513 27.4797 17.0188 27.5285C16.9782 27.5771 16.7801 27.8277 16.7196 27.8803C16.7397 27.8448 16.7626 27.811 16.7881 27.7792C16.7081 27.8304 16.6481 27.9075 16.6182 27.9976C16.5697 28.1475 16.8894 28.2283 17.0996 28.2891C17.3097 28.3499 17.391 28.3691 17.391 28.3691C17.3137 28.2528 17.2472 28.1296 17.1926 28.0011C17.1126 27.8109 17.0713 27.7907 17.1238 27.7016C17.1644 27.6125 17.2252 27.552 17.2252 27.4832C17.2009 27.4192 17.1806 27.3787 17.1806 27.3787Z" fill="#574F35"/>
<path fill-rule="evenodd" clip-rule="evenodd" d="M12.5669 27.6984C12.5964 27.7038 12.6266 27.7038 12.656 27.6984C12.7165 27.6901 13.3477 27.4584 14.0072 27.5C14.5009 27.5298 14.9902 27.6102 15.4675 27.74C16.2968 27.9584 17.3283 28.3912 17.9957 28.6381C18.1736 28.7067 18.3477 28.8283 18.4757 28.8765C18.9856 29.0749 19.0056 29.0749 19.3051 29.1275C19.6571 29.176 20.0171 29.0587 20.3933 28.9779C20.8544 28.8765 21.6432 28.828 22.3349 28.7269C22.5586 28.6959 22.7792 28.6459 22.9944 28.5773C22.9944 28.5773 22.4443 29.1275 21.1253 29.3256C20.5922 29.4065 20.0505 29.4134 19.5155 29.3459C19.0947 29.3053 18.8157 29.2445 18.6053 29.184C18.3667 29.1152 17.8771 28.9331 17.2744 28.784C16.8536 28.6747 16.3843 28.5939 15.8464 28.4928C14.5195 28.2499 13.0795 27.9709 12.5664 27.7L12.5669 27.6984Z" fill="#252211"/>
<path fill-rule="evenodd" clip-rule="evenodd" d="M11.0807 25.1984C10.7607 25.4693 10.4212 25.7282 10.0897 25.9789L9.09053 26.7466C8.7508 26.9973 8.41906 27.2562 8.07906 27.5072C7.73906 27.7581 7.3996 27.9965 7.03906 28.2272C7.35906 27.9562 7.69853 27.7053 8.03826 27.4586C8.378 27.212 8.73026 26.9701 9.058 26.72L10.0572 25.9512C10.4009 25.7005 10.7327 25.4416 11.0807 25.1989V25.1984ZM9.31293 28.0301C9.31293 28.0301 9.67293 27.7306 10.122 27.3101C10.6801 26.7885 11.3639 26.1208 11.5823 25.9997L9.31266 28.0304L9.31293 28.0301Z" fill="#CFB66C"/>
<path fill-rule="evenodd" clip-rule="evenodd" d="M9.30859 28.0298C9.48673 27.852 9.67686 27.6781 9.86699 27.508L10.1582 27.2573C10.2473 27.1773 10.3486 27.0874 10.4374 26.9984C10.6153 26.8205 10.7894 26.6301 10.9673 26.4482C11.0554 26.3568 11.1486 26.2703 11.2465 26.1893C11.2954 26.146 11.3497 26.1093 11.4081 26.08C11.4569 26.0517 11.5094 26 11.5779 25.9909C11.5377 26.0517 11.4891 26.08 11.4486 26.1325C11.4001 26.173 11.3595 26.2216 11.3193 26.2618C11.2302 26.3509 11.1291 26.4317 11.0401 26.5128C10.8499 26.6746 10.6518 26.8328 10.4617 27.0021C10.2715 27.1714 10.0937 27.3541 9.90326 27.524C9.69713 27.6981 9.50699 27.868 9.30859 28.0306V28.0298ZM11.7278 26.4117C11.7278 26.4117 10.4091 27.7024 10.1379 27.9125L11.7278 26.4117Z" fill="#CFB66C"/>
<path fill-rule="evenodd" clip-rule="evenodd" d="M11.7266 26.4117C11.608 26.549 11.4808 26.6787 11.3458 26.7999L10.9458 27.1802C10.8165 27.3095 10.6949 27.4391 10.5575 27.5685C10.4159 27.6898 10.2866 27.8085 10.1367 27.9205L10.525 27.5402C10.6546 27.4109 10.7962 27.3018 10.9338 27.1722L11.3221 26.7919C11.4554 26.6586 11.585 26.529 11.7266 26.4117ZM11.7871 27.1114C11.6656 27.4507 11.5223 27.7817 11.3583 28.1026C11.0186 28.7823 10.509 29.6317 10.2863 30.0647L11.7871 27.1114Z" fill="#CFB66C"/>
<path fill-rule="evenodd" clip-rule="evenodd" d="M11.7937 27.1118C11.7937 27.2614 11.7531 27.391 11.7046 27.5203C11.6573 27.6497 11.6034 27.7767 11.543 27.9006C11.4822 28.0219 11.4134 28.1515 11.3446 28.2688C11.2758 28.3862 11.195 28.5072 11.1342 28.6288L10.7257 29.3488C10.5841 29.5888 10.4465 29.8302 10.2969 30.0608C10.3979 29.8019 10.5355 29.5592 10.6651 29.3206C10.8067 29.0806 10.9361 28.8406 11.0651 28.5923C11.1282 28.4686 11.1849 28.3417 11.235 28.2123C11.2955 28.0827 11.3561 27.9614 11.4049 27.844C11.4654 27.7147 11.5139 27.5931 11.5747 27.476C11.6433 27.3504 11.7001 27.2291 11.7931 27.1118H11.7937Z" fill="#CFB66C"/>
<path fill-rule="evenodd" clip-rule="evenodd" d="M13.23 30.4288C13.23 30.4288 12.83 30.9586 12.87 31.6301C12.9791 31.2784 13.1167 30.7402 13.23 30.4288ZM13.6103 30.96C13.6103 30.96 13.4687 32.4 13.3513 33.108C13.5172 32.2896 13.5495 32.3584 13.6103 30.96ZM16.2599 33.193C16.2599 33.193 15.6612 34.953 15.6489 35.4421C15.7785 34.9392 16.0292 33.9117 16.2599 33.1917V33.193Z" fill="#DEC270"/>
<path fill-rule="evenodd" clip-rule="evenodd" d="M17.6602 30.32C17.6602 30.32 18.6311 31.9219 19.3594 33.2891C19.1623 32.6011 18.709 31.3392 17.6602 30.32Z" fill="#CBAF59"/>
<path fill-rule="evenodd" clip-rule="evenodd" d="M20.2695 32.6782C20.8026 33.6205 21.2834 34.5915 21.7095 35.5867C21.6287 34.899 21.4101 33.7219 20.2695 32.6782Z" fill="#E3C677"/>
<path fill-rule="evenodd" clip-rule="evenodd" d="M27.9414 35.04C28.103 34.939 28.4227 34.3886 28.7019 34.2512C28.9809 34.1096 29.1913 34.0813 29.4422 33.8021C29.6929 33.5107 29.7622 33.3328 30.3118 33.1024C31.0806 32.7704 30.5518 32.3416 30.5518 32.3416C30.6365 32.2584 30.727 32.1814 30.8227 32.1112C31.0211 31.9616 31.2515 31.7795 31.2315 31.4598C31.2033 30.9219 31.1022 30.1411 30.6611 29.688C31.0899 29.599 31.911 29.5384 32.4211 29.4091C33.0115 29.2592 33.2827 29.0488 33.2827 29.0488C33.2827 29.0488 32.943 28.4704 33.4931 27.888C34.0433 27.3056 34.4923 26.9576 34.8241 26.3062C34.4438 26.2576 33.8641 26.0555 32.3846 26.6176C32.4645 26.6552 32.5415 26.6984 32.6153 26.747C32.6153 26.747 31.7051 26.9979 31.3734 27.2771C30.7947 27.7664 30.7219 28.167 30.095 28.4664C29.4681 28.7659 28.8369 28.6848 28.3153 28.9275C27.7937 29.1702 27.7166 29.3766 27.5262 29.4656C27.5667 29.5142 27.5182 29.595 27.595 29.6638C27.5465 29.7326 27.2633 30.1936 26.9761 30.1936C27.0043 30.303 27.247 30.3838 27.247 30.3838C27.247 30.3838 27.0691 30.5134 26.6161 30.5456C26.8465 30.7856 27.0651 31.0472 27.6678 31.4275C27.6193 31.5286 27.4169 31.6784 27.4979 31.8685C27.587 32.0587 27.8179 32.3176 28.7398 32.528C28.2705 32.548 27.7206 32.6574 26.9798 32.5563C26.2395 32.4672 26.1182 32.4147 25.6611 32.528C25.7097 32.5766 25.839 32.5766 25.9523 32.7059C25.831 32.7139 25.0705 32.6168 24.8115 32.9568C24.5406 33.3086 24.4233 33.8872 24.4435 34.2755C24.3019 34.3443 24.1643 34.4656 24.2331 34.7166C24.3019 34.9675 24.6619 35.0483 24.8926 35.2059C25.123 35.3757 25.1433 35.4363 25.3619 35.396C25.5923 35.3475 25.9321 35.1171 26.1305 35.1171C26.3289 35.1171 26.4702 35.2667 26.4702 35.2667C26.4702 35.2667 27.0083 35.0078 27.0609 35.0563C27.1094 35.1048 27.0689 35.4163 27.1214 35.4648C27.1747 35.5014 27.7809 35.1414 27.9427 35.04H27.9414Z" fill="#ECD592"/>
<path fill-rule="evenodd" clip-rule="evenodd" d="M39.6963 18.8512C37.1681 12.3221 30.9179 11.1125 30.9179 11.1125H13.0862L13.155 17.7629H16.7062V32.6133H13.0859V39.2517H30.4243C34.603 39.2517 37.9526 35.0525 37.9526 35.0525C43.3166 27.4395 39.6961 18.8512 39.6961 18.8512H39.6963ZM30.5174 30.5784C30.5174 30.5784 29.1574 32.5406 27.6777 32.5406H24.7177L24.6475 17.7792H28.4462C28.4462 17.7792 30.2062 18.1472 31.4358 21.6301C31.4358 21.6301 33.0659 26.6168 30.5174 30.5784Z" fill="white" fill-opacity="0.8"/>
</g>
<defs>
<clipPath id="clip0_136_1053">
<rect width="50" height="50" fill="white" transform="translate(0.949219)"/>
</clipPath>
</defs>
</svg>
