<svg width="48" height="48" viewBox="0 0 48 48" fill="none" xmlns="http://www.w3.org/2000/svg">
<g clip-path="url(#clip0_373_5981)">
<path d="M24 48C37.2548 48 48 37.2548 48 24C48 10.7452 37.2548 0 24 0C10.7452 0 0 10.7452 0 24C0 37.2548 10.7452 48 24 48Z" fill="black"/>
<path fill-rule="evenodd" clip-rule="evenodd" d="M24 43.6364C34.8448 43.6364 43.6364 34.8448 43.6364 24C43.6364 13.1552 34.8448 4.36364 24 4.36364C13.1552 4.36364 4.36364 13.1552 4.36364 24C4.36364 34.8448 13.1552 43.6364 24 43.6364ZM24 48C37.2548 48 48 37.2548 48 24C48 10.7452 37.2548 0 24 0C10.7452 0 0 10.7452 0 24C0 37.2548 10.7452 48 24 48Z" fill="url(#paint0_linear_373_5981)"/>
<path d="M32.3302 28.2478C32.3204 24.8642 29.8462 23.0209 26.3736 22.1669V17.1581C27.2048 17.5947 27.7021 18.331 27.7993 19.3088H32.0435C31.9919 16.1771 29.8239 13.8592 26.3736 13.1937V10.6667H24.6964V13.0069C24.5492 13.0014 24.401 12.9987 24.2507 12.9987C23.9607 12.9987 23.6757 13.0091 23.3955 13.0286V10.6667H21.7183V13.2794C18.4742 14.0373 16.2976 16.2775 16.3138 19.3397C16.3041 22.3395 18.3586 24.0943 21.7183 24.9706V30.2887C20.7497 29.7784 20.1319 28.8983 20.0472 27.6544H15.7617C15.8546 31.3963 18.0822 33.6447 21.7183 34.3146V36.8486H23.3955V34.5063C23.6583 34.5198 23.926 34.527 24.1991 34.527C24.3668 34.527 24.5324 34.5242 24.6959 34.5187V36.8486H26.373V34.3624C30.1541 33.7549 32.321 31.5021 32.3296 28.2478H32.3302ZM24.2197 16.7011C24.3837 16.7011 24.5422 16.7076 24.6964 16.719V21.7672L24.1686 21.6413C23.9032 21.58 23.6447 21.5132 23.3955 21.4398V16.7543C23.6523 16.7195 23.9271 16.7011 24.2197 16.7011ZM20.8551 19.0432C20.8551 18.3706 21.152 17.7869 21.7183 17.3705V20.6781C21.1727 20.2774 20.8404 19.7523 20.8551 19.0432ZM24.148 30.8149C23.8885 30.8149 23.6376 30.8007 23.3955 30.7735V25.392L24.3017 25.6194C24.4369 25.652 24.5683 25.6851 24.6964 25.7188V30.7926C24.5194 30.8067 24.337 30.8149 24.148 30.8149ZM26.3736 30.3729V26.2932C27.3368 26.7471 27.8542 27.3389 27.8606 28.2375C27.8547 29.1746 27.309 29.9282 26.3736 30.3729Z" fill="white"/>
</g>
<defs>
<linearGradient id="paint0_linear_373_5981" x1="0" y1="24.001" x2="48" y2="24.001" gradientUnits="userSpaceOnUse">
<stop stop-color="#7013C5"/>
<stop offset="0.35" stop-color="#7330D7"/>
<stop offset="0.5" stop-color="#7543E3"/>
<stop offset="0.65" stop-color="#F94E6C"/>
<stop offset="0.75" stop-color="#FC9237"/>
<stop offset="0.85" stop-color="#FFD305"/>
<stop offset="1" stop-color="#20BF55"/>
</linearGradient>
<clipPath id="clip0_373_5981">
<rect width="48" height="48" fill="white"/>
</clipPath>
</defs>
</svg>
