<svg width="155" height="231" viewBox="0 0 155 231" fill="none" xmlns="http://www.w3.org/2000/svg">
<path d="M173.25 173.25C205.144 141.356 205.144 89.6447 173.25 57.7502C141.356 25.8558 89.6444 25.8558 57.75 57.7503C25.8555 89.6447 25.8556 141.356 57.75 173.25C89.6445 205.145 141.356 205.145 173.25 173.25Z" fill="#243384"/>
<path style="mix-blend-mode:overlay" opacity="0.53" d="M187.491 154.127C182.15 155.25 176.588 154.568 171.677 152.187C158.559 146.136 149.784 134.139 137.173 127.687C123.646 121.128 108.214 123.558 94.2954 128.906C76.443 136.578 54.648 142.433 38.6111 129.627C37.1872 128.55 35.8345 127.429 34.5352 126.281C36.825 143.398 44.4797 159.35 56.4005 171.846C68.3212 184.342 83.8949 192.739 100.886 195.833C117.876 198.926 135.41 196.556 150.97 189.063C166.53 181.57 179.315 169.34 187.491 154.127Z" fill="url(#paint0_linear_368_5151)"/>
<path style="mix-blend-mode:overlay" opacity="0.53" d="M98.3457 167.041C87.5506 169.061 78.4731 176.323 67.0728 175.522C63.7936 175.262 60.5841 174.437 57.5859 173.083C68.2507 183.802 81.6795 191.353 96.3791 194.896C111.079 198.439 126.473 197.835 140.85 193.152C135.715 176.617 116.928 164.522 98.3457 167.041Z" fill="url(#paint1_linear_368_5151)"/>
<path style="mix-blend-mode:overlay" opacity="0.46" d="M154.155 98.7815C180.017 96.2897 186.612 79.8701 182.634 69.0038C181.566 67.4641 180.444 65.9423 179.252 64.4561C172.549 56.0825 164.262 49.1112 154.865 43.9402C145.468 38.7693 135.145 35.5 124.484 34.319C113.823 33.1381 103.034 34.0686 92.7334 37.0575C82.4323 40.0464 72.8209 45.0351 64.448 51.7387C62.5346 53.2694 60.7013 54.8802 58.957 56.5534C116.208 71.2375 119.029 102.172 154.155 98.7815Z" fill="url(#paint2_linear_368_5151)"/>
<path opacity="0.21" d="M104.558 48.7042C119.18 45.269 131.799 51.7211 144.303 59.081C149.954 62.009 158.328 61.0923 162.663 55.1474C163.528 53.4946 164.021 51.6717 164.104 49.8077C153.635 42.0755 141.473 36.9506 128.627 34.8581C115.78 32.7655 102.621 33.7657 90.2383 37.7756C90.6655 38.8257 91.1282 39.8403 91.6355 40.8014C94.7681 45.7762 98.8797 49.9145 104.558 48.7042Z" fill="url(#paint3_linear_368_5151)"/>
<defs>
<linearGradient id="paint0_linear_368_5151" x1="154.604" y1="206.845" x2="90.9096" y2="122.13" gradientUnits="userSpaceOnUse">
<stop stop-color="#1E256B" stop-opacity="0"/>
<stop offset="1" stop-color="#1E256B"/>
</linearGradient>
<linearGradient id="paint1_linear_368_5151" x1="109.362" y1="206.38" x2="96.3794" y2="176.223" gradientUnits="userSpaceOnUse">
<stop stop-color="#1E256B" stop-opacity="0"/>
<stop offset="1" stop-color="#1E256B"/>
</linearGradient>
<linearGradient id="paint2_linear_368_5151" x1="125.49" y1="29.0894" x2="119.015" y2="87.5579" gradientUnits="userSpaceOnUse">
<stop stop-color="#25E7F8" stop-opacity="0"/>
<stop offset="1" stop-color="#25E7F8"/>
</linearGradient>
<linearGradient id="paint3_linear_368_5151" x1="100.406" y1="36.9428" x2="151.057" y2="52.6639" gradientUnits="userSpaceOnUse">
<stop offset="0.09" stop-color="white" stop-opacity="0"/>
<stop offset="1" stop-color="white"/>
</linearGradient>
</defs>
</svg>
