<svg width="213" height="64" viewBox="0 0 213 64" fill="none" xmlns="http://www.w3.org/2000/svg">
<g clip-path="url(#clip0_661_802)">
<path d="M0 32V64H106.24H212.48V32V0H106.24H0V32ZM198.72 3.328C198.72 3.424 196.8 7.232 194.464 11.84L190.208 20.192L192.704 28.416C194.08 32.928 195.2 36.736 195.2 36.896C195.2 37.024 194.176 37.12 192.896 37.056C190.784 36.96 190.592 36.896 190.368 36.16C189.568 33.376 187.456 26.336 187.328 25.952C187.264 25.696 186.848 26.176 186.4 27.072C185.664 28.512 185.6 28.992 185.6 32.864V37.12H183.36H181.12V23.68V10.24H183.36H185.6V15.36C185.6 18.56 185.728 20.48 185.92 20.48C186.112 20.48 186.24 20.352 186.24 20.16C186.24 20 188.064 16.096 190.304 11.52L194.336 3.2H196.544C197.728 3.2 198.72 3.264 198.72 3.328ZM190.336 4.704C190.24 5.824 190.208 5.856 188.96 5.856C187.712 5.856 187.68 5.824 187.584 4.704L187.488 3.52H188.96H190.432L190.336 4.704ZM185.28 5.28C185.28 5.952 185.12 6.08 184.32 6.08C183.52 6.08 183.36 5.952 183.36 5.28C183.36 4.608 183.52 4.48 184.32 4.48C185.12 4.48 185.28 4.608 185.28 5.28ZM187.68 7.68C187.68 8.384 187.52 8.48 186.496 8.576C185.344 8.672 185.28 8.64 185.28 7.68C185.28 6.72 185.344 6.688 186.496 6.784C187.52 6.88 187.68 6.976 187.68 7.68ZM49.216 8.192C50.72 8.8 52.32 10.336 53.216 12C53.92 13.248 53.92 13.536 54.016 31.168C54.112 50.912 54.08 51.168 52.128 53.536C51.584 54.208 50.528 55.072 49.824 55.456L48.48 56.16H29.6H10.72L9.376 55.456C8.672 55.072 7.616 54.208 7.072 53.536C5.12 51.168 5.088 50.912 5.184 31.168C5.28 13.536 5.28 13.248 5.984 12C6.848 10.4 8.48 8.832 9.92 8.192C11.616 7.456 47.456 7.456 49.216 8.192ZM92.64 11.04C94.912 12.736 95.04 13.376 95.04 23.68C95.04 31.872 94.976 32.928 94.432 34.08C93.312 36.512 91.712 37.44 88.64 37.44C86.4 37.44 85.28 37.056 84.064 35.904C82.336 34.272 82.24 33.696 82.24 23.712C82.24 15.52 82.304 14.432 82.848 13.28C84 10.72 85.696 9.824 89.024 10.016C91.104 10.112 91.648 10.272 92.64 11.04ZM68.48 15.68V21.12H70.72H72.992L72.928 15.744L72.896 10.4L75.008 10.304L77.12 10.208V23.68V37.12H75.04H72.96V31.2V25.28H70.72H68.48V31.2V37.12H66.24H64V23.68V10.24H66.24H68.48V15.68ZM106.336 11.104C106.4 11.616 106.944 15.52 107.52 19.84C108.608 28.064 108.832 29.28 109.024 27.68C109.088 27.136 109.664 23.136 110.272 18.784C110.848 14.4 111.36 10.688 111.36 10.528C111.36 10.336 112.672 10.24 114.496 10.304L117.6 10.4L117.696 23.744L117.76 37.12H115.488H113.216L113.344 27.84C113.376 22.72 113.344 18.88 113.216 19.264C113.12 19.68 112.48 23.84 111.808 28.544L110.56 37.12H108.768C107.616 37.12 106.88 36.96 106.784 36.704C106.72 36.512 106.112 32.576 105.44 28C104.8 23.424 104.16 19.424 104.032 19.104C103.936 18.784 103.872 22.72 103.936 27.84L104.032 37.12H101.952H99.84V23.872C99.872 16.608 99.968 10.56 100.064 10.432C100.192 10.336 101.6 10.24 103.2 10.24H106.176L106.336 11.104ZM134.4 12.32V14.4H130.88H127.36V17.76V21.12H130.24H133.152L133.056 23.104L132.96 25.12L130.176 25.216L127.36 25.312V29.28V33.28H130.88H134.4V35.2V37.12H128.64H122.88V23.68V10.24H128.64H134.4V12.32ZM145.92 15.456V18.72L148.288 18.624C151.36 18.464 152.672 19.04 153.6 20.992C154.24 22.272 154.272 22.816 154.176 28.384C154.016 37.152 153.792 37.408 146.304 37.408H141.76V24.768V12.16H143.84H145.92V15.456ZM162.08 24.96V37.568L160.16 37.536L158.24 37.504L158.144 25.248C158.112 18.496 158.112 12.832 158.208 12.64C158.272 12.48 159.168 12.32 160.192 12.352H162.08V24.96ZM173.504 18.24C174.144 18.432 175.104 19.072 175.648 19.712L176.64 20.832V27.456C176.64 33.536 176.576 34.176 176 35.136C175.2 36.448 173.664 37.12 171.456 37.12C169.312 37.12 167.744 36.352 166.88 34.88C166.304 33.856 166.24 33.216 166.24 27.52C166.24 22.176 166.336 21.12 166.816 20.256C167.872 18.304 170.688 17.472 173.504 18.24ZM205.632 18.912C206.72 19.936 206.944 20.352 207.2 22.144L207.424 23.68H205.792H204.16V22.56C204.16 21.248 203.264 20.576 202.24 21.12C201.76 21.376 201.6 21.792 201.6 22.752C201.6 23.904 201.824 24.256 203.872 26.336C206.752 29.28 207.168 30.08 207.168 32.48C207.168 35.84 205.728 37.44 202.656 37.44C199.904 37.44 198.432 35.936 198.4 33.024V31.36H199.84C201.28 31.36 201.28 31.36 201.28 32.448C201.28 33.568 201.952 34.56 202.72 34.56C203.36 34.56 204.16 33.664 204.16 32.96C204.16 31.712 203.424 30.496 201.312 28.32C200.128 27.072 198.944 25.6 198.72 25.056C198.144 23.552 198.432 20.384 199.232 19.488C200.768 17.76 204.096 17.472 205.632 18.912ZM68.736 44.704C68.832 45.312 68.704 45.44 68.032 45.44H67.2V49.312C67.2 53.12 67.2 53.152 66.496 53.056C65.792 52.96 65.76 52.832 65.664 49.184C65.6 45.696 65.536 45.44 64.96 45.44C64.48 45.44 64.32 45.216 64.32 44.64C64.32 43.808 64.352 43.808 66.496 43.904C68.448 44 68.64 44.064 68.736 44.704ZM74.24 44.48C74.784 45.024 74.88 45.536 74.88 48.48C74.88 51.424 74.784 51.936 74.24 52.48C73.312 53.408 71.872 53.312 71.072 52.288C70.496 51.552 70.4 50.976 70.4 48.416C70.4 45.664 70.464 45.344 71.2 44.64C72.128 43.68 73.376 43.616 74.24 44.48ZM78.72 45.6L78.88 47.2L79.52 45.664C80.128 44.224 80.928 43.584 81.568 43.968C81.728 44.096 81.504 44.832 81.056 45.632L80.224 47.104L80.928 49.632C81.312 51.04 81.728 52.416 81.824 52.672C81.952 53.056 81.824 53.152 81.12 53.056C80.32 52.96 80.16 52.768 79.68 51.072C79.104 48.96 78.72 49.216 78.72 51.712C78.72 52.992 78.656 53.12 77.92 53.12H77.12V48.448C77.12 43.808 77.12 43.808 77.856 43.904C78.464 44 78.592 44.256 78.72 45.6ZM87.744 44.032C87.84 44.128 87.872 44.48 87.776 44.832C87.648 45.28 87.328 45.44 86.528 45.44C85.504 45.44 85.44 45.504 85.44 46.56C85.44 47.584 85.504 47.68 86.4 47.68C87.136 47.68 87.36 47.808 87.36 48.32C87.36 48.832 87.136 48.96 86.4 48.96C85.504 48.96 85.44 49.024 85.44 50.24C85.44 51.488 85.472 51.52 86.56 51.52C87.552 51.52 87.68 51.616 87.68 52.32C87.68 53.088 87.584 53.12 85.76 53.12H83.84V48.704C83.84 46.272 83.936 44.16 84.064 44.064C84.32 43.808 87.488 43.776 87.744 44.032ZM92.32 46.08C92.608 47.296 92.928 48.32 93.024 48.32C93.088 48.32 93.12 47.36 93.088 46.144C93.024 44.16 93.056 44 93.696 43.904C94.4 43.808 94.4 43.84 94.4 48.448V53.12H93.6C92.8 53.12 92.672 52.832 91.872 49.344C91.392 47.104 91.2 47.392 91.2 50.336C91.2 52.896 91.136 53.12 90.56 53.12C89.952 53.12 89.92 52.896 89.92 48.48V43.84H90.848C91.712 43.84 91.808 43.936 92.32 46.08ZM98.24 48.512C98.24 53.152 98.24 53.152 97.536 53.056C96.832 52.96 96.8 52.832 96.704 48.832C96.672 46.528 96.704 44.48 96.768 44.256C96.864 44.032 97.248 43.84 97.6 43.84C98.208 43.84 98.24 44.032 98.24 48.512ZM104.64 44.576C104.64 44.992 104.064 46.72 103.392 48.416L102.112 51.52H103.392C104.512 51.52 104.64 51.616 104.64 52.32C104.64 53.088 104.576 53.12 102.56 53.12H100.48V52.192C100.48 51.68 100.992 50.08 101.6 48.64C102.208 47.2 102.72 45.888 102.72 45.728C102.72 45.568 102.208 45.44 101.6 45.44C100.736 45.44 100.48 45.312 100.48 44.864C100.48 43.968 100.736 43.84 102.784 43.84C104.512 43.84 104.64 43.904 104.64 44.576ZM110.656 44.704C110.752 45.376 110.624 45.44 109.44 45.44C108.128 45.44 108.128 45.472 108.224 46.464C108.288 47.36 108.48 47.552 109.216 47.616C109.824 47.68 110.08 47.904 110.08 48.32C110.08 48.736 109.824 48.96 109.216 49.024C108.448 49.12 108.32 49.28 108.224 50.304L108.128 51.52H109.408C110.592 51.52 110.72 51.584 110.72 52.32C110.72 53.12 110.688 53.152 108.736 53.056L106.72 52.96L106.624 48.832C106.592 46.528 106.624 44.48 106.72 44.256C106.816 43.936 107.392 43.84 108.704 43.904C110.336 44 110.56 44.096 110.656 44.704ZM116.48 44.64C117.024 45.152 117.12 45.664 117.12 48.512C117.12 51.68 117.088 51.808 116.256 52.48C115.616 52.96 115.04 53.12 114.112 53.056L112.8 52.96L112.704 48.832C112.672 46.528 112.704 44.48 112.8 44.224C113.024 43.584 115.648 43.904 116.48 44.64ZM133.696 44.608C134.144 45.056 134.24 45.792 134.24 48.512C134.24 51.68 134.208 51.936 133.472 52.512C132.992 52.896 132.224 53.12 131.328 53.12H129.92V48.448V43.744L131.552 43.904C132.448 44 133.408 44.32 133.696 44.608ZM140.416 44.704C140.512 45.376 140.384 45.44 139.2 45.44C137.888 45.44 137.888 45.472 137.984 46.464C138.048 47.36 138.24 47.552 138.976 47.616C140.192 47.776 140.192 48.864 138.976 49.024C138.24 49.12 138.08 49.28 137.984 50.304L137.888 51.52H139.168C140.352 51.52 140.48 51.584 140.48 52.32C140.48 53.12 140.448 53.152 138.496 53.056L136.48 52.96L136.384 48.832C136.352 46.528 136.384 44.48 136.48 44.256C136.576 43.936 137.152 43.84 138.464 43.904C140.096 44 140.32 44.096 140.416 44.704ZM146.016 44.384C146.528 44.992 146.848 46.816 146.464 46.944C145.792 47.2 145.312 46.944 145.216 46.336C145.152 45.92 144.864 45.568 144.576 45.504C144.064 45.408 144 45.696 144 48.448C144 51.296 144.032 51.52 144.64 51.52C145.152 51.52 145.28 51.296 145.28 50.56C145.28 49.76 145.408 49.6 146.048 49.6C146.784 49.6 146.816 49.696 146.656 50.784C146.432 52.352 145.728 53.12 144.576 53.12C142.816 53.12 142.4 52.256 142.4 48.48C142.4 45.536 142.496 45.024 143.04 44.48C143.84 43.68 145.344 43.648 146.016 44.384ZM152.896 44.704C152.992 45.376 152.864 45.44 151.712 45.44C150.432 45.44 150.4 45.472 150.4 46.56C150.4 47.584 150.464 47.68 151.36 47.68C152.096 47.68 152.32 47.808 152.32 48.32C152.32 48.832 152.096 48.96 151.36 48.96C150.464 48.96 150.4 49.024 150.4 50.24V51.52H151.712C152.864 51.52 152.992 51.584 152.896 52.224C152.8 52.896 152.608 52.96 150.816 53.056L148.8 53.152V48.704C148.8 46.272 148.896 44.16 149.024 44.032C149.152 43.904 150.048 43.84 151.04 43.904C152.576 44 152.8 44.096 152.896 44.704ZM156.992 44.704C157.088 45.216 157.376 46.24 157.6 47.04L158.016 48.48L158.048 46.144C158.08 44.064 158.144 43.84 158.72 43.84C159.328 43.84 159.36 44.064 159.36 48.48V53.12H158.592C157.92 53.12 157.76 52.864 157.28 50.784C156.48 47.456 156.288 47.36 156.32 50.336C156.32 52.832 156.288 52.96 155.616 53.056C154.88 53.152 154.88 53.152 154.88 48.704C154.88 46.272 154.976 44.16 155.104 44.064C155.2 43.936 155.648 43.84 156.032 43.84C156.608 43.84 156.832 44.064 156.992 44.704ZM165.76 44.64C165.76 45.216 165.6 45.44 165.12 45.44C164.544 45.44 164.48 45.696 164.416 49.184C164.32 52.832 164.288 52.96 163.616 53.056C162.88 53.152 162.88 53.12 162.88 49.312V45.44H162.08C161.504 45.44 161.28 45.28 161.28 44.864C161.28 43.936 161.536 43.84 163.744 43.84C165.696 43.84 165.76 43.872 165.76 44.64ZM171.552 44.672C172.224 45.28 172.384 47.328 171.808 47.904C171.552 48.16 171.552 48.448 171.808 48.896C172 49.248 172.16 50.368 172.16 51.36C172.16 53.056 172.128 53.152 171.456 53.056C170.816 52.96 170.688 52.736 170.56 51.2C170.432 49.856 170.272 49.408 169.856 49.344C169.344 49.248 169.28 49.504 169.28 51.2C169.28 53.056 169.248 53.152 168.576 53.056C167.872 52.96 167.84 52.832 167.744 48.832C167.712 46.528 167.744 44.48 167.84 44.224C168.064 43.616 170.752 43.936 171.552 44.672ZM177.408 44.096C177.568 44.352 178.88 52.032 178.88 52.736C178.88 52.992 178.592 53.12 178.176 53.056C177.632 52.992 177.408 52.704 177.344 52.064C177.248 51.392 177.056 51.2 176.48 51.2C175.904 51.2 175.712 51.392 175.616 52.064C175.552 52.704 175.328 52.992 174.816 53.056C174.304 53.12 174.08 52.992 174.08 52.608C174.08 51.84 175.36 44.416 175.552 44.096C175.776 43.776 177.184 43.776 177.408 44.096ZM182.4 47.68V51.52H183.52C184.512 51.52 184.64 51.616 184.64 52.32C184.64 53.12 184.576 53.152 182.816 53.056L180.96 52.96L180.864 48.832C180.832 46.528 180.864 44.48 180.928 44.256C181.024 44.032 181.408 43.84 181.76 43.84C182.368 43.84 182.4 44.032 182.4 47.68ZM188.32 48.48V52.96H187.52H186.72L186.624 48.832C186.592 46.528 186.624 44.48 186.72 44.224C186.816 44 187.2 43.84 187.584 43.904C188.32 44 188.32 44.064 188.32 48.48ZM194.496 44.704C194.56 45.088 194.016 46.784 193.344 48.448L192.064 51.52H193.312C194.432 51.52 194.56 51.616 194.56 52.32C194.56 53.088 194.496 53.12 192.48 53.12C190.432 53.12 190.4 53.12 190.4 52.224C190.4 51.744 190.976 50.016 191.648 48.384L192.896 45.44H191.648C190.656 45.44 190.4 45.312 190.4 44.864C190.4 43.936 190.72 43.808 192.64 43.904C194.176 44 194.4 44.096 194.496 44.704ZM200.576 44.704C200.672 45.344 200.544 45.44 199.552 45.44C198.464 45.44 198.4 45.504 198.4 46.56C198.4 47.584 198.464 47.68 199.36 47.68C200.096 47.68 200.32 47.808 200.32 48.32C200.32 48.8 200.096 48.96 199.392 48.96C198.56 48.96 198.464 49.056 198.336 50.24L198.208 51.52H199.424C200.512 51.52 200.64 51.616 200.64 52.32C200.64 53.12 200.576 53.152 198.688 53.056L196.768 52.96V48.544C196.768 46.144 196.8 44.096 196.8 44C196.8 43.872 197.632 43.84 198.656 43.904C200.256 44 200.48 44.096 200.576 44.704ZM205.664 44.192C206.144 44.352 206.656 44.704 206.784 44.896C206.912 45.12 207.04 46.72 207.04 48.512C207.04 52.544 206.816 52.928 204.448 52.96H202.72L202.624 48.864C202.56 46.592 202.592 44.544 202.688 44.288C202.88 43.744 204.384 43.712 205.664 44.192ZM123.968 47.648C124.288 48.16 123.808 48.96 123.2 48.96C122.464 48.96 122.112 48.448 122.368 47.84C122.56 47.328 123.712 47.2 123.968 47.648Z" fill="#030222"/>
<path d="M42.8177 12.192L40.3217 13.44V15.2C40.3217 16.384 40.1937 16.96 39.9377 16.992C39.7137 16.992 35.2017 16.992 29.9217 16.992C24.6417 16.96 20.0017 16.96 19.6177 16.96C18.9457 16.96 18.8817 16.8 18.8817 15.232V13.536L16.6417 12.512C15.3937 11.968 14.2097 11.52 13.9857 11.52C13.7617 11.52 12.5457 12.032 11.2657 12.64L8.96169 13.728V16.96V20.192L11.3617 21.28L13.7617 22.368V31.84V41.28L11.3617 42.464L8.92969 43.68L9.02569 47.2L9.12169 50.72L11.5857 52L14.0497 53.248L16.4497 52C18.7857 50.752 18.8497 50.688 18.9457 49.44L19.0417 48.16L29.6977 48.064L40.3217 48V49.376V50.752L42.7857 51.968L45.2497 53.184L47.7457 51.968L50.2417 50.752V47.2V43.648L48.0017 42.56L45.7617 41.472V32.096V22.72L48.0017 21.6L50.2737 20.448L50.1777 16.896L50.0817 13.312L47.8417 12.096C46.6257 11.456 45.5377 10.912 45.4417 10.912C45.3457 10.912 44.1617 11.488 42.8177 12.192ZM47.2657 12.384C48.3537 12.896 49.2817 13.344 49.2817 13.44C49.2817 13.536 48.3857 14.08 47.2977 14.624L45.2817 15.584L43.2977 14.624C42.1777 14.08 41.2817 13.536 41.2817 13.44C41.3137 13.312 44.6737 11.616 45.1217 11.552C45.2177 11.52 46.1777 11.904 47.2657 12.384ZM15.9697 12.672C17.0577 13.152 17.9217 13.632 17.9217 13.76C17.9217 13.888 17.0257 14.4 15.9697 14.88L13.9857 15.744L12.1297 14.848C11.0737 14.368 10.2417 13.856 10.2417 13.728C10.2417 13.568 12.8977 12.256 13.9857 11.872C14.0177 11.84 14.9137 12.224 15.9697 12.672ZM13.7617 18.944C13.7617 20.48 13.6977 21.76 13.6337 21.76C13.5377 21.76 12.6097 21.376 11.5537 20.928L9.60169 20.064V17.088V14.08L11.6817 15.104L13.7617 16.128V18.944ZM18.5617 15.52C18.5617 16.736 18.4337 17.024 17.8577 17.28L17.1217 17.568H17.8577C18.4657 17.6 18.5617 17.76 18.5617 18.848C18.5617 20.16 18.7217 20.032 14.8177 21.664C14.4977 21.792 14.4017 21.12 14.4017 18.976V16.128L16.4177 15.136C17.5057 14.56 18.4337 14.112 18.4977 14.112C18.5297 14.08 18.5617 14.72 18.5617 15.52ZM43.2017 15.04L45.1217 16V19.04C45.1217 20.896 44.9937 22.08 44.8017 22.08C44.6097 22.08 43.6177 21.632 42.5617 21.12C40.7697 20.224 40.6417 20.064 40.6417 19.04C40.6417 18.144 40.8017 17.824 41.3777 17.6L42.0817 17.312L41.3777 17.088C40.7697 16.928 40.6417 16.672 40.6417 15.488C40.6417 14.72 40.8017 14.08 40.9617 14.08C41.1537 14.08 42.1457 14.528 43.2017 15.04ZM40.3217 19.04V20.48L42.7217 21.664L45.1217 22.848V32.064V41.28L42.7217 42.464L40.3217 43.648V45.504V47.328L30.3377 47.424C24.8337 47.488 20.0017 47.488 19.6177 47.424C18.9457 47.328 18.8817 47.136 18.8817 45.408V43.52L16.6417 42.4L14.4017 41.28V31.808V22.368L16.6417 21.376C18.8177 20.416 18.8817 20.352 18.8817 19.2C18.8817 18.56 18.9777 17.92 19.1057 17.824C19.2017 17.696 24.0337 17.6 29.8257 17.6H40.3217V19.04ZM17.9217 43.84C17.9217 43.968 17.0577 44.448 16.0017 44.96L14.0817 45.888L12.1617 44.96C11.1057 44.448 10.2417 43.936 10.2417 43.808C10.2417 43.68 11.0737 43.168 12.0657 42.624L13.8897 41.664L15.9057 42.656C17.0257 43.2 17.9217 43.744 17.9217 43.84ZM47.5217 42.784C48.4817 43.264 49.2817 43.744 49.2817 43.84C49.2817 43.968 48.4177 44.448 47.3617 44.96L45.4737 45.856L43.3937 44.928C42.2417 44.416 41.2817 43.936 41.2817 43.84C41.2817 43.552 44.5777 41.952 45.1857 41.952C45.5057 41.92 46.5297 42.304 47.5217 42.784ZM13.7617 49.344V52.448L11.7777 51.52L9.76169 50.56L9.66569 47.36L9.56969 44.16L11.6817 45.184L13.7617 46.208V49.344ZM18.5617 45.76C18.5617 47.136 18.4657 47.36 17.9217 47.36C17.5697 47.36 17.2817 47.488 17.2817 47.68C17.2817 47.84 17.5697 48 17.9217 48C18.4337 48 18.5617 48.224 18.5617 49.216C18.5617 50.368 18.4977 50.464 16.4817 51.456L14.4017 52.48V49.344V46.208L16.4177 45.216C17.5057 44.64 18.4337 44.192 18.4977 44.192C18.5297 44.16 18.5617 44.864 18.5617 45.76ZM43.2017 45.44L45.1217 46.4V49.44C45.1217 51.104 45.0257 52.48 44.8977 52.48C44.7377 52.48 43.7777 52 42.7217 51.424C41.0257 50.528 40.8017 50.272 40.7057 49.344C40.6097 48.48 40.7377 48.224 41.2497 48.096C42.1137 47.872 42.1137 47.36 41.2817 47.36C40.7377 47.36 40.6417 47.136 40.6417 45.92C40.6417 45.12 40.8017 44.48 40.9617 44.48C41.1537 44.48 42.1457 44.928 43.2017 45.44Z" fill="#151515"/>
<path d="M88.0946 14.016C86.6226 14.24 86.5586 14.592 86.5586 23.744V32.384L87.3266 32.992C88.2226 33.728 88.8946 33.76 89.8546 33.088C90.5586 32.608 90.5586 32.544 90.5586 23.712C90.5586 16.96 90.4626 14.72 90.1746 14.496C89.5666 14.048 88.8946 13.888 88.0946 14.016Z" fill="#151515"/>
<path d="M147.647 21.856C147.583 22.08 147.551 24.992 147.583 28.32L147.679 34.4L148.575 34.496C150.303 34.688 150.399 34.368 150.399 28.032C150.399 23.936 150.271 22.08 150.015 21.824C149.503 21.312 147.871 21.344 147.647 21.856Z" fill="#151515"/>
<path d="M170.463 21.376C169.663 22.24 169.663 32.96 170.431 33.728C171.103 34.4 171.935 34.368 172.575 33.664C173.343 32.8 173.375 22.592 172.607 21.504C172.031 20.64 171.167 20.608 170.463 21.376Z" fill="#151515"/>
<path d="M72.1285 45.856C72.0325 46.112 72.0005 47.424 72.0645 48.832C72.1605 50.944 72.2565 51.36 72.7365 51.456C73.2165 51.552 73.2805 51.264 73.2805 48.512C73.2805 45.952 73.1845 45.44 72.8005 45.44C72.5125 45.44 72.2245 45.632 72.1285 45.856Z" fill="#151515"/>
<path d="M114.238 48.448C114.238 51.328 114.27 51.52 114.878 51.52C115.518 51.52 115.55 51.36 115.454 48.576C115.358 46.048 115.262 45.6 114.814 45.504C114.302 45.408 114.238 45.696 114.238 48.448Z" fill="#151515"/>
<path d="M131.52 48.512C131.52 51.264 131.584 51.552 132.096 51.456C132.544 51.36 132.672 50.944 132.736 49.12C132.864 46.496 132.64 45.44 132 45.44C131.616 45.44 131.52 46.016 131.52 48.512Z" fill="#151515"/>
<path d="M169.281 46.56C169.281 47.488 169.377 47.712 169.857 47.616C170.209 47.552 170.401 47.2 170.401 46.56C170.401 45.92 170.209 45.568 169.857 45.504C169.377 45.408 169.281 45.632 169.281 46.56Z" fill="#151515"/>
<path d="M176.322 47.072C176.322 47.328 176.226 48.064 176.13 48.704C175.97 49.664 176.034 49.92 176.386 49.92C176.802 49.92 176.866 49.6 176.706 48.384C176.546 46.912 176.322 46.144 176.322 47.072Z" fill="#151515"/>
<path d="M204.416 48.48C204.32 51.2 204.384 51.52 204.896 51.52C205.376 51.52 205.44 51.168 205.44 48.48C205.44 46.048 205.344 45.44 204.992 45.44C204.608 45.44 204.512 46.112 204.416 48.48Z" fill="#151515"/>
<path d="M194.655 3.90399C194.463 4.12799 193.919 5.18399 193.439 6.23999C191.775 9.75999 191.519 10.24 191.327 10.24C191.199 10.24 191.007 10.464 190.911 10.752C190.783 11.072 190.847 11.168 191.135 11.04C191.327 10.912 191.263 11.04 190.975 11.296C190.655 11.552 190.495 11.84 190.623 11.936C190.719 12.064 190.655 12.16 190.431 12.16C190.207 12.16 190.111 12.288 190.207 12.416C190.303 12.544 189.439 14.496 188.287 16.768C187.167 19.008 186.239 21.056 186.239 21.312C186.239 21.824 185.727 21.92 185.439 21.408C185.183 21.056 185.183 11.328 185.407 10.944C185.567 10.656 182.239 10.752 181.791 11.04C181.567 11.168 181.471 15.52 181.535 23.936L181.599 36.64H183.359H185.119L185.183 32.416C185.215 28.384 185.279 28.16 186.207 26.336C186.751 25.312 187.199 24.672 187.199 24.896C187.199 25.12 187.327 25.248 187.487 25.152C187.647 25.024 187.743 25.216 187.711 25.504C187.647 25.824 187.743 26.304 187.871 26.56C187.999 26.816 188.223 27.584 188.319 28.224C188.415 28.896 188.639 29.44 188.799 29.44C188.927 29.44 188.991 29.728 188.895 30.08C188.799 30.464 188.895 30.72 189.087 30.72C189.311 30.72 189.375 30.88 189.279 31.072C189.151 31.232 189.279 31.648 189.535 31.936C190.015 32.48 190.559 34.688 190.431 35.488C190.367 35.744 190.527 35.872 190.815 35.744C191.135 35.616 191.231 35.744 191.135 36.128C190.975 36.768 191.775 37.12 193.471 37.12C194.495 37.12 195.167 36.384 194.527 35.968C194.335 35.872 194.271 35.584 194.367 35.328C194.463 35.104 194.399 34.816 194.271 34.752C194.143 34.656 193.823 33.696 193.599 32.64C193.375 31.584 193.023 30.72 192.831 30.72C192.639 30.72 192.447 30.24 192.415 29.664C192.319 28.288 192.191 27.776 191.903 27.264C191.743 27.072 191.743 26.88 191.903 26.88C192.031 26.88 191.967 26.752 191.711 26.592C191.487 26.432 191.295 25.92 191.295 25.472C191.295 24.992 191.167 24.544 191.007 24.448C190.879 24.384 190.815 24.096 190.943 23.84C191.039 23.552 190.943 23.136 190.719 22.88C190.495 22.592 190.207 21.792 190.079 21.056C189.855 19.936 189.951 19.52 190.591 18.496C191.007 17.824 191.295 17.28 191.199 17.28C191.071 17.28 191.263 16.832 191.583 16.32C191.871 15.776 192.255 15.36 192.383 15.36C192.511 15.36 192.543 15.136 192.447 14.88C192.319 14.624 192.479 14.336 192.767 14.208C193.055 14.112 193.215 13.888 193.119 13.76C193.023 13.6 193.183 13.28 193.439 12.992C193.727 12.736 193.951 12.416 193.919 12.32C193.887 11.456 193.983 11.2 194.303 11.392C194.495 11.52 194.559 11.488 194.431 11.264C194.335 11.072 194.431 10.752 194.655 10.496C194.911 10.272 195.039 9.88799 194.943 9.66399C194.879 9.47199 195.039 9.18399 195.295 9.08799C195.583 8.99199 195.743 8.63999 195.679 8.28799C195.615 7.96799 195.679 7.67999 195.839 7.67999C195.999 7.67999 196.223 7.32799 196.351 6.87999C196.447 6.43199 196.671 6.14399 196.831 6.23999C196.959 6.33599 197.023 6.11199 196.959 5.75999C196.895 5.40799 196.959 5.12 197.087 5.12C197.215 5.12 197.503 4.76799 197.663 4.384C198.015 3.64799 197.983 3.61599 196.479 3.55199C195.583 3.51999 194.847 3.67999 194.655 3.90399Z" fill="#4377F8"/>
<path d="M188.062 4.60799C187.806 5.21599 188.574 5.82399 189.246 5.56799C189.534 5.47199 189.758 5.08799 189.758 4.76799C189.758 4.03199 188.318 3.90399 188.062 4.60799Z" fill="#4377F8"/>
<path d="M183.872 5.088C183.776 5.248 183.904 5.44 184.16 5.568C184.448 5.664 184.64 5.568 184.64 5.28C184.64 4.768 184.128 4.64 183.872 5.088Z" fill="#4377F8"/>
<path d="M186.656 7.29606C185.824 7.42406 185.696 7.84006 186.368 8.09606C186.624 8.19206 187.008 8.06406 187.232 7.80806C187.68 7.23206 187.584 7.13606 186.656 7.29606Z" fill="#4377F8"/>
<path d="M142.302 12.672C141.886 13.088 142.046 36.416 142.462 36.672C142.686 36.8 143.742 36.896 144.862 36.864C145.982 36.864 147.326 36.96 147.87 37.12C148.51 37.312 149.246 37.248 150.11 36.96C150.782 36.704 151.39 36.512 151.454 36.544C151.678 36.672 152.958 35.616 152.958 35.296C152.958 35.104 153.118 34.88 153.342 34.816C153.854 34.624 153.822 21.984 153.31 21.376C153.118 21.152 152.638 20.544 152.286 20.064C151.902 19.584 151.518 19.232 151.454 19.328C151.358 19.424 150.814 19.296 150.238 19.072C149.438 18.72 148.862 18.72 147.646 18.976C146.782 19.168 145.982 19.488 145.854 19.648C145.534 20.096 145.502 19.456 145.598 15.744C145.63 14.144 145.598 12.8 145.534 12.768C144.478 12.576 142.494 12.512 142.302 12.672ZM150.174 21.44C150.654 22.016 150.718 22.88 150.718 28.32C150.718 33.92 150.654 34.56 150.174 34.848C149.342 35.264 147.902 35.2 147.486 34.688C147.006 34.08 147.038 21.856 147.55 21.248C148.094 20.608 149.534 20.704 150.174 21.44Z" fill="#4377F8"/>
<path d="M158.654 24.416C158.59 31.008 158.622 36.608 158.654 36.928C158.75 37.344 159.038 37.44 160.094 37.376C161.182 37.312 161.438 37.152 161.63 36.48C162.014 35.136 161.95 13.792 161.598 13.088C161.342 12.64 160.926 12.48 159.998 12.48H158.718L158.654 24.416Z" fill="#4377F8"/>
<path d="M168.926 19.136C167.71 19.7439 167.294 20.16 167.134 20.864C167.038 21.344 166.846 21.76 166.686 21.76C166.526 21.76 166.398 24.3519 166.398 27.5199C166.398 31.1359 166.526 33.2799 166.718 33.2799C166.91 33.2799 167.038 33.5359 167.038 33.8239C167.038 34.3999 168.286 36.2559 168.318 35.7439C168.318 35.5839 168.542 35.6799 168.798 35.9359C169.054 36.2239 169.822 36.5119 170.526 36.6399C171.838 36.8639 174.398 36.3199 174.398 35.8399C174.398 35.6799 174.59 35.6159 174.814 35.6799C175.038 35.7759 175.39 35.3919 175.614 34.8159C175.838 34.2399 176.19 33.5039 176.35 33.1839C176.766 32.4159 176.67 22.4959 176.254 21.632C176.062 21.248 175.806 20.736 175.678 20.5119C175.262 19.584 173.758 18.752 172.158 18.5599C170.814 18.4 170.27 18.496 168.926 19.136ZM172.766 20.768C173.118 20.992 173.214 22.304 173.182 27.5519C173.15 31.2639 173.022 34.1439 172.83 34.3359C172.318 34.8479 170.75 34.8799 170.174 34.3679C169.726 33.9199 169.63 33.0559 169.598 27.6799C169.598 22.4 169.662 21.4399 170.078 20.992C170.654 20.448 172.062 20.32 172.766 20.768Z" fill="#4377F8"/>
<path d="M201.501 18.688C200.829 18.944 199.965 19.488 199.549 19.936C198.909 20.64 198.813 20.992 198.909 22.784C199.037 25.312 199.101 25.6 199.389 25.44C199.485 25.344 199.677 25.6 199.773 25.952C199.901 26.368 200.093 26.528 200.349 26.368C200.573 26.24 200.669 26.272 200.541 26.464C200.413 26.656 200.957 27.392 201.693 28.096C204.061 30.4 204.477 31.136 204.477 32.864C204.477 34.592 203.645 35.264 202.109 34.848C201.245 34.624 200.957 34.336 200.925 33.824C200.893 33.44 200.861 32.896 200.829 32.64C200.797 32.32 200.381 32.128 199.549 32.064L198.301 31.968L198.557 33.024C198.685 33.6 198.781 34.272 198.813 34.464C198.813 34.688 198.941 34.88 199.101 34.88C199.229 34.88 199.325 35.072 199.293 35.264C199.229 35.488 199.357 35.648 199.581 35.616C199.805 35.552 199.901 35.744 199.805 36C199.677 36.32 199.805 36.48 200.285 36.48C200.669 36.48 200.957 36.608 200.957 36.768C200.957 37.312 204.605 36.832 205.117 36.224C205.405 35.904 205.821 35.712 206.045 35.776C206.365 35.872 206.429 35.776 206.301 35.424C206.205 35.168 206.333 34.688 206.557 34.336C207.165 33.568 207.165 31.744 206.557 31.168C206.301 30.912 206.173 30.528 206.269 30.272C206.365 30.048 206.205 29.664 205.917 29.44C205.661 29.216 205.437 28.928 205.437 28.768C205.437 28.64 204.573 27.712 203.517 26.688C202.461 25.696 201.597 24.608 201.597 24.256C201.597 23.936 201.469 23.68 201.277 23.68C200.925 23.68 200.861 22.336 201.149 21.28C201.277 20.768 201.565 20.64 202.525 20.64C203.773 20.64 204.925 21.28 204.605 21.792C204.509 21.952 204.605 22.336 204.797 22.688C205.021 23.168 205.341 23.264 205.981 23.168C207.165 22.944 207.197 22.848 206.749 21.888C206.557 21.44 206.493 20.896 206.589 20.704C206.717 20.48 206.717 20.416 206.557 20.544C206.397 20.704 206.141 20.48 205.949 20.064C205.597 19.424 203.773 18.272 203.037 18.272C202.877 18.272 202.173 18.464 201.501 18.688Z" fill="#4377F8"/>
<path d="M29.5664 21.056C29.6944 21.28 29.6304 21.44 29.4384 21.44C29.2464 21.44 29.1824 21.6 29.3104 21.824C29.4384 22.048 29.4064 22.08 29.1504 21.952C28.6704 21.664 25.5024 24.896 25.8224 25.376C25.9184 25.536 25.8864 25.6 25.6944 25.504C25.3424 25.28 23.9984 26.4 23.9984 26.944C23.9984 27.136 23.9024 27.232 23.8064 27.104C23.5184 26.848 19.2624 31.136 19.4224 31.52C19.4864 31.712 19.9024 31.904 20.3824 31.936C20.8304 31.968 21.3104 32.064 21.3744 32.16C21.4704 32.224 21.5024 34.496 21.5024 37.184C21.4704 40.256 21.5984 42.208 21.8224 42.464C22.0464 42.72 22.9104 42.88 24.3184 42.88C26.9104 42.88 26.8784 42.912 26.8464 39.2C26.8464 37.728 26.9104 36.352 27.0384 36.192C27.2624 35.808 31.9984 35.712 31.9984 36.064C32.0304 36.224 32.0304 37.792 32.0624 39.584V42.848L34.6864 42.784L37.2784 42.72L37.3104 37.472C37.3424 31.904 37.4384 31.616 38.9424 31.872C39.4224 31.968 39.6784 31.872 39.6784 31.552C39.6784 30.912 32.9264 24.288 32.5424 24.544C32.3504 24.672 32.3184 24.576 32.4784 24.352C32.7344 23.936 30.6864 21.76 30.0464 21.76C29.8864 21.76 29.7904 21.632 29.9184 21.472C30.0144 21.312 29.9184 21.056 29.7264 20.928C29.4704 20.8 29.4384 20.832 29.5664 21.056Z" fill="#4377F8"/>
<path d="M34.5586 23.392C34.5586 23.488 35.1986 24.288 35.9666 25.152C37.5026 26.848 37.6306 26.784 37.8226 24.48L37.9186 23.2L36.2546 23.168C35.3266 23.168 34.5586 23.264 34.5586 23.392Z" fill="#4377F8"/>
<path d="M99.9062 11.5201C99.9062 12.1281 99.9702 12.3841 100.066 12.0641C100.13 11.7761 100.13 11.2641 100.066 10.9441C99.9702 10.6561 99.9062 10.9121 99.9062 11.5201Z" fill="#404040"/>
<path d="M117.602 23.8401C117.602 31.2321 117.634 34.2081 117.666 30.4641C117.73 26.7201 117.73 20.6721 117.666 17.0241C117.634 13.3761 117.602 16.4481 117.602 23.8401Z" fill="#404040"/>
<path d="M64.1602 24C64.1602 30.784 64.1922 33.536 64.2242 30.176C64.2882 26.784 64.2882 21.216 64.2242 17.856C64.1922 14.464 64.1602 17.216 64.1602 24Z" fill="#404040"/>
<path d="M100 24.96C100 31.744 100.032 34.496 100.064 31.136C100.128 27.744 100.128 22.176 100.064 18.816C100.032 15.424 100 18.176 100 24.96Z" fill="#404040"/>
<path d="M18.9766 15.36C18.9766 16.32 19.0406 16.736 19.1046 16.224C19.1686 15.744 19.1686 14.976 19.1046 14.464C19.0406 13.984 18.9766 14.4 18.9766 15.36Z" fill="#404040"/>
<path d="M40.7383 15.52C40.7383 16.384 40.8023 16.736 40.8663 16.224C40.9303 15.744 40.9303 15.04 40.8663 14.624C40.8023 14.24 40.7383 14.624 40.7383 15.52Z" fill="#404040"/>
<path d="M127.139 14.56C127.043 14.848 127.043 15.168 127.171 15.264C127.267 15.392 127.363 15.232 127.363 14.944C127.363 14.496 127.875 14.4 130.979 14.304L134.563 14.208L130.947 14.144C127.939 14.08 127.299 14.176 127.139 14.56Z" fill="#404040"/>
<path d="M53.9219 32C53.9219 41.76 53.9539 45.76 53.9859 40.864C54.0499 36 54.0499 28 53.9859 23.104C53.9539 18.24 53.9219 22.24 53.9219 32Z" fill="#404040"/>
<path d="M90.6875 24C90.6875 28.32 90.7515 30.08 90.7835 27.904C90.8475 25.76 90.8475 22.24 90.7835 20.064C90.7515 17.92 90.6875 19.68 90.6875 24Z" fill="#404040"/>
<path d="M40.6406 19.008C40.6406 19.616 40.7366 20.192 40.8966 20.288C41.0246 20.352 41.0886 19.872 41.0246 19.168C40.8646 17.632 40.6406 17.536 40.6406 19.008Z" fill="#404040"/>
<path d="M18.9453 19.2001C18.9453 19.8081 19.0093 20.0641 19.1053 19.7441C19.1693 19.4561 19.1693 18.9441 19.1053 18.6241C19.0093 18.3361 18.9453 18.5921 18.9453 19.2001Z" fill="#404040"/>
<path d="M103.809 28.48C103.809 33.312 103.873 35.296 103.905 32.864C103.969 30.464 103.969 26.496 103.905 24.064C103.873 21.664 103.809 23.648 103.809 28.48Z" fill="#404040"/>
<path d="M113.41 28.8C113.41 33.472 113.474 35.36 113.506 33.024C113.57 30.72 113.57 26.88 113.506 24.544C113.474 22.24 113.41 24.128 113.41 28.8Z" fill="#404040"/>
<path d="M65.1837 44.0641C65.7597 44.1281 66.7837 44.1281 67.4237 44.0641C68.0957 44.0001 67.6477 43.9361 66.3997 43.9361C65.1837 43.9361 64.6397 44.0001 65.1837 44.0641Z" fill="#404040"/>
<path d="M84.4804 44.0321C85.5684 44.2561 87.9364 44.2881 87.7764 44.0641C87.7124 43.9361 86.8164 43.8721 85.8244 43.8721C84.8324 43.9041 84.2244 43.9681 84.4804 44.0321Z" fill="#404040"/>
<path d="M90.3378 44.0641C90.6258 44.1281 91.1378 44.1281 91.4578 44.0641C91.7458 43.9681 91.4898 43.9041 90.8818 43.9041C90.2738 43.9041 90.0178 43.9681 90.3378 44.0641Z" fill="#404040"/>
<path d="M101.696 44.0641C102.24 44.1281 103.2 44.1281 103.776 44.0641C104.32 44.0001 103.872 43.9361 102.72 43.9361C101.568 43.9361 101.12 44.0001 101.696 44.0641Z" fill="#404040"/>
<path d="M106.69 44.256C106.626 44.48 106.594 46.528 106.626 48.832L106.722 52.96L108.802 52.992L110.882 53.024L108.898 52.896L106.882 52.768V48.48V44.192L108.738 44.064L110.562 43.968L108.706 43.904C107.426 43.872 106.818 43.968 106.69 44.256Z" fill="#404040"/>
<path d="M113.536 44.0641C113.92 44.1281 114.496 44.1281 114.816 44.0641C115.104 43.9681 114.784 43.9041 114.08 43.9361C113.376 43.9361 113.12 44.0001 113.536 44.0641Z" fill="#404040"/>
<path d="M130.499 44.0641C130.883 44.1281 131.523 44.1281 131.939 44.0641C132.323 44.0001 132.003 43.9361 131.203 43.9361C130.403 43.9361 130.083 44.0001 130.499 44.0641Z" fill="#404040"/>
<path d="M136.448 44.256C136.384 44.48 136.352 46.528 136.384 48.832L136.48 52.96L138.56 52.992L140.64 53.024L138.656 52.896L136.64 52.768V48.48V44.192L138.496 44.064L140.32 43.968L138.464 43.904C137.184 43.872 136.576 43.968 136.448 44.256Z" fill="#404040"/>
<path d="M150.849 44.064C152.353 44.16 152.609 44.288 152.769 44.896C152.897 45.504 152.897 45.472 152.865 44.8C152.801 44.064 152.673 44 150.945 43.968L149.121 43.936L150.849 44.064Z" fill="#404040"/>
<path d="M162.465 44.0641C163.041 44.1281 164.065 44.1281 164.705 44.0641C165.377 44.0001 164.929 43.9361 163.681 43.9361C162.465 43.9361 161.921 44.0001 162.465 44.0641Z" fill="#404040"/>
<path d="M186.721 44.2241C186.625 44.4801 186.593 46.5281 186.625 48.8321L186.721 52.9601H187.521H188.321V48.4801C188.321 44.0641 188.321 44.0001 187.585 43.9041C187.201 43.8401 186.817 44.0001 186.721 44.2241ZM188.161 48.4801C188.161 52.5761 188.129 52.8001 187.521 52.8001C186.913 52.8001 186.881 52.5761 186.881 48.4801C186.881 44.3841 186.913 44.1601 187.521 44.1601C188.129 44.1601 188.161 44.3841 188.161 48.4801Z" fill="#404040"/>
<path d="M191.619 44.0641C192.195 44.1281 193.059 44.1281 193.539 44.0641C194.019 44.0001 193.539 43.9361 192.483 43.9361C191.427 43.9361 191.043 44.0001 191.619 44.0641Z" fill="#404040"/>
<path d="M196.705 44.064C196.609 44.224 197.217 44.288 198.017 44.224C200.353 44.064 200.641 43.904 198.657 43.872C197.665 43.872 196.769 43.936 196.705 44.064Z" fill="#404040"/>
<path d="M202.688 44.2561C202.624 44.4801 202.592 46.1761 202.656 48.0321L202.752 51.3601L202.816 47.7761L202.88 44.1921L204.096 44.0641L205.28 43.9361L204.064 43.9041C203.328 43.8721 202.784 44.0001 202.688 44.2561Z" fill="#404040"/>
<path d="M40.7383 45.92C40.7383 46.784 40.8023 47.136 40.8663 46.624C40.9303 46.144 40.9303 45.44 40.8663 45.024C40.8023 44.64 40.7383 45.024 40.7383 45.92Z" fill="#404040"/>
<path d="M167.809 48.4801C167.809 50.7841 167.841 51.6481 167.905 50.4641C167.969 49.2801 167.969 47.3921 167.905 46.3041C167.841 45.2161 167.809 46.1761 167.809 48.4801Z" fill="#404040"/>
<path d="M18.9453 46.4001C18.9453 47.0081 19.0093 47.2641 19.1053 46.9441C19.1693 46.6561 19.1693 46.1441 19.1053 45.8241C19.0093 45.5361 18.9453 45.7921 18.9453 46.4001Z" fill="#404040"/>
<path d="M198.176 46.5601C198.176 47.2641 198.24 47.5201 198.304 47.1041C198.368 46.7201 198.368 46.1441 198.304 45.8241C198.208 45.5361 198.144 45.8561 198.176 46.5601Z" fill="#404040"/>
<path d="M204.289 48.32C204.289 49.984 204.321 50.688 204.385 49.824C204.449 48.992 204.449 47.648 204.385 46.784C204.321 45.952 204.289 46.656 204.289 48.32Z" fill="#404040"/>
<path d="M134.211 48.48C134.211 50.048 134.243 50.752 134.307 50.016C134.371 49.28 134.371 47.968 134.307 47.136C134.243 46.304 134.211 46.88 134.211 48.48Z" fill="#404040"/>
<path d="M40.707 49.2801C40.707 49.8881 40.771 50.1441 40.867 49.8241C40.931 49.5361 40.931 49.0241 40.867 48.7041C40.771 48.4161 40.707 48.6721 40.707 49.2801Z" fill="#404040"/>
<path d="M18.9453 49.6C18.9453 50.208 19.0093 50.464 19.1053 50.144C19.1693 49.856 19.1693 49.344 19.1053 49.024C19.0093 48.736 18.9453 48.992 18.9453 49.6Z" fill="#404040"/>
<path d="M156.227 50.624C156.163 52.544 156.099 52.768 155.459 52.896L154.723 53.024L155.459 53.088C156.387 53.12 156.547 52.672 156.387 50.368L156.291 48.48L156.227 50.624Z" fill="#404040"/>
<path d="M198.176 50.0801C198.176 50.7841 198.24 51.0401 198.304 50.6241C198.368 50.2401 198.368 49.6641 198.304 49.3441C198.208 49.0561 198.144 49.3761 198.176 50.0801Z" fill="#404040"/>
<path d="M152.673 52.064C152.641 52.704 152.449 52.768 150.657 52.896L148.641 52.992L150.657 53.056C152.705 53.12 153.281 52.8 152.865 51.776C152.769 51.552 152.673 51.68 152.673 52.064Z" fill="#404040"/>
<path d="M175.362 52.416C175.362 52.64 175.042 52.832 174.658 52.832C174.05 52.864 174.018 52.896 174.53 53.024C175.17 53.184 175.938 52.64 175.586 52.256C175.458 52.16 175.362 52.224 175.362 52.416Z" fill="#404040"/>
<path d="M80.2891 52.896C80.4491 53.056 80.8971 53.12 81.3131 53.056C81.9531 52.96 81.9211 52.896 81.0251 52.768C80.3851 52.672 80.0971 52.704 80.2891 52.896Z" fill="#404040"/>
<path d="M196.771 52.896C196.899 53.024 197.891 53.12 198.915 53.056L200.803 52.96L198.659 52.8C197.475 52.704 196.643 52.768 196.771 52.896Z" fill="#404040"/>
<path d="M84.7389 53.024C85.2829 53.088 86.2429 53.088 86.8189 53.024C87.3629 52.96 86.9149 52.896 85.7629 52.896C84.6109 52.896 84.1629 52.96 84.7389 53.024Z" fill="#404040"/>
<path d="M101.344 53.024C101.92 53.088 102.944 53.088 103.584 53.024C104.256 52.96 103.808 52.896 102.56 52.896C101.344 52.896 100.8 52.96 101.344 53.024Z" fill="#404040"/>
<path d="M113.538 53.024C113.922 53.088 114.562 53.088 114.978 53.024C115.362 52.96 115.042 52.896 114.242 52.896C113.442 52.896 113.122 52.96 113.538 53.024Z" fill="#404040"/>
<path d="M130.656 53.024C131.136 53.088 131.84 53.088 132.256 53.024C132.64 52.96 132.256 52.896 131.36 52.896C130.496 52.896 130.144 52.96 130.656 53.024Z" fill="#404040"/>
<path d="M182.018 53.024C182.594 53.088 183.458 53.088 183.938 53.024C184.418 52.96 183.938 52.896 182.882 52.896C181.826 52.896 181.442 52.96 182.018 53.024Z" fill="#404040"/>
<path d="M191.266 53.024C191.842 53.088 192.866 53.088 193.506 53.024C194.178 52.96 193.73 52.896 192.482 52.896C191.266 52.896 190.722 52.96 191.266 53.024Z" fill="#404040"/>
<path d="M203.778 53.024C204.162 53.088 204.738 53.088 205.058 53.024C205.346 52.928 205.026 52.864 204.322 52.896C203.618 52.896 203.362 52.96 203.778 53.024Z" fill="#404040"/>
<path d="M11.1353 8.00005C8.51128 8.80005 6.43128 10.7841 5.75928 13.1521C5.27928 14.8481 5.34328 49.344 5.82328 51.008C6.33528 52.736 8.70328 55.104 10.4313 55.616C12.0953 56.096 46.9113 56.16 48.6393 55.68C50.3033 55.232 52.1273 53.536 52.9913 51.712L53.7593 50.08V32.16C53.7593 20.224 53.6313 13.8241 53.4073 12.9601C52.8953 11.1361 50.1753 8.54405 48.2553 8.06405C46.5273 7.61605 12.5753 7.55205 11.1353 8.00005ZM48.1593 12.0641L50.5913 13.2801L50.4953 16.9281L50.3993 20.5761L48.0953 21.7281L45.7913 22.8801L45.7593 32V41.152L48.1593 42.336L50.5593 43.52V47.2V50.88L47.9673 52.192L45.3433 53.504L42.6553 52.16L39.9353 50.816L40.0633 49.568L40.1913 48.32H29.6953H19.1993V49.6C19.1993 50.88 19.1993 50.88 16.6393 52.16L14.0793 53.44L11.5193 52.16L8.95928 50.88V47.2V43.52L11.1993 42.4L13.4393 41.28V31.872V22.4961L11.1993 21.4721L8.92728 20.4161L9.02328 16.8961L9.11928 13.3761L11.6153 12.2561L14.1113 11.1041L16.5753 12.2561L19.0393 13.4401L19.1353 15.2001L19.2313 16.9601H29.5993H39.9993V15.1041V13.2481L42.3353 12.0961C43.5833 11.4561 44.8953 10.9121 45.1833 10.9121C45.5033 10.8801 46.8473 11.4241 48.1593 12.0641Z" fill="white"/>
<path d="M43.0375 12.7041L41.4375 13.5361L43.3895 14.4641L45.3735 15.3921L47.2295 14.4641L49.0855 13.5361L47.4215 12.6721C45.4055 11.6481 45.0535 11.6481 43.0375 12.7041Z" fill="#ECECEC"/>
<path d="M12.0946 12.8961C11.2626 13.2801 10.5586 13.6961 10.5586 13.7921C10.5586 13.8881 11.3586 14.3041 12.3186 14.6881L14.1106 15.4241L15.8386 14.6881C16.7986 14.2721 17.5986 13.8561 17.5986 13.7601C17.5986 13.5361 14.3346 12.1601 13.9186 12.1921C13.7586 12.1921 12.9266 12.5441 12.0946 12.8961Z" fill="#ECECEC"/>
<path d="M9.59766 17.0881V19.7121L11.3577 20.5761C12.3497 21.0561 13.2777 21.4401 13.4697 21.4401C13.6617 21.4401 13.7577 20.4481 13.6937 18.8481L13.5977 16.2561L11.6137 15.3601L9.59766 14.4321V17.0881Z" fill="#ECECEC"/>
<path d="M16.2544 15.3921L14.3984 16.3201V18.8801C14.3984 20.4161 14.5264 21.4401 14.7184 21.4401C14.9104 21.4401 15.7744 21.0881 16.6384 20.6401C18.0144 19.9361 18.2384 19.7121 18.2384 18.8801C18.2384 18.1441 18.1104 17.9201 17.5984 17.9201C17.2464 17.9201 16.9584 17.6961 16.9584 17.4401C16.9584 17.1841 17.2464 16.9601 17.5984 16.9601C18.1424 16.9601 18.2384 16.7361 18.2384 15.6801C18.2384 14.9761 18.2064 14.4001 18.1744 14.4321C18.1104 14.4641 17.2464 14.8801 16.2544 15.3921Z" fill="#ECECEC"/>
<path d="M40.9609 15.68C40.9609 16.736 41.0569 16.96 41.6009 16.96C41.9529 16.96 42.2409 17.184 42.2409 17.44C42.2409 17.696 41.9529 17.92 41.6009 17.92C41.0889 17.92 40.9609 18.144 40.9609 18.976C40.9609 19.936 41.1209 20.096 42.7209 20.896C43.7129 21.376 44.5769 21.76 44.6409 21.76C44.7369 21.76 44.8009 20.48 44.8009 18.944V16.128L43.0409 15.264C42.0489 14.784 41.1849 14.4 41.1209 14.4C41.0249 14.4 40.9609 14.976 40.9609 15.68Z" fill="#ECECEC"/>
<path d="M19.1984 19.1361C19.1984 20.3201 19.1664 20.3521 16.7984 21.5361L14.3984 22.7201V31.9361V41.1521L16.7984 42.3361L19.1984 43.5201V45.4401V47.3601H29.5984H39.9984V45.4401V43.5201L42.3984 42.3361L44.7984 41.1521V32.0001V22.8481L42.3664 21.6641L39.9344 20.4481L40.0624 19.2001L40.1904 17.9201H29.6944H19.1984V19.1361ZM35.1344 25.9201C40.7664 31.3921 41.1504 32.0641 38.9424 32.2561L37.7584 32.3521V37.7921V43.2321L34.8464 43.1361L31.9024 43.0401L31.9664 39.5841L32.0304 36.1601H29.6304H27.1984V39.7441V43.3601L24.3504 43.2641L21.5024 43.1681L21.2784 38.1441C21.1824 35.3921 21.0224 32.9601 20.9584 32.7361C20.8944 32.5441 20.4464 32.3201 19.9344 32.2561C19.4224 32.1921 19.0064 31.9361 18.9424 31.6481C18.8464 31.1041 28.9264 20.8001 29.5664 20.8001C29.7584 20.8001 32.2864 23.1041 35.1344 25.9201ZM38.0784 25.1841V27.6481L35.8384 25.4401C34.6224 24.2241 33.5984 23.1041 33.5984 22.9761C33.5984 22.8161 34.6224 22.7201 35.8384 22.7201H38.0784V25.1841Z" fill="#ECECEC"/>
<path d="M12.2546 42.8161C11.3266 43.2641 10.5586 43.7441 10.5586 43.8401C10.5586 43.9681 11.3586 44.4161 12.3186 44.8641L14.0466 45.6641L15.8066 44.8321C16.7666 44.3841 17.5666 43.9361 17.5666 43.8401C17.5986 43.6801 14.1746 41.8881 13.9826 41.9521C13.9506 41.9521 13.1506 42.3361 12.2546 42.8161Z" fill="#ECECEC"/>
<path d="M43.3912 42.912L41.5352 43.808L43.3912 44.736L45.2792 45.696L47.1672 44.736L49.0232 43.776L47.6152 43.072C45.4072 41.952 45.4072 41.952 43.3912 42.912Z" fill="#ECECEC"/>
<path d="M9.59766 47.36V50.24L11.5177 51.2C12.5737 51.712 13.5017 52.16 13.5977 52.16C13.6937 52.16 13.7577 50.88 13.7577 49.344V46.528L11.6777 45.504L9.59766 44.48V47.36Z" fill="#ECECEC"/>
<path d="M16.2544 45.568L14.3984 46.56V49.344C14.3984 50.912 14.4624 52.16 14.5584 52.16C14.6224 52.16 15.4864 51.776 16.4784 51.296C18.0784 50.496 18.2384 50.336 18.2384 49.376C18.2384 48.544 18.1104 48.32 17.5984 48.32C17.2464 48.32 16.9584 48.096 16.9584 47.84C16.9584 47.584 17.2464 47.36 17.5984 47.36C18.1424 47.36 18.2384 47.136 18.2384 45.92C18.2384 45.12 18.2064 44.512 18.1744 44.512C18.1104 44.544 17.2464 45.024 16.2544 45.568Z" fill="#ECECEC"/>
<path d="M40.9609 45.92C40.9609 47.136 41.0569 47.36 41.6009 47.36C41.9529 47.36 42.2409 47.584 42.2409 47.84C42.2409 48.096 41.9529 48.32 41.6009 48.32C41.0889 48.32 40.9609 48.544 40.9609 49.28C40.9609 50.112 41.1849 50.336 42.8809 51.2L44.8009 52.16V49.28V46.4L42.8809 45.44L40.9609 44.48V45.92Z" fill="#ECECEC"/>
<path d="M87.6781 10.1761C84.7981 10.5601 83.1341 12.0641 82.5581 14.8801C82.3021 16.0641 82.2061 19.4561 82.3021 24.8961C82.3981 32.8641 82.4301 33.1521 83.1661 34.4321C84.2541 36.3841 86.0461 37.2801 88.6381 37.2481C91.8381 37.2161 94.0781 35.6481 94.6221 33.0241C94.7501 32.3841 94.8781 28.0321 94.8781 23.3601C94.8781 16.8001 94.7821 14.6241 94.4301 13.7601C93.9181 12.5121 92.9581 11.2961 92.0621 10.8161C91.3261 10.4321 88.7021 10.0481 87.6781 10.1761ZM90.3661 14.4641C90.8141 15.0721 90.8781 16.5121 90.8781 23.6801C90.8781 33.3761 90.8461 33.6001 88.6381 33.6001C86.4301 33.6001 86.3981 33.3761 86.3981 23.6801C86.3981 13.9841 86.4301 13.7601 88.6381 13.7601C89.5661 13.7601 90.0141 13.9521 90.3661 14.4641Z" fill="#ECECEC"/>
<path d="M64.3843 23.7441L64.4803 36.9601L66.3043 37.0561L68.1603 37.1521L68.2243 31.1361L68.3203 25.1201L70.6243 25.0241L72.9603 24.9281L73.0243 30.9441L73.1203 36.9601L75.1363 37.0561L77.1203 37.1521V23.8401V10.5601H75.0403H72.9603V16.0001V21.4721L70.6563 21.3761L68.3203 21.2801L68.2243 15.9041L68.1603 10.5601H66.2403H64.3203L64.3843 23.7441Z" fill="#ECECEC"/>
<path d="M100.224 23.7441L100.32 36.9601L102.016 37.0561L103.68 37.1521L103.712 26.9761C103.712 21.3441 103.84 17.0881 104 17.4401C104.128 17.7921 104.864 22.2401 105.6 27.3601C106.336 32.4481 107.008 36.7361 107.104 36.8641C107.296 37.2481 110.4 37.1841 110.4 36.8001C110.4 36.4481 113.248 17.5041 113.344 17.0561C113.408 16.9281 113.504 21.3441 113.6 26.8801L113.76 36.9601H115.52H117.28L117.376 23.7441L117.44 10.5601H114.592C112.128 10.5601 111.712 10.6561 111.552 11.1041C111.488 11.4241 110.848 15.6801 110.208 20.5441C109.536 25.4401 108.864 29.4401 108.736 29.4401C108.608 29.4401 108.48 29.0561 108.48 28.5441C108.448 28.0641 107.904 23.8721 107.264 19.2001L106.048 10.7201L103.104 10.6241L100.16 10.5281L100.224 23.7441Z" fill="#ECECEC"/>
<path d="M123.199 23.7441L123.359 36.9601H128.799H134.239L134.335 35.1041L134.431 33.2801H130.719H127.039V29.1201V24.9601H129.919H132.799V23.2001V21.4401H129.919H127.039V17.7601V14.0801H130.719H134.399V12.3201V10.5601H128.735H123.039L123.199 23.7441Z" fill="#ECECEC"/>
<path d="M64.3203 44.608C64.3203 44.864 64.6403 45.12 65.0563 45.184C65.7283 45.28 65.7603 45.408 65.8563 49.024C65.9203 52.48 65.9843 52.8 66.5603 52.8C67.1043 52.8 67.1363 52.512 67.1363 49.024C67.1043 45.44 67.1363 45.28 67.8083 45.184C68.1603 45.12 68.4803 44.864 68.4803 44.608C68.4803 44.256 68.0003 44.16 66.4003 44.16C64.8003 44.16 64.3203 44.256 64.3203 44.608Z" fill="#ECECEC"/>
<path d="M71.2627 44.736C70.8147 45.216 70.7188 46.016 70.7188 48.576C70.7188 52.192 71.0067 52.8 72.7667 52.8C74.3987 52.8 74.5587 52.416 74.5587 48.48C74.5587 46.144 74.4307 44.8 74.1747 44.544C73.5987 43.968 71.8387 44.096 71.2627 44.736ZM73.4387 48.48C73.4387 51.456 73.4067 51.68 72.7987 51.68C72.2227 51.68 72.1587 51.424 72.0627 48.832C71.9667 45.6 72.0947 45.024 72.8627 45.184C73.3747 45.28 73.4387 45.696 73.4387 48.48Z" fill="#ECECEC"/>
<path d="M77.4375 48.4801C77.4375 52.0961 77.5015 52.8001 77.9175 52.8001C78.2695 52.8001 78.3975 52.4481 78.3975 51.4241C78.3975 50.6561 78.5895 49.7921 78.8135 49.4721C79.1975 48.9601 79.2935 49.0881 79.8375 50.8481C80.2855 52.3201 80.5735 52.8001 81.0215 52.8001C81.7255 52.8001 81.7575 52.9921 80.7975 49.9521L79.9655 47.3921L80.7975 45.7601C81.5655 44.2561 81.5655 44.1601 80.9895 44.1601C80.5735 44.1601 80.1895 44.6721 79.6455 45.9201C79.2295 46.8801 78.7815 47.6801 78.6535 47.6801C78.4935 47.6801 78.3975 46.8801 78.3975 45.9201C78.3975 44.5761 78.3015 44.1601 77.9175 44.1601C77.5015 44.1601 77.4375 44.8641 77.4375 48.4801Z" fill="#ECECEC"/>
<path d="M84.1602 48.48V52.8H85.9202C87.2322 52.8 87.6802 52.672 87.6802 52.352C87.6802 52.032 87.2642 51.84 86.4962 51.776C85.3122 51.68 85.2802 51.648 85.1842 50.304C85.0882 48.992 85.1202 48.96 86.0482 48.96C86.8162 48.96 87.0402 48.832 87.0402 48.32C87.0402 47.808 86.8162 47.68 86.0482 47.68C85.1202 47.68 85.0882 47.616 85.1842 46.464C85.2802 45.344 85.3442 45.28 86.4962 45.184C87.2642 45.12 87.6802 44.928 87.6802 44.608C87.6802 44.288 87.2322 44.16 85.9202 44.16H84.1602V48.48Z" fill="#ECECEC"/>
<path d="M90.239 44.288C90.207 44.384 90.207 46.304 90.207 48.544C90.207 52.096 90.271 52.64 90.719 52.736C91.167 52.832 91.231 52.48 91.167 49.952C91.135 48.32 91.199 46.944 91.295 46.848C91.359 46.752 91.775 48.064 92.191 49.728C92.767 52.192 93.023 52.8 93.503 52.8C94.015 52.8 94.079 52.416 94.079 48.48C94.079 44.768 94.015 44.16 93.567 44.16C93.151 44.16 93.087 44.576 93.151 46.56C93.183 47.872 93.151 49.056 93.055 49.152C92.959 49.216 92.607 48.192 92.255 46.816C91.743 44.704 91.551 44.288 90.943 44.224C90.559 44.16 90.239 44.192 90.239 44.288Z" fill="#ECECEC"/>
<path d="M96.9609 48.48C96.9609 52.576 96.9929 52.8 97.6009 52.8C98.2089 52.8 98.2409 52.576 98.2409 48.48C98.2409 44.384 98.2089 44.16 97.6009 44.16C96.9929 44.16 96.9609 44.384 96.9609 48.48Z" fill="#ECECEC"/>
<path d="M100.8 44.64C100.8 44.96 101.152 45.12 101.92 45.12C102.528 45.12 103.04 45.248 103.04 45.376C103.04 45.536 102.464 47.072 101.76 48.8C101.056 50.528 100.48 52.128 100.48 52.384C100.48 52.672 101.024 52.8 102.4 52.8C103.904 52.8 104.32 52.704 104.32 52.32C104.32 52 103.968 51.84 103.2 51.84C102.528 51.84 102.08 51.68 102.08 51.424C102.08 51.232 102.592 49.824 103.2 48.32C103.808 46.848 104.32 45.312 104.32 44.896C104.32 44.224 104.192 44.16 102.56 44.16C101.216 44.16 100.8 44.256 100.8 44.64Z" fill="#ECECEC"/>
<path d="M106.879 48.48V52.8H108.639C109.983 52.8 110.399 52.704 110.399 52.32C110.399 52 110.047 51.84 109.279 51.84C108.159 51.84 108.159 51.84 108.159 50.4C108.159 49.024 108.191 48.96 109.119 48.96C109.855 48.96 110.079 48.832 110.079 48.32C110.079 47.808 109.855 47.68 109.119 47.68C108.223 47.68 108.159 47.616 108.159 46.4C108.159 45.152 108.191 45.12 109.279 45.12C110.047 45.12 110.399 44.96 110.399 44.64C110.399 44.256 109.983 44.16 108.639 44.16H106.879V48.48Z" fill="#ECECEC"/>
<path d="M112.961 48.48V52.8H114.369C116.577 52.8 116.801 52.384 116.801 48.48C116.801 44.576 116.577 44.16 114.369 44.16H112.961V48.48ZM115.457 45.504C115.969 46.016 115.969 50.944 115.457 51.456C114.465 52.448 114.241 51.904 114.241 48.48C114.241 45.056 114.465 44.512 115.457 45.504Z" fill="#ECECEC"/>
<path d="M130.238 48.48V52.8H131.518C133.662 52.8 134.078 52.096 134.078 48.48C134.078 44.864 133.662 44.16 131.518 44.16H130.238V48.48ZM132.638 48.48C132.638 51.552 132.606 51.68 131.934 51.776C131.198 51.872 131.198 51.808 131.198 48.704C131.198 45.44 131.294 45.024 132.158 45.184C132.542 45.28 132.638 45.856 132.638 48.48Z" fill="#ECECEC"/>
<path d="M136.641 48.48V52.8H138.401C139.745 52.8 140.161 52.704 140.161 52.32C140.161 52 139.809 51.84 139.041 51.84C137.921 51.84 137.921 51.84 137.921 50.4C137.921 48.992 137.953 48.96 138.913 48.96C139.681 48.96 139.873 48.832 139.777 48.384C139.713 48.064 139.329 47.808 138.785 47.744C138.017 47.648 137.921 47.52 137.921 46.368C137.921 45.152 137.953 45.12 139.041 45.12C139.809 45.12 140.161 44.96 140.161 44.64C140.161 44.256 139.745 44.16 138.401 44.16H136.641V48.48Z" fill="#ECECEC"/>
<path d="M143.295 44.512C142.815 44.768 142.719 45.344 142.719 48.192C142.719 52.16 142.975 52.8 144.447 52.8C145.759 52.8 146.559 51.968 146.559 50.592C146.559 49.12 145.471 49.312 145.343 50.816C145.279 51.552 145.087 51.84 144.639 51.84C144.319 51.84 143.967 51.616 143.871 51.328C143.583 50.56 143.647 45.984 143.967 45.472C144.383 44.8 145.279 45.312 145.279 46.24C145.279 46.816 145.439 47.04 145.919 47.04C146.719 47.04 146.783 45.92 146.047 44.864C145.535 44.096 144.255 43.936 143.295 44.512Z" fill="#ECECEC"/>
<path d="M149.121 48.48V52.8H150.881C152.193 52.8 152.641 52.672 152.641 52.352C152.641 52.032 152.225 51.84 151.457 51.776C150.273 51.68 150.241 51.648 150.145 50.304C150.049 48.992 150.081 48.96 151.009 48.96C151.777 48.96 152.001 48.832 152.001 48.32C152.001 47.808 151.777 47.68 151.009 47.68C150.081 47.68 150.049 47.616 150.145 46.464C150.241 45.344 150.305 45.28 151.457 45.184C152.225 45.12 152.641 44.928 152.641 44.608C152.641 44.288 152.193 44.16 150.881 44.16H149.121V48.48Z" fill="#ECECEC"/>
<path d="M155.199 48.48C155.199 52.096 155.263 52.8 155.679 52.8C156.063 52.8 156.159 52.256 156.159 49.696C156.159 48 156.223 46.688 156.319 46.784C156.415 46.848 156.799 48.224 157.215 49.792C157.791 52.032 158.047 52.64 158.527 52.64C159.039 52.64 159.103 52.256 159.135 48.384C159.199 44.448 159.167 44.16 158.591 44.16C158.047 44.16 158.015 44.352 158.175 46.72C158.271 48.128 158.239 49.28 158.111 49.28C157.983 49.28 157.599 48.128 157.279 46.72C156.767 44.416 156.607 44.16 155.935 44.16C155.199 44.16 155.199 44.16 155.199 48.48Z" fill="#ECECEC"/>
<path d="M161.598 44.608C161.598 44.864 161.918 45.12 162.334 45.184C163.006 45.28 163.038 45.408 163.102 48.96C163.134 52.032 163.23 52.672 163.646 52.736C164.062 52.832 164.158 52.288 164.222 49.056C164.318 45.408 164.35 45.28 165.054 45.184C165.438 45.12 165.758 44.864 165.758 44.608C165.758 44.256 165.278 44.16 163.678 44.16C162.078 44.16 161.598 44.256 161.598 44.608Z" fill="#ECECEC"/>
<path d="M168 48.448C168 52.576 168.032 52.8 168.64 52.8C169.216 52.8 169.28 52.576 169.28 50.88C169.28 49.408 169.376 48.96 169.76 48.96C170.432 48.96 170.88 49.984 170.88 51.488C170.88 52.448 171.008 52.8 171.36 52.8C171.744 52.8 171.84 52.384 171.84 50.944C171.84 49.92 171.68 48.928 171.456 48.704C171.168 48.416 171.168 48.224 171.456 47.936C171.904 47.488 171.968 45.472 171.552 44.832C171.392 44.608 170.528 44.32 169.632 44.224L168 44.064V48.448ZM170.592 45.888C171.008 46.752 170.496 48 169.76 48C169.408 48 169.28 47.616 169.28 46.56C169.28 44.928 169.984 44.544 170.592 45.888Z" fill="#ECECEC"/>
<path d="M175.68 44.224C175.648 44.288 175.328 46.24 174.944 48.544C174.24 52.576 174.24 52.8 174.784 52.8C175.2 52.8 175.36 52.544 175.36 52C175.36 51.328 175.52 51.2 176.32 51.2C177.056 51.2 177.312 51.36 177.472 52C177.696 52.896 178.56 53.088 178.56 52.224C178.56 51.936 178.272 50.016 177.92 48C177.568 45.984 177.28 44.288 177.28 44.224C177.28 44.192 176.928 44.16 176.48 44.16C176.032 44.16 175.68 44.192 175.68 44.224ZM177.024 48.96C177.088 49.888 177.024 50.08 176.48 50.08C175.904 50.08 175.84 49.888 175.968 48.16C176.032 47.104 176.16 46.112 176.256 45.92C176.48 45.568 176.864 47.136 177.024 48.96Z" fill="#ECECEC"/>
<path d="M181.121 48.48V52.8H182.881C184.225 52.8 184.641 52.704 184.641 52.32C184.641 52 184.289 51.84 183.521 51.84H182.401V48C182.401 44.384 182.369 44.16 181.761 44.16C181.153 44.16 181.121 44.384 181.121 48.48Z" fill="#ECECEC"/>
<path d="M186.879 48.48C186.879 52.576 186.911 52.8 187.519 52.8C188.127 52.8 188.159 52.576 188.159 48.48C188.159 44.384 188.127 44.16 187.519 44.16C186.911 44.16 186.879 44.384 186.879 48.48Z" fill="#ECECEC"/>
<path d="M190.721 44.64C190.721 44.96 191.073 45.12 191.841 45.12C192.449 45.12 192.961 45.248 192.961 45.44C192.961 45.6 192.513 46.848 191.969 48.224C191.425 49.6 190.849 51.2 190.721 51.744L190.465 52.8H192.449C194.017 52.8 194.465 52.704 194.465 52.32C194.465 51.968 194.113 51.84 193.217 51.84C192.545 51.84 192.001 51.68 192.001 51.488C192.001 51.328 192.449 50.144 192.961 48.864C193.505 47.616 194.081 46.048 194.209 45.376L194.497 44.16H192.609C191.137 44.16 190.721 44.256 190.721 44.64Z" fill="#ECECEC"/>
<path d="M196.801 48.48V52.8H198.561C199.905 52.8 200.321 52.704 200.321 52.32C200.321 52 199.969 51.84 199.201 51.84C198.081 51.84 198.081 51.84 198.081 50.4C198.081 49.024 198.113 48.96 199.041 48.96C199.777 48.96 200.001 48.832 200.001 48.32C200.001 47.808 199.777 47.68 199.041 47.68C198.145 47.68 198.081 47.616 198.081 46.4C198.081 45.152 198.113 45.12 199.201 45.12C199.969 45.12 200.321 44.96 200.321 44.64C200.321 44.256 199.905 44.16 198.561 44.16H196.801V48.48Z" fill="#ECECEC"/>
<path d="M202.879 48.48V52.8H204.191C206.623 52.8 206.719 52.608 206.719 48.48C206.719 44.352 206.623 44.16 204.191 44.16H202.879V48.48ZM205.375 45.504C205.599 45.728 205.759 46.944 205.759 48.672C205.759 51.456 205.599 51.84 204.447 51.84C204.287 51.84 204.159 50.336 204.159 48.48C204.159 45.056 204.383 44.512 205.375 45.504Z" fill="#ECECEC"/>
<path d="M122.689 47.84C122.593 48.096 122.593 48.448 122.689 48.608C122.977 49.024 123.841 48.672 123.841 48.16C123.841 47.552 122.881 47.296 122.689 47.84Z" fill="#ECECEC"/>
</g>
<defs>
<clipPath id="clip0_661_802">
<rect width="212.48" height="64" fill="white"/>
</clipPath>
</defs>
</svg>
