<svg width="49" height="48" viewBox="0 0 49 48" fill="none" xmlns="http://www.w3.org/2000/svg">
<path d="M7.65742 0.112114C4.19781 0.560581 1.5175 3.29859 1.06881 6.85092C0.915313 8.12551 0.903505 39.4946 1.06881 41.017C1.39942 44.1917 3.33586 46.5756 6.44124 47.6378L7.38585 47.9564L24.495 47.9918C38.9828 48.0154 41.7458 47.9918 42.5015 47.8502C45.0873 47.3663 47.0474 45.9147 48.1219 43.7078C49.0074 41.9139 48.9484 43.3656 48.9484 23.8809V6.41425L48.6296 5.47011C47.5669 2.35445 45.1464 0.407158 41.9347 0.100311C40.506 -0.0413094 8.74371 -0.0295067 7.65742 0.112114ZM42.8911 0.584183C43.2335 0.654995 43.942 0.914635 44.4615 1.16247C46.0319 1.91778 47.0238 2.89733 47.7676 4.40795C48.5942 6.072 48.5469 4.78561 48.5115 24.3057L48.4761 41.9375L48.1691 42.7283C47.3071 44.947 45.9375 46.316 43.7177 47.1775L42.9266 47.4844H25.0381H7.1497L6.3704 47.2129C4.20962 46.4694 2.65102 44.947 1.78907 42.7283L1.48208 41.9375L1.44665 24.3057C1.41123 4.95084 1.37581 6.0956 2.11968 4.52597C2.81633 3.05075 3.92624 1.92958 5.37856 1.22148C6.9962 0.418961 5.7446 0.466167 24.8846 0.466167C36.9992 0.454365 42.4543 0.489769 42.8911 0.584183Z" fill="white"/>
<path d="M37.8506 4.52595L35.4891 5.75333L35.4301 7.55901L35.371 9.36467H24.9804H14.5898V7.68882V6.01297L13.2319 5.39928C12.488 5.05703 11.4135 4.54956 10.8468 4.27811C10.28 3.99487 9.72506 3.75884 9.61879 3.75884C9.51252 3.75884 9.11107 3.93586 8.70961 4.1601C8.30815 4.37253 7.24548 4.89181 6.35991 5.29307L4.73047 6.03658V9.24665V12.4449L7.03294 13.5661L9.33541 14.6755V23.8808V33.0862L7.03294 34.2664L4.73047 35.4466L4.76589 38.9045L4.78951 42.3624L7.22186 43.6252L9.66602 44.8762L10.9412 44.2035C11.6497 43.8258 12.7478 43.2711 13.3736 42.9643L14.5189 42.4096L14.5543 41.1114L14.5898 39.8132L25.004 39.7778L35.4183 39.7542L35.4537 41.0642L35.4891 42.3624L37.9097 43.6134L40.3302 44.8762L42.7862 43.6016L45.2303 42.3388V38.8927V35.4466L42.9869 34.29L40.7435 33.1334V24.0579V14.9941L42.9869 13.8257L45.2303 12.6692V9.22305V5.78874L42.8098 4.53775C41.4874 3.85325 40.3538 3.28677 40.3066 3.28677C40.2594 3.29857 39.1495 3.85325 37.8506 4.52595ZM44.1677 5.90676C44.1677 5.95396 43.3057 6.42604 42.2548 6.95712L40.342 7.91306L38.3584 6.93351C37.2721 6.39063 36.3747 5.91856 36.3865 5.88316C36.3865 5.84775 37.2721 5.38748 38.3584 4.8682L40.3302 3.91226L42.2548 4.8682C43.3057 5.38748 44.1677 5.85955 44.1677 5.90676ZM11.6851 5.19865C12.7242 5.67072 13.5625 6.10739 13.5507 6.1664C13.5271 6.22541 12.6533 6.66207 11.5907 7.14594L9.66602 8.01927L7.76501 7.15775C6.72594 6.67387 5.85219 6.23721 5.82857 6.1664C5.80496 6.06018 9.37083 4.36073 9.65421 4.34893C9.72506 4.34893 10.646 4.73838 11.6851 5.19865ZM38.0277 7.35838L40.035 8.36152V11.3828C40.035 13.153 39.9878 14.3804 39.9288 14.3568C39.8697 14.3332 38.9369 13.8729 37.8624 13.3183L35.9024 12.3151V11.1585V10.0138H36.4928C37.0595 10.0138 37.0831 10.002 37.0831 9.68332C37.0831 9.37648 37.0595 9.36467 36.5282 9.36467H35.9614L35.926 7.85405C35.9142 7.02792 35.926 6.35522 35.9614 6.35522C35.9968 6.35522 36.9296 6.80369 38.0277 7.35838ZM44.7344 9.40008C44.7108 12.5039 44.6636 12.1853 44.6163 8.57396C44.5927 7.37017 44.6163 6.40243 44.6754 6.43784C44.7226 6.46144 44.7462 7.79504 44.7344 9.40008ZM7.33994 7.47639C8.40261 7.97206 9.3118 8.43233 9.35903 8.51495C9.4771 8.69197 9.4771 14.0264 9.37083 14.0264C9.3118 14.0264 8.39081 13.6133 7.30451 13.1176L5.32085 12.2089V9.40008C5.32085 7.85405 5.34446 6.59126 5.36808 6.59126C5.4035 6.59126 6.28906 6.99252 7.33994 7.47639ZM14.0584 8.01927V9.44728L13.409 9.40008C12.7714 9.36467 12.7596 9.36467 12.7596 9.68332C12.7596 10.002 12.7832 10.0138 13.409 10.0138H14.0584V11.0995V12.1971L12.0748 13.1176C10.9885 13.6133 10.0675 14.0264 10.0084 14.0264C9.96121 14.0264 9.9376 12.7636 9.9494 11.2294L9.98483 8.42053L11.9331 7.5118C13.0076 7.01612 13.9167 6.60306 13.9758 6.60306C14.023 6.59126 14.0584 7.22855 14.0584 8.01927ZM42.5146 7.59441C42.3493 7.68882 42.1722 7.75964 42.1013 7.75964C42.0423 7.75964 42.1132 7.68882 42.2785 7.59441C42.4438 7.5 42.6327 7.42918 42.6917 7.42918C42.7626 7.42918 42.6799 7.5 42.5146 7.59441ZM35.4301 11.3474V12.681L37.7326 13.8611L40.035 15.0295L39.9996 24.0579L39.976 33.0862L39.0314 33.5701C38.5118 33.8297 37.5082 34.3608 36.7879 34.7266L35.4891 35.423L35.4301 37.264L35.371 39.1051H24.9804H14.5898L14.5543 37.2522L14.5189 35.3993L12.2873 34.2428L10.0439 33.0862V23.8808V14.6755L12.3227 13.5661L14.5898 12.4685L14.5543 11.2412L14.5189 10.0138H24.9686H35.4301V11.3474ZM11.6733 34.5378C12.7242 35.0689 13.5861 35.541 13.5861 35.6C13.5861 35.6826 9.83133 37.5119 9.66602 37.5119C9.42987 37.5119 5.79315 35.6944 5.81676 35.6C5.86399 35.482 9.58337 33.5111 9.68964 33.5465C9.72506 33.5583 10.6106 33.9949 11.6733 34.5378ZM42.3139 34.5732C43.3293 35.0925 44.1677 35.5646 44.1677 35.6C44.1677 35.718 40.5546 37.5119 40.3302 37.5119C40.1295 37.5119 36.3275 35.6354 36.3865 35.5764C36.5636 35.423 40.1295 33.6291 40.283 33.6291C40.3892 33.6173 41.2984 34.0421 42.3139 34.5732ZM7.39897 37.028C8.44984 37.5355 9.33541 38.0429 9.37083 38.1492C9.50072 38.4914 9.46529 44.0028 9.33541 44.0028C9.27637 44.0028 8.34358 43.5662 7.26909 43.0351L5.32085 42.0555V39.0815C5.32085 37.4411 5.35627 36.0957 5.41531 36.0957C5.46254 36.0957 6.3481 36.5205 7.39897 37.028ZM14.0584 37.6299V39.1641H13.409C12.795 39.1641 12.7596 39.1759 12.7596 39.4592C12.7596 39.7424 12.795 39.7542 13.409 39.7542H14.0702L14.0348 40.899L13.9994 42.0555L12.0511 43.0233C10.9767 43.5544 10.0675 43.991 10.0202 43.991C9.96121 44.0028 9.92579 42.6574 9.92579 41.017V38.0429L11.8504 37.0752C12.9013 36.5441 13.8341 36.1075 13.9167 36.1075C14.023 36.0957 14.0584 36.4733 14.0584 37.6299ZM38.0868 37.0634L40.035 38.0429V41.017C40.035 42.6574 40.0114 44.0028 39.976 44.0028C39.9406 44.0028 39.0078 43.5544 37.9097 42.9997L35.9024 41.9965V40.8754V39.7542H36.4928C37.0359 39.7542 37.0831 39.7306 37.0831 39.471C37.0831 39.1995 37.0241 39.1759 36.5282 39.1405L35.9614 39.1051L35.926 37.5945C35.9024 36.6385 35.9378 36.0957 36.0205 36.0957C36.0795 36.0957 37.0123 36.5323 38.0868 37.0634ZM44.7226 40.4859C44.7108 41.2884 44.6872 40.6393 44.6872 39.0461C44.6872 37.4529 44.7108 36.8038 44.7226 37.5945C44.7462 38.397 44.7462 39.6952 44.7226 40.4859Z" fill="white"/>
<path d="M24.1526 13.8611C23.8338 14.227 23.3851 14.6873 23.1608 14.8997C22.1926 15.773 21.614 16.3513 21.614 16.4339C21.614 16.5401 21.307 16.8588 21.2125 16.8588C21.1771 16.8588 20.8347 17.1892 20.4569 17.5905C20.0908 17.9918 19.6067 18.4874 19.3824 18.6763C19.0636 18.9713 17.1271 20.895 16.7965 21.2608C16.7493 21.3081 16.5131 21.5323 16.2652 21.7565C16.0172 21.9808 15.8401 22.1696 15.8873 22.1696C15.9346 22.1696 15.8873 22.2522 15.7811 22.3466C15.6866 22.441 15.5803 22.5236 15.5449 22.5236C15.415 22.5236 14.7774 23.2789 14.7656 23.4324C14.7656 23.751 15.1435 23.928 16.0526 23.9989L16.9854 24.0815L16.9973 27.4096C17.0091 29.227 17.0563 31.3868 17.0917 32.2011C17.1153 33.0154 17.1626 33.8887 17.1626 34.1484L17.1862 34.6204L19.8193 34.6558L22.4523 34.6794L22.4169 31.2687L22.3815 27.8462H24.8965H27.3997V31.2569V34.6794H29.9855H32.5596L32.6304 33.8769C32.6777 33.4403 32.7013 31.0799 32.6895 28.6251C32.6777 26.1822 32.7131 24.1405 32.7603 24.0933C32.8076 24.0461 33.3389 23.9516 33.9293 23.8808C34.9211 23.7746 35.0156 23.7392 35.051 23.5032C35.0746 23.3262 34.9447 23.0901 34.6377 22.7951C34.3898 22.5472 34.2008 22.3112 34.2245 22.264C34.2363 22.205 34.2008 22.1814 34.1536 22.205C34.1064 22.2168 33.7167 21.8745 33.2917 21.4261C32.8784 20.9894 32.4651 20.6354 32.3825 20.6354C32.3116 20.6354 32.2408 20.5881 32.2408 20.5173C32.2408 20.4229 31.3552 19.5024 30.3634 18.57C30.3044 18.4992 29.3125 17.5197 28.1908 16.3867C25.5105 13.7077 24.991 13.2002 24.8493 13.2002C24.7902 13.2002 24.4832 13.5071 24.1526 13.8611Z" fill="#EC9615"/>
<path d="M29.3373 15.3365C29.3019 15.4073 29.9513 16.1154 30.6598 16.7527C30.8487 16.918 31.4155 17.4963 31.935 18.0273C32.4427 18.5466 32.9032 18.9833 32.9622 18.9833C33.1039 18.9833 33.0685 15.4546 32.9268 15.3719C32.7733 15.2775 29.3964 15.2421 29.3373 15.3365Z" fill="#EC9615"/>
<path d="M41.4268 0.064939C41.5684 0.0885425 41.8046 0.0885425 41.9581 0.064939C42.0998 0.0413354 41.9817 0.0177319 41.6865 0.0177319C41.3913 0.0177319 41.2733 0.0413354 41.4268 0.064939Z" fill="#404040"/>
<path d="M14.586 7.73623V9.36487H24.9767H35.3673L25.0121 9.34126L14.6569 9.30586L14.6096 7.71262L14.5742 6.11938L14.586 7.73623Z" fill="#404040"/>
<path d="M44.6106 8.57401C44.6578 12.1854 44.7051 12.504 44.7287 9.40014C44.7405 7.7951 44.7169 6.4615 44.6696 6.43789C44.6106 6.40249 44.587 7.37023 44.6106 8.57401Z" fill="#404040"/>
<path d="M42.2719 7.59454C42.1066 7.68896 42.0357 7.75977 42.0948 7.75977C42.1656 7.75977 42.3427 7.68896 42.508 7.59454C42.6734 7.50013 42.756 7.42932 42.6852 7.42932C42.6261 7.42932 42.4372 7.50013 42.2719 7.59454Z" fill="#404040"/>
<path d="M9.37891 11.312C9.37891 12.8344 9.40252 13.4599 9.41433 12.6928C9.43794 11.9375 9.43794 10.6865 9.41433 9.9194C9.40252 9.16409 9.37891 9.78958 9.37891 11.312Z" fill="#404040"/>
<path d="M13.1478 9.3883C13.325 9.41191 13.6083 9.41191 13.7973 9.3883C13.9744 9.3647 13.8209 9.3411 13.4666 9.3411C13.1124 9.3411 12.9589 9.3647 13.1478 9.3883Z" fill="#404040"/>
<path d="M36.2314 9.3883C36.3731 9.41191 36.6093 9.41191 36.7628 9.3883C36.9045 9.3647 36.7864 9.3411 36.4912 9.3411C36.196 9.3411 36.0779 9.3647 36.2314 9.3883Z" fill="#404040"/>
<path d="M14.5742 11.1939C14.5742 11.8784 14.586 12.1499 14.6096 11.8076C14.6333 11.4772 14.6333 10.9107 14.6096 10.5684C14.586 10.238 14.5742 10.5094 14.5742 11.1939Z" fill="#404040"/>
<path d="M14.586 37.2405V39.1052H24.9767H35.3673L25.0121 39.0816L14.6569 39.0462L14.6096 37.2169L14.5742 35.3877L14.586 37.2405Z" fill="#404040"/>
<path d="M44.6797 39.0463C44.6797 40.6395 44.7033 41.2886 44.7151 40.4861C44.7387 39.6954 44.7387 38.3972 44.7151 37.5947C44.7033 36.804 44.6797 37.4531 44.6797 39.0463Z" fill="#404040"/>
<path d="M9.37891 41.1115C9.37891 42.7283 9.40252 43.4128 9.41433 42.6221C9.43794 41.8314 9.43794 40.5096 9.41433 39.6717C9.40252 38.8456 9.37891 39.4828 9.37891 41.1115Z" fill="#404040"/>
<path d="M13.1478 39.1288C13.325 39.1524 13.6083 39.1524 13.7973 39.1288C13.9744 39.1052 13.8209 39.0816 13.4666 39.0816C13.1124 39.0816 12.9589 39.1052 13.1478 39.1288Z" fill="#404040"/>
<path d="M36.2314 39.1288C36.3731 39.1524 36.6093 39.1524 36.7628 39.1288C36.9045 39.1052 36.7864 39.0816 36.4912 39.0816C36.196 39.0816 36.0779 39.1052 36.2314 39.1288Z" fill="#404040"/>
<path d="M14.5742 41.1115C14.5742 41.8197 14.586 42.1029 14.6096 41.7252C14.6333 41.3476 14.6333 40.7693 14.6096 40.427C14.586 40.0848 14.5742 40.3916 14.5742 41.1115Z" fill="#404040"/>
<path d="M0.98354 40.7575C0.98354 41.0171 1.00716 41.1115 1.03077 40.9581C1.05439 40.8165 1.05439 40.604 1.03077 40.486C0.995348 40.3798 0.971733 40.4978 0.98354 40.7575Z" fill="#404040"/>
<path d="M20.0227 17.803C17.4959 20.3286 15.465 22.4293 15.5005 22.4765C15.5477 22.5119 15.6658 22.4647 15.772 22.3585C15.8783 22.2523 15.9373 22.1697 15.8901 22.1697C15.8429 22.1697 16.02 21.9809 16.2679 21.7566C16.5159 21.5324 16.7521 21.3082 16.7993 21.261C17.1299 20.8951 19.0663 18.9714 19.3851 18.6764C19.6095 18.4875 20.0936 17.9919 20.4596 17.5906C20.8375 17.1893 21.1799 16.8589 21.2153 16.8589C21.3098 16.8589 21.6168 16.5284 21.6168 16.4222C21.6168 16.3632 21.971 16.0092 22.4079 15.6197C22.8329 15.2303 23.3289 14.7582 23.4942 14.5576C23.6595 14.3687 24.0019 14.0029 24.2617 13.755C24.5096 13.5072 24.6867 13.283 24.6631 13.2594C24.6395 13.2358 22.5496 15.2775 20.0227 17.803Z" fill="#EC9640"/>
<path d="M25.2867 13.5307C25.4402 13.7078 25.7236 13.9792 25.9243 14.1326C26.1132 14.2978 26.0188 14.1444 25.6881 13.814C25.0505 13.1413 24.8616 13.0115 25.2867 13.5307Z" fill="#EC9640"/>
<path d="M26.3359 14.4042C26.3359 14.475 29.6539 17.8975 30.3623 18.5702C31.3305 19.4789 32.2397 20.4231 32.2397 20.5175C32.2397 20.5883 32.2987 20.6355 32.3814 20.6355C32.4522 20.6355 33.0899 21.2256 33.7983 21.9455C35.4514 23.6332 35.4514 23.704 33.8928 23.9046C32.5821 24.058 32.712 24.0226 32.712 24.1996C32.712 24.3059 32.7474 24.3059 32.8537 24.1996C32.9364 24.117 33.3614 24.058 33.9046 24.058C34.7547 24.058 34.8374 24.0344 35.0617 23.7394C35.2861 23.4561 35.2979 23.4089 35.1326 23.1611C35.0381 23.0195 33.3378 21.2846 31.3423 19.3137C29.3587 17.3428 27.4104 15.4191 27.0326 15.0297C26.6547 14.6402 26.3359 14.357 26.3359 14.4042Z" fill="#EC9640"/>
<path d="M29.1975 15.4072C29.2211 15.5135 29.3156 15.6315 29.41 15.6551C29.5517 15.7023 29.5635 15.6905 29.4454 15.5371C29.3628 15.4426 29.3274 15.3246 29.3746 15.2892C29.41 15.242 29.3864 15.2066 29.3038 15.2066C29.2211 15.2066 29.1739 15.301 29.1975 15.4072Z" fill="#EC9640"/>
<path d="M30.275 15.2892C30.7119 15.3128 31.4085 15.3128 31.81 15.2892C32.2115 15.2656 31.8572 15.2538 31.0071 15.2538C30.1687 15.2538 29.8381 15.2656 30.275 15.2892Z" fill="#EC9640"/>
<path d="M31.1572 17.4489C32.704 18.9949 33.1881 19.349 33.1881 18.9241C33.1881 18.8297 33.1291 18.7471 33.0582 18.7471C32.9992 18.7471 32.9756 18.7943 33.011 18.8651C33.0464 18.9241 33.0346 18.9831 32.9756 18.9831C32.9165 18.9831 32.4442 18.5465 31.9365 18.0272C31.417 17.4961 30.8502 16.9178 30.6613 16.7526C30.4724 16.5874 30.1772 16.3041 30.0237 16.1153C29.8584 15.9383 29.6695 15.7966 29.6104 15.7966C29.5396 15.7966 30.2362 16.5402 31.1572 17.4489Z" fill="#EC9640"/>
<path d="M33.1172 17.3899C33.1172 18.098 33.129 18.3812 33.1526 18.0036C33.1762 17.6259 33.1762 17.0476 33.1526 16.7054C33.129 16.3631 33.1172 16.67 33.1172 17.3899Z" fill="#EC9640"/>
<path d="M14.8982 23.0076C14.544 23.3971 14.5322 23.7511 14.8746 23.9281C15.1698 24.0934 16.2797 24.2232 16.0672 24.0698C15.9727 23.999 15.7247 23.9399 15.5122 23.9399C15.1462 23.9399 14.7683 23.6921 14.7683 23.4325C14.7683 23.3617 14.91 23.1492 15.0871 22.9722C15.2643 22.7952 15.3587 22.6418 15.3115 22.6418C15.2643 22.6418 15.0753 22.807 14.8982 23.0076Z" fill="#EC9640"/>
<path d="M16.6347 24.1641C16.7174 24.2113 16.8355 24.4119 16.8945 24.6007C16.989 24.9312 16.989 24.9312 16.9772 24.5063C16.9535 24.1405 16.9063 24.0579 16.7174 24.0579C16.5521 24.0579 16.5285 24.0933 16.6347 24.1641Z" fill="#EC9640"/>
<path d="M16.9414 28.1885C16.9414 29.9705 16.965 30.7022 16.9768 29.8053C17.0004 28.9202 17.0004 27.4568 16.9768 26.5598C16.965 25.6747 16.9414 26.4064 16.9414 28.1885Z" fill="#EC9640"/>
<path d="M22.4233 28.3065C22.4469 28.5661 22.4942 28.7786 22.5178 28.7786C22.5414 28.7786 22.565 28.5661 22.565 28.3065C22.565 28.0469 22.5296 27.8344 22.4706 27.8344C22.4233 27.8344 22.3997 28.0469 22.4233 28.3065Z" fill="#EC9640"/>
<path d="M23.7768 27.917C24.4026 27.9406 25.4416 27.9406 26.0792 27.917C26.705 27.9052 26.1855 27.8816 24.9221 27.8816C23.6587 27.8816 23.1392 27.9052 23.7768 27.917Z" fill="#EC9640"/>
<path d="M27.3242 28.3066C27.3242 28.6016 27.3478 28.7196 27.3714 28.5662C27.3951 28.4246 27.3951 28.1885 27.3714 28.0351C27.3478 27.8935 27.3242 28.0115 27.3242 28.3066Z" fill="#EC9640"/>
<path d="M32.7271 30.3129C32.6563 33.1571 32.6563 33.4521 32.6208 34.113L32.5972 34.6795L30.035 34.7149L27.4609 34.7385L30.0114 34.7739C32.0659 34.7975 32.5972 34.7621 32.7035 34.6323C32.7979 34.5261 32.8334 33.5466 32.7979 31.3042C32.7743 28.2594 32.7625 28.2122 32.7271 30.3129Z" fill="#EC9640"/>
<path d="M22.4922 31.316C22.4922 32.6142 22.5158 33.1571 22.5276 32.5316C22.5512 31.9061 22.5512 30.8439 22.5276 30.1712C22.5158 29.4985 22.4922 30.0178 22.4922 31.316Z" fill="#EC9640"/>
<path d="M27.332 31.493C27.332 32.8856 27.3556 33.4639 27.3675 32.7558C27.3911 32.0595 27.3911 30.9266 27.3675 30.2184C27.3556 29.5221 27.332 30.1004 27.332 31.493Z" fill="#EC9640"/>
<path d="M17.0499 32.0242C17.0499 32.2838 17.0736 32.3782 17.0972 32.2248C17.1208 32.0832 17.1208 31.8708 17.0972 31.7527C17.0618 31.6465 17.0381 31.7645 17.0499 32.0242Z" fill="#EC9640"/>
<path d="M17.0499 32.9683C17.0499 33.2279 17.0736 33.3223 17.0972 33.1689C17.1208 33.0273 17.1208 32.8149 17.0972 32.6968C17.0618 32.5906 17.0381 32.7086 17.0499 32.9683Z" fill="#EC9640"/>
<path d="M17.0117 33.9833C17.0117 34.2783 17.0708 34.5733 17.1534 34.656C17.2597 34.7622 17.9917 34.7858 19.8455 34.774L22.3842 34.7504L19.7865 34.6796L17.1888 34.6205L17.177 34.1249C17.177 33.8416 17.1416 33.582 17.0944 33.5466C17.0471 33.4994 17.0117 33.7 17.0117 33.9833Z" fill="#EC9640"/>
<path d="M35.3555 7.53545C35.3555 8.5386 35.3791 8.95166 35.3909 8.44419C35.4145 7.94851 35.4145 7.12239 35.3909 6.61491C35.3791 6.11924 35.3555 6.5323 35.3555 7.53545Z" fill="#6B6B6B"/>
<path d="M35.9453 7.88948C35.9453 8.70381 35.9571 9.03425 35.9807 8.62119C36.0044 8.21993 36.0044 7.55904 35.9807 7.14597C35.9571 6.74471 35.9453 7.07516 35.9453 7.88948Z" fill="#6B6B6B"/>
<path d="M9.96875 11.43C9.96875 12.8934 9.99237 13.4835 10.0042 12.7518C10.0278 12.0318 10.0278 10.8281 10.0042 10.0964C9.99237 9.37645 9.96875 9.96654 9.96875 11.43Z" fill="#6B6B6B"/>
<path d="M35.3311 11.3355C35.3193 12.0908 35.3429 12.7399 35.4019 12.7635C35.4492 12.7989 35.4728 12.3859 35.4492 11.8666C35.3901 10.1317 35.3547 9.93109 35.3311 11.3355Z" fill="#6B6B6B"/>
<path d="M35.9453 11.1349C35.9453 11.784 35.9571 12.0318 35.9807 11.6895C36.0044 11.3473 36.0044 10.8162 35.9807 10.5094C35.9571 10.2025 35.9453 10.4858 35.9453 11.1349Z" fill="#6B6B6B"/>
<path d="M35.3564 35.423C35.3328 35.5056 35.3209 36.3671 35.3328 37.3348L35.3682 39.1051L35.4272 37.1814C35.4626 36.1311 35.4744 35.2695 35.4508 35.2695C35.439 35.2695 35.3918 35.3403 35.3564 35.423Z" fill="#6B6B6B"/>
<path d="M35.9453 37.5708C35.9453 38.4087 35.9571 38.7391 35.9807 38.3025C36.0044 37.8658 36.0044 37.1695 35.9807 36.7682C35.9571 36.367 35.9453 36.721 35.9453 37.5708Z" fill="#6B6B6B"/>
<path d="M13.1424 39.8368C13.3195 39.8604 13.5793 39.8604 13.7328 39.8368C13.8744 39.8132 13.7328 39.7896 13.4021 39.7896C13.0833 39.7896 12.9535 39.8132 13.1424 39.8368Z" fill="#6B6B6B"/>
<path d="M24.9412 39.8368L35.2964 39.8722L35.3436 41.1114L35.379 42.3506V41.0878L35.3672 39.8132H24.9766H14.5859L24.9412 39.8368Z" fill="#6B6B6B"/>
<path d="M35.9423 39.9076C35.9069 40.002 35.9069 40.4859 35.9305 41.0052L35.9659 41.9375L35.9896 40.9107L36.0132 39.884L36.5209 39.8368L37.0168 39.7896L36.5091 39.7778C36.1785 39.766 35.9896 39.8132 35.9423 39.9076Z" fill="#6B6B6B"/>
<path d="M23.8519 13.7312C23.415 14.156 23.0962 14.4983 23.1316 14.4983C23.167 14.4983 23.5567 14.156 23.9935 13.7312C24.4304 13.3063 24.7492 12.9641 24.7138 12.9641C24.6666 12.9641 24.2769 13.3181 23.8519 13.7312Z" fill="#ECECC1"/>
<path d="M27.8207 15.6785C29.2494 17.1065 30.4419 18.2748 30.4774 18.2748C30.5128 18.2748 29.3675 17.1065 27.9387 15.6785C26.51 14.2504 25.3175 13.0821 25.2821 13.0821C25.2466 13.0821 26.392 14.2504 27.8207 15.6785Z" fill="#ECECC1"/>
<path d="M18.7273 18.8886L14.4766 23.1727L18.7627 18.924C21.1124 16.5873 23.037 14.6636 23.037 14.6518C23.037 14.5692 22.671 14.9232 18.7273 18.8886Z" fill="#ECECC1"/>
<path d="M29.021 15.053C28.9856 15.112 29.576 15.1357 30.3317 15.112C32.8821 15.0648 33.1419 15.0176 31.0992 14.994C29.9893 14.9822 29.0447 15.0058 29.021 15.053Z" fill="#ECECC1"/>
<path d="M28.9414 15.3954C28.9414 15.4544 29.2484 15.7967 29.6262 16.1507L30.2993 16.7998L29.6499 16.0917C29.2956 15.7022 28.9886 15.36 28.9768 15.3364C28.9532 15.3128 28.9414 15.3364 28.9414 15.3954Z" fill="#ECECC1"/>
<path d="M33.2188 15.9146C33.2188 16.1389 33.2424 16.2333 33.2778 16.1153C33.3014 16.0091 33.3014 15.8202 33.2778 15.7022C33.2424 15.596 33.2188 15.6904 33.2188 15.9146Z" fill="#ECECC1"/>
<path d="M33.2344 17.8028C33.2344 18.6171 33.2462 18.9476 33.2698 18.5345C33.2934 18.1333 33.2934 17.4724 33.2698 17.0593C33.2462 16.658 33.2344 16.9885 33.2344 17.8028Z" fill="#ECECC1"/>
<path d="M30.5938 18.3458C30.5938 18.4048 30.948 18.8061 31.3967 19.2192L32.1878 19.9863L31.4203 19.1601C30.9952 18.7117 30.641 18.3222 30.6292 18.2868C30.6056 18.2632 30.5938 18.2868 30.5938 18.3458Z" fill="#ECECC1"/>
<path d="M32.0078 18.5464C32.0078 18.57 32.1849 18.7352 32.3975 18.9358L32.7753 19.2781L32.4329 18.8886C32.1023 18.5346 32.0078 18.452 32.0078 18.5464Z" fill="#ECECC1"/>
<path d="M34.375 22.0869C34.375 22.1105 34.5521 22.2757 34.7646 22.4764L35.1425 22.8186L34.8001 22.4291C34.4695 22.0751 34.375 21.9925 34.375 22.0869Z" fill="#ECECC1"/>
<path d="M15.892 24.2821L16.6005 24.3529L16.6713 25.179L16.7304 26.0051L16.754 25.2262C16.7658 24.7659 16.7186 24.4001 16.6359 24.3175C16.5533 24.2349 16.2227 24.1877 15.8448 24.1995L15.1836 24.2113L15.892 24.2821Z" fill="#ECECC1"/>
<path d="M32.8828 25.946C32.8828 26.8194 32.8946 27.1852 32.9182 26.7368C32.9419 26.3001 32.9419 25.592 32.9182 25.1435C32.8946 24.7069 32.8828 25.0727 32.8828 25.946Z" fill="#ECECC1"/>
<path d="M24.0143 28.153C24.5102 28.1766 25.3367 28.1766 25.8445 28.153C26.3404 28.1411 25.9271 28.1175 24.9235 28.1175C23.9198 28.1175 23.5066 28.1411 24.0143 28.153Z" fill="#ECECC1"/>
<path d="M22.5668 31.5755C22.5314 33.4048 22.5432 34.8682 22.6022 34.8092C22.6495 34.762 22.6731 33.2632 22.6613 31.4811L22.6258 28.2474L22.5668 31.5755Z" fill="#ECECC1"/>
<path d="M27.1905 31.5165C27.1786 33.3104 27.2023 34.8092 27.2613 34.8328C27.3085 34.8682 27.3321 33.9005 27.3085 32.6967C27.2613 28.6251 27.2141 28.2238 27.1905 31.5165Z" fill="#ECECC1"/>
<path d="M16.8281 32.437C16.8281 33.6998 16.8517 34.2191 16.8635 33.5818C16.8872 32.9563 16.8872 31.9177 16.8635 31.2804C16.8517 30.6549 16.8281 31.1742 16.8281 32.437Z" fill="#ECECC1"/>
</svg>
