<svg width="62" height="62" viewBox="0 0 62 62" fill="none" xmlns="http://www.w3.org/2000/svg">
<rect width="62" height="62" rx="10" fill="white" fill-opacity="0.1"/>
<g clip-path="url(#clip0_433_7141)">
<path d="M48 18.7276C48 17.248 47.5781 16.0771 46.7465 15.2481C43.408 11.922 34.6305 15.4587 26.7603 23.3024C26.4743 23.5875 26.213 23.8913 25.9616 24.2028C25.8791 24.1687 25.7842 24.1382 25.675 24.1128C23.4084 23.5831 16.1338 24.8189 14.016 33.2794C13.9615 33.4963 14.0487 33.7235 14.2339 33.8486C14.3237 33.9098 14.4275 33.9398 14.5312 33.9398C14.6406 33.9398 14.7501 33.9061 14.843 33.8387C17.7174 31.7536 20.0233 30.915 22.0363 31.2237C21.8974 31.4756 21.7564 31.7212 21.6107 31.956C21.4805 32.1661 21.5121 32.4379 21.687 32.6122L22.5206 33.4431L20.9602 34.9977C20.86 35.0973 20.804 35.2327 20.804 35.3738C20.804 35.5149 20.86 35.6504 20.9602 35.75L26.1819 40.9545C26.2856 41.0578 26.421 41.1096 26.557 41.1096C26.6929 41.1096 26.8283 41.0578 26.9321 40.9545L28.4945 39.3971L29.3304 40.2303C29.4332 40.3325 29.5686 40.3854 29.7056 40.3854C29.8015 40.3854 29.898 40.3595 29.9841 40.3065C30.2037 40.1711 30.4316 40.0396 30.6661 39.9102C31.0119 41.9331 30.1743 44.2537 28.0558 47.1552C27.924 47.3358 27.9193 47.5796 28.0438 47.7648C28.144 47.9142 28.3105 47.9998 28.4848 47.9998C28.5274 47.9998 28.5704 47.9946 28.6129 47.9843C37.0813 45.8785 38.3326 38.6293 37.8107 36.3683C37.7788 36.2304 37.7371 36.1217 37.6918 36.0254C38.0294 35.7586 38.3583 35.4799 38.6657 35.1736C44.3362 29.5223 48 23.0664 48 18.7276ZM22.5306 30.2289C20.4579 29.792 18.1804 30.3996 15.4759 32.1215C16.8061 28.4302 19.2289 26.6865 21.1298 25.8653C22.5549 25.25 23.8519 25.0777 24.682 25.0777C24.9046 25.0777 25.0929 25.0902 25.2418 25.1094L22.5306 30.2289ZM26.557 39.8282L22.088 35.3738L23.273 34.1936L27.1338 38.041L27.7419 38.6469L26.557 39.8282ZM36.0645 40.8669C35.2427 42.7703 33.4923 45.1957 29.7761 46.5254C31.5006 43.8323 32.1102 41.5641 31.6728 39.4972L36.812 36.7932C36.9044 37.4916 36.837 39.077 36.0645 40.8669ZM32.4287 37.8345C31.4944 38.2843 30.6046 38.7118 29.788 39.1859L22.7318 32.1536C23.1129 31.5011 23.4652 30.7925 23.822 30.0605L25.9793 25.9874C26.4308 25.2885 26.931 24.6323 27.5105 24.0546C34.7104 16.8786 43.1746 13.1905 45.9963 16.0003C46.621 16.6229 46.9375 17.5406 46.9375 18.7276C46.9375 22.7359 43.3116 29.0429 37.9156 34.4213C36.4126 35.9191 34.3872 36.8928 32.4287 37.8345Z" fill="white"/>
<path d="M36.6969 20.8287C36.0914 21.4311 35.7578 22.2326 35.7578 23.0855C35.7578 23.9389 36.0914 24.7405 36.6969 25.3428C37.321 25.9638 38.1407 26.2746 38.9603 26.2746C39.7801 26.2746 40.5998 25.9638 41.2234 25.3428C41.8288 24.7405 42.1619 23.9389 42.1619 23.0855C42.1619 22.2326 41.8288 21.4311 41.2234 20.8287C39.9762 19.5867 37.9451 19.5867 36.6969 20.8287ZM40.4742 24.5895C39.639 25.4206 38.2812 25.4206 37.446 24.5895C37.0429 24.1879 36.8203 23.6541 36.8203 23.0855C36.8203 22.5174 37.0429 21.9836 37.446 21.582C37.8636 21.1664 38.412 20.9589 38.9603 20.9589C39.5088 20.9589 40.0566 21.1664 40.4742 21.582C40.8773 21.9836 41.0994 22.5174 41.0994 23.0855C41.0994 23.6541 40.8773 24.1879 40.4742 24.5895Z" fill="white"/>
<path d="M22.7446 39.0465C22.5376 38.8385 22.2015 38.8385 21.9934 39.0455L16.6835 44.3378C16.476 44.5448 16.475 44.8809 16.6825 45.089C16.7862 45.1933 16.9222 45.2452 17.0586 45.2452C17.194 45.2452 17.3299 45.1933 17.4337 45.09L22.7436 39.7978C22.9511 39.5907 22.9522 39.2546 22.7446 39.0465Z" fill="white"/>
<path d="M17.0311 41.611C17.1665 41.611 17.3024 41.5591 17.4062 41.4559L20.9029 37.9706C21.1104 37.7636 21.1109 37.4274 20.9039 37.2193C20.6969 37.0113 20.3607 37.0108 20.1527 37.2183L16.656 40.7036C16.4484 40.9106 16.4479 41.2468 16.6549 41.4548C16.7587 41.5591 16.8946 41.611 17.0311 41.611Z" fill="white"/>
<path d="M23.8284 40.8726L20.3317 44.3579C20.1242 44.5649 20.1237 44.9011 20.3307 45.1091C20.4345 45.2134 20.5704 45.2653 20.7069 45.2653C20.8422 45.2653 20.9782 45.2134 21.0819 45.1102L24.5787 41.6249C24.7862 41.4179 24.7867 41.0817 24.5797 40.8736C24.3727 40.6656 24.0365 40.6651 23.8284 40.8726Z" fill="white"/>
</g>
<defs>
<clipPath id="clip0_433_7141">
<rect width="34" height="34" fill="white" transform="translate(14 14)"/>
</clipPath>
</defs>
</svg>
