<svg width="178" height="35" viewBox="0 0 178 35" fill="none" xmlns="http://www.w3.org/2000/svg">
<g clip-path="url(#clip0_808_8)">
<path d="M34.9999 4.86669C34.9999 3.34354 34.5657 2.13817 33.7097 1.28477C30.273 -2.1391 21.2373 1.50161 13.1356 9.576C12.8412 9.86945 12.5722 10.1823 12.3134 10.5028C12.2285 10.4677 12.1308 10.4363 12.0184 10.4102C9.68511 9.86491 2.19653 11.1371 0.0165217 19.8465C-0.0395815 20.0697 0.0501545 20.3036 0.240795 20.4323C0.333217 20.4953 0.440028 20.5263 0.546826 20.5263C0.659483 20.5263 0.772193 20.4916 0.867787 20.4222C3.82671 18.2758 6.20047 17.4125 8.27264 17.7303C8.12964 17.9896 7.98449 18.2424 7.83459 18.4841C7.7005 18.7004 7.73309 18.9802 7.91307 19.1597L8.77117 20.015L7.16489 21.6153C7.0618 21.7178 7.00411 21.8572 7.00411 22.0025C7.00411 22.1477 7.0618 22.2871 7.16489 22.3897L12.5402 27.7473C12.647 27.8536 12.7863 27.907 12.9263 27.907C13.0662 27.907 13.2056 27.8536 13.3124 27.7473L14.9208 26.1441L15.7813 27.0018C15.8871 27.107 16.0265 27.1615 16.1675 27.1615C16.2663 27.1615 16.3656 27.1347 16.4543 27.0803C16.6803 26.9409 16.9149 26.8055 17.1563 26.6722C17.5123 28.7547 16.65 31.1435 14.4692 34.1304C14.3335 34.3162 14.3287 34.5672 14.4569 34.7579C14.5599 34.9117 14.7314 34.9998 14.9108 34.9998C14.9546 34.9998 14.9989 34.9945 15.0427 34.9838C23.7602 32.8161 25.0483 25.3537 24.511 23.0262C24.4782 22.8842 24.4352 22.7724 24.3886 22.6732C24.7361 22.3986 25.0748 22.1117 25.3912 21.7963C31.2284 15.9788 34.9999 9.33302 34.9999 4.86669ZM8.78145 16.7062C6.64787 16.2565 4.30337 16.8819 1.51933 18.6545C2.88865 14.8547 5.38273 13.0596 7.33951 12.2142C8.80655 11.5808 10.1417 11.4035 10.9962 11.4035C11.2253 11.4035 11.4191 11.4163 11.5724 11.4361L8.78145 16.7062ZM12.9263 26.5879L8.3259 22.0025L9.54571 20.7875L13.5201 24.7481L14.1461 25.3718L12.9263 26.5879ZM22.7134 27.6571C21.8675 29.6165 20.0656 32.1132 16.2401 33.482C18.0153 30.7097 18.6428 28.3748 18.1926 26.2472L23.483 23.4636C23.578 24.1825 23.5086 25.8146 22.7134 27.6571ZM18.9707 24.5355C18.0089 24.9985 17.093 25.4386 16.2524 25.9267L8.98866 18.6875C9.38093 18.0159 9.74357 17.2864 10.1108 16.5329L12.3316 12.34C12.7964 11.6205 13.3113 10.945 13.9079 10.3504C21.3195 2.9633 30.0327 -0.83333 32.9374 2.05915C33.5804 2.70003 33.9062 3.64476 33.9062 4.86669C33.9062 8.99281 30.1737 15.4854 24.6189 21.0219C23.0718 22.5637 20.9868 23.5662 18.9707 24.5355Z" fill="white"/>
<path d="M23.3651 7.02946C22.7419 7.64951 22.3984 8.47463 22.3984 9.35259C22.3984 10.2311 22.7419 11.0563 23.3651 11.6763C24.0076 12.3156 24.8514 12.6355 25.6952 12.6355C26.539 12.6355 27.3828 12.3156 28.0247 11.6763C28.648 11.0563 28.9909 10.2311 28.9909 9.35259C28.9909 8.47463 28.648 7.64951 28.0247 7.02946C26.7409 5.75092 24.65 5.75092 23.3651 7.02946ZM27.2536 10.9008C26.3937 11.7564 24.9961 11.7564 24.1363 10.9008C23.7213 10.4875 23.4922 9.93791 23.4922 9.35259C23.4922 8.76781 23.7213 8.21826 24.1363 7.80488C24.5662 7.37711 25.1307 7.1635 25.6952 7.1635C26.2597 7.1635 26.8236 7.37711 27.2536 7.80488C27.6685 8.21826 27.8971 8.76781 27.8971 9.35259C27.8971 9.93791 27.6685 10.4875 27.2536 10.9008Z" fill="white"/>
<path d="M9.00559 25.7833C8.79253 25.5691 8.44647 25.5691 8.23231 25.7823L2.76625 31.2302C2.55258 31.4432 2.55154 31.7893 2.76516 32.0035C2.87195 32.1108 3.0119 32.1642 3.15234 32.1642C3.29173 32.1642 3.43168 32.1108 3.53848 32.0046L9.00455 26.5566C9.21816 26.3435 9.21926 25.9975 9.00559 25.7833Z" fill="white"/>
<path d="M3.12482 28.4232C3.26421 28.4232 3.4041 28.3698 3.51097 28.2635L7.1105 24.6758C7.32411 24.4626 7.32465 24.1166 7.11153 23.9024C6.89847 23.6883 6.55241 23.6877 6.33825 23.9013L2.73867 27.4891C2.52506 27.7022 2.52451 28.0483 2.73763 28.2625C2.84443 28.3698 2.98438 28.4232 3.12482 28.4232Z" fill="white"/>
<path d="M10.1194 27.663L6.51992 31.2509C6.30631 31.4639 6.30576 31.81 6.51888 32.0242C6.62568 32.1315 6.76557 32.1849 6.90607 32.1849C7.04541 32.1849 7.18536 32.1315 7.29216 32.0252L10.8917 28.4375C11.1054 28.2244 11.1059 27.8783 10.8928 27.6641C10.6797 27.45 10.3336 27.4494 10.1194 27.663Z" fill="white"/>
</g>
<path d="M47.267 26.0588V8.09092H53.847C55.1221 8.09092 56.1778 8.30148 57.0142 8.72261C57.8506 9.13788 58.4765 9.7023 58.8917 10.4159C59.307 11.1236 59.5146 11.922 59.5146 12.811C59.5146 13.5597 59.3772 14.1914 59.1023 14.7061C58.8274 15.2149 58.4589 15.6243 57.9968 15.9343C57.5406 16.2385 57.0376 16.4607 56.4878 16.6011V16.7766C57.0844 16.8058 57.6664 16.9988 58.2337 17.3556C58.8069 17.7066 59.2807 18.2066 59.655 18.8559C60.0294 19.5051 60.2165 20.2947 60.2165 21.2247C60.2165 22.143 60.0001 22.9677 59.5673 23.6988C59.1403 24.4241 58.4794 25.0002 57.5845 25.4272C56.6896 25.8483 55.5461 26.0588 54.1541 26.0588H47.267ZM49.978 23.7339H53.8909C55.1894 23.7339 56.1193 23.4824 56.6808 22.9794C57.2423 22.4764 57.5231 21.8476 57.5231 21.0931C57.5231 20.5257 57.3798 20.0052 57.0932 19.5314C56.8066 19.0577 56.3972 18.6804 55.8649 18.3997C55.3385 18.1189 54.7127 17.9785 53.9874 17.9785H49.978V23.7339ZM49.978 15.8642H53.6101C54.2184 15.8642 54.7653 15.7472 55.2508 15.5132C55.7421 15.2793 56.131 14.9517 56.4176 14.5306C56.7101 14.1036 56.8563 13.6006 56.8563 13.0216C56.8563 12.2788 56.596 11.6558 56.0755 11.1528C55.5549 10.6498 54.7565 10.3983 53.6803 10.3983H49.978V15.8642ZM65.8446 8.09092V26.0588H63.2214V8.09092H65.8446ZM73.2955 26.3571C72.4415 26.3571 71.6695 26.1992 70.9793 25.8834C70.2891 25.5617 69.7422 25.0967 69.3387 24.4884C68.9409 23.8801 68.7421 23.1344 68.7421 22.2512C68.7421 21.4908 68.8883 20.865 69.1807 20.3737C69.4732 19.8824 69.868 19.4934 70.3651 19.2068C70.8623 18.9202 71.4179 18.7038 72.0321 18.5576C72.6462 18.4114 73.2721 18.3002 73.9096 18.2242C74.7167 18.1306 75.3718 18.0546 75.8748 17.9961C76.3778 17.9317 76.7434 17.8294 76.9715 17.689C77.1996 17.5486 77.3137 17.3205 77.3137 17.0047V16.9433C77.3137 16.1771 77.0973 15.5834 76.6644 15.1623C76.2375 14.7412 75.5999 14.5306 74.7518 14.5306C73.8687 14.5306 73.1726 14.7265 72.6638 15.1184C72.1608 15.5044 71.8128 15.9343 71.6197 16.4081L69.1544 15.8466C69.4469 15.0278 69.8738 14.3668 70.4353 13.8638C71.0027 13.355 71.6548 12.9865 72.3918 12.7584C73.1288 12.5244 73.9037 12.4074 74.7167 12.4074C75.2548 12.4074 75.8251 12.4718 76.4276 12.6004C77.0358 12.7233 77.6032 12.9514 78.1296 13.2848C78.6618 13.6182 79.0976 14.0948 79.4368 14.7148C79.7761 15.329 79.9457 16.1274 79.9457 17.11V26.0588H77.3839V24.2164H77.2786C77.109 24.5557 76.8545 24.8891 76.5153 25.2166C76.1761 25.5441 75.7403 25.8161 75.2081 26.0325C74.6758 26.2489 74.0383 26.3571 73.2955 26.3571ZM73.8657 24.2515C74.591 24.2515 75.211 24.1082 75.7257 23.8216C76.2462 23.535 76.641 23.1607 76.9101 22.6986C77.185 22.2307 77.3224 21.7306 77.3224 21.1984V19.4612C77.2289 19.5548 77.0475 19.6426 76.7785 19.7244C76.5153 19.8005 76.2141 19.8677 75.8748 19.9262C75.5356 19.9789 75.2051 20.0286 74.8834 20.0754C74.5617 20.1163 74.2927 20.1514 74.0763 20.1807C73.5674 20.245 73.1024 20.3532 72.6813 20.5053C72.266 20.6574 71.9327 20.8767 71.6812 21.1633C71.4355 21.444 71.3127 21.8184 71.3127 22.2863C71.3127 22.9355 71.5525 23.4268 72.0321 23.7602C72.5117 24.0877 73.1229 24.2515 73.8657 24.2515ZM93.5379 15.8729L91.1603 16.294C91.0609 15.9899 90.9029 15.7004 90.6865 15.4255C90.476 15.1506 90.1894 14.9254 89.8267 14.7499C89.4641 14.5745 89.0108 14.4867 88.4669 14.4867C87.724 14.4867 87.1041 14.6534 86.6069 14.9868C86.1097 15.3144 85.8612 15.7384 85.8612 16.259C85.8612 16.7093 86.0278 17.072 86.3612 17.3469C86.6946 17.6218 87.2327 17.8469 87.9755 18.0224L90.1163 18.5137C91.3562 18.8003 92.2804 19.2419 92.8886 19.8385C93.4969 20.4351 93.8011 21.2101 93.8011 22.1635C93.8011 22.9706 93.5671 23.69 93.0992 24.3217C92.6371 24.9475 91.9908 25.4389 91.1603 25.7956C90.3356 26.1524 89.3793 26.3308 88.2914 26.3308C86.7824 26.3308 85.5512 26.0091 84.5978 25.3657C83.6444 24.7165 83.0595 23.7953 82.8431 22.6021L85.3786 22.2161C85.5365 22.877 85.8612 23.3771 86.3525 23.7163C86.8438 24.0497 87.4842 24.2164 88.2738 24.2164C89.1336 24.2164 89.8209 24.038 90.3356 23.6812C90.8503 23.3186 91.1076 22.877 91.1076 22.3565C91.1076 21.9353 90.9497 21.5815 90.6339 21.2949C90.3239 21.0083 89.8472 20.7919 89.2038 20.6457L86.9227 20.1456C85.6652 19.859 84.7352 19.4028 84.1328 18.7769C83.5362 18.1511 83.2379 17.3586 83.2379 16.3993C83.2379 15.6039 83.4602 14.9079 83.9047 14.3113C84.3492 13.7147 84.9633 13.2497 85.7471 12.9163C86.5309 12.5771 87.4287 12.4074 88.4405 12.4074C89.8969 12.4074 91.0433 12.7233 91.8797 13.355C92.7161 13.9808 93.2688 14.8201 93.5379 15.8729ZM102.976 12.5829V14.6885H95.615V12.5829H102.976ZM97.589 9.35429H100.212V22.102C100.212 22.6109 100.288 22.994 100.44 23.2514C100.592 23.5029 100.788 23.6754 101.028 23.769C101.274 23.8567 101.54 23.9006 101.827 23.9006C102.037 23.9006 102.221 23.886 102.379 23.8567C102.537 23.8275 102.66 23.8041 102.748 23.7865L103.222 25.9536C103.069 26.012 102.853 26.0705 102.572 26.129C102.292 26.1934 101.941 26.2285 101.519 26.2343C100.829 26.246 100.186 26.1232 99.5893 25.8658C98.9927 25.6085 98.5102 25.2107 98.1417 24.6726C97.7732 24.1345 97.589 23.459 97.589 22.646V9.35429ZM106.378 26.0588V8.09092H112.782C114.18 8.09092 115.338 8.34535 116.257 8.85421C117.175 9.36306 117.862 10.0591 118.318 10.9423C118.775 11.8196 119.003 12.8081 119.003 13.9077C119.003 15.0131 118.772 16.0075 118.31 16.8906C117.853 17.768 117.163 18.464 116.239 18.9787C115.321 19.4876 114.166 19.742 112.774 19.742H108.369V17.4434H112.528C113.411 17.4434 114.128 17.2913 114.677 16.9871C115.227 16.6772 115.631 16.256 115.888 15.7238C116.145 15.1915 116.274 14.5862 116.274 13.9077C116.274 13.2292 116.145 12.6268 115.888 12.1004C115.631 11.574 115.224 11.1616 114.669 10.8633C114.119 10.565 113.394 10.4159 112.493 10.4159H109.089V26.0588H106.378ZM125.771 26.3571C124.917 26.3571 124.145 26.1992 123.455 25.8834C122.765 25.5617 122.218 25.0967 121.815 24.4884C121.417 23.8801 121.218 23.1344 121.218 22.2512C121.218 21.4908 121.364 20.865 121.657 20.3737C121.949 19.8824 122.344 19.4934 122.841 19.2068C123.338 18.9202 123.894 18.7038 124.508 18.5576C125.122 18.4114 125.748 18.3002 126.385 18.2242C127.193 18.1306 127.848 18.0546 128.351 17.9961C128.854 17.9317 129.219 17.8294 129.447 17.689C129.675 17.5486 129.79 17.3205 129.79 17.0047V16.9433C129.79 16.1771 129.573 15.5834 129.14 15.1623C128.713 14.7412 128.076 14.5306 127.228 14.5306C126.345 14.5306 125.648 14.7265 125.14 15.1184C124.637 15.5044 124.289 15.9343 124.096 16.4081L121.63 15.8466C121.923 15.0278 122.35 14.3668 122.911 13.8638C123.479 13.355 124.131 12.9865 124.868 12.7584C125.605 12.5244 126.38 12.4074 127.193 12.4074C127.731 12.4074 128.301 12.4718 128.903 12.6004C129.512 12.7233 130.079 12.9514 130.605 13.2848C131.138 13.6182 131.573 14.0948 131.913 14.7148C132.252 15.329 132.422 16.1274 132.422 17.11V26.0588H129.86V24.2164H129.754C129.585 24.5557 129.33 24.8891 128.991 25.2166C128.652 25.5441 128.216 25.8161 127.684 26.0325C127.152 26.2489 126.514 26.3571 125.771 26.3571ZM126.342 24.2515C127.067 24.2515 127.687 24.1082 128.202 23.8216C128.722 23.535 129.117 23.1607 129.386 22.6986C129.661 22.2307 129.798 21.7306 129.798 21.1984V19.4612C129.705 19.5548 129.523 19.6426 129.254 19.7244C128.991 19.8005 128.69 19.8677 128.351 19.9262C128.011 19.9789 127.681 20.0286 127.359 20.0754C127.038 20.1163 126.769 20.1514 126.552 20.1807C126.043 20.245 125.578 20.3532 125.157 20.5053C124.742 20.6574 124.409 20.8767 124.157 21.1633C123.911 21.444 123.789 21.8184 123.789 22.2863C123.789 22.9355 124.028 23.4268 124.508 23.7602C124.988 24.0877 125.599 24.2515 126.342 24.2515ZM140.96 26.322C139.872 26.322 138.901 26.0442 138.048 25.4886C137.199 24.9271 136.533 24.1287 136.047 23.0934C135.568 22.0523 135.328 20.8036 135.328 19.3472C135.328 17.8908 135.57 16.645 136.056 15.6097C136.547 14.5745 137.22 13.7819 138.074 13.2321C138.928 12.6823 139.896 12.4074 140.978 12.4074C141.814 12.4074 142.487 12.5478 142.996 12.8286C143.51 13.1035 143.908 13.4251 144.189 13.7936C144.475 14.1621 144.698 14.4867 144.856 14.7675H145.014V8.09092H147.637V26.0588H145.075V23.962H144.856C144.698 24.2486 144.47 24.5761 144.171 24.9446C143.879 25.3131 143.475 25.6348 142.961 25.9097C142.446 26.1846 141.779 26.322 140.96 26.322ZM141.539 24.0848C142.294 24.0848 142.931 23.886 143.452 23.4882C143.978 23.0847 144.376 22.5261 144.645 21.8125C144.92 21.0989 145.057 20.2684 145.057 19.3209C145.057 18.385 144.923 17.5662 144.654 16.8643C144.385 16.1624 143.99 15.6156 143.469 15.2237C142.949 14.8318 142.306 14.6359 141.539 14.6359C140.75 14.6359 140.092 14.8406 139.565 15.25C139.039 15.6594 138.641 16.218 138.372 16.9257C138.109 17.6335 137.977 18.4318 137.977 19.3209C137.977 20.2216 138.112 21.0317 138.381 21.7511C138.65 22.4705 139.048 23.0408 139.574 23.4619C140.106 23.8772 140.761 24.0848 141.539 24.0848ZM153.109 26.2255C152.63 26.2255 152.217 26.0559 151.872 25.7167C151.527 25.3716 151.355 24.9563 151.355 24.4709C151.355 23.9912 151.527 23.5818 151.872 23.2426C152.217 22.8975 152.63 22.7249 153.109 22.7249C153.589 22.7249 154.001 22.8975 154.346 23.2426C154.691 23.5818 154.864 23.9912 154.864 24.4709C154.864 24.7925 154.782 25.0879 154.618 25.357C154.46 25.6202 154.25 25.8307 153.987 25.9887C153.723 26.1466 153.431 26.2255 153.109 26.2255ZM158.378 26.0588V12.5829H161.001V26.0588H158.378ZM159.702 10.5036C159.246 10.5036 158.854 10.3515 158.527 10.0474C158.205 9.7374 158.044 9.36891 158.044 8.94194C158.044 8.50912 158.205 8.14064 158.527 7.83649C158.854 7.5265 159.246 7.3715 159.702 7.3715C160.159 7.3715 160.548 7.5265 160.869 7.83649C161.197 8.14064 161.361 8.50912 161.361 8.94194C161.361 9.36891 161.197 9.7374 160.869 10.0474C160.548 10.3515 160.159 10.5036 159.702 10.5036ZM170.206 26.3308C168.943 26.3308 167.84 26.0413 166.899 25.4622C165.957 24.8832 165.226 24.0731 164.705 23.032C164.185 21.9909 163.925 20.7743 163.925 19.3823C163.925 17.9844 164.185 16.762 164.705 15.715C165.226 14.668 165.957 13.855 166.899 13.276C167.84 12.697 168.943 12.4074 170.206 12.4074C171.47 12.4074 172.572 12.697 173.514 13.276C174.456 13.855 175.187 14.668 175.707 15.715C176.228 16.762 176.488 17.9844 176.488 19.3823C176.488 20.7743 176.228 21.9909 175.707 23.032C175.187 24.0731 174.456 24.8832 173.514 25.4622C172.572 26.0413 171.47 26.3308 170.206 26.3308ZM170.215 24.1287C171.034 24.1287 171.712 23.9123 172.251 23.4795C172.789 23.0466 173.186 22.4705 173.444 21.7511C173.707 21.0317 173.839 20.2392 173.839 19.3735C173.839 18.5137 173.707 17.7241 173.444 17.0047C173.186 16.2794 172.789 15.6975 172.251 15.2588C171.712 14.8201 171.034 14.6008 170.215 14.6008C169.39 14.6008 168.706 14.8201 168.162 15.2588C167.624 15.6975 167.223 16.2794 166.96 17.0047C166.703 17.7241 166.574 18.5137 166.574 19.3735C166.574 20.2392 166.703 21.0317 166.96 21.7511C167.223 22.4705 167.624 23.0466 168.162 23.4795C168.706 23.9123 169.39 24.1287 170.215 24.1287Z" fill="white"/>
<defs>
<clipPath id="clip0_808_8">
<rect width="35" height="35" fill="white"/>
</clipPath>
</defs>
</svg>
