<svg width="52" height="30" viewBox="0 0 52 30" fill="none" xmlns="http://www.w3.org/2000/svg">
<path d="M50.9194 24.5512L39.2452 14.3957L41.3753 12.0492C41.9156 11.4537 42.1921 10.6726 42.1442 9.87759C42.0963 9.08263 41.7275 8.3388 41.1192 7.8098C40.5111 7.28093 39.7129 7.01012 38.9009 7.05717C38.0886 7.10409 37.3287 7.46504 36.7883 8.06046L34.6583 10.407L28.1957 4.78563C27.5312 4.21035 26.661 3.9162 25.7755 3.9672C24.89 4.01833 24.0611 4.41052 23.4703 5.05822L23.0082 5.56886L18.3215 10.7301L17.729 11.3841L6.05153 1.22868C5.44205 0.702336 4.64464 0.433285 3.83329 0.480231C3.02192 0.527176 2.26247 0.886306 1.72058 1.47926C1.18226 2.07549 0.906854 2.85591 0.954517 3.65024C1.00218 4.44456 1.36904 5.18814 1.97496 5.71854L13.6492 15.8739L11.5191 18.2206C10.981 18.8169 10.7059 19.5976 10.7539 20.3919C10.8018 21.1862 11.169 21.9297 11.7751 22.4598C12.3844 22.9865 13.1819 23.2559 13.9934 23.2089C14.8049 23.1619 15.5644 22.8026 16.106 22.2093L18.2362 19.8626L24.6988 25.4841C25.3632 26.0593 26.2334 26.3535 27.1188 26.3025C28.0045 26.2514 28.8332 25.8592 29.4242 25.2115L35.1655 18.8856L46.8413 29.041C47.4495 29.5703 48.2478 29.8415 49.0602 29.7947C49.8727 29.7481 50.633 29.3874 51.1739 28.792C51.7146 28.1967 51.9917 27.4152 51.9439 26.62C51.8963 25.8247 51.5277 25.0804 50.9194 24.5512ZM24.0128 13.0168C24.4408 12.5455 25.0018 12.2091 25.6253 12.0499C26.2487 11.8908 26.9062 11.9162 27.5149 12.1229C28.1234 12.3295 28.6557 12.7082 29.0445 13.211C29.4331 13.7138 29.6608 14.3182 29.6987 14.9476C29.7364 15.5771 29.5827 16.2034 29.257 16.7473C28.9311 17.2913 28.4478 17.7285 27.8682 18.0035C27.2885 18.2787 26.6387 18.3794 26.0004 18.2928C25.3624 18.2064 24.7647 17.9366 24.2834 17.5176C23.9635 17.2397 23.7027 16.9026 23.516 16.526C23.3293 16.1491 23.2203 15.74 23.1952 15.3221C23.17 14.9042 23.2292 14.4853 23.3697 14.0898C23.5098 13.6942 23.7285 13.3297 24.0128 13.0168Z" fill="#752EEB"/>
</svg>
