<svg width="912" height="1002" viewBox="0 0 912 1002" fill="none" xmlns="http://www.w3.org/2000/svg">
<g filter="url(#filter0_f_716_4464)">
<circle cx="411" cy="501" r="151" fill="#4377F8"/>
</g>
<path d="M407.5 628C468.527 628 518 578.527 518 517.5C518 456.473 468.527 407 407.5 407C346.473 407 297 456.473 297 517.5C297 578.527 346.473 628 407.5 628Z" stroke="#4377F8" stroke-linecap="round" stroke-linejoin="round"/>
<path d="M587 533L631 537" stroke="#4377F8" stroke-linecap="round" stroke-linejoin="round"/>
<path d="M592 533C592 531.813 591.677 530.653 591.073 529.667C590.469 528.68 589.61 527.911 588.605 527.457C587.6 527.003 586.494 526.884 585.427 527.115C584.36 527.347 583.38 527.918 582.611 528.757C581.842 529.596 581.318 530.666 581.106 531.829C580.893 532.993 581.002 534.2 581.419 535.296C581.835 536.392 582.54 537.33 583.444 537.989C584.349 538.648 585.412 539 586.5 539C587.957 538.993 589.352 538.359 590.382 537.235C591.412 536.111 591.994 534.589 592 533Z" fill="#4377F8"/>
<path d="M637 536.5C637 535.412 636.648 534.349 635.989 533.444C635.329 532.54 634.392 531.835 633.296 531.419C632.2 531.002 630.993 530.893 629.829 531.106C628.666 531.318 627.596 531.842 626.757 532.611C625.918 533.38 625.347 534.36 625.115 535.427C624.884 536.494 625.003 537.6 625.457 538.605C625.911 539.61 626.68 540.469 627.667 541.073C628.653 541.677 629.813 542 631 542C632.591 542 634.117 541.421 635.243 540.389C636.368 539.358 637 537.959 637 536.5Z" fill="#4377F8"/>
<path d="M341 764L366.817 669C380.252 672.525 394.097 674.302 408 674.286V730.628" stroke="#4377F8" stroke-linecap="round" stroke-linejoin="round"/>
<path d="M413 729.975C412.995 728.789 412.669 727.632 412.062 726.648C411.455 725.665 410.594 724.9 409.589 724.45C408.583 723.999 407.478 723.884 406.413 724.118C405.347 724.353 404.37 724.926 403.603 725.766C402.836 726.606 402.314 727.676 402.104 728.839C401.894 730.002 402.004 731.207 402.421 732.302C402.838 733.397 403.543 734.332 404.447 734.991C405.351 735.649 406.413 736 407.5 736C408.224 736 408.941 735.844 409.61 735.541C410.279 735.238 410.886 734.794 411.397 734.234C411.908 733.674 412.313 733.009 412.588 732.279C412.863 731.548 413.003 730.765 413 729.975Z" fill="#4377F8"/>
<path d="M347 763.523C347.005 762.434 346.686 761.369 346.084 760.461C345.483 759.554 344.625 758.845 343.621 758.425C342.616 758.005 341.51 757.893 340.441 758.103C339.373 758.312 338.391 758.835 337.619 759.603C336.848 760.371 336.321 761.351 336.107 762.419C335.893 763.486 336.001 764.593 336.416 765.599C336.832 766.606 337.537 767.466 338.442 768.071C339.347 768.677 340.411 769 341.5 769C342.953 768.994 344.345 768.416 345.374 767.391C346.404 766.365 346.988 764.976 347 763.523Z" fill="#4377F8"/>
<path d="M437 683C468.698 677.459 498.116 662.756 521.679 640.678C526.964 635.769 531.939 630.533 536.576 625L603 681.209" stroke="#4377F8" stroke-linecap="round" stroke-linejoin="round"/>
<path d="M436.5 689C439.538 689 442 686.314 442 683C442 679.686 439.538 677 436.5 677C433.462 677 431 679.686 431 683C431 686.314 433.462 689 436.5 689Z" fill="#4377F8"/>
<path d="M609 681.025C609.005 679.837 608.657 678.675 608.001 677.685C607.345 676.695 606.41 675.922 605.314 675.464C604.218 675.006 603.01 674.884 601.845 675.112C600.679 675.341 599.608 675.91 598.766 676.748C597.925 677.587 597.351 678.656 597.117 679.82C596.884 680.985 597.001 682.192 597.454 683.29C597.908 684.388 598.677 685.327 599.664 685.987C600.651 686.647 601.812 687 603 687C603.787 687.003 604.566 686.851 605.294 686.552C606.022 686.254 606.684 685.814 607.241 685.259C607.799 684.704 608.241 684.044 608.543 683.317C608.845 682.591 609 681.812 609 681.025Z" fill="#4377F8"/>
<path d="M506 688L535 738" stroke="#4377F8" stroke-linecap="round" stroke-linejoin="round"/>
<path d="M540.63 740.074C541.042 738.956 541.112 737.741 540.83 736.583C540.549 735.425 539.929 734.377 539.049 733.573C538.17 732.768 537.071 732.244 535.893 732.067C534.715 731.889 533.51 732.067 532.433 732.577C531.356 733.087 530.455 733.906 529.845 734.929C529.235 735.953 528.944 737.135 529.009 738.325C529.073 739.515 529.491 740.659 530.208 741.611C530.925 742.562 531.909 743.279 533.035 743.669C534.52 744.184 536.147 744.095 537.567 743.423C538.987 742.751 540.087 741.549 540.63 740.074Z" fill="#4377F8"/>
<path d="M511.63 690.074C512.042 688.956 512.112 687.741 511.83 686.583C511.549 685.425 510.929 684.377 510.049 683.573C509.17 682.768 508.071 682.244 506.893 682.067C505.715 681.889 504.51 682.067 503.433 682.577C502.356 683.087 501.455 683.906 500.845 684.929C500.235 685.953 499.944 687.135 500.009 688.325C500.073 689.515 500.491 690.659 501.208 691.611C501.925 692.562 502.909 693.279 504.035 693.669C505.52 694.184 507.147 694.095 508.567 693.423C509.987 692.751 511.087 691.549 511.63 690.074Z" fill="#4377F8"/>
<path d="M616 461.317L547.953 480C544.945 468.505 540.596 457.425 535 447" stroke="#4377F8" stroke-linecap="round" stroke-linejoin="round"/>
<path d="M541 447.025C541.005 445.837 540.657 444.675 540.001 443.685C539.345 442.695 538.41 441.922 537.314 441.464C536.218 441.006 535.01 440.884 533.845 441.112C532.679 441.341 531.608 441.91 530.766 442.748C529.925 443.587 529.351 444.656 529.117 445.82C528.884 446.985 529.001 448.192 529.454 449.29C529.908 450.388 530.677 451.327 531.664 451.987C532.651 452.647 533.812 453 535 453C535.787 453.003 536.566 452.851 537.294 452.552C538.022 452.254 538.684 451.814 539.241 451.259C539.799 450.704 540.241 450.044 540.543 449.317C540.845 448.591 541 447.812 541 447.025Z" fill="#4377F8"/>
<path d="M616 467C619.314 467 622 464.314 622 461C622 457.686 619.314 455 616 455C612.686 455 610 457.686 610 461C610 464.314 612.686 467 616 467Z" fill="#4377F8"/>
<path d="M588 337L560.222 364.413L554.588 393.422L527.35 416C518.47 405.605 508.269 396.383 497 388.563L497.196 388.321L526.223 347.395" stroke="#4377F8" stroke-linecap="round" stroke-linejoin="round"/>
<path d="M526.5 353C529.538 353 532 350.314 532 347C532 343.686 529.538 341 526.5 341C523.462 341 521 343.686 521 347C521 350.314 523.462 353 526.5 353Z" fill="#4377F8"/>
<path d="M594 337C594 335.813 593.648 334.653 592.989 333.667C592.329 332.68 591.392 331.911 590.296 331.457C589.2 331.003 587.993 330.884 586.829 331.115C585.666 331.347 584.596 331.918 583.757 332.757C582.918 333.596 582.347 334.666 582.115 335.829C581.884 336.993 582.003 338.2 582.457 339.296C582.911 340.392 583.68 341.33 584.667 341.989C585.653 342.648 586.813 343 588 343C588.789 343.003 589.571 342.85 590.3 342.55C591.029 342.25 591.692 341.808 592.25 341.25C592.808 340.692 593.25 340.029 593.55 339.3C593.85 338.571 594.003 337.789 594 337Z" fill="#4377F8"/>
<path d="M659 472.89L539.238 494C535.467 472.849 526.663 452.914 513.57 435.873C500.476 418.832 483.475 405.185 464 396.081L497.643 324" stroke="#4377F8" stroke-linecap="round" stroke-linejoin="round"/>
<path d="M503 323.975C502.995 322.789 502.669 321.632 502.062 320.648C501.455 319.665 500.594 318.9 499.589 318.449C498.583 317.999 497.478 317.884 496.413 318.118C495.347 318.353 494.37 318.926 493.603 319.766C492.836 320.606 492.314 321.676 492.104 322.839C491.894 324.002 492.004 325.207 492.421 326.302C492.838 327.397 493.543 328.332 494.447 328.991C495.351 329.649 496.413 330 497.5 330C498.224 330 498.941 329.844 499.61 329.541C500.279 329.238 500.886 328.794 501.397 328.234C501.908 327.674 502.313 327.009 502.588 326.279C502.863 325.548 503.003 324.765 503 323.975Z" fill="#4377F8"/>
<path d="M407.321 262V395.006C383.128 395.006 359.479 402.161 339.363 415.566C319.247 428.971 303.569 448.025 294.311 470.317C285.053 492.609 282.631 517.138 287.35 540.803C292.07 564.468 303.72 586.206 320.827 603.268C337.934 620.329 359.729 631.948 383.457 636.656C407.185 641.363 431.78 638.947 454.131 629.713C476.482 620.48 495.586 604.843 509.027 584.781C522.467 564.718 529.641 541.132 529.641 517.003H663" stroke="#4377F8" stroke-linecap="round" stroke-linejoin="round"/>
<path d="M354.333 318L358 331.776C341.892 336.12 326.425 342.584 312 351" stroke="#4377F8" stroke-linecap="round" stroke-linejoin="round"/>
<path d="M360 318.5C360 317.412 359.648 316.349 358.989 315.444C358.329 314.54 357.392 313.835 356.296 313.419C355.2 313.002 353.993 312.893 352.829 313.106C351.666 313.318 350.596 313.842 349.757 314.611C348.918 315.38 348.347 316.36 348.115 317.427C347.884 318.494 348.003 319.6 348.457 320.605C348.911 321.61 349.68 322.469 350.667 323.073C351.653 323.677 352.813 324 354 324C355.591 324 357.117 323.421 358.243 322.389C359.368 321.358 360 319.959 360 318.5Z" fill="#4377F8"/>
<path d="M312 357C315.314 357 318 354.538 318 351.5C318 348.462 315.314 346 312 346C308.686 346 306 348.462 306 351.5C306 354.538 308.686 357 312 357Z" fill="#4377F8"/>
<path d="M176 409L247 442" stroke="#4377F8" stroke-linecap="round" stroke-linejoin="round"/>
<path d="M182 409.025C182.005 407.837 181.657 406.675 181.001 405.685C180.345 404.695 179.41 403.922 178.314 403.464C177.218 403.006 176.01 402.884 174.845 403.112C173.679 403.341 172.608 403.91 171.766 404.748C170.925 405.587 170.351 406.656 170.117 407.82C169.884 408.985 170.001 410.192 170.454 411.29C170.908 412.388 171.677 413.327 172.664 413.987C173.651 414.647 174.812 415 176 415C177.585 414.993 179.103 414.363 180.226 413.244C181.35 412.126 181.987 410.61 182 409.025Z" fill="#4377F8"/>
<path d="M247 448C250.314 448 253 445.538 253 442.5C253 439.462 250.314 437 247 437C243.686 437 241 439.462 241 442.5C241 445.538 243.686 448 247 448Z" fill="#4377F8"/>
<path d="M212 681L296 610.437C278.271 589.308 266.941 563.545 263.347 536.184C259.752 508.822 264.042 481.002 275.711 456" stroke="#4377F8" stroke-linecap="round" stroke-linejoin="round"/>
<path d="M218 681C218 679.812 217.647 678.651 216.987 677.664C216.327 676.677 215.388 675.908 214.29 675.454C213.192 675.001 211.985 674.884 210.82 675.117C209.656 675.351 208.587 675.925 207.748 676.766C206.91 677.608 206.341 678.679 206.112 679.845C205.884 681.01 206.006 682.218 206.464 683.314C206.922 684.409 207.695 685.345 208.685 686.001C209.675 686.657 210.837 687.005 212.025 687C212.812 687 213.591 686.845 214.317 686.543C215.044 686.241 215.704 685.799 216.259 685.241C216.814 684.684 217.254 684.022 217.552 683.294C217.851 682.566 218.003 681.787 218 681Z" fill="#4377F8"/>
<path d="M276 462C279.314 462 282 459.314 282 456C282 452.686 279.314 450 276 450C272.686 450 270 452.686 270 456C270 459.314 272.686 462 276 462Z" fill="#4377F8"/>
<path d="M156 561L230 548.028C228.209 537.781 227.305 527.4 227.297 517" stroke="#4377F8" stroke-linecap="round" stroke-linejoin="round"/>
<path d="M233 517.025C233.005 515.837 232.686 514.675 232.084 513.685C231.483 512.695 230.625 511.922 229.621 511.464C228.616 511.006 227.51 510.884 226.441 511.112C225.373 511.341 224.391 511.91 223.619 512.748C222.848 513.587 222.321 514.656 222.107 515.82C221.893 516.985 222.001 518.192 222.416 519.29C222.832 520.388 223.537 521.327 224.442 521.987C225.347 522.647 226.411 523 227.5 523C228.955 523 230.35 522.371 231.381 521.252C232.412 520.132 232.994 518.612 233 517.025Z" fill="#4377F8"/>
<path d="M156 567C159.314 567 162 564.538 162 561.5C162 558.462 159.314 556 156 556C152.686 556 150 558.462 150 561.5C150 564.538 152.686 567 156 567Z" fill="#4377F8"/>
<path d="M187 645L262 601" stroke="#4377F8" stroke-linecap="round" stroke-linejoin="round"/>
<path d="M186.5 650C189.538 650 192 647.538 192 644.5C192 641.462 189.538 639 186.5 639C183.462 639 181 641.462 181 644.5C181 647.538 183.462 650 186.5 650Z" fill="#4377F8"/>
<path d="M268 601C268 599.812 267.647 598.651 266.987 597.664C266.327 596.677 265.388 595.908 264.29 595.454C263.192 595.001 261.985 594.884 260.82 595.117C259.656 595.351 258.587 595.925 257.748 596.766C256.91 597.608 256.341 598.679 256.112 599.845C255.884 601.01 256.006 602.218 256.464 603.314C256.922 604.41 257.695 605.345 258.685 606.001C259.675 606.657 260.837 607.005 262.025 607C262.812 607 263.591 606.845 264.317 606.543C265.044 606.241 265.704 605.799 266.259 605.241C266.814 604.684 267.254 604.022 267.552 603.294C267.851 602.566 268.003 601.787 268 601Z" fill="#4377F8"/>
<path d="M601.5 506C604.538 506 607 503.314 607 500C607 496.686 604.538 494 601.5 494C598.462 494 596 496.686 596 500C596 503.314 598.462 506 601.5 506Z" fill="#4377F8"/>
<path d="M501 277.5C501 276.412 500.648 275.349 499.989 274.444C499.33 273.54 498.392 272.835 497.296 272.419C496.2 272.002 494.993 271.893 493.829 272.106C492.666 272.318 491.596 272.842 490.757 273.611C489.918 274.38 489.347 275.36 489.115 276.427C488.884 277.494 489.003 278.6 489.457 279.605C489.911 280.61 490.68 281.469 491.667 282.073C492.653 282.677 493.813 283 495 283C495.788 283 496.568 282.858 497.296 282.581C498.024 282.305 498.686 281.9 499.243 281.389C499.8 280.878 500.242 280.272 500.543 279.605C500.845 278.937 501 278.222 501 277.5Z" fill="#4377F8"/>
<path d="M494.866 277L471.249 341.66L421.276 357.685L418 395.117C446.665 397.655 473.521 410.153 493.87 430.423C514.22 450.694 526.766 477.446 529.314 506L602 499.668" stroke="#4377F8" stroke-linecap="round" stroke-linejoin="round"/>
<path d="M541 295.975C540.995 294.789 540.639 293.632 539.976 292.648C539.314 291.665 538.375 290.9 537.279 290.449C536.182 289.999 534.976 289.884 533.814 290.118C532.652 290.353 531.585 290.926 530.748 291.766C529.912 292.606 529.343 293.676 529.113 294.839C528.884 296.002 529.004 297.207 529.459 298.302C529.914 299.397 530.683 300.332 531.669 300.991C532.655 301.649 533.814 302 535 302C535.79 302 536.572 301.844 537.302 301.541C538.032 301.238 538.694 300.794 539.252 300.234C539.809 299.674 540.25 299.009 540.55 298.279C540.85 297.548 541.003 296.765 541 295.975Z" fill="#4377F8"/>
<path d="M639 409.4L594.022 430.36L565.364 406.737L526.42 434C514.222 416.618 498.381 402.103 480 391.469L535.117 296" stroke="#4377F8" stroke-linecap="round" stroke-linejoin="round"/>
<path d="M243.5 718C246.538 718 249 715.538 249 712.5C249 709.462 246.538 707 243.5 707C240.462 707 238 709.462 238 712.5C238 715.538 240.462 718 243.5 718Z" fill="#4377F8"/>
<path d="M647 604.346L582.702 581.043L571.974 531.767L540.276 529C538.233 552.255 530.077 574.566 516.63 593.69C503.183 612.814 484.917 628.078 463.668 637.95C442.418 647.821 418.934 651.951 395.573 649.926C372.213 647.9 349.799 639.79 330.583 626.411L305.493 662.069L283.939 663.695L243 712" stroke="#4377F8" stroke-linecap="round" stroke-linejoin="round"/>
<path d="M550.5 548C553.538 548 556 545.538 556 542.5C556 539.462 553.538 537 550.5 537C547.462 537 545 539.462 545 542.5C545 545.538 547.462 548 550.5 548Z" fill="#4377F8"/>
<path d="M305 748C305 746.813 304.677 745.653 304.073 744.667C303.469 743.68 302.61 742.911 301.605 742.457C300.6 742.003 299.494 741.884 298.427 742.115C297.36 742.347 296.38 742.918 295.611 743.757C294.842 744.596 294.318 745.666 294.106 746.829C293.893 747.993 294.002 749.2 294.419 750.296C294.835 751.392 295.54 752.329 296.444 752.989C297.349 753.648 298.412 754 299.5 754C300.959 754 302.358 753.368 303.389 752.243C304.421 751.117 305 749.591 305 748Z" fill="#4377F8"/>
<path d="M387.5 295C390.538 295 393 292.314 393 289C393 285.686 390.538 283 387.5 283C384.462 283 382 285.686 382 289C382 292.314 384.462 295 387.5 295Z" fill="#4377F8"/>
<path d="M405.5 268C408.538 268 411 265.314 411 262C411 258.686 408.538 256 405.5 256C402.462 256 400 258.686 400 262C400 265.314 402.462 268 405.5 268Z" fill="#4377F8"/>
<path d="M289 412.5C289 411.411 288.647 410.347 287.987 409.442C287.327 408.537 286.388 407.832 285.29 407.416C284.192 407.001 282.985 406.893 281.82 407.107C280.656 407.321 279.587 407.848 278.748 408.619C277.91 409.391 277.341 410.373 277.112 411.441C276.884 412.51 277.006 413.616 277.464 414.621C277.922 415.625 278.695 416.483 279.685 417.084C280.675 417.686 281.837 418.005 283.025 418C283.812 418 284.591 417.858 285.317 417.581C286.044 417.304 286.704 416.899 287.259 416.388C287.814 415.877 288.254 415.27 288.552 414.603C288.851 413.936 289.003 413.221 289 412.5Z" fill="#4377F8"/>
<path d="M387.895 289L391 324.032L352.905 366.377L362.099 391.425C340.008 399.454 320.423 413.1 305.299 431L283 412.391" stroke="#4377F8" stroke-linecap="round" stroke-linejoin="round"/>
<path d="M258 672C258 670.813 257.677 669.653 257.073 668.667C256.469 667.68 255.61 666.911 254.605 666.457C253.6 666.003 252.494 665.884 251.427 666.115C250.36 666.347 249.38 666.918 248.611 667.757C247.842 668.596 247.318 669.666 247.106 670.829C246.893 671.993 247.002 673.2 247.419 674.296C247.835 675.392 248.54 676.33 249.444 676.989C250.349 677.648 251.412 678 252.5 678C253.959 678 255.358 677.368 256.389 676.243C257.421 675.117 258 673.591 258 672Z" fill="#4377F8"/>
<path d="M227 342C230.314 342 233 339.538 233 336.5C233 333.462 230.314 331 227 331C223.686 331 221 333.462 221 336.5C221 339.538 223.686 342 227 342Z" fill="#4377F8"/>
<path d="M227 337L267.099 377.044L263.101 433.948L291.719 450.418C276.998 475.842 271.104 505.406 274.952 534.517C278.8 563.628 292.176 590.655 313 611.398L252.132 672" stroke="#4377F8" stroke-linecap="round" stroke-linejoin="round"/>
<path d="M286 296C286 294.813 285.648 293.653 284.989 292.667C284.33 291.68 283.392 290.911 282.296 290.457C281.2 290.003 279.993 289.884 278.829 290.115C277.666 290.347 276.596 290.918 275.757 291.757C274.918 292.596 274.347 293.666 274.115 294.829C273.884 295.993 274.003 297.2 274.457 298.296C274.911 299.392 275.68 300.33 276.667 300.989C277.653 301.648 278.813 302 280 302C281.591 302 283.117 301.368 284.243 300.243C285.368 299.117 286 297.591 286 296Z" fill="#4377F8"/>
<path d="M304.5 420C307.538 420 310 417.538 310 414.5C310 411.462 307.538 409 304.5 409C301.462 409 299 411.462 299 414.5C299 417.538 301.462 420 304.5 420Z" fill="#4377F8"/>
<path d="M304.528 415C310.529 408.907 317.045 403.356 324 398.409L289.99 349.37L298.553 328.497L280 296" stroke="#4377F8" stroke-linecap="round" stroke-linejoin="round"/>
<path d="M162 473C162 471.813 161.648 470.653 160.989 469.667C160.33 468.68 159.392 467.911 158.296 467.457C157.2 467.003 155.993 466.884 154.829 467.115C153.666 467.347 152.596 467.918 151.757 468.757C150.918 469.596 150.347 470.666 150.115 471.829C149.884 472.993 150.003 474.2 150.457 475.296C150.911 476.392 151.68 477.33 152.667 477.989C153.653 478.648 154.813 479 156 479C157.591 479 159.117 478.368 160.243 477.243C161.368 476.117 162 474.591 162 473Z" fill="#4377F8"/>
<path d="M235.5 643C238.538 643 241 640.538 241 637.5C241 634.462 238.538 632 235.5 632C232.462 632 230 634.462 230 637.5C230 640.538 232.462 643 235.5 643Z" fill="#4377F8"/>
<path d="M156 472.643L204.473 481.223L228.234 469L255.971 476.456C250.025 498.633 249.006 521.847 252.985 544.462C256.964 567.077 265.844 588.542 279 607.344L235.308 638" stroke="#4377F8" stroke-linecap="round" stroke-linejoin="round"/>
<path d="M197 621C200.314 621 203 618.314 203 615C203 611.686 200.314 609 197 609C193.686 609 191 611.686 191 615C191 618.314 193.686 621 197 621Z" fill="#4377F8"/>
<path d="M194 504C197.314 504 200 501.538 200 498.5C200 495.462 197.314 493 194 493C190.686 493 188 495.462 188 498.5C188 501.538 190.686 504 194 504Z" fill="#4377F8"/>
<path d="M197.532 615L218.169 605.236L229.903 564.421L245 560.467C241.221 546.19 239.31 531.476 239.315 516.699C239.315 511.816 239.532 506.934 239.968 502.052L194 498" stroke="#4377F8" stroke-linecap="round" stroke-linejoin="round"/>
<path d="M628.5 650C631.538 650 634 647.538 634 644.5C634 641.462 631.538 639 628.5 639C625.462 639 623 641.462 623 644.5C623 647.538 625.462 650 628.5 650Z" fill="#4377F8"/>
<path d="M473.5 769C476.538 769 479 766.538 479 763.5C479 760.462 476.538 758 473.5 758C470.462 758 468 760.462 468 763.5C468 766.538 470.462 769 473.5 769Z" fill="#4377F8"/>
<path d="M473.303 764L463.573 727.64L424.868 717.865L421 673.416C455.492 670.419 488.013 655.986 513.443 632.389C521.706 624.733 529.143 616.223 535.63 607L567.62 629.481L600.291 628.675L628 644.753" stroke="#4377F8" stroke-linecap="round" stroke-linejoin="round"/>
<path d="M407.5 628C468.527 628 518 578.527 518 517.5C518 456.473 468.527 407 407.5 407C346.473 407 297 456.473 297 517.5C297 578.527 346.473 628 407.5 628Z" stroke="#4377F8" stroke-linecap="round" stroke-linejoin="round"/>
<path d="M482.5 729C485.538 729 488 726.314 488 723C488 719.686 485.538 717 482.5 717C479.462 717 477 719.686 477 723C477 726.314 479.462 729 482.5 729Z" fill="#4377F8"/>
<path d="M580 684C580 682.812 579.677 681.651 579.071 680.664C578.466 679.677 577.606 678.908 576.599 678.454C575.593 678.001 574.486 677.884 573.418 678.117C572.351 678.351 571.371 678.925 570.603 679.766C569.834 680.608 569.312 681.679 569.103 682.845C568.893 684.01 569.005 685.218 569.425 686.314C569.845 687.41 570.554 688.345 571.461 689.001C572.369 689.657 573.434 690.005 574.523 690C575.244 690 575.958 689.845 576.624 689.543C577.29 689.241 577.895 688.799 578.404 688.241C578.913 687.684 579.316 687.022 579.59 686.294C579.864 685.566 580.003 684.787 580 684Z" fill="#4377F8"/>
<path d="M574 683.987L559.239 669.288L535.617 670.184L522.847 655C506.865 668.447 488.639 678.988 469 686.142L482.45 723" stroke="#4377F8" stroke-linecap="round" stroke-linejoin="round"/>
<path d="M407.5 623C466.318 623 514 575.542 514 517C514 458.458 466.318 411 407.5 411C348.682 411 301 458.458 301 517C301 575.542 348.682 623 407.5 623Z" stroke="#4377F8" stroke-linecap="round" stroke-linejoin="round"/>
<g clip-path="url(#clip0_716_4464)">
<path d="M326.753 564.248C336.057 580.36 379.761 572.847 425.233 546.59C470.705 520.333 499.327 486.694 490.018 470.578C480.709 454.462 437.019 461.979 391.543 488.232C346.066 514.484 317.449 548.132 326.753 564.248ZM332.113 563.101C323.415 548.057 350.857 515.923 393.353 491.372C435.849 466.822 477.404 459.135 486.102 474.203C494.8 489.271 467.381 521.391 424.857 545.941C382.333 570.492 340.81 578.179 332.113 563.101Z" fill="#4377F8"/>
<path d="M391.543 546.59C437.019 572.847 480.719 580.36 490.023 564.248C499.327 548.137 470.71 514.489 425.233 488.232C379.757 461.974 336.057 454.462 326.753 470.578C317.449 486.694 346.066 520.319 391.543 546.59ZM424.857 488.885C467.381 513.436 494.8 545.551 486.102 560.619C477.404 575.687 435.877 568 393.353 543.45C350.829 518.899 323.415 486.784 332.113 471.716C340.81 456.648 382.356 464.335 424.857 488.885Z" fill="#4377F8"/>
<path d="M486.727 503.916C486.727 505.748 486.183 507.538 485.165 509.062C484.147 510.585 482.701 511.772 481.008 512.473C479.315 513.174 477.453 513.357 475.656 512.999C473.86 512.641 472.209 511.759 470.914 510.463C469.619 509.167 468.737 507.516 468.381 505.72C468.024 503.923 468.208 502.06 468.909 500.368C469.611 498.676 470.799 497.23 472.323 496.212C473.846 495.195 475.638 494.653 477.47 494.654C479.925 494.655 482.28 495.631 484.016 497.368C485.751 499.105 486.727 501.46 486.727 503.916Z" fill="url(#paint0_radial_716_4464)"/>
<path d="M486.727 503.916C486.727 505.748 486.183 507.538 485.165 509.062C484.147 510.585 482.701 511.772 481.008 512.473C479.315 513.174 477.453 513.357 475.656 512.999C473.86 512.641 472.209 511.759 470.914 510.463C469.619 509.167 468.737 507.516 468.381 505.72C468.024 503.923 468.208 502.06 468.909 500.368C469.611 498.676 470.799 497.23 472.323 496.212C473.846 495.195 475.638 494.653 477.47 494.654C479.925 494.655 482.28 495.631 484.016 497.368C485.751 499.105 486.727 501.46 486.727 503.916Z" fill="url(#paint1_radial_716_4464)"/>
<path d="M429.543 517.413C429.543 521.598 428.302 525.688 425.978 529.167C423.653 532.646 420.349 535.358 416.483 536.959C412.617 538.56 408.363 538.979 404.259 538.163C400.155 537.347 396.386 535.332 393.427 532.373C390.468 529.414 388.453 525.644 387.637 521.541C386.821 517.437 387.24 513.183 388.841 509.317C390.442 505.451 393.154 502.147 396.633 499.822C400.112 497.498 404.202 496.257 408.387 496.257C413.998 496.257 419.379 498.486 423.346 502.453C427.314 506.421 429.543 511.802 429.543 517.413Z" fill="url(#paint2_radial_716_4464)"/>
<path d="M374.699 517.413C374.699 569.923 389.781 611.784 408.389 611.784C426.997 611.784 442.065 569.923 442.065 517.413C442.065 464.903 427.021 423.037 408.389 423.037C389.758 423.037 374.699 464.903 374.699 517.413ZM441.332 517.413C441.332 566.514 427.228 606.316 409.833 606.316C392.438 606.316 378.333 566.514 378.333 517.413C378.333 468.312 392.438 428.505 409.833 428.505C427.228 428.505 441.332 468.312 441.332 517.413Z" fill="#4377F8"/>
<path d="M395.102 582.927C395.103 584.759 394.56 586.55 393.543 588.074C392.526 589.598 391.08 590.786 389.387 591.487C387.695 592.189 385.833 592.373 384.036 592.016C382.239 591.659 380.588 590.778 379.292 589.483C377.997 588.188 377.114 586.537 376.756 584.74C376.399 582.944 376.582 581.081 377.283 579.389C377.984 577.696 379.171 576.249 380.694 575.231C382.217 574.213 384.008 573.67 385.84 573.67C388.295 573.67 390.65 574.645 392.387 576.381C394.124 578.117 395.1 580.472 395.102 582.927Z" fill="url(#paint3_radial_716_4464)"/>
<path d="M395.102 582.927C395.103 584.759 394.56 586.55 393.543 588.074C392.526 589.598 391.08 590.786 389.387 591.487C387.695 592.189 385.833 592.373 384.036 592.016C382.239 591.659 380.588 590.778 379.292 589.483C377.997 588.188 377.114 586.537 376.756 584.74C376.399 582.944 376.582 581.081 377.283 579.389C377.984 577.696 379.171 576.249 380.694 575.231C382.217 574.213 384.008 573.67 385.84 573.67C388.295 573.67 390.65 574.645 392.387 576.381C394.124 578.117 395.1 580.472 395.102 582.927Z" fill="url(#paint4_radial_716_4464)"/>
<path d="M385.484 573.915C385.065 572.481 384.515 570.393 384.139 568.884H380.105C380.547 570.765 381.163 573.238 381.648 575.033C381.817 575.598 382.879 575.654 383.947 575.344C385.014 575.033 385.62 574.469 385.484 573.915Z" fill="#4377F8"/>
<path d="M372.012 464.781C372.012 466.613 371.468 468.404 370.451 469.927C369.433 471.45 367.986 472.637 366.293 473.338C364.601 474.039 362.738 474.222 360.941 473.865C359.145 473.507 357.494 472.624 356.199 471.329C354.904 470.033 354.023 468.382 353.666 466.585C353.309 464.788 353.493 462.926 354.195 461.234C354.896 459.541 356.084 458.095 357.608 457.078C359.132 456.061 360.923 455.518 362.755 455.519C365.21 455.521 367.565 456.497 369.301 458.234C371.037 459.971 372.012 462.326 372.012 464.781Z" fill="url(#paint5_radial_716_4464)"/>
<path d="M372.012 464.781C372.012 466.613 371.468 468.404 370.451 469.927C369.433 471.45 367.986 472.637 366.293 473.338C364.601 474.039 362.738 474.222 360.941 473.865C359.145 473.507 357.494 472.624 356.199 471.329C354.904 470.033 354.023 468.382 353.666 466.585C353.309 464.788 353.493 462.926 354.195 461.234C354.896 459.541 356.084 458.095 357.608 457.078C359.132 456.061 360.923 455.518 362.755 455.519C365.21 455.521 367.565 456.497 369.301 458.234C371.037 459.971 372.012 462.326 372.012 464.781Z" fill="url(#paint6_radial_716_4464)"/>
<path d="M472.552 508.927C471.316 510.3 470.018 511.678 468.641 513.069L469.449 514.009C470.872 512.63 472.234 511.258 473.535 509.891C473.666 509.757 473.74 509.576 473.74 509.388C473.74 509.2 473.666 509.019 473.535 508.885C473.47 508.818 473.392 508.766 473.306 508.732C473.219 508.697 473.127 508.682 473.034 508.686C472.941 508.69 472.85 508.713 472.767 508.755C472.684 508.796 472.611 508.855 472.552 508.927Z" fill="#4377F8"/>
<path d="M370.846 466.497C372.498 466.88 374.179 467.304 375.891 467.771L376.187 466.76C374.454 466.259 372.747 465.798 371.067 465.378C370.818 465.312 370.555 465.576 370.493 465.886C370.472 465.949 370.464 466.016 370.471 466.083C370.478 466.149 370.498 466.213 370.532 466.271C370.565 466.329 370.61 466.379 370.665 466.418C370.719 466.457 370.781 466.484 370.846 466.497Z" fill="#4377F8"/>
</g>
<defs>
<filter id="filter0_f_716_4464" x="-90" y="0" width="1002" height="1002" filterUnits="userSpaceOnUse" color-interpolation-filters="sRGB">
<feFlood flood-opacity="0" result="BackgroundImageFix"/>
<feBlend mode="normal" in="SourceGraphic" in2="BackgroundImageFix" result="shape"/>
<feGaussianBlur stdDeviation="175" result="effect1_foregroundBlur_716_4464"/>
</filter>
<radialGradient id="paint0_radial_716_4464" cx="0" cy="0" r="1" gradientUnits="userSpaceOnUse" gradientTransform="translate(477.441 503.916) scale(9.26173 9.26174)">
<stop stop-color="#00C4FF"/>
<stop offset="0.15" stop-color="#01C1FB"/>
<stop offset="0.29" stop-color="#03B8EF"/>
<stop offset="0.44" stop-color="#06AADB"/>
<stop offset="0.58" stop-color="#0A95BF"/>
<stop offset="0.73" stop-color="#107B9B"/>
<stop offset="0.87" stop-color="#175B70"/>
<stop offset="1" stop-color="#1E3942"/>
</radialGradient>
<radialGradient id="paint1_radial_716_4464" cx="0" cy="0" r="1" gradientUnits="userSpaceOnUse" gradientTransform="translate(477.465 503.916) scale(9.26173 9.26174)">
<stop offset="0.1875" stop-color="#1444BC"/>
<stop offset="0.614583" stop-color="#2056DB"/>
<stop offset="1" stop-color="#4377F8"/>
<stop offset="1" stop-color="#062A84"/>
</radialGradient>
<radialGradient id="paint2_radial_716_4464" cx="0" cy="0" r="1" gradientUnits="userSpaceOnUse" gradientTransform="translate(408.387 517.413) scale(21.1563)">
<stop offset="0.1875" stop-color="#1444BC"/>
<stop offset="0.614583" stop-color="#2056DB"/>
<stop offset="1" stop-color="#4377F8"/>
<stop offset="1" stop-color="#062A84"/>
</radialGradient>
<radialGradient id="paint3_radial_716_4464" cx="0" cy="0" r="1" gradientUnits="userSpaceOnUse" gradientTransform="translate(385.84 582.927) scale(9.26174 9.26173)">
<stop stop-color="#00C4FF"/>
<stop offset="0.15" stop-color="#01C1FB"/>
<stop offset="0.29" stop-color="#03B8EF"/>
<stop offset="0.44" stop-color="#06AADB"/>
<stop offset="0.58" stop-color="#0A95BF"/>
<stop offset="0.73" stop-color="#107B9B"/>
<stop offset="0.87" stop-color="#175B70"/>
<stop offset="1" stop-color="#1E3942"/>
</radialGradient>
<radialGradient id="paint4_radial_716_4464" cx="0" cy="0" r="1" gradientUnits="userSpaceOnUse" gradientTransform="translate(385.84 582.932) scale(9.26174 9.26173)">
<stop offset="0.1875" stop-color="#1444BC"/>
<stop offset="0.614583" stop-color="#2056DB"/>
<stop offset="1" stop-color="#4377F8"/>
<stop offset="1" stop-color="#062A84"/>
</radialGradient>
<radialGradient id="paint5_radial_716_4464" cx="0" cy="0" r="1" gradientUnits="userSpaceOnUse" gradientTransform="translate(362.755 464.781) scale(9.26174)">
<stop stop-color="#00C4FF"/>
<stop offset="0.15" stop-color="#01C1FB"/>
<stop offset="0.29" stop-color="#03B8EF"/>
<stop offset="0.44" stop-color="#06AADB"/>
<stop offset="0.58" stop-color="#0A95BF"/>
<stop offset="0.73" stop-color="#107B9B"/>
<stop offset="0.87" stop-color="#175B70"/>
<stop offset="1" stop-color="#1E3942"/>
</radialGradient>
<radialGradient id="paint6_radial_716_4464" cx="0" cy="0" r="1" gradientUnits="userSpaceOnUse" gradientTransform="translate(362.75 464.781) scale(9.26174)">
<stop offset="0.1875" stop-color="#1444BC"/>
<stop offset="0.614583" stop-color="#2056DB"/>
<stop offset="1" stop-color="#4377F8"/>
<stop offset="1" stop-color="#062A84"/>
</radialGradient>
<clipPath id="clip0_716_4464">
<rect width="166.81" height="188.784" fill="white" transform="translate(325 423)"/>
</clipPath>
</defs>
</svg>
