<svg width="50" height="57" viewBox="0 0 50 57" fill="none" xmlns="http://www.w3.org/2000/svg">
<path fill-rule="evenodd" clip-rule="evenodd" d="M14.8642 19.552C14.7733 20.3298 14.6824 21.1447 14.6278 21.9596C13.2459 22.9411 11.9548 23.9412 10.7547 24.9413C10.1365 25.4599 9.5364 25.9784 8.9727 26.5155C4.53589 21.904 2.64479 17.7555 3.8631 15.6257C4.93593 13.7367 8.5363 13.1996 13.5913 14.2182C13.7914 13.3292 13.9914 12.4773 14.2278 11.6624C8.09989 10.4031 3.42669 11.2365 1.66288 14.3293C1.1901 15.1442 0.953714 16.0702 0.953714 17.0518V17.1444C0.990082 21.5336 5.22687 27.4045 12.3003 32.9419C13.0277 33.5161 13.8096 34.0902 14.6096 34.6643C14.7551 36.4608 14.9733 38.1831 15.2461 39.7944C15.3733 40.5166 15.5006 41.2204 15.6461 41.9056C9.51821 43.5169 5.06322 43.1094 3.84491 40.9796C2.77208 39.0906 4.11767 35.6274 7.49983 31.6826L5.73601 29.7935C1.55377 34.6088 -0.119121 39.1832 1.64469 42.2946C2.88118 44.4799 5.55418 45.5171 9.15454 45.5171C12.7731 45.5171 17.319 44.4614 22.3013 42.4057C22.4286 42.3501 22.5559 42.2946 22.7014 42.239C23.5742 41.8686 24.447 41.4797 25.338 41.0537C25.3744 41.0352 25.4107 41.0167 25.4471 40.9982C27.0291 41.739 28.5929 42.4057 30.1385 42.9798C30.8113 43.2391 31.4841 43.4613 32.1387 43.6836C30.4476 49.9063 27.8655 53.6474 25.4471 53.6474C23.3014 53.6474 21.0285 50.7212 19.3738 45.7208C18.5373 46.0171 17.719 46.2764 16.9008 46.4986C18.901 52.5361 21.9376 56.2402 25.4471 56.2402C30.5567 56.2402 34.6298 48.4247 36.03 37.0349C36.1209 36.257 36.1936 35.4422 36.2664 34.6458C37.7029 33.6272 39.0485 32.5715 40.3031 31.4974C40.3759 31.4418 40.4486 31.3863 40.5213 31.3122C40.9941 30.9047 41.4487 30.4973 41.9033 30.0713C46.3583 34.6643 48.2494 38.8313 47.0311 40.9611C46.031 42.7205 42.7397 43.3132 38.2302 42.5538C37.9211 42.4983 37.6301 42.4427 37.321 42.3872C37.121 43.2576 36.921 44.091 36.6846 44.9059C37.0664 44.98 37.4483 45.0541 37.812 45.1096C39.2485 45.3504 40.5759 45.48 41.7942 45.48C45.4491 45.48 48.0494 44.3873 49.2495 42.276C50.8496 39.461 49.6859 35.3681 45.9582 30.7751C44.0308 28.386 41.5214 25.9784 38.612 23.6819C37.8665 23.0893 37.0846 22.5152 36.3027 21.941C36.1573 20.1446 35.9391 18.4222 35.6481 16.7925C35.5208 16.0702 35.3935 15.3664 35.2481 14.6812C36.2845 14.4034 37.2846 14.1811 38.2484 14.0145C42.7579 13.2551 46.0492 13.8478 47.0493 15.6072C48.1039 17.4592 46.8129 20.8484 43.5398 24.7191C44.1762 25.3487 44.7581 25.9784 45.3036 26.5896C45.54 26.3303 45.7582 26.0525 45.9582 25.7932C49.6677 21.2002 50.8496 17.1073 49.2495 14.2923C47.6493 11.4772 43.5944 10.4586 37.8302 11.4402C35.1572 11.8847 32.2296 12.7551 29.1929 13.9404C29.0656 13.9959 28.9565 14.033 28.8292 14.0885C27.811 14.496 26.7927 14.9405 25.7744 15.422C25.6835 15.459 25.5926 15.5146 25.5016 15.5516C23.9015 14.7923 22.3195 14.1071 20.7921 13.5329C20.1193 13.2737 19.4465 13.0514 18.7919 12.8292C20.483 6.62497 23.065 2.88392 25.4835 2.88392C27.6291 2.88392 29.9203 5.82861 31.575 10.829C32.4114 10.5512 33.2297 10.2919 34.048 10.0512C31.9932 4.06921 28.9565 0.34668 25.4289 0.34668C20.3375 0.34668 16.2462 8.16214 14.8642 19.552ZM31.1204 18.6074C31.084 18.5704 31.0295 18.5519 30.9931 18.5334C30.1385 18.0333 29.2657 17.5518 28.4292 17.0888C28.5019 17.0518 28.5747 17.0147 28.6474 16.9962C29.6839 16.5517 30.7203 16.1443 31.7204 15.7924C32.0659 15.6628 32.4114 15.5516 32.7387 15.4405C32.8842 16.1258 33.0115 16.811 33.1388 17.5333C33.2842 18.3667 33.3933 19.2186 33.5024 20.089C32.7205 19.589 31.9205 19.089 31.1204 18.6074ZM17.719 17.6259C17.8463 16.8666 17.9736 16.1443 18.1373 15.4405C18.8101 15.6628 19.4829 15.885 20.1738 16.1628C20.9194 16.4406 21.6831 16.7554 22.465 17.0888C21.6103 17.5518 20.7375 18.0333 19.8829 18.5334C19.8465 18.5519 19.8102 18.5704 19.7738 18.6074C18.9555 19.089 18.1554 19.589 17.3735 20.089C17.4827 19.2371 17.5918 18.4222 17.719 17.6259ZM21.1557 35.8496C20.5375 35.4977 19.9374 35.1273 19.3556 34.7569C18.5555 34.2569 17.7918 33.7568 17.0462 33.2383C16.9371 31.6641 16.8826 30.0158 16.8826 28.3119C16.8826 27.423 16.9008 26.5525 16.9371 25.7006C16.9735 24.9043 17.0099 24.1449 17.0644 23.3856C18.3555 22.4966 19.7192 21.6262 21.1557 20.7743C21.7013 20.4409 22.2649 20.1261 22.8105 19.8298C23.6833 19.3482 24.5561 18.9038 25.4289 18.4593C26.829 19.1445 28.2474 19.9224 29.7021 20.7743C30.3203 21.1447 30.9204 21.4966 31.5022 21.867C32.3023 22.367 33.066 22.867 33.8116 23.3856C33.9207 24.9598 33.9752 26.6081 33.9752 28.3119C33.9752 29.2009 33.957 30.0713 33.9207 30.9233C33.8843 31.7011 33.8479 32.479 33.7934 33.2383C32.5023 34.1272 31.1386 34.9977 29.7021 35.8496C29.3202 36.0718 28.9565 36.2941 28.5747 36.4978C27.6109 37.0534 26.6472 37.5534 25.7017 38.035C25.6107 38.072 25.5198 38.1276 25.4289 38.1646C24.0106 37.4608 22.5741 36.683 21.1557 35.8496ZM12.173 29.4972C11.7002 29.1083 11.2638 28.7009 10.8274 28.3119C11.4275 27.7749 12.0457 27.2193 12.7004 26.6822C13.2459 26.2377 13.8096 25.7747 14.4096 25.3302C14.3732 26.071 14.3551 26.8303 14.3551 27.5897C14.3551 27.8304 14.3551 28.0712 14.3551 28.3119C14.3551 29.3305 14.3732 30.3121 14.4096 31.2937C13.6277 30.701 12.864 30.1084 12.173 29.4972ZM36.5209 29.0527C36.5209 28.812 36.5209 28.5712 36.5209 28.3119C36.5209 27.2933 36.5027 26.3118 36.4664 25.3302C37.2483 25.9229 37.9938 26.534 38.703 27.1267C39.1576 27.5156 39.6121 27.923 40.0304 28.3119C39.5576 28.7379 39.0666 29.1824 38.5575 29.6083C38.4848 29.6639 38.412 29.738 38.3393 29.7935C37.7392 30.2936 37.1028 30.8121 36.4482 31.3122C36.4846 30.5714 36.5209 29.8121 36.5209 29.0527ZM17.7372 39.0906C17.5918 38.2572 17.4827 37.4053 17.3735 36.5348C18.1554 37.0349 18.9373 37.5164 19.7556 37.9979C19.792 38.035 19.8465 38.0535 19.8829 38.072C20.7375 38.572 21.5922 39.0536 22.465 39.5166C22.465 39.5166 22.4468 39.5166 22.4468 39.5351C21.5376 39.924 20.6466 40.2759 19.7738 40.6092C19.6465 40.6648 19.5192 40.7018 19.3919 40.7574C18.9737 40.9056 18.5555 41.0537 18.1373 41.1834C17.9918 40.5166 17.8645 39.8129 17.7372 39.0906ZM30.7022 40.4611C29.9384 40.1648 29.1747 39.8684 28.3928 39.5351C28.5019 39.4795 28.611 39.424 28.7201 39.3684C29.4657 38.961 30.2112 38.535 30.9749 38.109C31.1931 37.9794 31.4113 37.8498 31.6113 37.7201C32.2478 37.3312 32.866 36.9423 33.4843 36.5534C33.3752 37.3868 33.2661 38.2202 33.1388 38.998C33.0115 39.7573 32.866 40.4796 32.7205 41.2019C32.0659 40.9611 31.3931 40.7204 30.7022 40.4611ZM22.1558 28.3119C22.1558 26.4785 23.6287 24.9783 25.4289 24.9783C27.2291 24.9783 28.702 26.4785 28.702 28.3119C28.702 30.1454 27.2291 31.6455 25.4289 31.6455C23.6287 31.6455 22.1558 30.1454 22.1558 28.3119Z" fill="url(#paint0_linear_136_1312)"/>
<defs>
<linearGradient id="paint0_linear_136_1312" x1="5.34186" y1="27.4147" x2="48.4215" y2="29.2693" gradientUnits="userSpaceOnUse">
<stop stop-color="#6B57A5"/>
<stop offset="1" stop-color="#59499E"/>
</linearGradient>
</defs>
</svg>
