<svg width="120" height="107" viewBox="0 0 120 107" fill="none" xmlns="http://www.w3.org/2000/svg">
<path d="M119.498 1.63762H117.86V0H117.206V1.63762H115.574V2.29153H117.206V3.92347H117.86V2.29153H119.498V1.63762Z" fill="white"/>
<path d="M39.8137 79.8452C39.8137 79.8452 35.2306 99.0759 0.800781 102.698C8.42595 68.9278 28.0603 66.6362 28.0603 66.6362L39.8137 79.8452Z" fill="url(#paint0_linear_368_5166)"/>
<path d="M40.4467 45.9329C40.4467 45.9329 10.5866 41.7045 0 65.9252C0 65.9252 20.5564 49.3218 30.638 60.6658L40.4467 45.9329Z" fill="#3C74FF"/>
<path d="M61.8272 69.9856C61.8272 69.9856 60.7925 100.572 40.7422 106.026C40.7422 106.026 56.1296 89.3414 46.048 77.9974L61.8272 69.9856Z" fill="#3C74FF"/>
<path d="M109.678 5.91919C92.1803 5.79775 75.2585 12.1649 62.1812 23.7909L55.3578 29.8751C46.035 38.1628 38.0704 47.8619 31.7544 58.6187L30.6172 60.5918L38.3845 69.3315L46.1575 78.0712L48.2444 77.1557C59.6672 72.1427 70.2335 65.3697 79.5582 57.0835L86.3816 50.9936C99.4551 39.3676 107.755 23.3084 109.678 5.91919Z" fill="url(#paint1_linear_368_5166)"/>
<path d="M83.5732 38.9171C83.9092 33.1926 79.5411 28.2796 73.8166 27.9435C68.0921 27.6074 63.179 31.9756 62.8429 37.7001C62.5068 43.4246 66.875 48.3376 72.5995 48.6737C78.324 49.0098 83.2371 44.6416 83.5732 38.9171Z" fill="white"/>
<path d="M98.0688 37.5912C104.435 28.1241 108.416 17.2579 109.674 5.9192C98.2661 5.83978 87.0078 8.52021 76.8594 13.732L98.0688 37.5912Z" fill="#4377F8"/>
<path d="M81.3707 38.6092C81.5268 34.1149 78.01 30.3449 73.5157 30.1888C69.0214 30.0326 65.2514 33.5494 65.0953 38.0437C64.9391 42.538 68.4559 46.308 72.9502 46.4641C77.4445 46.6203 81.2145 43.1035 81.3707 38.6092Z" fill="#4377F8"/>
<path d="M30.5898 60.5891L46.1219 78.0587L43.296 80.5712C42.8779 80.943 42.3292 81.1334 41.7707 81.1006C41.2121 81.0678 40.6895 80.8145 40.3178 80.3964L27.5891 66.0799C27.2173 65.6617 27.0269 65.113 27.0597 64.5545C27.0925 63.996 27.3458 63.4733 27.7639 63.1016L30.5898 60.5891Z" fill="#3C74FF"/>
<path d="M80.5234 11.9807L100.232 34.1568C100.442 33.7986 100.647 33.4404 100.852 33.0764L81.6607 11.4917L80.5234 11.9807Z" fill="white"/>
<path d="M32.4961 57.3395L49.5546 76.5418L50.6919 76.03L33.1443 56.2876L32.4961 57.3395Z" fill="white"/>
<defs>
<linearGradient id="paint0_linear_368_5166" x1="32.5604" y1="74.4265" x2="-0.803247" y2="102.657" gradientUnits="userSpaceOnUse">
<stop offset="0.01" stop-color="#E54A30"/>
<stop offset="1" stop-color="#FFE8C0" stop-opacity="0"/>
</linearGradient>
<linearGradient id="paint1_linear_368_5166" x1="61.9316" y1="24.0138" x2="86.1157" y2="51.2147" gradientUnits="userSpaceOnUse">
<stop stop-color="white"/>
<stop offset="0.18" stop-color="#F2F2FF"/>
<stop offset="0.5" stop-color="#D2D2FF"/>
<stop offset="1" stop-color="#D2D2FF"/>
</linearGradient>
</defs>
</svg>
