<svg width="232" height="234" viewBox="0 0 232 234" fill="none" xmlns="http://www.w3.org/2000/svg">
<path d="M114.136 231.87L115.724 230.08L117.514 231.667L118.148 230.952L116.358 229.365L117.94 227.58L117.225 226.946L115.643 228.731L113.858 227.148L113.224 227.863L115.009 229.446L113.421 231.236L114.136 231.87Z" fill="white"/>
<path d="M105.88 68.9162C105.88 68.9162 89.2973 45.2598 118.719 4.10267C148.25 45.1824 131.719 68.8722 131.719 68.8722L105.88 68.9162Z" fill="url(#paint0_linear_368_5068)"/>
<path d="M105.88 68.9162C105.88 68.9162 89.2973 45.2598 118.719 4.10267C148.25 45.1824 131.719 68.8722 131.719 68.8722L105.88 68.9162Z" fill="url(#paint1_linear_368_5068)"/>
<path d="M142.35 102.487C142.35 102.487 175.924 73.9381 159.706 38.8793C159.706 38.8793 157.929 77.4535 135.751 77.478L142.35 102.487Z" fill="#3C74FF"/>
<path d="M95.3224 102.544C95.3224 102.544 62.8824 71.7568 76.3595 44.5463C76.3595 44.5463 79.6831 77.5475 101.861 77.5231L95.3224 102.544Z" fill="#3C74FF"/>
<path d="M118.98 216.978C136.078 197.964 145.523 173.289 145.491 147.718L145.454 134.358C145.431 116.129 142.549 98.0168 136.911 80.6816L135.856 77.5251L118.77 77.5442L101.677 77.5694L100.655 80.7388C95.0608 98.0888 92.2217 116.209 92.2409 134.438L92.2838 147.803C92.3198 173.37 101.831 198.016 118.98 216.978Z" fill="url(#paint2_linear_368_5068)"/>
<path d="M108.208 156.444C114.141 162.362 123.748 162.349 129.666 156.416C135.583 150.483 135.571 140.876 129.638 134.958C123.704 129.04 114.097 129.053 108.18 134.986C102.262 140.919 102.274 150.526 108.208 156.444Z" fill="white"/>
<path d="M95.6012 173.578C99.7804 189.717 107.801 204.606 118.979 216.976C130.127 204.579 138.111 189.67 142.253 173.521L95.6012 173.578Z" fill="#4377F8"/>
<path d="M110.678 154.334C115.441 158.862 122.973 158.672 127.501 153.91C132.029 149.147 131.839 141.615 127.077 137.087C122.314 132.559 114.782 132.749 110.254 137.511C105.726 142.274 105.916 149.806 110.678 154.334Z" fill="#4377F8"/>
<path d="M135.883 77.5005L101.722 77.5452L101.715 72.0193C101.714 71.2017 102.038 70.4172 102.615 69.8383C103.193 69.2594 103.976 68.9336 104.794 68.9325L132.789 68.8959C133.606 68.8948 134.391 69.2186 134.97 69.7959C135.549 70.3733 135.875 71.157 135.876 71.9747L135.883 77.5005Z" fill="#3C74FF"/>
<path d="M140.614 179.224L97.2581 179.272C97.4458 179.849 97.6391 180.42 97.8385 180.997L140.046 180.942L140.614 179.224Z" fill="white"/>
<path d="M137.584 82.7338L100.049 82.7676L99.5062 84.5073L138.106 84.4625L137.584 82.7338Z" fill="white"/>
<g style="mix-blend-mode:overlay">
<rect x="126.746" y="94.5551" width="7.03214" height="7.03214" rx="3.51607" transform="rotate(88.0712 126.746 94.5551)" fill="white"/>
</g>
<g style="mix-blend-mode:overlay">
<rect x="116.809" y="94.8198" width="7.03214" height="7.03214" rx="3.51607" transform="rotate(88.0712 116.809 94.8198)" fill="white"/>
</g>
<g style="mix-blend-mode:overlay">
<rect x="127.008" y="104.497" width="7.03214" height="7.03214" rx="3.51607" transform="rotate(88.0712 127.008 104.497)" fill="white"/>
</g>
<g style="mix-blend-mode:overlay">
<rect x="117.07" y="104.761" width="7.03214" height="7.03214" rx="3.51607" transform="rotate(88.0712 117.07 104.761)" fill="white"/>
</g>
<g style="mix-blend-mode:overlay">
<rect x="127.277" y="114.438" width="7.03214" height="7.03214" rx="3.51607" transform="rotate(88.0712 127.277 114.438)" fill="white"/>
</g>
<g style="mix-blend-mode:overlay">
<rect x="117.34" y="114.703" width="7.03214" height="7.03214" rx="3.51607" transform="rotate(88.0712 117.34 114.703)" fill="white"/>
</g>
<defs>
<linearGradient id="paint0_linear_368_5068" x1="118.838" y1="66.2394" x2="120.319" y2="2.38825" gradientUnits="userSpaceOnUse">
<stop offset="0.01" stop-color="#E53083"/>
<stop offset="1" stop-color="#FFE8C0"/>
</linearGradient>
<linearGradient id="paint1_linear_368_5068" x1="118.838" y1="66.2394" x2="120.319" y2="2.38825" gradientUnits="userSpaceOnUse">
<stop offset="0.01" stop-color="#E54A30"/>
<stop offset="1" stop-color="#FFE8C0" stop-opacity="0"/>
</linearGradient>
<linearGradient id="paint2_linear_368_5068" x1="145.489" y1="147.229" x2="92.2998" y2="147.298" gradientUnits="userSpaceOnUse">
<stop stop-color="white"/>
<stop offset="0.18" stop-color="#F2F2FF"/>
<stop offset="0.5" stop-color="#D2D2FF"/>
<stop offset="1" stop-color="#D2D2FF"/>
</linearGradient>
</defs>
</svg>
