<svg width="50" height="49" viewBox="0 0 50 49" fill="none" xmlns="http://www.w3.org/2000/svg">
<g clip-path="url(#clip0_136_1018)">
<path d="M17.8977 15.6457C17.1823 16.3513 16.6972 16.8364 16.8197 16.7237L17.0451 16.5179L17.7017 17.0618L18.3583 17.6106L19.402 16.5473C19.9802 15.9642 20.4506 15.4693 20.4506 15.4399C20.4506 15.4056 19.6813 14.7392 19.2746 14.4207C19.2109 14.3717 18.9904 14.5726 17.8977 15.6457Z" fill="#1596C1"/>
<path d="M21.9688 20.6045C21.9688 20.6143 22.5371 21.0994 23.2329 21.6825L24.4922 22.7409L24.5363 21.7364C24.5608 21.1827 24.5657 20.6976 24.551 20.6535C24.5216 20.5898 24.3501 20.58 23.2427 20.58C22.542 20.58 21.9688 20.5898 21.9688 20.6045Z" fill="#1596C1"/>
<path d="M26.3789 22.0745V23.569H27.8734H29.3679V23.2064V22.8438L28.0449 21.7364C26.766 20.6731 26.7268 20.6339 26.8787 20.6143C26.9669 20.6045 26.8934 20.5898 26.7121 20.5898L26.3789 20.58V22.0745Z" fill="#1596C1"/>
<path d="M28.3733 25.431L27.7461 25.4555L28.2508 25.8769C28.5301 26.1121 28.8927 26.4159 29.0642 26.558L29.368 26.8128V26.0974V25.382L29.1867 25.3918C29.0838 25.3967 28.7163 25.4163 28.3733 25.431Z" fill="#1596C1"/>
<path d="M34.9735 28.9738C34.5472 29.4099 34.067 29.9048 33.9102 30.0665L33.6211 30.3654L34.263 30.8995L34.9049 31.4287L34.6746 31.6786C34.5472 31.8109 34.851 31.5218 35.3459 31.0269L36.2426 30.1253L39.8 33.6827C41.7551 35.6378 43.3819 37.2401 43.4064 37.2401C43.4358 37.2401 43.72 36.9755 44.0434 36.6521L44.6314 36.0641L43.0634 34.5059C41.5885 33.0457 41.3386 32.8252 38.9033 30.7966C37.4725 29.6108 36.1838 28.5377 36.0319 28.4103L35.7575 28.18L34.9735 28.9738Z" fill="#1596C1"/>
<path d="M47.9056 39.4695C47.4303 39.6165 47.1069 39.8958 46.8864 40.3515C46.7884 40.5573 46.7247 41.405 46.808 41.405C46.8276 41.405 47.1657 41.6696 47.5528 41.9979L48.2584 42.5908L48.5524 42.5663C49.111 42.5222 49.5618 42.2135 49.8068 41.7088C49.9048 41.5177 49.9244 41.4001 49.9244 40.9934C49.9244 40.6602 49.9048 40.4985 49.8656 40.4887C49.8313 40.4789 49.8215 40.4348 49.8362 40.3956C49.8509 40.3564 49.8362 40.327 49.8019 40.327C49.7725 40.327 49.7578 40.3074 49.7774 40.2829C49.7921 40.2535 49.7627 40.2143 49.7186 40.1849C49.6696 40.1555 49.65 40.131 49.6696 40.131C49.6941 40.131 49.6647 40.0722 49.6059 39.9938C49.5471 39.9203 49.4932 39.8664 49.4785 39.8713C49.4687 39.8762 49.3952 39.8174 49.3119 39.7341C49.2335 39.6508 49.1453 39.5969 49.1159 39.6165C49.0914 39.6312 49.0669 39.6214 49.0669 39.592C49.0669 39.5626 49.0473 39.5528 49.0179 39.5675C48.9934 39.5822 48.9689 39.5724 48.9689 39.5381C48.9689 39.5038 48.9542 39.4891 48.9395 39.5038C48.9248 39.5234 48.8366 39.5038 48.7484 39.4646C48.5426 39.3813 48.18 39.3813 47.9056 39.4695Z" fill="#1596C1"/>
<path d="M10.7749 1.12213C10.3241 1.24953 9.97125 1.46023 9.61355 1.81793C8.95205 2.48433 8.69235 3.42023 8.91285 4.35613C9.13825 5.29203 9.99085 6.12993 10.9317 6.32103C11.3433 6.40923 12.0783 6.36023 12.436 6.22303L12.7251 6.11523L16.3903 9.78043L20.0604 13.4505L19.1147 14.406C18.6002 14.9303 18.4042 15.1361 18.6884 14.8568L19.2078 14.357L19.7419 14.8029C20.5504 15.4693 20.5014 15.4007 20.3299 15.5918C20.2515 15.68 20.6974 15.2488 21.3246 14.6265C21.9518 14.0091 22.4614 13.4799 22.4614 13.4505C22.4614 13.426 20.5455 11.4856 18.2033 9.13853L13.9403 4.87553L14.0579 4.53253C14.3029 3.82203 14.1853 2.88613 13.7688 2.23933C13.4356 1.71503 12.8084 1.26423 12.1861 1.10253C11.8137 1.00453 11.1424 1.01433 10.7749 1.12213Z" fill="#15C1C1"/>
<path d="M21.1875 7.49702V9.94702H23.0348H24.887L30.6788 15.7388L36.4755 21.5355L39.9104 18.1006L43.3404 14.6706L42.7034 14.1414C42.3506 13.8474 42.0615 13.5975 42.0615 13.5828C42.0615 13.5681 42.1203 13.4848 42.1938 13.4064C42.2673 13.3231 41.0129 14.5677 39.4008 16.17L36.4755 19.0855L33.7805 16.3905L31.0855 13.7004L33.5894 11.1867C34.9663 9.80982 36.0835 8.65832 36.0786 8.63382C36.0688 8.60442 35.7895 8.35942 35.4612 8.08502C35.128 7.81062 34.8585 7.57542 34.8585 7.55582C34.8585 7.54112 34.9173 7.45782 34.9908 7.37942C35.0643 7.29612 33.9422 8.40842 32.4918 9.84902L29.8605 12.4705L27.9985 10.6085L26.1365 8.74652V6.89922V5.04702H23.662H21.1875V7.49702Z" fill="#15C1C1"/>
<path d="M40.0003 22.0843V23.9365L37.8835 26.0533C35.7912 28.1456 35.7667 28.175 35.8598 28.2632C35.9529 28.3514 41.2449 32.7614 41.4458 32.9182C41.4997 32.9623 40.6275 32.0754 39.5103 30.9533L37.4768 28.91L39.3633 27.0235L41.2498 25.137H43.0726H44.9003V22.687V20.237H42.4503H40.0003V22.0843Z" fill="#15C1C1"/>
<path d="M26.8806 20.6143C26.7287 20.6339 26.7532 20.6633 27.7871 21.5208C28.3751 22.0108 28.9729 22.5106 29.115 22.6282L29.3698 22.8438V21.7119V20.58L28.2085 20.5898C27.5666 20.5898 26.9688 20.6045 26.8806 20.6143Z" fill="#15C1C1"/>
<path d="M41.5199 0.0440927C41.2553 0.127393 40.9907 0.293993 40.7898 0.514493C40.0009 1.37199 40.3782 2.78809 41.4905 3.13599C41.7796 3.22909 42.4264 3.17519 42.6861 3.04289C43.0046 2.88119 43.2643 2.61659 43.4162 2.31279C43.5338 2.06779 43.5534 1.97469 43.5534 1.59249C43.5534 1.22499 43.5338 1.11229 43.4309 0.906492C43.2594 0.553693 42.9164 0.230293 42.5832 0.102893C42.2941 -0.00490737 41.7747 -0.0294073 41.5199 0.0440927Z" fill="#15ECC1"/>
<path d="M35.9139 6.41901C35.3308 7.00701 34.8555 7.51171 34.8555 7.54111C34.8555 7.56561 35.1152 7.80081 35.4337 8.06541C35.7473 8.32511 36.0266 8.56031 36.0511 8.57991C36.0805 8.60931 36.0413 8.68771 35.958 8.78081C35.8796 8.86901 36.3647 8.39861 37.036 7.73221L38.261 6.51701L37.673 5.92901C37.3496 5.60561 37.0605 5.34101 37.0311 5.34101C37.0017 5.34101 36.5019 5.82611 35.9139 6.41901Z" fill="#15ECC1"/>
<path d="M45.5229 7.96251C45.0672 8.08991 44.7389 8.28591 44.3616 8.66811C43.9647 9.06991 43.7785 9.38841 43.6462 9.90781C43.5384 10.3145 43.5727 11.0397 43.7148 11.4415L43.8128 11.7306L42.9357 12.6273C42.4555 13.1222 42.0586 13.5436 42.0586 13.5681C42.0586 13.6024 42.7397 14.1904 43.2248 14.5726L43.3424 14.6657L44.1901 13.818L45.0378 12.9703L45.3465 13.0781C45.7434 13.2153 46.3657 13.2643 46.7724 13.1859C47.7524 12.9948 48.5903 12.2059 48.8402 11.2406C49.2077 9.81961 48.3502 8.33001 46.9537 7.96251C46.6254 7.87431 45.8414 7.87431 45.5229 7.96251Z" fill="#15ECC1"/>
<path d="M5.99609 26.2886V28.7631H8.44609H10.8961V28.1359L10.8912 27.5136L8.72049 25.7006L6.54489 23.8876L6.84869 23.8582C7.08389 23.8386 7.02999 23.8288 6.57429 23.8239L5.99609 23.8141V26.2886Z" fill="#156BEC"/>
<path d="M20.2263 33.271C23.4064 36.4511 26.0181 39.053 26.0328 39.053C26.0475 39.053 23.4554 36.4511 20.2753 33.271C17.0952 30.0909 14.4835 27.489 14.4688 27.489C14.4541 27.489 17.0462 30.0909 20.2263 33.271Z" fill="#156BEC"/>
<path d="M9.32656 32.5605L5.87206 36.015L5.57806 35.9072C5.22036 35.7798 4.47066 35.7357 4.06886 35.819C3.39756 35.9562 2.67726 36.4854 2.32936 37.0979C2.13826 37.436 1.97656 38.0387 1.97656 38.4111C1.98146 39.9056 3.18686 41.111 4.67156 41.111C5.82796 41.111 6.87656 40.3466 7.22446 39.2539C7.37636 38.7786 7.37146 38.0681 7.20976 37.6075L7.09216 37.2645L10.7672 33.565C12.7909 31.5315 14.3687 29.939 14.2707 30.0321L14.0894 30.1938L13.4475 29.6499C13.0898 29.351 12.7958 29.106 12.7909 29.106C12.786 29.106 11.2278 30.6593 9.32656 32.5605Z" fill="#156BEC"/>
<path d="M17.4338 32.8692L19.8348 35.28L16.2431 38.8717L12.6562 42.4585L13.2688 43.071L13.8813 43.6835L17.4729 40.0918L21.0598 36.505L22.9365 38.3817L24.8083 40.2535V42.1057V43.953H27.2583H29.7083V43.5904V43.2327L24.137 38.5826L18.5608 33.9374L16.7968 32.1979C15.4444 30.8602 15.5914 31.017 17.4338 32.8692Z" fill="#156BEC"/>
<path d="M8.76995 45.7954C8.75525 45.815 9.13255 46.1531 9.61765 46.5598C10.2742 47.1086 10.4996 47.3193 10.5192 47.4222C10.529 47.4957 10.5339 47.4418 10.5241 47.3095C10.5143 47.1723 10.4947 47.0155 10.48 46.9567C10.4016 46.599 10.0341 46.1482 9.68625 45.9718C9.39715 45.8297 8.84345 45.7219 8.76995 45.7954Z" fill="#156BEC"/>
<path d="M37.3516 47.0547C37.3516 47.0645 37.4251 47.1331 37.5133 47.2164L37.6701 47.3585L37.528 47.1968C37.3908 47.0498 37.3516 47.0155 37.3516 47.0547Z" fill="#156BEC"/>
<path d="M8.8528 48.9853C8.9263 48.9951 9.0341 48.9951 9.0978 48.9853C9.1566 48.9755 9.0978 48.9657 8.9606 48.9657C8.8283 48.9657 8.7744 48.9755 8.8528 48.9853Z" fill="#156BEC"/>
<path d="M2.10014 6.43374C1.61994 6.59544 1.30634 6.86494 1.10054 7.30104C0.929042 7.65874 0.919242 8.28594 1.07604 8.62894C1.45824 9.45214 2.39904 9.80494 3.22714 9.43744C3.58974 9.27574 3.81514 9.05034 3.99644 8.68774C4.28554 8.09974 4.19244 7.39414 3.76124 6.91394C3.46234 6.58074 3.09974 6.40924 2.64894 6.38964C2.44314 6.37984 2.21284 6.39944 2.10014 6.43374Z" fill="#1596EC"/>
<path d="M6.88686 12.3088L6.28906 12.9115L9.86606 16.4885L13.4382 20.0655L11.5713 21.9373L9.70926 23.814L8.44996 23.8189C7.75906 23.8238 7.04856 23.8385 6.87216 23.8581L6.54386 23.8875L8.70966 25.6956L10.8706 27.5037L10.8853 26.2836L10.8951 25.0635L14.624 21.3346L18.3529 17.6057L17.7012 17.0618L17.0495 16.5228L16.5791 16.954C16.3243 17.1941 15.7853 17.7184 15.3786 18.1251L14.6436 18.865L11.0666 15.288L7.48956 11.711L6.88686 12.3088Z" fill="#1596EC"/>
<path d="M21.5273 22.0745V23.569H23.0463H24.5653L24.5555 22.6233C24.5457 21.8197 24.5408 21.7609 24.5212 22.2117L24.4918 22.7458L23.2031 21.6629C21.9977 20.6486 21.9046 20.58 21.7233 20.58H21.5273V22.0745Z" fill="#1596EC"/>
<path d="M21.5273 26.901V28.42H23.0463H24.5653V26.901V25.382H23.0463H21.5273V26.901Z" fill="#1596EC"/>
<path d="M26.3789 26.901V28.42H27.8734H29.3679V27.6164V26.8128L28.5545 26.1317L27.746 25.4555L28.3732 25.431C28.8534 25.4065 28.6917 25.4016 27.6921 25.3918L26.3789 25.382V26.901Z" fill="#1596EC"/>
<path d="M13.5928 28.2975C13.1518 28.7385 12.799 29.1109 12.8088 29.1207C12.8235 29.1305 13.1175 29.3755 13.4654 29.6646L14.0926 30.1938L14.2592 30.0321L14.4258 29.8704L14.759 30.184C14.9403 30.3604 15.8468 31.2571 16.7778 32.1734L18.4683 33.8492L24.0053 38.465C27.0531 41.0081 29.5815 43.12 29.6305 43.1592C29.7089 43.2278 29.7138 43.1298 29.7138 41.1453V39.053H27.8616H26.0143L20.2323 33.271C17.0522 30.0909 14.4405 27.489 14.4258 27.489C14.4111 27.489 14.0387 27.8516 13.5928 28.2975Z" fill="#1596EC"/>
<path d="M31.2806 32.6585L28.4141 35.525L32.6918 39.8027L36.9695 44.0804L36.8666 44.3989C36.5383 45.3593 36.7735 46.403 37.4889 47.1429C38.9246 48.6325 41.3893 48.0151 41.9822 46.0159C42.0802 45.6778 42.0851 44.9477 41.9871 44.5753C41.6539 43.2866 40.3799 42.4487 39.0422 42.6349C38.8364 42.6643 38.562 42.728 38.4346 42.777L38.2043 42.8652L34.5342 39.1951L30.8641 35.525L32.6526 33.7267C33.6375 32.732 34.5489 31.8108 34.6763 31.6785L34.9066 31.4286L34.2647 30.8994L33.6228 30.3653L33.907 30.0811C34.0638 29.9194 34.1814 29.792 34.1716 29.792C34.1569 29.792 32.8584 31.0807 31.2806 32.6585Z" fill="#1596EC"/>
<path d="M46.8125 41.4247C46.8125 41.508 46.9987 41.8608 47.131 42.0176C47.2927 42.2234 47.6308 42.4831 47.7533 42.5027C47.7876 42.5076 47.8415 42.5272 47.8758 42.5468C47.9101 42.5664 48.0718 42.5909 48.2433 42.6007C48.4148 42.6105 48.4834 42.6105 48.4001 42.5958C48.2923 42.5811 48.0326 42.3998 47.5475 41.9882C46.8811 41.4345 46.8125 41.3806 46.8125 41.4247Z" fill="#1596EC"/>
</g>
<defs>
<clipPath id="clip0_136_1018">
<rect width="49" height="49" fill="white" transform="translate(0.949219)"/>
</clipPath>
</defs>
</svg>
