<svg width="52" height="51" viewBox="0 0 52 51" fill="none" xmlns="http://www.w3.org/2000/svg">
<g clip-path="url(#clip0_136_1183)">
<path d="M20.0747 0.510021C16.1541 1.5619 11.1816 4.43064 8.28094 7.33127C5.34844 10.2956 2.47969 15.2681 1.42781 19.2844C0.758437 21.8663 0.758437 29.1338 1.42781 31.7156C2.47969 35.7319 5.34844 40.7044 8.28094 43.6688C11.2453 46.6013 16.2178 49.47 20.2341 50.5219C22.8159 51.1913 30.0834 51.1913 32.6653 50.5219C36.6816 49.47 41.6541 46.6013 44.6184 43.6688C47.5509 40.7044 50.4197 35.7319 51.4716 31.7156C52.1409 29.1338 52.1409 21.8663 51.4716 19.2844C50.4197 15.2681 47.5509 10.2956 44.6184 7.33127C41.6541 4.39877 36.6816 1.53002 32.6653 0.478146C30.1791 -0.159355 22.5291 -0.159355 20.0747 0.510021ZM32.3466 1.75315C39.3591 3.66565 45.3197 8.51065 48.3159 14.8219C50.0372 18.4238 50.6747 20.7506 50.8978 24.3844C51.1209 28.05 50.4516 31.5244 48.7941 35.4131C47.3597 38.6963 45.6703 41.0231 42.7697 43.6688C40.2834 45.9638 38.5941 46.6331 34.0359 47.2069C29.2866 47.7806 24.7603 47.1431 21.0628 45.4219C17.8116 43.8919 17.0147 43.0631 19.7878 44.115C22.3059 45.0394 25.8122 45.3581 29.1909 44.9756C34.5459 44.3381 39.8691 40.8319 43.0884 35.7956C44.1403 34.17 45.8934 29.6119 45.8934 28.4963C45.8934 27.8269 45.8297 27.8269 42.6741 28.9106C39.7097 29.9306 39.4228 29.9625 38.7216 29.5163C38.3391 29.2613 36.2991 27.1575 34.2591 24.8625C31.0397 21.2925 30.4022 20.7188 29.5734 20.7188C28.2984 20.7188 26.9597 21.7388 25.9397 23.46C24.6328 25.6913 23.1666 26.1375 22.0191 24.6713C21.1266 23.5238 21.1903 22.8863 22.3059 20.655C22.8478 19.6031 23.1347 18.8381 22.9434 18.9656C22.4972 19.2525 20.7122 22.8225 20.7122 23.4281C20.7122 23.715 21.1266 24.3844 21.6366 24.8944C23.2303 26.4563 24.8878 26.01 26.2266 23.5556C27.1828 21.93 28.5534 20.9419 29.7328 21.1013C30.3066 21.1969 35.2153 26.265 37.4466 29.1656C38.9447 31.11 38.6578 32.8313 36.8091 32.8313C36.2353 32.8313 36.0759 32.9588 36.2034 33.3094C36.5222 34.1381 36.0441 35.3813 35.2791 35.6681C34.8966 35.8275 34.1953 35.8275 33.7172 35.6681C32.9841 35.4769 32.8247 35.5088 32.8247 36.0188C32.8247 36.9113 31.9003 37.6444 30.9441 37.5488C30.3066 37.485 30.0197 37.6444 29.6372 38.4094C29.0953 39.525 28.3622 39.7481 27.0553 39.2063C26.2903 38.8875 26.1628 38.6644 26.3222 38.0588C26.5772 37.0706 25.6847 35.7 24.8559 35.7C24.4416 35.7 24.2184 35.4769 24.2184 35.1263C24.2184 34.2975 23.3259 33.15 22.6566 33.15C22.2741 33.15 22.0191 32.8313 21.8916 32.2256C21.6366 30.9506 20.8397 30.2813 19.5647 30.2813C18.8316 30.2813 18.4809 30.1219 18.4809 29.8031C18.4809 29.5481 18.1303 29.1019 17.6841 28.815C16.7278 28.2094 15.7397 28.3688 14.0822 29.4844C12.8072 30.3131 13.0303 30.345 7.73906 29.1019C7.06969 28.9425 7.03781 29.0063 7.19719 29.9944C8.37656 36.1781 14.3372 42.9994 21.1266 45.9C26.1628 48.0356 30.6891 48.6094 35.1834 47.6531C36.3947 47.3981 37.4466 47.2388 37.5103 47.3025C37.5741 47.3663 36.5859 47.8444 35.3109 48.3863C28.2984 51.255 21.5728 50.8088 14.2734 46.9519C11.1178 45.2944 6.65531 40.8638 5.06156 37.7719C2.32031 32.5444 1.33219 27.795 1.93781 22.9819C2.63906 17.2763 4.87031 12.6544 8.85469 8.63815C12.6478 4.81314 13.6359 4.20752 17.0784 3.63377C20.7122 3.06002 22.7522 3.06002 26.2903 3.69752C29.0316 4.17564 32.6972 5.6419 35.2153 7.33127C37.0322 8.51065 37.4466 8.63815 36.3309 7.61814C34.9603 6.37502 30.1153 4.01627 27.5653 3.3469C26.3541 3.06002 24.1866 2.86877 21.5091 2.83689H17.3653L19.1184 2.19939C20.0747 1.84877 21.6047 1.43439 22.4653 1.27502C24.6647 0.892521 30.0516 1.14752 32.3466 1.75315ZM17.7159 29.4844C18.0028 29.9306 18.1622 30.4725 18.0666 30.7275C17.9072 31.11 18.0347 31.1419 18.6722 30.9188C19.8197 30.4725 20.2659 30.5363 20.8716 31.1419C21.2541 31.4925 21.3497 31.9706 21.2541 32.6719C21.0947 33.6281 21.1266 33.66 21.9872 33.5325C22.6884 33.4369 23.0072 33.5963 23.4216 34.2338C23.7403 34.68 23.8997 35.2856 23.7722 35.5406C23.6447 35.8913 23.8041 36.0188 24.3778 36.0188C25.2703 36.0188 26.1309 36.7838 26.1309 37.6125C26.1309 37.9313 25.7484 38.6325 25.3022 39.1744C24.0591 40.6406 21.9872 40.4175 21.9872 38.8238C21.9872 38.4094 21.7322 38.25 21.0628 38.25C19.9791 38.25 19.1184 37.5169 19.1184 36.6244C19.1184 36.1144 18.9591 36.0506 18.3534 36.21C17.3972 36.4331 15.9309 35.1581 15.9309 34.1063C15.9309 33.6281 15.7397 33.4688 15.1341 33.4688C14.6559 33.4688 14.1459 33.1819 13.8272 32.6719C13.3809 31.9706 13.3491 31.7156 13.7316 30.8869C14.1459 29.835 15.6759 28.6875 16.6322 28.6875C16.9509 28.6875 17.4291 29.0381 17.7159 29.4844Z" fill="black"/>
<path d="M22.1478 6.40691C18.0041 7.10816 12.4897 10.9969 9.84406 15.1407L8.63281 17.0532L10.9278 17.7863C12.2028 18.1688 13.5097 18.4238 13.8603 18.36C14.2109 18.2963 16.1553 17.6588 18.1634 16.9257C22.1797 15.4913 25.0484 15.1725 25.8134 16.0969C26.2916 16.6707 26.3553 16.575 24.6341 17.5313C23.8691 17.9457 23.3272 18.3282 23.3909 18.3919C23.4547 18.4557 24.9209 17.7544 26.6422 16.8619C30.4672 14.8538 31.7422 14.7582 34.0372 16.1925C35.7266 17.2763 37.7666 18.1688 38.4997 18.1688C38.7866 18.1688 40.1253 17.8819 41.4641 17.4994L43.9503 16.83L42.9622 15.045C41.6234 12.6225 37.9897 8.51066 37.3841 8.73378C37.1291 8.82941 35.8541 8.41503 34.5472 7.77753C31.2003 6.18378 26.5784 5.64191 22.1478 6.40691Z" fill="black"/>
<path d="M22.1812 1.75311C20.9699 2.00811 19.9181 2.29498 19.8224 2.39061C19.7268 2.48624 20.7787 2.54998 22.1812 2.54998C23.5518 2.58186 25.2731 2.70936 25.9743 2.83686C26.6756 2.99623 27.9824 3.28311 28.8431 3.44249C30.6599 3.82499 32.6999 4.78123 34.6443 6.08811C35.3774 6.59811 36.1106 7.01249 36.2381 7.01249C36.7162 7.01249 41.7524 12.1125 41.7524 12.5587C41.7524 12.8137 41.9756 13.1644 42.2624 13.4194C42.5174 13.6425 43.0912 14.5031 43.5374 15.3319L44.3024 16.83L41.8162 17.6587C40.4774 18.105 38.9793 18.4875 38.5331 18.4875C38.0549 18.4875 36.3974 17.85 34.8037 17.0531C33.2099 16.2562 31.4887 15.6187 30.9468 15.6187C29.5443 15.6187 24.7631 17.9775 23.7431 19.1887C23.2968 19.7306 22.5637 20.8781 22.1174 21.7387C21.3843 23.205 21.3524 23.3644 21.7987 24.0656C22.9143 25.755 24.3806 25.3406 25.8468 22.9181C26.9306 21.1969 28.1099 20.4 29.6399 20.4C30.5962 20.4 32.1581 21.8025 35.4412 25.6594C37.6724 28.2731 38.8518 29.325 39.5849 29.325C39.9674 29.325 41.5612 28.8787 43.1231 28.3369C44.6531 27.7631 45.9918 27.4125 46.0874 27.5081C46.3743 27.795 44.9718 33.0862 44.1749 34.6481C40.9874 40.8319 34.9631 44.8162 27.8549 45.4537C25.8149 45.6131 22.6912 45.2944 21.1931 44.7525C20.7468 44.5931 20.6512 44.625 20.8743 44.8481C21.5118 45.5175 25.8149 46.8244 28.3649 47.1431C32.5406 47.685 37.6724 46.7287 40.9556 44.7844C44.2387 42.8719 47.6174 38.0906 49.3068 32.9906C50.3906 29.7394 50.4543 29.1975 50.4543 25.6594C50.4543 20.1131 49.1793 16.0331 46.0237 11.6344C43.8243 8.54248 40.3181 5.51436 37.1306 3.88873C33.0506 1.84874 26.3568 0.892487 22.1812 1.75311Z" fill="#F2AE01"/>
<path d="M15.932 29.2294C15.0077 29.58 14.0195 30.7275 14.0195 31.4606C14.0195 32.8631 14.6252 33.5644 15.6452 33.3412C16.4739 33.1819 16.5695 33.2456 16.5695 34.0425C16.5695 35.2219 17.1114 35.7 18.3864 35.7C19.2789 35.7 19.4383 35.7956 19.4383 36.4969C19.4383 37.3894 20.4583 38.0906 21.3827 37.8356C21.8289 37.7081 21.9883 37.8356 21.9883 38.3775C21.9883 39.3019 22.562 39.8438 23.6139 39.8438C24.4427 39.8438 25.112 39.1744 25.5902 37.8675C25.877 37.0706 24.9527 36.2419 23.9964 36.4969C23.2952 36.6562 23.2633 36.5925 23.327 35.6044C23.4227 34.0744 23.072 33.6919 21.7652 33.8831C20.777 34.0425 20.7133 34.0106 20.9045 33.3731C21.2233 32.385 21.1277 31.4925 20.6495 31.2056C20.012 30.7913 19.0239 30.8869 18.227 31.3969C17.5577 31.9069 17.5258 31.875 17.7489 30.8869C17.9083 30.09 17.8127 29.7712 17.3664 29.4206C16.7289 28.9744 16.6652 28.9744 15.932 29.2294Z" fill="#F2AE01"/>
<path d="M18.1635 3.53813C14.3385 4.2075 12.1072 5.45063 9.0791 8.67C5.85972 12.0169 4.6166 14.0888 3.3416 18.1369C2.22597 21.6431 1.84347 25.1175 2.22597 28.1138C3.43722 37.8037 9.7166 45.6769 18.4503 48.4819C24.2197 50.3306 28.3316 50.3625 34.0372 48.5775C36.9378 47.685 37.3203 47.3981 35.0572 47.8125C31.1685 48.5775 24.156 47.7487 20.841 46.155C16.4422 44.0194 13.4778 41.565 10.4497 37.4531C8.9516 35.445 8.37785 34.2656 7.58097 31.8112C7.0391 30.09 6.6566 28.5919 6.75222 28.5281C6.81597 28.4325 8.02722 28.7194 9.42972 29.1656C12.4897 30.1219 13.1272 30.1537 13.8285 29.3569C15.2628 27.795 17.4622 27.7313 18.4185 29.2612C18.801 29.8669 19.1835 30.09 19.6616 30.0263C20.5222 29.8988 21.9885 31.2375 21.9885 32.1938C21.9885 32.6081 22.2116 32.8312 22.5622 32.8312C23.3591 32.8312 24.2197 33.8194 24.2197 34.68C24.2197 35.1581 24.411 35.3813 24.8572 35.3813C25.8772 35.3813 26.8335 36.5606 26.706 37.6444C26.6103 38.6962 27.1203 39.2062 28.2678 39.2062C29.0966 39.2062 29.7341 38.2181 29.4153 37.4531C29.2241 36.9113 29.511 36.9113 31.1047 37.5169C31.7103 37.74 32.5072 36.6881 32.5072 35.6681C32.5072 34.8075 32.571 34.7438 33.1447 35.0625C34.0372 35.5406 35.4078 35.3494 35.8222 34.68C36.0772 34.2656 36.0453 33.8512 35.7903 33.15C35.4078 32.1619 35.4078 32.1619 36.3641 32.3531C37.5116 32.6081 38.2447 32.0981 38.2447 31.0781C38.2447 30.09 30.4991 21.3563 29.6385 21.3563C28.4591 21.3563 27.5028 22.0894 26.5785 23.6513C25.0803 26.2331 23.2635 26.8069 21.6378 25.2131C20.4266 24.0019 20.4585 23.0138 21.7653 20.4C22.5941 18.8063 23.1041 18.1688 24.2197 17.5312C25.0166 17.0531 25.6541 16.5431 25.6541 16.3838C25.6541 15.9056 22.9447 15.8419 20.8728 16.2881C19.821 16.4794 17.781 17.1806 16.3147 17.7863L13.6691 18.9338L10.9916 18.0413L8.28222 17.1806L8.79222 16.1606C10.0035 13.8338 13.7328 10.0406 16.6016 8.22375C17.0478 7.93688 18.6097 7.33125 20.1078 6.82125C22.371 6.05625 23.3272 5.92875 26.2916 5.92875C28.8097 5.92875 30.276 6.08813 31.551 6.5025C34.5791 7.49063 35.0572 7.61813 35.0572 7.45875C35.0572 7.10813 29.0647 4.49438 27.216 4.01625C24.7297 3.37875 20.3947 3.12375 18.1635 3.53813Z" fill="white"/>
</g>
<defs>
<clipPath id="clip0_136_1183">
<rect width="51" height="51" fill="white" transform="translate(0.949219)"/>
</clipPath>
</defs>
</svg>
